<?xml version="1.0" encoding="utf-8"?>
<!-- Generator: Adobe Illustrator 21.1.0, SVG Export Plug-In . SVG Version: 6.00 Build 0)  -->
<svg version="1.1" id="Bank-72x72_1_" xmlns="http://www.w3.org/2000/svg" xmlns:xlink="http://www.w3.org/1999/xlink" x="0px"
	 y="0px" viewBox="0 0 72 72" style="enable-background:new 0 0 72 72;" xml:space="preserve">
<style type="text/css">
	.st0{fill:#FFEEDF;}
	.st1{fill:#FFC865;}
	.st2{fill:#FFF3D8;}
	.st3{fill:#DD7300;}
	.st4{fill:#FF8C00;}
	.st5{fill:#FFE3B1;}
</style>
<g id="Bank-72x72">
	<circle id="Oval-Copy-10" class="st0" cx="36" cy="36" r="36"/>
	<g id="Group-2-Copy-3" transform="translate(14.000000, 15.000000)">
		<g id="Group-49-Copy" transform="translate(4.714286, 17.160000)">
			<rect id="Rectangle-Copy-114" x="0" y="0" class="st1" width="34.6" height="17.2"/>
			<path id="Rectangle-Copy-121" class="st2" d="M27.5,3.1L27.5,3.1c1.3,0,2.4,1.1,2.4,2.4v11.7h-4.7V5.5
				C25.1,4.2,26.2,3.1,27.5,3.1z"/>
			<path id="Rectangle-Copy-122" class="st3" d="M17.3,3.1L17.3,3.1c1.7,0,3.1,1.4,3.1,3.1v10.9h-6.3V6.3
				C14.1,4.5,15.5,3.1,17.3,3.1z"/>
			<path id="Rectangle-Copy-123" class="st2" d="M7.1,3.1L7.1,3.1c1.3,0,2.4,1.1,2.4,2.4v11.7H4.7V5.5C4.7,4.2,5.8,3.1,7.1,3.1z"/>
		</g>
		<path id="Rectangle" class="st4" d="M1.7,10.1l17.5-8.7c1.8-0.9,3.8-0.9,5.6,0l17.5,8.7c1.1,0.5,1.7,1.6,1.7,2.8v1.1
			c0,1.7-1.4,3.1-3.1,3.1H3.1c-1.7,0-3.1-1.4-3.1-3.1v-1.1C0,11.8,0.7,10.7,1.7,10.1z"/>
		<path id="Rectangle_1_" class="st3" d="M3.9,34.3h36.2c1.3,0,2.3,1,2.3,2.3l0,0c0,1.3-1,2.3-2.3,2.3H3.9c-1.3,0-2.3-1-2.3-2.3l0,0
			C1.6,35.4,2.6,34.3,3.9,34.3z"/>
		<ellipse id="Oval-Copy-68" class="st5" cx="22" cy="9.4" rx="3.1" ry="3.1"/>
	</g>
</g>
</svg>
