<?xml version="1.0" encoding="utf-8"?>
<!-- Generator: Adobe Illustrator 21.1.0, SVG Export Plug-In . SVG Version: 6.00 Build 0)  -->
<svg version="1.1" id="Сharity-72x72_1_" xmlns="http://www.w3.org/2000/svg" xmlns:xlink="http://www.w3.org/1999/xlink" x="0px"
	 y="0px" viewBox="0 0 72 72" style="enable-background:new 0 0 72 72;" xml:space="preserve">
<style type="text/css">
	.st0{fill:#FFEAEB;}
	.st1{fill:url(#Combined-Shape-Copy-4_1_);}
	.st2{opacity:0.674;fill:#FFF6F6;enable-background:new    ;}
</style>
<g id="Сharity-72x72">
	<circle id="Oval-Copy-23" class="st0" cx="36" cy="36" r="36"/>
	<g id="Group-2-Copy-2" transform="translate(16.000000, 20.000000)">
		
			<linearGradient id="Combined-Shape-Copy-4_1_" gradientUnits="userSpaceOnUse" x1="-645.7395" y1="391.8394" x2="-645.7395" y2="382.5363" gradientTransform="matrix(40.9886 0 0 -34.7007 26488.4707 13567.9727)">
			<stop  offset="0" style="stop-color:#FF5959"/>
			<stop  offset="1" style="stop-color:#67269F"/>
		</linearGradient>
		<path id="Combined-Shape-Copy-4" class="st1" d="M20.5,5.1l1.9-1.9c4.2-4.2,11.1-4.3,15.4,0c0,0,0,0,0,0c4.3,4.3,4.3,11.2,0,15.4
			l-1.9,1.9L22.7,33.8c-1.2,1.2-3.2,1.2-4.4,0c0,0,0,0,0,0L3.2,18.6c-4.3-4.3-4.3-11.2,0-15.4c4.2-4.2,11.1-4.3,15.4,0c0,0,0,0,0,0
			L20.5,5.1z"/>
		<ellipse id="Oval-Copy-74" class="st2" cx="30" cy="11" rx="3.2" ry="3.1"/>
	</g>
</g>
</svg>
