<?xml version="1.0" encoding="utf-8"?>
<!-- Generator: Adobe Illustrator 22.0.0, SVG Export Plug-In . SVG Version: 6.00 Build 0)  -->
<svg version="1.1" id="Internet-72x72_1_" xmlns="http://www.w3.org/2000/svg" xmlns:xlink="http://www.w3.org/1999/xlink" x="0px"
	 y="0px" viewBox="0 0 72 72" style="enable-background:new 0 0 72 72;" xml:space="preserve">
<style type="text/css">
	.st0{fill:#DAEAFF;}
	.st1{fill:#48BBEE;}
	.st2{fill:#0E94D7;}
	.st3{fill:#00E389;}
	.st4{fill:#00BBBB;}
	.st5{fill:#FFEDB9;}
	.st6{fill:#FFD586;}
</style>
<g id="Internet-72x72">
	<circle id="Oval-Copy-22" class="st0" cx="36" cy="36" r="36"/>
</g>
<g>
	<path class="st1" d="M41.2,12.5c0.2,0,0.3,0.1,0.5,0.1C41.5,12.6,41.4,12.6,41.2,12.5z"/>
	<path class="st1" d="M40.7,12.4c0.1,0,0.2,0,0.3,0.1C40.8,12.5,40.8,12.4,40.7,12.4z"/>
	<path class="st1" d="M41.9,12.7c0.1,0,0.2,0.1,0.3,0.1C42.1,12.7,42,12.7,41.9,12.7z"/>
	<path class="st1" d="M42.3,12.8c0.4,0.1,0.8,0.2,1.1,0.3C43.1,13,42.7,12.9,42.3,12.8z"/>
	<path class="st1" d="M36.6,12c0.1,0,0.1,0,0.2,0C36.7,12,36.6,12,36.6,12z"/>
	<path class="st1" d="M43.5,13.2c0.1,0,0.3,0.1,0.4,0.1C43.8,13.3,43.6,13.2,43.5,13.2z"/>
	<path class="st1" d="M37.1,12c0.1,0,0.1,0,0.2,0C37.2,12,37.2,12,37.1,12z"/>
	<path class="st1" d="M37.8,12C37.9,12,37.9,12,37.8,12C37.9,12,37.9,12,37.8,12z"/>
	<path class="st1" d="M39.6,12.2c0.1,0,0.1,0,0.2,0C39.8,12.3,39.7,12.2,39.6,12.2z"/>
	<path class="st1" d="M32.6,30.8c0.9,0,1.7,0.3,2.4,0.7l2.1,1.4c0.4,0.3,0.9,0.3,1.4,0.2l3.7-1.2l0.6-0.6c0.4-0.3,0.6-0.8,0.6-1.3
		c0-0.4-0.2-0.8-0.4-1.2l-3.9,1.2c-0.1,0-0.3,0-0.4-0.1L36,27.4c-0.2-0.2-0.4-0.1-0.4-0.1c-0.1,0-0.2,0.1-0.2,0.4l0.2,1.8
		c0,0.2-0.1,0.3-0.2,0.4c-0.1,0.1-0.3,0.1-0.5-0.1l-2.2-1.9c-0.7-0.4-1.7-0.3-2.3,0.3L29.8,30c-0.1,0.3-0.3,0.5-0.5,0.7l-1.1,0.8
		l3.7-0.7C32.1,30.8,32.4,30.8,32.6,30.8z"/>
	<path class="st1" d="M43.9,13.3c1.9,0.7,3.7,1.6,5.4,2.7c0,0,0,0,0,0c1.7,1.1,3.2,2.4,4.5,3.9l0,0c0.7,0.8,1.4,1.7,2,2.6
		c0,0,0,0.1,0.1,0.1c0.2,0.4,0.5,0.7,0.7,1.1c0,0.1,0.1,0.1,0.1,0.2c0.2,0.3,0.3,0.6,0.5,0.9l0,0c1.3,2.5,2.3,5.4,2.6,8.4
		c-0.1,0-0.1,0-0.2,0L52,30.7l0.4,1.6c0.1,0.3,0.3,0.6,0.6,0.8c0.3,0.2,0.6,0.2,1,0.1l0.9-0.3c0.1,0,0.3,0,0.4,0.1
		c0.1,0.1,0.2,0.2,0.2,0.3v2.2v0c0,0.9-0.4,1.7-1.1,2.3l-2.3,1.8c-0.4,0.3-0.9,0.2-1.1-0.1L47,34.4c-0.4-0.5-0.9-0.9-1.6-1.1
		L44,32.8l6.1,7.9c0.5,0.5,1.2,0.7,2,0.6l1.1-0.1c0.1,0,0.2,0,0.3,0.1c0.1,0.1,0.1,0.2,0.1,0.3l-0.5,2.6c0,0.1-0.1,0.2-0.1,0.2
		l-4.7,4.4l-3.5,8.9c0,0.1-0.1,0.2-0.3,0.2c-0.4,0.1-0.9,0.2-1.3,0.2c-0.8,0-1.6-0.2-2.4-0.6c-1.1-0.6-1.9-1.7-2.3-2.9
		c-0.3-1-0.4-1.6-0.4-2v-3.3l-0.5-0.2c-1.2-0.5-2.3-1.3-3.2-2.3l-1.2-1.5l-5.3,1c-0.2,0-0.5,0.1-0.7,0.1c1.5,5.7,5.1,10.5,9.9,13.7
		c-0.4,0-0.7,0-1.1,0c13.3,0,24-10.8,24-24C60,25.5,53.3,16.6,43.9,13.3z"/>
	<path class="st1" d="M38.4,12.1c0.1,0,0.1,0,0.2,0C38.5,12.1,38.4,12.1,38.4,12.1z"/>
	<path class="st1" d="M38.9,12.1c0.1,0,0.1,0,0.2,0C39.1,12.2,39,12.2,38.9,12.1z"/>
	<path class="st1" d="M43.2,27l1.2-0.9c0.1,0,0.1-0.1,0.1-0.1l0,0c0.2-0.3,0.2-0.7,0-1c-0.3-0.4-0.8-0.4-1.1-0.2l-1,0.8h-2
		c-0.4,0-0.8,0.4-0.8,0.8c0,0.4,0.4,0.8,0.8,0.8h0.4h1.8C42.9,27.2,43,27.1,43.2,27z"/>
	<path class="st1" d="M40.1,12.3c0.1,0,0.2,0,0.2,0C40.3,12.4,40.2,12.3,40.1,12.3z"/>
	<path class="st1" d="M47.5,26.2c0.2,0,0.3-0.1,0.5-0.2c0,0,0,0,0.1,0c0.1-0.1,0.2-0.3,0.2-0.4l0,0c0-0.2,0-0.4-0.1-0.6l-2.1-2.8
		c-0.3-0.4-0.8-0.4-1.1-0.2c-0.4,0.3-0.4,0.8-0.2,1.1l2.1,2.8C47,26.1,47.3,26.2,47.5,26.2z"/>
	<path class="st2" d="M27.2,46.3c-0.4,0-0.8-0.1-1.1-0.2c-0.4-0.2-0.8-0.4-1.2-0.7c0,0,0,0-0.1-0.1c0,0-0.1-0.1-0.1-0.1
		c0,0-0.1-0.1-0.1-0.1c0,0-0.1-0.1-0.1-0.1c0,0-0.1-0.1-0.1-0.1c0,0,0,0-0.1-0.1c-0.1-0.1-0.1-0.1-0.1-0.2l0,0v0l-0.6-0.9
		c-0.9-1.3-1.2-2.8-0.9-4.3c0,0,0,0,0-0.1c0,0,0,0,0-0.1c0,0,0-0.1,0-0.1c0,0,0,0,0,0c0.1-0.4,0.2-0.8,0.4-1.1
		c0.1-0.1,0.1-0.2,0.2-0.4c0,0,0,0,0,0l0,0l0,0l1.2-2.4l0-0.8c0-1.3,0.8-2.4,2-2.7l-1.1-0.3c-0.8-0.2-1.4-1-1.5-1.8l-0.1-1.1
		c-0.1-1.1,0.7-2,1.8-2.1l1.1-0.1v-1.9c0-0.1,0.1-0.2,0.2-0.3l3.2-2.4c0.2-0.2,0.4-0.4,0.5-0.6l0.5-1l-3.6,0.7c-0.1,0-0.2,0-0.3-0.1
		c-0.1-0.1-0.1-0.2-0.1-0.3v-1.1c0-1.1,0.5-2.1,1.3-2.8l5-4c0.1-0.1,0.3-0.1,0.5,0l3.5,2c0.1,0.1,0.2,0.1,0.3,0
		c0.1,0,0.2-0.1,0.2-0.2l1.3-2.2l0,0l0,0c3.6,0.5,7,1.8,9.9,3.8c0,0,0,0,0,0c-1.7-1.1-3.5-2-5.4-2.7c0,0,0,0,0,0
		c-0.1,0-0.3-0.1-0.4-0.1c0,0,0,0-0.1,0c-0.4-0.1-0.7-0.2-1.1-0.3c-0.1,0-0.1,0-0.2,0c-0.1,0-0.2-0.1-0.3-0.1c-0.1,0-0.1,0-0.2,0
		c-0.2,0-0.3-0.1-0.5-0.1c-0.1,0-0.2,0-0.3-0.1c-0.1,0-0.2,0-0.3-0.1c-0.1,0-0.2,0-0.3-0.1c-0.1,0-0.2,0-0.2,0c-0.1,0-0.2,0-0.3-0.1
		c-0.1,0-0.1,0-0.2,0c-0.2,0-0.3,0-0.5-0.1c-0.1,0-0.1,0-0.2,0c-0.1,0-0.2,0-0.4,0c-0.1,0-0.1,0-0.2,0c-0.2,0-0.3,0-0.5,0
		c0,0-0.1,0-0.1,0c-0.2,0-0.4,0-0.5,0c-0.1,0-0.1,0-0.2,0c-0.1,0-0.3,0-0.4,0c-0.1,0-0.1,0-0.2,0c-0.2,0-0.4,0-0.6,0
		c-13.3,0-24,10.8-24,24s10.8,24,24,24c0.4,0,0.7,0,1.1,0C32.3,56.8,28.8,52,27.2,46.3z M23.3,20.8c0.2-0.4,0.7-0.5,1.1-0.3l1.3,0.8
		c0.3,0.2,0.4,0.5,0.4,0.9l-0.6,2.6c-0.1,0.4-0.4,0.6-0.8,0.6c-0.1,0-0.1,0-0.2,0c-0.4-0.1-0.7-0.5-0.6-1l0.4-2l-0.8-0.5
		C23.2,21.6,23.1,21.2,23.3,20.8z"/>
	<path class="st3" d="M48.1,26C48,26,48,26.1,48.1,26C48,26.1,48,26,48.1,26z"/>
	<path class="st3" d="M37.1,32.9l0.7,0.4l0.7-0.2C38,33.2,37.5,33.1,37.1,32.9z"/>
	<path class="st3" d="M42.7,27.2L42.7,27.2c0.2,0,0.3-0.1,0.5-0.2l1.2-0.9L43.2,27C43,27.1,42.9,27.2,42.7,27.2z"/>
	<path class="st3" d="M56.4,30.3l0.5,1.9l-5-1.6l7.7,2.5c0.1,0,0.1,0,0.2,0c-0.4-3-1.3-5.8-2.6-8.4l-0.8,2.5
		C56.2,28.3,56.2,29.3,56.4,30.3z"/>
	<path class="st3" d="M45,40.9L45,41c-0.6,0.9-1.6,1.4-2.7,1.4h-9.4c-1.1,0-2.1,0.5-2.7,1.4l-1.5,2.3l-0.8,0.1
		c-0.6,0.1-1.3,0.1-1.8-0.2c0.4,0.1,0.8,0.2,1.1,0.2c0.2,0,0.5,0,0.7-0.1l5.3-1l1.2,1.5c0.8,1,1.9,1.8,3.2,2.3l0.5,0.2v3.3
		c0,0.4,0.1,1,0.4,2c0.3,1.2,1.1,2.3,2.3,2.9c0.7,0.4,1.5,0.6,2.4,0.6c0.4,0,0.9-0.1,1.3-0.2c0.1,0,0.2-0.1,0.3-0.2l3.5-8.9l4.7-4.4
		c0.1-0.1,0.1-0.1,0.1-0.2l0.5-2.6c0-0.1,0-0.2-0.1-0.3c-0.1-0.1-0.2-0.1-0.3-0.1l-1.1,0.1c-0.7,0.1-1.4-0.2-2-0.6l-3.5-0.5
		C46,40.1,45.4,40.3,45,40.9z"/>
	<path class="st3" d="M56.6,23.7c0,0.1,0.1,0.1,0.1,0.2C56.7,23.8,56.7,23.8,56.6,23.7z"/>
	<path class="st3" d="M55.9,22.5C55.9,22.5,55.9,22.6,55.9,22.5C55.9,22.6,55.9,22.5,55.9,22.5z"/>
	<path class="st3" d="M39.4,12.2C39.4,12.2,39.4,12.2,39.4,12.2c1.4,0.2,2.6,0.5,3.9,0.9c0.1,0,0.2,0.1,0.3,0.1
		c0.5,0.2,1,0.3,1.5,0.5c0.2,0.1,0.3,0.1,0.5,0.2c0.4,0.2,0.8,0.4,1.2,0.6c0.2,0.1,0.4,0.2,0.5,0.3c0.4,0.2,0.7,0.4,1.1,0.6
		c0.2,0.1,0.4,0.2,0.5,0.3c0.1,0.1,0.3,0.2,0.4,0.3c-9.8,0.5-18.1,6.8-21.4,15.5l0.2,0l1.1-0.8c0.2-0.2,0.4-0.4,0.5-0.7l0.7-1.8
		c0.6-0.6,1.5-0.7,2.3-0.3l2.2,1.9c0.1,0.1,0.3,0.1,0.5,0.1c0.1-0.1,0.2-0.2,0.2-0.4l-0.2-1.8c0-0.2,0.2-0.3,0.2-0.4
		c0.1,0,0.2-0.1,0.4,0.1l2.6,2.4c0.1,0.1,0.3,0.1,0.4,0.1l3.9-1.2l-2.2,0.6l-0.2-0.4c-0.4-0.6-0.2-1.4,0.3-1.9h-0.4
		c-0.4,0-0.8-0.4-0.8-0.8c0-0.4,0.4-0.8,0.8-0.8h2l1-0.8c0.4-0.3,0.9-0.2,1.1,0.2c0.2,0.3,0.2,0.7,0,1l1-0.3h1l0.2,0.3l-2.1-2.8
		c-0.3-0.4-0.2-0.9,0.2-1.1c0.4-0.3,0.9-0.2,1.1,0.2l2.1,2.8c0.1,0.2,0.2,0.4,0.1,0.6l1.6-0.4c0.8-0.2,1.5-0.8,2-1.6l2-3.7
		c-1.3-1.5-2.9-2.8-4.5-3.9C46.4,14,43,12.7,39.4,12.2L39.4,12.2z"/>
	<path class="st4" d="M23.6,21.9l0.8,0.5l-0.4,2c-0.1,0.4,0.2,0.9,0.6,1c0.1,0,0.1,0,0.2,0c0.4,0,0.7-0.3,0.8-0.6l0.6-2.6
		c0.1-0.3-0.1-0.7-0.4-0.9l-1.3-0.8c-0.4-0.2-0.9-0.1-1.1,0.3C23.1,21.2,23.2,21.6,23.6,21.9z"/>
	<path class="st4" d="M27.9,31.5c3.3-8.8,11.6-15.1,21.4-15.5c-0.1-0.1-0.3-0.2-0.4-0.3c-0.2-0.1-0.4-0.2-0.5-0.3
		c-0.4-0.2-0.7-0.4-1.1-0.6c-0.2-0.1-0.4-0.2-0.5-0.3c-0.4-0.2-0.8-0.4-1.2-0.6c-0.2-0.1-0.3-0.1-0.5-0.2c-0.5-0.2-1-0.4-1.5-0.5
		c-0.1,0-0.2-0.1-0.3-0.1c-1.2-0.4-2.5-0.7-3.8-0.9c0,0,0,0,0,0l0,0L38,14.4c-0.1,0.1-0.1,0.2-0.2,0.2c-0.1,0-0.2,0-0.3,0l-3.5-2
		c-0.1-0.1-0.3-0.1-0.5,0l-5,4c-0.9,0.7-1.3,1.7-1.3,2.8v1.1c0,0.1,0.1,0.2,0.1,0.3c0.1,0.1,0.2,0.1,0.3,0.1l3.6-0.7l-0.5,1
		c-0.1,0.2-0.3,0.4-0.5,0.6l-3.2,2.4c-0.1,0.1-0.2,0.2-0.2,0.3v1.9l-1.1,0.1c-1.1,0.1-1.8,1-1.8,2.1l0.1,1.1c0,0.9,0.6,1.6,1.5,1.8
		l1.1,0.3L27.9,31.5z"/>
	<path class="st4" d="M22.8,41.5c-0.1-0.7-0.1-1.3,0-2c-0.2,1.5,0.1,3,0.9,4.3c0-0.1-0.1-0.1-0.1-0.2C23.2,43,22.9,42.3,22.8,41.5z"
		/>
	<path class="st4" d="M22.8,39.4C22.8,39.4,22.8,39.4,22.8,39.4C22.8,39.4,22.8,39.4,22.8,39.4z"/>
	<path class="st4" d="M22.8,39.2C22.8,39.2,22.8,39.2,22.8,39.2C22.8,39.2,22.8,39.2,22.8,39.2z"/>
	<polygon class="st5" points="24.3,44.7 24.3,44.7 23.7,43.8 	"/>
	<path class="st5" d="M23.2,38.1c0.1-0.1,0.1-0.2,0.2-0.4C23.3,37.9,23.2,38,23.2,38.1z"/>
	<polygon class="st5" points="23.4,37.7 23.4,37.7 24.6,35.4 	"/>
	<path class="st5" d="M49.9,25.1l-1.6,0.4l0,0c0,0.2-0.1,0.3-0.2,0.4c0,0,0,0-0.1,0c-0.1,0.1-0.3,0.2-0.5,0.2
		c-0.2,0-0.5-0.1-0.6-0.3l-0.2-0.3h-1l-1,0.3l0,0c0,0-0.1,0.1-0.1,0.1L43.2,27c-0.1,0.1-0.3,0.2-0.5,0.2h0h-1.8
		c-0.5,0.5-0.6,1.3-0.3,1.9l0.2,0.4l2.2-0.6c0.3,0.3,0.4,0.7,0.4,1.2c0,0.5-0.2,1-0.6,1.3l-0.6,0.6L38.5,33l-0.7,0.2l-0.7-0.4
		l-2.1-1.4c-0.7-0.5-1.6-0.7-2.4-0.7c-0.3,0-0.5,0-0.8,0.1l-3.7,0.7l-0.2,0l-1.4,0.3l1.4-0.3c-1,2.6-1.5,5.5-1.5,8.5
		c0,2.2,0.3,4.3,0.8,6.3c-0.9,0-1.7-0.3-2.3-0.9c0.3,0.3,0.7,0.5,1.2,0.7c0.6,0.2,1.2,0.3,1.8,0.2l0.8-0.1l1.5-2.3
		c0.6-0.9,1.6-1.4,2.7-1.4h9.4c1.1,0,2.1-0.5,2.7-1.4l0.1-0.1c0.3-0.5,1-0.8,1.6-0.7l3.5,0.5L44,32.8l1.5,0.5
		c0.6,0.2,1.2,0.6,1.6,1.1l3.7,4.9c0.3,0.4,0.8,0.4,1.1,0.1l2.3-1.8c0.7-0.5,1.1-1.4,1.1-2.3v0v-2.2c0-0.1-0.1-0.2-0.2-0.3
		c-0.1-0.1-0.2-0.1-0.4-0.1l-0.9,0.3c-0.3,0.1-0.7,0.1-1-0.1c-0.3-0.2-0.5-0.4-0.6-0.8L52,30.7l5,1.6l-0.5-1.9c-0.3-1-0.3-2.1,0-3.1
		l0.8-2.5l0,0c-0.2-0.3-0.3-0.6-0.5-0.9c0-0.1-0.1-0.1-0.1-0.2c-0.2-0.4-0.5-0.7-0.7-1.1c0,0,0-0.1-0.1-0.1c-0.6-0.9-1.3-1.8-2-2.6
		l0,0l-2,3.7C51.5,24.4,50.7,24.9,49.9,25.1z"/>
	<path class="st5" d="M24.7,45.3C24.8,45.3,24.8,45.3,24.7,45.3C24.8,45.3,24.8,45.3,24.7,45.3z"/>
	<path class="st5" d="M24.4,44.9C24.4,44.9,24.5,45,24.4,44.9C24.5,45,24.4,44.9,24.4,44.9z"/>
	<path class="st5" d="M24.6,45.1C24.6,45.1,24.6,45.1,24.6,45.1C24.6,45.1,24.6,45.1,24.6,45.1z"/>
	<path class="st5" d="M22.8,41.5c0.1,0.8,0.4,1.5,0.8,2.2C23.2,43,22.9,42.3,22.8,41.5z"/>
	<path class="st6" d="M27.2,46.3c-0.5-2-0.8-4.1-0.8-6.3c0-3,0.6-5.8,1.5-8.5l-1.4,0.3c-1.2,0.4-2,1.5-2,2.7l0,0.8l-1.2,2.4l0,0
		c0,0,0,0,0,0c-0.1,0.1-0.1,0.2-0.2,0.4c-0.2,0.4-0.3,0.7-0.4,1.1c0,0,0,0,0,0c0,0,0,0.1,0,0.1c0,0,0,0,0,0.1c0,0,0,0,0,0.1
		c-0.1,0.7-0.1,1.3,0,2c0.1,0.8,0.4,1.5,0.8,2.2c0,0.1,0.1,0.1,0.1,0.2l0.6,0.9l0,0c0,0.1,0.1,0.1,0.1,0.2c0,0,0,0,0.1,0.1
		c0,0,0.1,0.1,0.1,0.1c0,0,0.1,0.1,0.1,0.1c0,0,0.1,0.1,0.1,0.1c0,0,0.1,0.1,0.1,0.1c0,0,0,0,0.1,0.1C25.5,46,26.4,46.3,27.2,46.3z"
		/>
</g>
</svg>
