<?xml version="1.0" encoding="utf-8"?>
<!-- Generator: Adobe Illustrator 22.0.0, SVG Export Plug-In . SVG Version: 6.00 Build 0)  -->
<svg version="1.1" id="Слой_1" xmlns="http://www.w3.org/2000/svg" xmlns:xlink="http://www.w3.org/1999/xlink" x="0px" y="0px"
	 viewBox="0 0 750 500" style="enable-background:new 0 0 750 500;" xml:space="preserve">
<style type="text/css">
	.st0{fill:url(#SVGID_1_);}
	.st1{fill:#FFB700;}
	.st2{fill:#FFDB82;}
	.st3{opacity:0.3;}
	.st4{fill:url(#SVGID_2_);}
	.st5{fill:#5F9E7A;}
	.st6{fill:#FFFFFF;}
	.st7{fill:#3A614B;}
	.st8{opacity:0.3;enable-background:new    ;}
	.st9{fill:#3C57AB;}
	.st10{fill:none;}
	.st11{fill:#595959;}
	.st12{clip-path:url(#SVGID_4_);fill:#FFFFFF;}
	.st13{clip-path:url(#SVGID_6_);fill:url(#SVGID_7_);}
	.st14{opacity:0.3;clip-path:url(#SVGID_9_);fill:url(#SVGID_10_);enable-background:new    ;}
	.st15{clip-path:url(#SVGID_12_);}
	.st16{fill:#6582DB;}
	.st17{opacity:0.3;clip-path:url(#SVGID_14_);fill:url(#SVGID_15_);enable-background:new    ;}
	.st18{opacity:0.4;clip-path:url(#SVGID_17_);enable-background:new    ;}
	.st19{opacity:0.4;clip-path:url(#SVGID_19_);enable-background:new    ;}
	.st20{clip-path:url(#SVGID_21_);}
	.st21{fill:#FF6344;}
	.st22{fill:#FF927D;}
	.st23{clip-path:url(#SVGID_23_);}
	.st24{clip-path:url(#SVGID_25_);}
	.st25{fill:#594000;}
	.st26{fill:#C48D00;}
	.st27{clip-path:url(#SVGID_27_);}
	.st28{fill:none;stroke:#7697FF;stroke-width:0.4074;stroke-miterlimit:10;}
	.st29{fill:#A1B8FF;}
	.st30{clip-path:url(#SVGID_29_);fill:#6582DB;}
	.st31{clip-path:url(#SVGID_31_);}
	.st32{fill:url(#SVGID_32_);}
	.st33{fill:#A33F2C;}
	.st34{fill:#333745;}
	.st35{fill:#C2C2C2;}
	.st36{fill:#52586E;}
	.st37{fill:#414657;}
	.st38{opacity:0.3;fill:url(#SVGID_33_);enable-background:new    ;}
	.st39{opacity:0.3;fill:url(#SVGID_34_);enable-background:new    ;}
	.st40{opacity:0.3;fill:url(#SVGID_35_);enable-background:new    ;}
	.st41{opacity:0.3;fill:url(#SVGID_36_);enable-background:new    ;}
	.st42{fill:none;stroke:#FFDB82;stroke-width:1.4491;stroke-miterlimit:10;}
	.st43{opacity:0.3;fill:url(#SVGID_37_);enable-background:new    ;}
	.st44{opacity:0.3;fill:url(#SVGID_38_);enable-background:new    ;}
	.st45{fill:none;stroke:#333745;stroke-width:0.942;stroke-miterlimit:10;}
	.st46{fill:#4B7D61;}
	.st47{opacity:0.3;fill:url(#SVGID_39_);enable-background:new    ;}
</style>
<g id="Слой_2_1_">
	
		<linearGradient id="SVGID_1_" gradientUnits="userSpaceOnUse" x1="816.7489" y1="316.0356" x2="570.8215" y2="312.9612" gradientTransform="matrix(1 0 0 -1 0 502)">
		<stop  offset="0" style="stop-color:#FFB700"/>
		<stop  offset="1" style="stop-color:#C48D00"/>
	</linearGradient>
	<path class="st0" d="M545.6-15.6l-182,408.5h294.2c27.8,0,53-16.4,64.4-41.8L885.5-15.6H545.6z"/>
	<path class="st1" d="M442.4-15.6L281.9,344.5c-10.1,22.8,6.5,48.4,31.4,48.4h286.9L782.3-15.6H442.4z"/>
	<path class="st2" d="M686.9,274.7h-5.7H675V269c0-5.2-4.7-9.5-10.4-9.5c-0.8,0-1.5,0.1-2.3,0.2c-0.1,0-0.2,0-0.3,0.1
		c-0.8-0.2-1.7-0.3-2.6-0.3c-5.7,0-10.4,4.3-10.4,9.5v5.7h-12.1l-4.3,68.1h58.7L686.9,274.7z M674,268.9v5.7h-4.2v-5.7
		c0-3.7-2.4-7-5.8-8.5c0.2,0,0.4,0,0.6,0C669.8,260.4,674,264.2,674,268.9z M660.7,261.1c0.4-0.2,0.9-0.3,1.3-0.4
		c4,1,6.9,4.3,6.9,8.2v5.7h-13.8v-5.7C655.1,265.5,657.4,262.5,660.7,261.1z M649.9,268.9c0-4.7,4.2-8.5,9.5-8.5c0.2,0,0.4,0,0.6,0
		l0,0c-0.1,0-0.2,0.1-0.2,0.1c-0.3,0.2-0.7,0.3-1,0.6l0,0l0,0c-2.8,1.7-4.6,4.6-4.6,7.8v5.7H650L649.9,268.9L649.9,268.9z"/>
	<g>
		<path class="st2" d="M671.6,107.4c3.4,0.6,6.3,1.6,8.8,2.9s4.7,2.9,6.4,4.6s3,3.5,3.9,5.4s1.4,3.7,1.5,5.3c0.1,0.8-0.2,1.5-0.8,2
			s-1.3,0.8-2,0.8h-7.2c-1.2,0-2-0.2-2.6-0.7c-0.6-0.4-1.1-1-1.6-1.8c-1-1.7-2.6-3.2-4.7-4.5c-2.1-1.3-5.2-1.9-9.3-1.9
			c-1.8,0-3.5,0.2-5.1,0.6s-3,0.9-4.2,1.6s-2.1,1.6-2.8,2.6s-1,2.2-1,3.5c0,1.6,0.4,2.9,1.1,3.9c0.8,1,2,1.9,3.7,2.6
			c1.7,0.7,3.8,1.4,6.5,2c2.6,0.6,5.8,1.3,9.6,2.2c4.1,0.9,7.6,1.9,10.4,3.1c2.8,1.2,5.2,2.6,7,4.3s3.1,3.6,3.9,5.8
			c0.8,2.2,1.2,4.7,1.2,7.5c0,2.7-0.5,5.2-1.5,7.5s-2.5,4.4-4.5,6.3c-2,1.8-4.3,3.4-7.1,4.6c-2.8,1.2-6,2.1-9.6,2.6v7
			c0,0.8-0.3,1.4-0.8,2c-0.6,0.5-1.2,0.8-2,0.8h-8.3c-0.8,0-1.4-0.3-2-0.8c-0.5-0.5-0.8-1.2-0.8-2v-7c-3.1-0.5-6-1.3-8.7-2.4
			c-2.7-1.1-5.1-2.5-7.1-4.2c-2-1.6-3.6-3.5-4.9-5.7c-1.2-2.2-1.9-4.5-2-7.1c-0.1-0.8,0.2-1.5,0.8-2s1.2-0.8,2-0.8h7.2
			c1.2,0,2.1,0.2,2.7,0.6c0.6,0.4,1.1,1,1.5,1.8c0.5,0.9,1.1,1.8,1.7,2.7c0.7,0.9,1.6,1.7,2.8,2.4s2.6,1.3,4.4,1.7
			c1.7,0.4,3.9,0.7,6.5,0.7c2.1,0,4-0.2,6-0.5c1.9-0.3,3.6-0.8,5-1.5s2.6-1.6,3.5-2.7c0.9-1.1,1.3-2.4,1.3-4c0-1.5-0.5-2.7-1.4-3.7
			c-1-1-2.4-1.8-4.4-2.5s-4.4-1.3-7.3-2c-2.9-0.6-6.2-1.4-10-2.4c-3.4-0.8-6.4-1.8-9-2.9c-2.6-1.1-4.7-2.5-6.4-4.2
			c-1.7-1.6-2.9-3.6-3.7-5.8s-1.2-4.9-1.2-8c0-2.7,0.5-5.1,1.5-7.4s2.4-4.3,4.3-6.1c1.8-1.8,4-3.3,6.5-4.5s5.3-2.1,8.3-2.6v-7
			c0-0.8,0.3-1.4,0.8-2c0.6-0.5,1.2-0.8,2-0.8h8.3c0.8,0,1.4,0.3,2,0.8c0.5,0.5,0.8,1.2,0.8,2L671.6,107.4L671.6,107.4z"/>
	</g>
	<g>
		<path class="st2" d="M545.6,98.8c1.5,0.3,2.7,0.7,3.8,1.3c1.1,0.6,2,1.2,2.8,2c0.7,0.7,1.3,1.5,1.7,2.3s0.6,1.6,0.7,2.3
			c0,0.4-0.1,0.6-0.3,0.9c-0.3,0.2-0.5,0.3-0.9,0.3h-3.1c-0.5,0-0.9-0.1-1.1-0.3c-0.3-0.2-0.5-0.5-0.7-0.8c-0.4-0.7-1.1-1.4-2-1.9
			s-2.2-0.8-4-0.8c-0.8,0-1.5,0.1-2.2,0.2c-0.7,0.2-1.3,0.4-1.8,0.7c-0.5,0.3-0.9,0.7-1.2,1.1s-0.4,0.9-0.4,1.5
			c0,0.7,0.2,1.2,0.5,1.7c0.3,0.4,0.9,0.8,1.6,1.1c0.7,0.3,1.7,0.6,2.8,0.9s2.5,0.6,4.2,0.9c1.8,0.4,3.3,0.8,4.5,1.4
			c1.2,0.5,2.2,1.1,3,1.9c0.8,0.7,1.3,1.6,1.7,2.5c0.3,0.9,0.5,2,0.5,3.2s-0.2,2.2-0.7,3.2c-0.4,1-1.1,1.9-1.9,2.7
			c-0.8,0.8-1.9,1.5-3.1,2c-1.2,0.5-2.6,0.9-4.1,1.1v3c0,0.3-0.1,0.6-0.4,0.8c-0.2,0.2-0.5,0.4-0.8,0.4h-3.6c-0.3,0-0.6-0.1-0.8-0.4
			c-0.2-0.2-0.4-0.5-0.4-0.8v-3c-1.3-0.2-2.6-0.6-3.8-1c-1.2-0.5-2.2-1.1-3.1-1.8c-0.9-0.7-1.6-1.5-2.1-2.5c-0.5-0.9-0.8-2-0.9-3.1
			c0-0.4,0.1-0.6,0.3-0.9c0.2-0.2,0.5-0.3,0.9-0.3h3.1c0.5,0,0.9,0.1,1.2,0.3c0.3,0.2,0.5,0.4,0.7,0.8s0.5,0.8,0.8,1.2
			c0.3,0.4,0.7,0.7,1.2,1s1.1,0.5,1.9,0.7c0.8,0.2,1.7,0.3,2.8,0.3c0.9,0,1.8-0.1,2.6-0.2s1.6-0.4,2.2-0.7c0.6-0.3,1.1-0.7,1.5-1.2
			s0.6-1,0.6-1.7s-0.2-1.2-0.6-1.6c-0.4-0.4-1-0.8-1.9-1.1c-0.8-0.3-1.9-0.6-3.1-0.8c-1.2-0.3-2.7-0.6-4.3-1
			c-1.5-0.4-2.8-0.8-3.9-1.3c-1.1-0.5-2-1.1-2.8-1.8c-0.7-0.7-1.3-1.5-1.6-2.5c-0.4-1-0.5-2.1-0.5-3.4c0-1.2,0.2-2.2,0.7-3.2
			c0.4-1,1.1-1.9,1.8-2.6c0.8-0.8,1.7-1.4,2.8-2c1.1-0.5,2.3-0.9,3.6-1.1v-3c0-0.3,0.1-0.6,0.4-0.8c0.2-0.2,0.5-0.4,0.8-0.4h3.6
			c0.3,0,0.6,0.1,0.8,0.4c0.2,0.2,0.4,0.5,0.4,0.8v3.1H545.6z"/>
	</g>
	<g>
		<g class="st3">
			
				<linearGradient id="SVGID_2_" gradientUnits="userSpaceOnUse" x1="515.05" y1="350.4381" x2="515.05" y2="283.1487" gradientTransform="matrix(1 0 0 -1 0 502)">
				<stop  offset="0" style="stop-color:#000000"/>
				<stop  offset="1" style="stop-color:#000000;stop-opacity:0"/>
			</linearGradient>
			<path class="st4" d="M543.5,203.4h-56.9c-2,0-3.7-1.6-3.7-3.7v-29.8c0-2,1.6-3.7,3.7-3.7h56.9c2,0,3.7,1.6,3.7,3.7v29.8
				C547.2,201.8,545.6,203.4,543.5,203.4z"/>
		</g>
		<g>
			<path class="st5" d="M545.6,201.1h-56.9c-2,0-3.7-1.6-3.7-3.7v-29.8c0-2,1.6-3.7,3.7-3.7h56.9c2,0,3.7,1.6,3.7,3.7v29.8
				C549.3,199.5,547.7,201.1,545.6,201.1z"/>
			<g class="st3">
				<path class="st6" d="M515.2,185h-24c-0.5,0-0.9-0.4-0.9-0.9l0,0c0-0.5,0.4-0.9,0.9-0.9h24c0.5,0,0.9,0.4,0.9,0.9l0,0
					C516.1,184.6,515.7,185,515.2,185z"/>
			</g>
			<g class="st3">
				<path class="st6" d="M501.8,190.3h-10.5c-0.5,0-0.9-0.4-0.9-0.9l0,0c0-0.5,0.4-0.9,0.9-0.9h10.5c0.5,0,0.9,0.4,0.9,0.9l0,0
					C502.6,189.9,502.2,190.3,501.8,190.3z"/>
			</g>
			<g class="st3">
				<path class="st6" d="M537.8,190.3h-10.5c-0.5,0-0.9-0.4-0.9-0.9l0,0c0-0.5,0.4-0.9,0.9-0.9h10.5c0.5,0,0.9,0.4,0.9,0.9l0,0
					C538.7,189.9,538.3,190.3,537.8,190.3z"/>
			</g>
			<path class="st7" d="M544.4,164H490c-2.7,0-4.9,2.2-4.9,4.9v10.3h64.2v-10.3C549.3,166.2,547.1,164,544.4,164z"/>
			<path class="st8" d="M544.4,164h-12.7v37.2h12.7c2.7,0,4.9-2.2,4.9-4.9v-27.4C549.3,166.2,547.1,164,544.4,164z"/>
		</g>
	</g>
	<ellipse transform="matrix(0.7071 -0.7071 0.7071 0.7071 -51.6147 420.4003)" class="st2" cx="481.7" cy="272.5" rx="61" ry="61"/>
	<g>
		<g>
			<path class="st9" d="M67.2,153.9h9.1c-0.3-3.8-2.7-6.8-6.7-6.8c-1.6,0-2.9,0.4-4.2,1l-0.6-1.9c1.4-0.6,3.1-1.1,4.9-1.1
				c6.2,0,9.3,4.4,9.3,10.1c0,6.4-4.2,10.1-9.4,10.1c-1.9,0-3.7-0.4-5.1-1l0.6-2c1.1,0.5,2.8,0.9,4.2,0.9c4.3,0,6.9-3.1,7.1-7.2
				h-9.2C67.2,156,67.2,153.9,67.2,153.9z"/>
			<path class="st9" d="M96.6,145.3v19.6H94v-17.5h-6.5v5.9c0,4.2-0.2,9-2.9,10.8c-0.7,0.5-1.9,0.9-3,0.9l-0.3-2
				c0.8-0.1,1.6-0.6,2.1-1c1.6-1.5,1.7-5.3,1.7-8.5v-8.3h11.5V145.3z"/>
			<path class="st9" d="M112.6,155.7H105v7.1h8.5v2.1h-11v-19.6H113v2.1h-8v6.2h7.6V155.7z"/>
			<path class="st9" d="M120.7,145.3v8.7h0.8l6.7-8.7h3.1l-7.4,9c3.2,0.4,4.5,2.4,5.5,5.1c0.7,2,1.3,3.8,2.2,5.6h-2.7
				c-0.7-1.3-1.3-3.1-1.8-4.6c-0.9-2.6-2.2-4.4-5.5-4.4h-0.8v9h-2.5v-19.6h2.4V145.3z"/>
			<path class="st9" d="M140,147.5h-6v-2.2h14.5v2.2h-6v17.4H140V147.5z"/>
			<path class="st9" d="M152.1,145.6c1.2-0.2,2.8-0.4,4.9-0.4c2.5,0,4.3,0.6,5.5,1.6c1.1,0.9,1.7,2.4,1.7,4.1c0,1.8-0.5,3.2-1.5,4.2
				c-1.3,1.4-3.5,2.2-6,2.2c-0.8,0-1.5,0-2-0.2v7.8h-2.5L152.1,145.6L152.1,145.6z M154.7,155c0.6,0.1,1.2,0.2,2.1,0.2
				c3.1,0,4.9-1.5,4.9-4.2c0-2.6-1.8-3.8-4.6-3.8c-1.1,0-1.9,0.1-2.4,0.2V155z"/>
			<path class="st9" d="M185.6,154.9c0,6.7-4.1,10.3-9.1,10.3c-5.2,0-8.8-4-8.8-9.9c0-6.2,3.9-10.3,9.1-10.3
				C182.1,145,185.6,149.1,185.6,154.9z M170.4,155.2c0,4.2,2.3,7.9,6.2,7.9c4,0,6.3-3.7,6.3-8.1c0-3.9-2-8-6.2-8
				C172.5,147.1,170.4,150.9,170.4,155.2z"/>
			<path class="st9" d="M192.8,145.3v8.2h9.5v-8.2h2.6v19.6h-2.6v-9.2h-9.5v9.2h-2.5v-19.6H192.8z"/>
			<path class="st9" d="M213.2,145.3v8.2h9.5v-8.2h2.6v19.6h-2.6v-9.2h-9.5v9.2h-2.5v-19.6H213.2z"/>
			<path class="st9" d="M233.7,145.3v7.3c0.6-0.1,1.7-0.1,2.3-0.1c4,0,7.6,1.8,7.6,6.1c0,1.8-0.6,3.1-1.5,4.2
				c-1.6,1.7-4.3,2.3-7,2.3c-1.7,0-3.1-0.1-3.9-0.2v-19.5h2.5V145.3z M233.7,163c0.5,0.1,1.2,0.1,2,0.1c2.8,0,5.2-1.4,5.2-4.4
				c0-3.1-2.6-4.2-5.2-4.2c-0.9,0-1.7,0.1-2,0.1V163z M248.3,145.3v19.6h-2.6v-19.6H248.3z"/>
			<path class="st9" d="M264.4,155.7h-7.6v7.1h8.5v2.1h-11v-19.6h10.6v2.1h-8.1v6.2h7.6V155.7z"/>
		</g>
		<g>
			<path class="st9" d="M68.7,174.5v9.4h0.8l7.2-9.4H80l-8,9.7c3.5,0.5,4.8,2.6,5.9,5.4c0.8,2.2,1.4,4.1,2.3,6h-2.9
				c-0.8-1.4-1.3-3.3-1.9-5c-1-2.8-2.3-4.7-5.9-4.7h-0.9v9.7H66v-21.1L68.7,174.5L68.7,174.5z"/>
			<path class="st9" d="M102,184.8c0,7.3-4.4,11.1-9.8,11.1c-5.6,0-9.5-4.3-9.5-10.7c0-6.7,4.2-11.1,9.8-11.1
				C98.2,174.2,102,178.6,102,184.8z M85.6,185.2c0,4.5,2.4,8.5,6.7,8.5c4.3,0,6.8-4,6.8-8.8c0-4.2-2.2-8.6-6.7-8.6
				C87.9,176.4,85.6,180.6,85.6,185.2z"/>
			<path class="st9" d="M109.8,174.5v18.8h6.9v-18.8h2.7v18.8h6.8v-18.8h2.7v21.1h-21.8v-21.1H109.8z"/>
			<path class="st9" d="M146,185.7h-8.2v7.6h9.1v2.3H135v-21.1h11.4v2.3h-8.7v6.7h8.2L146,185.7L146,185.7z"/>
			<path class="st9" d="M166.8,174.5v21.1H164v-18.8h-7v6.4c0,4.6-0.2,9.7-3.2,11.7c-0.8,0.5-2,1-3.2,1l-0.3-2.2
				c0.8-0.2,1.7-0.7,2.2-1.1c1.7-1.7,1.8-5.8,1.8-9.1v-8.9L166.8,174.5L166.8,174.5z"/>
			<path class="st9" d="M175.8,174.5v7.9c0.6-0.1,1.9-0.2,2.6-0.2c4.3,0,8.1,1.9,8.1,6.6c0,2-0.6,3.4-1.6,4.5
				c-1.7,1.8-4.7,2.5-7.6,2.5c-1.9,0-3.3-0.1-4.3-0.3v-21H175.8z M175.8,193.5c0.6,0.1,1.3,0.2,2.3,0.2c3,0,5.6-1.5,5.6-4.7
				c0-3.3-2.7-4.6-5.7-4.6c-0.7,0-1.5,0.1-2.2,0.2L175.8,193.5L175.8,193.5z"/>
			<path class="st9" d="M194.3,174.5v9.4h0.8l7.2-9.4h3.3l-8,9.7c3.5,0.5,4.8,2.6,5.9,5.4c0.8,2.2,1.4,4.1,2.3,6h-2.9
				c-0.8-1.4-1.3-3.3-1.9-5c-1-2.8-2.3-4.7-5.9-4.7h-0.9v9.7h-2.7v-21.1L194.3,174.5L194.3,174.5z"/>
			<path class="st9" d="M212.6,174.5v8.9c0,3.3-0.1,6.1-0.3,8.9h0.1c1.1-2.2,2.4-4.5,3.9-7l6.8-10.9h2.7v21.1h-2.6v-9
				c0-3.4,0-5.9,0.3-8.6h-0.1c-1,2.3-2.5,4.8-3.9,7.1l-6.6,10.5H210v-21.1h2.6V174.5z"/>
		</g>
	</g>
	<g>
		<rect x="64" y="220.4" class="st10" width="238.8" height="73.4"/>
		<path class="st11" d="M74.5,230h-1.1v-6.1c0-0.5,0-1.1,0.1-1.8l0,0c-0.1,0.4-0.2,0.7-0.3,0.9l-3.1,7h-0.5l-3.1-6.9
			c-0.1-0.2-0.2-0.5-0.3-0.9l0,0c0,0.4,0.1,1,0.1,1.8v6.1h-1V221h1.4l2.8,6.3c0.2,0.5,0.4,0.9,0.4,1.1l0,0c0.2-0.5,0.3-0.9,0.4-1.1
			l2.9-6.3h1.3C74.5,221,74.5,230,74.5,230z"/>
		<path class="st11" d="M80.7,230.1c-1,0-1.7-0.3-2.3-0.9c-0.6-0.6-0.9-1.4-0.9-2.4c0-1.1,0.3-1.9,0.9-2.6s1.4-0.9,2.4-0.9
			s1.7,0.3,2.3,0.9c0.5,0.6,0.8,1.4,0.8,2.5c0,1-0.3,1.9-0.9,2.5C82.5,229.8,81.7,230.1,80.7,230.1z M80.8,224.2
			c-0.7,0-1.2,0.2-1.6,0.7s-0.6,1.1-0.6,1.9c0,0.8,0.2,1.4,0.6,1.8s0.9,0.7,1.6,0.7s1.2-0.2,1.6-0.7c0.4-0.4,0.5-1.1,0.5-1.9
			c0-0.8-0.2-1.4-0.5-1.9C82,224.4,81.5,224.2,80.8,224.2z"/>
		<path class="st11" d="M94,230h-1v-5.4c-0.1,0.3-0.2,0.7-0.4,1.2L91,230h-1l-1.7-4.2c-0.1-0.2-0.2-0.6-0.4-1.2v5.4H87v-6.5h1.3
			l1.7,4.2c0.1,0.3,0.3,0.7,0.5,1.3l0.5-1.3l1.7-4.3H94V230z"/>
		<path class="st11" d="M102.6,227H98c0,0.7,0.2,1.3,0.6,1.7s0.9,0.6,1.5,0.6c0.7,0,1.4-0.2,2-0.7v1c-0.6,0.4-1.3,0.6-2.3,0.6
			c-0.9,0-1.6-0.3-2.2-0.9c-0.5-0.6-0.8-1.4-0.8-2.5c0-1,0.3-1.8,0.9-2.5c0.6-0.6,1.3-1,2.1-1s1.5,0.3,2,0.8s0.7,1.3,0.7,2.3v0.6
			H102.6z M101.5,226.1c0-0.6-0.1-1.1-0.4-1.4c-0.3-0.3-0.7-0.5-1.2-0.5s-0.9,0.2-1.3,0.5s-0.6,0.8-0.6,1.4H101.5z"/>
		<path class="st11" d="M110.9,230h-1v-3h-3.3v3h-1v-6.5h1v2.7h3.3v-2.7h1V230z"/>
		<path class="st11" d="M118.4,224.4h-1.9v5.6h-1v-5.6h-2v-0.9h4.9V224.4z"/>
		<path class="st11" d="M125.6,230h-1v-1l0,0c-0.5,0.8-1.1,1.2-2,1.2c-0.6,0-1.2-0.2-1.5-0.5c-0.4-0.3-0.5-0.8-0.5-1.4
			c0-1.2,0.7-1.9,2.1-2.1l1.9-0.3c0-1.1-0.4-1.7-1.3-1.7c-0.8,0-1.5,0.3-2.1,0.8v-1.1c0.6-0.4,1.4-0.6,2.2-0.6
			c1.5,0,2.3,0.8,2.3,2.4L125.6,230L125.6,230z M124.5,226.7l-1.6,0.2c-0.5,0.1-0.8,0.2-1.1,0.4c-0.2,0.2-0.4,0.5-0.4,0.9
			c0,0.3,0.1,0.6,0.3,0.8c0.2,0.2,0.5,0.3,0.9,0.3c0.5,0,0.9-0.2,1.3-0.5c0.3-0.4,0.5-0.8,0.5-1.4L124.5,226.7L124.5,226.7z"/>
		<path class="st11" d="M133.6,230h-1v-5.6H131c-0.2,2.1-0.5,3.6-0.9,4.4c-0.4,0.9-1,1.3-1.7,1.3c-0.2,0-0.4,0-0.6-0.1v-0.9
			c0.1,0.1,0.3,0.1,0.5,0.1c0.9,0,1.5-1.9,1.8-5.7h3.4L133.6,230L133.6,230z"/>
		<path class="st11" d="M137,230v-6.5h1v2.5h1.8c0.7,0,1.2,0.2,1.6,0.5c0.4,0.3,0.6,0.8,0.6,1.5c0,0.6-0.2,1.1-0.6,1.5
			s-0.9,0.5-1.5,0.5H137z M138,226.9v2.2h1.6c0.9,0,1.3-0.4,1.3-1.1c0-0.7-0.4-1.1-1.3-1.1L138,226.9L138,226.9z"/>
		<path class="st11" d="M150.2,230h-1v-3h-3.3v3h-1v-6.5h1v2.7h3.3v-2.7h1V230z"/>
		<path class="st11" d="M156.3,230.1c-1,0-1.7-0.3-2.3-0.9c-0.6-0.6-0.9-1.4-0.9-2.4c0-1.1,0.3-1.9,0.9-2.6s1.4-0.9,2.4-0.9
			s1.7,0.3,2.3,0.9c0.5,0.6,0.8,1.4,0.8,2.5c0,1-0.3,1.9-0.9,2.5C158.1,229.8,157.3,230.1,156.3,230.1z M156.4,224.2
			c-0.7,0-1.2,0.2-1.6,0.7c-0.4,0.5-0.6,1.1-0.6,1.9c0,0.8,0.2,1.4,0.6,1.8s0.9,0.7,1.6,0.7c0.7,0,1.2-0.2,1.6-0.7
			c0.4-0.4,0.5-1.1,0.5-1.9c0-0.8-0.2-1.4-0.5-1.9C157.6,224.4,157.1,224.2,156.4,224.2z"/>
		<path class="st11" d="M167.8,227h-4.6c0,0.7,0.2,1.3,0.6,1.7s0.9,0.6,1.5,0.6c0.7,0,1.4-0.2,2-0.7v1c-0.6,0.4-1.3,0.6-2.3,0.6
			c-0.9,0-1.6-0.3-2.2-0.9c-0.5-0.6-0.8-1.4-0.8-2.5c0-1,0.3-1.8,0.9-2.5c0.6-0.6,1.3-1,2.1-1s1.5,0.3,2,0.8s0.7,1.3,0.7,2.3v0.6
			H167.8z M166.7,226.1c0-0.6-0.1-1.1-0.4-1.4c-0.3-0.3-0.7-0.5-1.2-0.5s-0.9,0.2-1.3,0.5s-0.6,0.8-0.6,1.4H166.7z"/>
		<path class="st11" d="M180.9,230h-1v-5.6h-3.3v5.6h-1v-6.5h5.4L180.9,230L180.9,230z"/>
		<path class="st11" d="M187,230.1c-1,0-1.7-0.3-2.3-0.9c-0.6-0.6-0.9-1.4-0.9-2.4c0-1.1,0.3-1.9,0.9-2.6s1.4-0.9,2.4-0.9
			s1.7,0.3,2.3,0.9c0.5,0.6,0.8,1.4,0.8,2.5c0,1-0.3,1.9-0.9,2.5C188.8,229.8,188,230.1,187,230.1z M187.1,224.2
			c-0.7,0-1.2,0.2-1.6,0.7c-0.4,0.5-0.6,1.1-0.6,1.9c0,0.8,0.2,1.4,0.6,1.8s0.9,0.7,1.6,0.7c0.7,0,1.2-0.2,1.6-0.7
			c0.4-0.4,0.5-1.1,0.5-1.9c0-0.8-0.2-1.4-0.5-1.9C188.3,224.4,187.8,224.2,187.1,224.2z"/>
		<path class="st11" d="M198.6,230h-1v-5.6h-3.3v5.6h-1v-6.5h5.4L198.6,230L198.6,230z"/>
		<path class="st11" d="M204.7,230.1c-1,0-1.7-0.3-2.3-0.9c-0.6-0.6-0.9-1.4-0.9-2.4c0-1.1,0.3-1.9,0.9-2.6s1.4-0.9,2.4-0.9
			s1.7,0.3,2.3,0.9c0.5,0.6,0.8,1.4,0.8,2.5c0,1-0.3,1.9-0.9,2.5C206.5,229.8,205.7,230.1,204.7,230.1z M204.8,224.2
			c-0.7,0-1.2,0.2-1.6,0.7c-0.4,0.5-0.6,1.1-0.6,1.9c0,0.8,0.2,1.4,0.6,1.8s0.9,0.7,1.6,0.7c0.7,0,1.2-0.2,1.6-0.7
			c0.4-0.4,0.5-1.1,0.5-1.9c0-0.8-0.2-1.4-0.5-1.9C206,224.4,205.5,224.2,204.8,224.2z"/>
		<path class="st11" d="M215.7,230h-1v-5.6h-1.5c-0.2,2.1-0.5,3.6-0.9,4.4c-0.4,0.9-1,1.3-1.7,1.3c-0.2,0-0.4,0-0.6-0.1v-0.9
			c0.1,0.1,0.3,0.1,0.5,0.1c0.9,0,1.5-1.9,1.8-5.7h3.4V230z"/>
		<path class="st11" d="M224.5,230h-1v-3h-3.3v3h-1v-6.5h1v2.7h3.3v-2.7h1V230z"/>
		<path class="st11" d="M233.1,227h-4.6c0,0.7,0.2,1.3,0.6,1.7s0.9,0.6,1.5,0.6c0.7,0,1.4-0.2,2-0.7v1c-0.6,0.4-1.3,0.6-2.3,0.6
			c-0.9,0-1.6-0.3-2.2-0.9c-0.5-0.6-0.8-1.4-0.8-2.5c0-1,0.3-1.8,0.9-2.5c0.6-0.6,1.3-1,2.1-1s1.5,0.3,2,0.8s0.7,1.3,0.7,2.3v0.6
			H233.1z M232.1,226.1c0-0.6-0.1-1.1-0.4-1.4c-0.3-0.3-0.7-0.5-1.2-0.5s-0.9,0.2-1.3,0.5s-0.6,0.8-0.6,1.4H232.1z"/>
		<path class="st11" d="M241.4,230h-1v-3H237v3h-1v-6.5h1v2.7h3.3v-2.7h1L241.4,230L241.4,230z"/>
		<path class="st11" d="M250.2,230h-0.9v-5.2c-0.1,0.2-0.2,0.4-0.4,0.8l-3,4.4h-1.1v-6.5h1v5.1c0.1-0.1,0.2-0.3,0.3-0.6l3.1-4.5h1.1
			v6.5H250.2z"/>
		<path class="st11" d="M258.9,227h-4.6c0,0.7,0.2,1.3,0.6,1.7s0.9,0.6,1.5,0.6c0.7,0,1.4-0.2,2-0.7v1c-0.6,0.4-1.3,0.6-2.3,0.6
			c-0.9,0-1.6-0.3-2.2-0.9c-0.5-0.6-0.8-1.4-0.8-2.5c0-1,0.3-1.8,0.9-2.5c0.6-0.6,1.3-1,2.1-1c0.8,0,1.5,0.3,2,0.8s0.7,1.3,0.7,2.3
			L258.9,227L258.9,227z M257.8,226.1c0-0.6-0.1-1.1-0.4-1.4c-0.3-0.3-0.7-0.5-1.2-0.5s-0.9,0.2-1.3,0.5s-0.6,0.8-0.6,1.4H257.8z"/>
		<path class="st11" d="M68.9,244.7c-1.3,0-2.4-0.4-3.2-1.3c-0.8-0.9-1.2-2-1.2-3.3c0-1.4,0.4-2.6,1.3-3.5c0.8-0.9,1.9-1.3,3.3-1.3
			c1.3,0,2.3,0.4,3.1,1.3c0.8,0.8,1.2,2,1.2,3.4s-0.4,2.6-1.3,3.5l-0.1,0.1l-0.1,0.1l2.3,2.2h-2.9l-1.2-1.2
			C69.8,244.6,69.4,244.7,68.9,244.7z M69,237c-0.7,0-1.3,0.3-1.7,0.8c-0.4,0.5-0.6,1.3-0.6,2.1c0,0.9,0.2,1.6,0.6,2.1
			s1,0.8,1.7,0.8s1.3-0.3,1.7-0.8c0.4-0.5,0.6-1.2,0.6-2.1c0-0.9-0.2-1.7-0.6-2.2C70.2,237.3,69.7,237,69,237z"/>
		<path class="st11" d="M78.3,244.5h-2.1v-9.1h2.1V244.5z"/>
		<path class="st11" d="M93.5,235.4l-2.4,9.1h-2.3l-1.5-5.8c-0.1-0.3-0.1-0.6-0.1-1l0,0c0,0.4-0.1,0.8-0.2,1l-1.5,5.8h-2.4l-2.4-9.1
			h2.2l1.3,6.1c0.1,0.3,0.1,0.6,0.1,1l0,0c0-0.3,0.1-0.7,0.2-1.1l1.7-6h2.2l1.5,6.1c0.1,0.2,0.1,0.6,0.1,1l0,0c0-0.3,0.1-0.7,0.1-1
			l1.3-6.1H93.5z"/>
		<path class="st11" d="M98,244.5h-2v-9.1h2V244.5z"/>
		<path class="st11" d="M113.9,244.5h-2.6l-2.7-4c-0.1-0.1-0.1-0.2-0.2-0.5l0,0v4.5h-2.1v-9.1h2.1v4.3l0,0c0.1-0.1,0.1-0.3,0.3-0.5
			l2.5-3.8h2.4l-3.2,4.3L113.9,244.5z"/>
		<path class="st11" d="M118.8,244.7c-1.1,0-1.9-0.3-2.6-0.9c-0.6-0.6-0.9-1.4-0.9-2.5s0.3-1.9,1-2.5c0.6-0.6,1.5-0.9,2.6-0.9
			s1.9,0.3,2.5,0.9c0.6,0.6,0.9,1.4,0.9,2.4c0,1.1-0.3,1.9-0.9,2.6C120.8,244.3,119.9,244.7,118.8,244.7z M118.9,239.4
			c-0.5,0-0.8,0.2-1.1,0.5s-0.4,0.8-0.4,1.4c0,1.2,0.5,1.9,1.5,1.9s1.4-0.6,1.4-1.9S119.8,239.4,118.9,239.4z"/>
		<path class="st11" d="M134.5,244.5H125V238h2v5.1h1.7V238h2v5.1h1.7V238h2v6.5H134.5z"/>
		<path class="st11" d="M143.3,241.8h-4.2c0.1,0.9,0.7,1.4,1.8,1.4c0.7,0,1.3-0.2,1.9-0.5v1.4c-0.6,0.3-1.4,0.5-2.3,0.5
			c-1,0-1.9-0.3-2.4-0.9c-0.6-0.6-0.9-1.4-0.9-2.4c0-1.1,0.3-1.9,0.9-2.6s1.4-0.9,2.3-0.9c0.9,0,1.7,0.3,2.2,0.8
			c0.5,0.6,0.8,1.3,0.8,2.3v0.9H143.3z M141.4,240.6c0-0.9-0.4-1.4-1.1-1.4c-0.3,0-0.6,0.1-0.8,0.4c-0.2,0.3-0.4,0.6-0.4,1H141.4z"
			/>
		<path class="st11" d="M151.9,244.5h-2v-5.1h-1.1c-0.2,2-0.6,3.3-1,4.1c-0.5,0.7-1.1,1.1-1.9,1.1c-0.3,0-0.5,0-0.8-0.1v-1.4
			c0.1,0.1,0.3,0.1,0.5,0.1c0.4,0,0.7-0.4,1-1.1s0.5-2.1,0.7-4.1h4.7L151.9,244.5L151.9,244.5z"/>
		<path class="st11" d="M154.9,244.5V238h2v2.3h1.7c0.7,0,1.3,0.2,1.7,0.5c0.4,0.4,0.6,0.9,0.6,1.5c0,0.7-0.2,1.2-0.6,1.6
			c-0.4,0.4-1,0.6-1.7,0.6L154.9,244.5L154.9,244.5z M156.9,241.5v1.7h1c0.7,0,1-0.3,1-0.9c0-0.5-0.3-0.8-1-0.8H156.9z"/>
		<path class="st11" d="M170,244.5h-2.4l-2.1-3.2l0,0v3.2h-2V238h2v3.1l0,0l2-3.1h2.4l-2.4,3.1L170,244.5z"/>
		<path class="st11" d="M177.5,244.5h-1.9v-0.9l0,0c-0.4,0.7-1.1,1.1-1.9,1.1c-0.6,0-1.1-0.2-1.5-0.5c-0.4-0.4-0.5-0.8-0.5-1.4
			c0-1.3,0.7-2,2.2-2.2l1.8-0.2c0-0.7-0.4-1.1-1.2-1.1s-1.5,0.2-2.2,0.7v-1.5c0.3-0.1,0.7-0.3,1.1-0.4c0.5-0.1,0.9-0.2,1.3-0.2
			c1.9,0,2.8,0.9,2.8,2.8L177.5,244.5L177.5,244.5z M175.6,241.9v-0.4l-1.2,0.2c-0.7,0.1-1,0.4-1,0.9c0,0.2,0.1,0.4,0.2,0.6
			c0.2,0.1,0.4,0.2,0.6,0.2c0.4,0,0.7-0.1,0.9-0.4C175.5,242.6,175.6,242.3,175.6,241.9z"/>
		<path class="st11" d="M181.5,243.1l-1,3.1h-0.7l0.7-3.1H181.5z"/>
		<path class="st11" d="M197.5,244.5h-2.2l-0.6-2h-3.2l-0.6,2h-2.2l3.3-9.1h2.4L197.5,244.5z M194.2,240.9l-1-3.1
			c-0.1-0.2-0.1-0.5-0.2-0.8l0,0c0,0.3-0.1,0.5-0.2,0.8l-1,3.1H194.2z"/>
		<path class="st11" d="M201.8,244.5h-2v-9.6h2V244.5z"/>
		<path class="st11" d="M205.8,237c-0.3,0-0.6-0.1-0.8-0.3s-0.3-0.4-0.3-0.7s0.1-0.5,0.3-0.7s0.5-0.3,0.8-0.3s0.6,0.1,0.8,0.3
			s0.3,0.4,0.3,0.7s-0.1,0.6-0.3,0.7C206.4,236.9,206.1,237,205.8,237z M206.8,244.5h-2V238h2V244.5z"/>
		<path class="st11" d="M214,236.4c-0.3-0.1-0.5-0.2-0.7-0.2c-0.6,0-1,0.3-1,1v0.7h1.5v1.5h-1.5v5h-2v-5h-1.1V238h1.1v-0.8
			c0-0.7,0.2-1.3,0.7-1.8s1.1-0.7,2-0.7c0.4,0,0.7,0,1,0.1V236.4z"/>
		<path class="st11" d="M231.5,244.5h-2v-5.4c0-0.6,0-1.2,0.1-1.9h-0.1c-0.1,0.6-0.2,1-0.3,1.2l-2.1,6.2h-1.7l-2.2-6.1
			c-0.1-0.2-0.2-0.6-0.3-1.3h-0.1c0.1,0.9,0.1,1.7,0.1,2.4v5h-1.8v-9.1h3l1.9,5.4c0.1,0.4,0.3,0.9,0.3,1.3l0,0
			c0.1-0.5,0.2-0.9,0.4-1.3l1.9-5.4h2.9L231.5,244.5L231.5,244.5z"/>
		<path class="st11" d="M237.8,244.7c-1.1,0-1.9-0.3-2.6-0.9c-0.6-0.6-0.9-1.4-0.9-2.5s0.3-1.9,1-2.5c0.6-0.6,1.5-0.9,2.6-0.9
			s1.9,0.3,2.5,0.9c0.6,0.6,0.9,1.4,0.9,2.4c0,1.1-0.3,1.9-0.9,2.6C239.7,244.3,238.9,244.7,237.8,244.7z M237.8,239.4
			c-0.5,0-0.8,0.2-1.1,0.5s-0.4,0.8-0.4,1.4c0,1.2,0.5,1.9,1.5,1.9s1.4-0.6,1.4-1.9C239.3,240,238.8,239.4,237.8,239.4z"/>
		<path class="st11" d="M246,243.7L246,243.7v0.8h-2v-9.6h2v4.1l0,0c0.5-0.8,1.2-1.1,2.1-1.1c0.8,0,1.5,0.3,1.9,0.9s0.7,1.4,0.7,2.4
			c0,1.1-0.3,2-0.8,2.6s-1.2,1-2.1,1C247,244.7,246.4,244.4,246,243.7z M245.9,241v0.7c0,0.4,0.1,0.8,0.4,1s0.6,0.4,0.9,0.4
			c0.5,0,0.8-0.2,1.1-0.5c0.3-0.4,0.4-0.9,0.4-1.5c0-0.5-0.1-1-0.3-1.3s-0.6-0.5-1-0.5s-0.7,0.2-1,0.5
			C246,240.1,245.9,240.5,245.9,241z"/>
		<path class="st11" d="M254.3,237c-0.3,0-0.6-0.1-0.8-0.3s-0.3-0.4-0.3-0.7s0.1-0.5,0.3-0.7s0.5-0.3,0.8-0.3s0.6,0.1,0.8,0.3
			s0.3,0.4,0.3,0.7s-0.1,0.6-0.3,0.7C254.9,236.9,254.6,237,254.3,237z M255.3,244.5h-2V238h2V244.5z"/>
		<path class="st11" d="M259.4,243.1l-1,3.1h-0.7l0.7-3.1H259.4z"/>
		<path class="st11" d="M77,249.9l-2.4,9.1h-2.3l-1.5-5.8c-0.1-0.3-0.1-0.6-0.1-1l0,0c0,0.4-0.1,0.8-0.2,1L69,259h-2.4l-2.4-9.1h2.2
			l1.3,6.1c0.1,0.3,0.1,0.6,0.1,1l0,0c0-0.3,0.1-0.7,0.2-1.1l1.7-6h2.2l1.5,6.1c0.1,0.2,0.1,0.6,0.1,1l0,0c0-0.3,0.1-0.7,0.1-1
			l1.3-6.1H77z"/>
		<path class="st11" d="M84.7,256.3h-4.2c0.1,0.9,0.7,1.4,1.8,1.4c0.7,0,1.3-0.2,1.9-0.5v1.4c-0.6,0.3-1.4,0.5-2.3,0.5
			c-1,0-1.9-0.3-2.4-0.9s-0.9-1.4-0.9-2.4c0-1.1,0.3-1.9,0.9-2.6s1.4-0.9,2.3-0.9s1.7,0.3,2.2,0.8c0.5,0.6,0.8,1.3,0.8,2.3v0.9H84.7
			z M82.8,255.1c0-0.9-0.4-1.4-1.1-1.4c-0.3,0-0.6,0.1-0.8,0.4c-0.2,0.3-0.4,0.6-0.4,1H82.8z"/>
		<path class="st11" d="M89.2,258.3L89.2,258.3v0.8h-2v-9.6h2v4.1l0,0c0.5-0.8,1.2-1.1,2.1-1.1c0.8,0,1.5,0.3,1.9,0.9
			c0.5,0.6,0.7,1.4,0.7,2.4c0,1.1-0.3,2-0.8,2.6s-1.2,1-2.1,1C90.2,259.2,89.6,258.9,89.2,258.3z M89.2,255.5v0.7
			c0,0.4,0.1,0.8,0.4,1s0.6,0.4,0.9,0.4c0.5,0,0.8-0.2,1.1-0.5c0.3-0.4,0.4-0.9,0.4-1.5c0-0.5-0.1-1-0.3-1.3c-0.2-0.3-0.6-0.5-1-0.5
			s-0.7,0.2-1,0.5C89.3,254.7,89.2,255,89.2,255.5z"/>
		<path class="st11" d="M107.1,259h-2v-5.4c0-0.6,0-1.2,0.1-1.9h-0.1c-0.1,0.6-0.2,1-0.3,1.2l-2.1,6.2H101l-2.2-6.1
			c-0.1-0.2-0.2-0.6-0.3-1.3h-0.1c0.1,0.9,0.1,1.7,0.1,2.4v5h-1.8V250h3l1.9,5.4c0.1,0.4,0.3,0.9,0.3,1.3l0,0
			c0.1-0.5,0.2-0.9,0.4-1.3l1.9-5.4h2.9C107.1,250,107.1,259,107.1,259z"/>
		<path class="st11" d="M113.4,259.2c-1.1,0-1.9-0.3-2.6-0.9c-0.6-0.6-0.9-1.4-0.9-2.5s0.3-1.9,1-2.5s1.5-0.9,2.6-0.9
			s1.9,0.3,2.5,0.9s0.9,1.4,0.9,2.4c0,1.1-0.3,1.9-0.9,2.6C115.4,258.9,114.5,259.2,113.4,259.2z M113.4,253.9
			c-0.5,0-0.8,0.2-1.1,0.5s-0.4,0.8-0.4,1.4c0,1.2,0.5,1.9,1.5,1.9s1.4-0.6,1.4-1.9C114.9,254.5,114.4,253.9,113.4,253.9z"/>
		<path class="st11" d="M125.8,259h-2v-3.6c0-1-0.4-1.5-1.1-1.5c-0.3,0-0.6,0.1-0.9,0.4s-0.3,0.6-0.3,1v3.7h-2v-6.5h2v1l0,0
			c0.5-0.8,1.2-1.2,2.1-1.2c1.4,0,2.2,0.9,2.2,2.7C125.8,255,125.8,259,125.8,259z"/>
		<path class="st11" d="M134.6,256.3h-4.2c0.1,0.9,0.7,1.4,1.8,1.4c0.7,0,1.3-0.2,1.9-0.5v1.4c-0.6,0.3-1.4,0.5-2.3,0.5
			c-1,0-1.9-0.3-2.4-0.9s-0.9-1.4-0.9-2.4c0-1.1,0.3-1.9,0.9-2.6s1.4-0.9,2.3-0.9c0.9,0,1.7,0.3,2.2,0.8c0.5,0.6,0.8,1.3,0.8,2.3
			v0.9H134.6z M132.7,255.1c0-0.9-0.4-1.4-1.1-1.4c-0.3,0-0.6,0.1-0.8,0.4c-0.2,0.3-0.4,0.6-0.4,1H132.7z"/>
		<path class="st11" d="M143.2,252.5l-2.6,7c-0.6,1.7-1.6,2.5-2.9,2.5c-0.5,0-0.9-0.1-1.2-0.2v-1.6c0.3,0.2,0.6,0.2,0.9,0.2
			c0.5,0,0.9-0.2,1.1-0.7l0.3-0.8l-2.6-6.5h2.2l1.2,4c0.1,0.2,0.1,0.5,0.2,0.9l0,0c0-0.2,0.1-0.5,0.2-0.9l1.2-4h2V252.5z"/>
		<path class="st11" d="M146.5,257.6l-1,3.1h-0.7l0.7-3.1H146.5z"/>
		<path class="st11" d="M154,258.7v-1.8c0.7,0.4,1.4,0.6,2.2,0.6c1.5,0,2.4-0.7,2.6-2.2h-3.5v-1.6h3.5c-0.3-1.5-1.1-2.2-2.6-2.2
			c-0.8,0-1.6,0.2-2.3,0.5v-1.8c0.7-0.2,1.5-0.4,2.5-0.4c1.4,0,2.6,0.4,3.4,1.2c0.8,0.8,1.2,2,1.2,3.5c0,1.4-0.4,2.5-1.2,3.4
			s-1.9,1.3-3.3,1.3C155.6,259.2,154.7,259,154,258.7z"/>
		<path class="st11" d="M169.9,259h-2v-5.1h-1.1c-0.2,2-0.6,3.3-1,4.1c-0.5,0.7-1.1,1.1-1.9,1.1c-0.3,0-0.5,0-0.8-0.1v-1.4
			c0.1,0.1,0.3,0.1,0.5,0.1c0.4,0,0.7-0.4,1-1.1s0.5-2.1,0.7-4.1h4.7L169.9,259L169.9,259z"/>
		<path class="st11" d="M177.8,258.8c-0.5,0.3-1.1,0.4-2,0.4c-1,0-1.8-0.3-2.4-0.9s-0.9-1.4-0.9-2.3c0-1.1,0.3-2,1-2.6s1.5-1,2.7-1
			c0.8,0,1.3,0.1,1.7,0.3v1.7c-0.4-0.3-0.9-0.5-1.4-0.5c-0.6,0-1,0.2-1.4,0.5c-0.3,0.3-0.5,0.8-0.5,1.4s0.2,1,0.5,1.4
			s0.8,0.5,1.3,0.5s1-0.2,1.5-0.5v1.6H177.8z"/>
		<path class="st11" d="M183.5,259.2c-1.1,0-1.9-0.3-2.6-0.9c-0.6-0.6-0.9-1.4-0.9-2.5s0.3-1.9,1-2.5s1.5-0.9,2.6-0.9
			s1.9,0.3,2.5,0.9s0.9,1.4,0.9,2.4c0,1.1-0.3,1.9-0.9,2.6C185.5,258.9,184.6,259.2,183.5,259.2z M183.6,253.9
			c-0.5,0-0.8,0.2-1.1,0.5s-0.4,0.8-0.4,1.4c0,1.2,0.5,1.9,1.5,1.9s1.4-0.6,1.4-1.9S184.5,253.9,183.6,253.9z"/>
		<path class="st11" d="M198.1,259h-1.9v-5c0,0.2-0.2,0.6-0.3,1.2l-1.3,3.9h-1.8l-1.3-3.9c-0.2-0.6-0.3-1-0.3-1.2v5h-1.6v-6.5h2.6
			l1.2,3.7c0.2,0.6,0.3,1,0.3,1.2c0-0.2,0.1-0.6,0.3-1.1l1.2-3.7h2.7v6.4H198.1z"/>
		<path class="st11" d="M65.1,273.5V267h2.8c0.6,0,1.1,0.1,1.5,0.4s0.6,0.7,0.6,1.2c0,0.8-0.4,1.4-1.2,1.5c1,0.1,1.5,0.6,1.5,1.5
			c0,0.5-0.2,1-0.6,1.3c-0.4,0.4-0.9,0.5-1.5,0.5h-3.1V273.5z M66.1,267.9v1.8h1.6c0.8,0,1.3-0.3,1.3-1c0-0.6-0.4-0.9-1.1-0.9h-1.8
			V267.9z M66.1,270.7v2h1.8c0.8,0,1.3-0.3,1.3-1s-0.5-1-1.4-1H66.1z"/>
		<path class="st11" d="M83.8,275.9h-0.9v-2.4h-4.8v2.4h-0.9v-3.3h0.6c1.1-1.6,1.7-3.5,1.7-5.6h3.4v5.6h1L83.8,275.9L83.8,275.9z
			 M81.8,272.7V268h-1.4c-0.1,1.8-0.6,3.3-1.5,4.7H81.8z"/>
		<path class="st11" d="M86.5,273.5V267h2.8c0.6,0,1.1,0.1,1.5,0.4s0.6,0.7,0.6,1.2c0,0.8-0.4,1.4-1.2,1.5c1,0.1,1.5,0.6,1.5,1.5
			c0,0.5-0.2,1-0.6,1.3c-0.4,0.4-0.9,0.5-1.5,0.5h-3.1V273.5z M87.6,267.9v1.8h1.6c0.8,0,1.3-0.3,1.3-1c0-0.6-0.4-0.9-1.1-0.9h-1.8
			V267.9z M87.6,270.7v2h1.8c0.8,0,1.3-0.3,1.3-1s-0.5-1-1.4-1H87.6z"/>
		<path class="st11" d="M99.9,267l-3,7.5c-0.5,1.3-1.3,2-2.2,2c-0.3,0-0.5,0-0.7-0.1v-0.9c0.2,0.1,0.4,0.1,0.6,0.1
			c0.5,0,0.9-0.3,1.2-0.9l0.5-1.2l-2.5-6.5H95l1.8,5c0,0.1,0.1,0.2,0.1,0.5l0,0c0-0.1,0.1-0.3,0.1-0.5l1.8-5H99.9z"/>
		<path class="st11" d="M107,267l-2.2,3.3l2.1,3.2h-1.2l-1.3-2.1c-0.1-0.1-0.2-0.3-0.3-0.5l0,0c0,0-0.1,0.2-0.3,0.5l-1.3,2.1h-1.2
			l2.2-3.2l-2.1-3.3h1.2l1.3,2.2c0.1,0.2,0.2,0.3,0.3,0.5l0,0l1.6-2.7H107z"/>
		<path class="st11" d="M122.7,273.5h-8.3V267h1v5.6h2.6V267h1v5.6h2.6V267h1v6.5H122.7z"/>
		<path class="st11" d="M130.8,273.5h-1v-1l0,0c-0.5,0.8-1.1,1.2-2,1.2c-0.6,0-1.2-0.2-1.5-0.5c-0.4-0.3-0.5-0.8-0.5-1.4
			c0-1.2,0.7-1.9,2.1-2.1l1.9-0.3c0-1.1-0.4-1.7-1.3-1.7c-0.8,0-1.5,0.3-2.1,0.8v-1.1c0.6-0.4,1.4-0.6,2.2-0.6
			c1.5,0,2.3,0.8,2.3,2.4v4.3H130.8z M129.7,270.3l-1.6,0.2c-0.5,0.1-0.8,0.2-1.1,0.4c-0.2,0.2-0.4,0.5-0.4,0.9
			c0,0.3,0.1,0.6,0.3,0.8c0.2,0.2,0.5,0.3,0.9,0.3c0.5,0,0.9-0.2,1.3-0.5c0.3-0.4,0.5-0.8,0.5-1.4v-0.7H129.7z"/>
		<path class="st11" d="M137.6,267.9H135v5.6h-1V267h3.6V267.9z"/>
		<path class="st11" d="M145,273.5h-1v-1l0,0c-0.5,0.8-1.1,1.2-2,1.2c-0.6,0-1.2-0.2-1.5-0.5c-0.4-0.3-0.5-0.8-0.5-1.4
			c0-1.2,0.7-1.9,2.1-2.1l1.9-0.3c0-1.1-0.4-1.7-1.3-1.7c-0.8,0-1.5,0.3-2.1,0.8v-1.1c0.6-0.4,1.4-0.6,2.2-0.6
			c1.5,0,2.3,0.8,2.3,2.4L145,273.5L145,273.5z M143.9,270.3l-1.6,0.2c-0.5,0.1-0.8,0.2-1.1,0.4c-0.2,0.2-0.4,0.5-0.4,0.9
			c0,0.3,0.1,0.6,0.3,0.8c0.2,0.2,0.5,0.3,0.9,0.3c0.5,0,0.9-0.2,1.3-0.5c0.3-0.4,0.5-0.8,0.5-1.4v-0.7H143.9z"/>
		<path class="st11" d="M153,267l-2.2,3.3l2.1,3.2h-1.2l-1.3-2.1c-0.1-0.1-0.2-0.3-0.3-0.5l0,0c0,0-0.1,0.2-0.3,0.5l-1.3,2.1h-1.2
			l2.2-3.2l-2.1-3.3h1.2l1.3,2.2c0.1,0.2,0.2,0.3,0.3,0.5l0,0l1.6-2.7H153z"/>
		<path class="st11" d="M163.1,273.7c-1,0-1.7-0.3-2.3-0.9s-0.9-1.4-0.9-2.4c0-1.1,0.3-1.9,0.9-2.6c0.6-0.6,1.4-0.9,2.4-0.9
			s1.7,0.3,2.3,0.9c0.5,0.6,0.8,1.4,0.8,2.5c0,1-0.3,1.9-0.9,2.5C164.8,273.4,164.1,273.7,163.1,273.7z M163.1,267.8
			c-0.7,0-1.2,0.2-1.6,0.7s-0.6,1.1-0.6,1.9s0.2,1.4,0.6,1.8c0.4,0.4,0.9,0.7,1.6,0.7c0.7,0,1.2-0.2,1.6-0.7
			c0.4-0.4,0.5-1.1,0.5-1.9s-0.2-1.4-0.5-1.9C164.3,268,163.8,267.8,163.1,267.8z"/>
		<path class="st11" d="M173.4,267.9h-1.9v5.6h-1v-5.6h-2V267h4.9V267.9z"/>
		<path class="st11" d="M186.4,275.9h-0.9v-2.4h-4.8v2.4h-0.9v-3.3h0.6c1.1-1.6,1.7-3.5,1.7-5.6h3.4v5.6h1v3.3H186.4z M184.4,272.7
			V268H183c-0.1,1.8-0.6,3.3-1.5,4.7H184.4z"/>
		<path class="st11" d="M191.9,273.7c-1,0-1.7-0.3-2.3-0.9s-0.9-1.4-0.9-2.4c0-1.1,0.3-1.9,0.9-2.6c0.6-0.6,1.4-0.9,2.4-0.9
			s1.7,0.3,2.3,0.9c0.5,0.6,0.8,1.4,0.8,2.5c0,1-0.3,1.9-0.9,2.5C193.7,273.4,192.9,273.7,191.9,273.7z M192,267.8
			c-0.7,0-1.2,0.2-1.6,0.7s-0.6,1.1-0.6,1.9s0.2,1.4,0.6,1.8c0.4,0.4,0.9,0.7,1.6,0.7c0.7,0,1.2-0.2,1.6-0.7
			c0.4-0.4,0.5-1.1,0.5-1.9s-0.2-1.4-0.5-1.9C193.2,268,192.6,267.8,192,267.8z"/>
		<path class="st11" d="M205.1,273.5h-1v-5.4c-0.1,0.3-0.2,0.7-0.4,1.2l-1.6,4.2h-0.9l-1.7-4.2c-0.1-0.2-0.2-0.6-0.4-1.2v5.4h-0.9
			V267h1.3l1.7,4.2c0.1,0.3,0.3,0.7,0.5,1.3l0.5-1.3l1.7-4.3h1.4v6.6H205.1z"/>
		<path class="st11" d="M213.2,273.5h-1v-1l0,0c-0.5,0.8-1.1,1.2-2,1.2c-0.6,0-1.2-0.2-1.5-0.5c-0.4-0.3-0.5-0.8-0.5-1.4
			c0-1.2,0.7-1.9,2.1-2.1l1.9-0.3c0-1.1-0.4-1.7-1.3-1.7c-0.8,0-1.5,0.3-2.1,0.8v-1.1c0.6-0.4,1.4-0.6,2.2-0.6
			c1.5,0,2.3,0.8,2.3,2.4L213.2,273.5L213.2,273.5z M212.1,270.3l-1.6,0.2c-0.5,0.1-0.8,0.2-1.1,0.4c-0.2,0.2-0.4,0.5-0.4,0.9
			c0,0.3,0.1,0.6,0.3,0.8c0.2,0.2,0.5,0.3,0.9,0.3c0.5,0,0.9-0.2,1.3-0.5c0.3-0.4,0.5-0.8,0.5-1.4v-0.7H212.1z"/>
	</g>
	<g>
		<path class="st9" d="M643.6,352.5h-93c-8.4,0-15.3-6.8-15.3-15.3V150.9c0-8.4,6.8-15.3,15.3-15.3h93c8.4,0,15.3,6.8,15.3,15.3
			v186.4C658.8,345.7,652,352.5,643.6,352.5z"/>
		<g>
			<g>
				<defs>
					<path id="SVGID_3_" d="M638.5,140.4h-18.1c-1.8,0-3.3,1.2-3.7,2.9l-0.6,2.2c-0.5,1.8-2.1,3.1-4,3.1H582c-1.9,0-3.5-1.3-4-3.1
						l-0.6-2.2c-0.5-1.7-2-2.9-3.7-2.9h-18.1c-8.5,0-15.5,6.9-15.5,15.5v176.4c0,8.5,6.9,15.5,15.5,15.5h82.9
						c8.5,0,15.5-6.9,15.5-15.5V155.9C654,147.3,647.1,140.4,638.5,140.4z"/>
				</defs>
				<clipPath id="SVGID_4_">
					<use xlink:href="#SVGID_3_"  style="overflow:visible;"/>
				</clipPath>
				<path class="st12" d="M638.5,140.4h-18.1c-1.8,0-3.3,1.2-3.7,2.9l-0.6,2.2c-0.5,1.8-2.1,3.1-4,3.1H582c-1.9,0-3.5-1.3-4-3.1
					l-0.6-2.2c-0.5-1.7-2-2.9-3.7-2.9h-18.1c-8.5,0-15.5,6.9-15.5,15.5v176.4c0,8.5,6.9,15.5,15.5,15.5h82.9
					c8.5,0,15.5-6.9,15.5-15.5V155.9C654,147.3,647.1,140.4,638.5,140.4z"/>
			</g>
			<g>
				<defs>
					<path id="SVGID_5_" d="M638.5,140.4h-18.1c-1.8,0-3.3,1.2-3.7,2.9l-0.6,2.2c-0.5,1.8-2.1,3.1-4,3.1H582c-1.9,0-3.5-1.3-4-3.1
						l-0.6-2.2c-0.5-1.7-2-2.9-3.7-2.9h-18.1c-8.5,0-15.5,6.9-15.5,15.5v176.4c0,8.5,6.9,15.5,15.5,15.5h82.9
						c8.5,0,15.5-6.9,15.5-15.5V155.9C654,147.3,647.1,140.4,638.5,140.4z"/>
				</defs>
				<clipPath id="SVGID_6_">
					<use xlink:href="#SVGID_5_"  style="overflow:visible;"/>
				</clipPath>
				
					<linearGradient id="SVGID_7_" gradientUnits="userSpaceOnUse" x1="597.0501" y1="120.7261" x2="597.0501" y2="223.5104" gradientTransform="matrix(1 0 0 -1 0 502)">
					<stop  offset="0" style="stop-color:#A1B8FF"/>
					<stop  offset="1" style="stop-color:#FFFFFF"/>
				</linearGradient>
				<path class="st13" d="M638.5,140.4h-18.1c-1.8,0-3.3,1.2-3.7,2.9l-0.6,2.2c-0.5,1.8-2.1,3.1-4,3.1H582c-1.9,0-3.5-1.3-4-3.1
					l-0.6-2.2c-0.5-1.7-2-2.9-3.7-2.9h-18.1c-8.5,0-15.5,6.9-15.5,15.5v176.4c0,8.5,6.9,15.5,15.5,15.5h82.9
					c8.5,0,15.5-6.9,15.5-15.5V155.9C654,147.3,647.1,140.4,638.5,140.4z"/>
			</g>
			<g>
				<defs>
					<path id="SVGID_8_" d="M638.5,140.4h-18.1c-1.8,0-3.3,1.2-3.7,2.9l-0.6,2.2c-0.5,1.8-2.1,3.1-4,3.1H582c-1.9,0-3.5-1.3-4-3.1
						l-0.6-2.2c-0.5-1.7-2-2.9-3.7-2.9h-18.1c-8.5,0-15.5,6.9-15.5,15.5v176.4c0,8.5,6.9,15.5,15.5,15.5h82.9
						c8.5,0,15.5-6.9,15.5-15.5V155.9C654,147.3,647.1,140.4,638.5,140.4z"/>
				</defs>
				<clipPath id="SVGID_9_">
					<use xlink:href="#SVGID_8_"  style="overflow:visible;"/>
				</clipPath>
				
					<linearGradient id="SVGID_10_" gradientUnits="userSpaceOnUse" x1="597.1" y1="187.1814" x2="597.1" y2="157.7707" gradientTransform="matrix(1 0 0 -1 0 502)">
					<stop  offset="0" style="stop-color:#000000"/>
					<stop  offset="1" style="stop-color:#000000;stop-opacity:0"/>
				</linearGradient>
				<path class="st14" d="M576.5,319.4h41.2c4.8,0,8.7,3.9,8.7,8.7l0,0c0,4.8-3.9,8.7-8.7,8.7h-41.2c-4.8,0-8.7-3.9-8.7-8.7l0,0
					C567.8,323.3,571.7,319.4,576.5,319.4z"/>
			</g>
			<g>
				<defs>
					<path id="SVGID_11_" d="M638.5,140.4h-18.1c-1.8,0-3.3,1.2-3.7,2.9l-0.6,2.2c-0.5,1.8-2.1,3.1-4,3.1H582c-1.9,0-3.5-1.3-4-3.1
						l-0.6-2.2c-0.5-1.7-2-2.9-3.7-2.9h-18.1c-8.5,0-15.5,6.9-15.5,15.5v176.4c0,8.5,6.9,15.5,15.5,15.5h82.9
						c8.5,0,15.5-6.9,15.5-15.5V155.9C654,147.3,647.1,140.4,638.5,140.4z"/>
				</defs>
				<clipPath id="SVGID_12_">
					<use xlink:href="#SVGID_11_"  style="overflow:visible;"/>
				</clipPath>
				<g class="st15">
					<g>
						<rect x="575.9" y="193.6" class="st11" width="2.8" height="18.5"/>
						<rect x="615.5" y="193.6" class="st11" width="2.8" height="18.5"/>
					</g>
					<g class="st3">
						<rect x="575.9" y="200.6" width="2.8" height="7.6"/>
						<rect x="615.5" y="200.6" width="2.8" height="7.6"/>
					</g>
					<g>
						<path class="st9" d="M623.7,223.6h-53.2c-1.5,0-2.8-1.2-2.8-2.8v-14.6c0-1.5,1.2-2.8,2.8-2.8h53.2c1.5,0,2.8,1.2,2.8,2.8v14.6
							C626.4,222.3,625.2,223.6,623.7,223.6z"/>
						<path class="st16" d="M623.8,222.1h-53.4c-1.5,0-2.7-1.2-2.7-2.7v-13.3c0-1.5,1.2-2.7,2.7-2.7h53.4c1.5,0,2.7,1.2,2.7,2.7
							v13.3C626.4,220.9,625.2,222.1,623.8,222.1z"/>
						<g>
							<path class="st9" d="M580.8,209c0.6,0,1.1,0.1,1.6,0.2c0.5,0.2,0.9,0.4,1.2,0.6c0.3,0.3,0.6,0.5,0.8,0.9
								c0.2,0.3,0.3,0.6,0.3,0.9c0,0.1,0,0.1-0.1,0.2c-0.1,0.1-0.1,0.1-0.2,0.1h-1.7c-0.1,0-0.2,0-0.3-0.1c-0.1,0-0.2-0.1-0.2-0.2
								l-0.1-0.1c-0.1-0.1-0.1-0.1-0.2-0.2c-0.1-0.1-0.2-0.1-0.4-0.2c-0.2,0-0.4-0.1-0.6-0.1c-0.2,0-0.3,0-0.5,0s-0.3,0.1-0.4,0.1
								c-0.1,0-0.2,0.1-0.3,0.2c-0.1,0.1-0.1,0.2-0.1,0.3s0,0.2,0.1,0.3s0.2,0.2,0.4,0.2c0.2,0.1,0.5,0.1,0.8,0.2
								c0.3,0.1,0.7,0.2,1.2,0.3s0.9,0.2,1.3,0.4c0.4,0.2,0.7,0.3,0.9,0.6s0.4,0.5,0.5,0.8s0.2,0.7,0.2,1.1c0,0.5-0.1,0.9-0.3,1.2
								s-0.5,0.7-0.9,0.9s-0.8,0.4-1.3,0.6c-0.5,0.1-1,0.2-1.6,0.2s-1.2-0.1-1.6-0.2c-0.5-0.2-0.9-0.4-1.3-0.6
								c-0.4-0.3-0.6-0.6-0.8-0.9c-0.2-0.3-0.3-0.7-0.3-1c0-0.1,0-0.1,0.1-0.2c0.1-0.1,0.1-0.1,0.2-0.1h1.7c0.1,0,0.2,0,0.3,0
								s0.1,0.1,0.2,0.1c0,0,0.1,0.1,0.2,0.2c0.1,0.1,0.2,0.2,0.3,0.2c0.1,0.1,0.3,0.2,0.5,0.2c0.2,0.1,0.4,0.1,0.7,0.1
								c0.5,0,0.9-0.1,1.2-0.2c0.3-0.1,0.5-0.3,0.5-0.6c0-0.1-0.1-0.2-0.2-0.3c-0.1-0.1-0.3-0.2-0.5-0.2c-0.2-0.1-0.5-0.1-0.9-0.2
								c-0.4-0.1-0.8-0.2-1.3-0.3c-0.9-0.2-1.6-0.5-2-1s-0.6-1.1-0.6-1.8c0-0.4,0.1-0.7,0.3-1.1c0.2-0.3,0.4-0.7,0.8-0.9
								c0.3-0.3,0.7-0.5,1.2-0.6C579.7,209,580.2,209,580.8,209z"/>
							<path class="st9" d="M595.1,209.1c0.1,0,0.2,0,0.3,0.1s0.1,0.2,0.1,0.3v8.6c0,0.1,0,0.2-0.1,0.3s-0.2,0.1-0.3,0.1h-1.7
								c-0.1,0-0.2,0-0.3-0.1s-0.1-0.2-0.1-0.3v-3.3h-3v3.3c0,0.1,0,0.2-0.1,0.3s-0.2,0.1-0.3,0.1H588c-0.1,0-0.2,0-0.3-0.1
								s-0.1-0.2-0.1-0.3v-8.6c0-0.1,0-0.2,0.1-0.3s0.2-0.1,0.3-0.1h1.7c0.1,0,0.2,0,0.3,0.1s0.1,0.2,0.1,0.3v3.2h3v-3.2
								c0-0.1,0-0.2,0.1-0.3s0.2-0.1,0.3-0.1H595.1z"/>
							<path class="st9" d="M598.4,212.6c0-0.5,0.1-1,0.3-1.4s0.5-0.8,0.8-1.1s0.8-0.6,1.3-0.8s1.1-0.3,1.7-0.3
								c0.6,0,1.2,0.1,1.7,0.3s0.9,0.4,1.3,0.8c0.4,0.3,0.6,0.7,0.8,1.1c0.2,0.4,0.3,0.9,0.3,1.4c0,0.4,0,0.8,0,1.2s0,0.8,0,1.2
								c0,0.5-0.1,1-0.3,1.4s-0.5,0.8-0.8,1.1c-0.4,0.3-0.8,0.6-1.3,0.8s-1.1,0.3-1.7,0.3c-0.7,0-1.2-0.1-1.7-0.3s-0.9-0.4-1.3-0.8
								c-0.4-0.3-0.6-0.7-0.8-1.1c-0.2-0.4-0.3-0.9-0.3-1.4c0-0.4,0-0.8,0-1.2C598.3,213.3,598.4,212.9,598.4,212.6z M604.2,214.9
								c0-0.2,0-0.3,0-0.5s0-0.4,0-0.6c0-0.2,0-0.4,0-0.6c0-0.2,0-0.4,0-0.5c0-0.2-0.1-0.4-0.1-0.6c-0.1-0.2-0.2-0.3-0.3-0.5
								c-0.1-0.1-0.3-0.2-0.5-0.3s-0.4-0.1-0.7-0.1s-0.5,0-0.7,0.1s-0.4,0.2-0.5,0.3s-0.2,0.3-0.3,0.5s-0.1,0.4-0.1,0.6
								c0,0.2,0,0.3,0,0.5s0,0.4,0,0.6c0,0.2,0,0.4,0,0.6c0,0.2,0,0.4,0,0.5c0,0.4,0.2,0.8,0.5,1.1s0.7,0.4,1.2,0.4
								c0.6,0,1-0.1,1.2-0.4C604,215.7,604.2,215.3,604.2,214.9z"/>
							<path class="st9" d="M613.7,209.1c0.6,0,1.1,0.1,1.5,0.2c0.5,0.1,0.8,0.3,1.2,0.6c0.3,0.3,0.6,0.6,0.7,1
								c0.2,0.4,0.3,0.8,0.3,1.4c0,0.5-0.1,1-0.3,1.4s-0.4,0.7-0.7,1s-0.7,0.5-1.2,0.6s-1,0.2-1.5,0.2H612v2.7c0,0.1,0,0.2-0.1,0.3
								s-0.2,0.1-0.3,0.1h-1.7c-0.1,0-0.2,0-0.3-0.1s-0.1-0.2-0.1-0.3v-8.6c0-0.1,0-0.2,0.1-0.3s0.2-0.1,0.3-0.1L613.7,209.1
								L613.7,209.1z M612,213.3h1.6c0.4,0,0.7-0.1,0.9-0.2c0.2-0.2,0.4-0.4,0.4-0.8c0-0.4-0.1-0.6-0.4-0.8
								c-0.2-0.2-0.6-0.2-0.9-0.2H612V213.3z"/>
						</g>
						<g>
							<path class="st6" d="M580.8,208c0.6,0,1.1,0.1,1.6,0.2c0.5,0.2,0.9,0.4,1.2,0.6c0.3,0.3,0.6,0.5,0.8,0.9
								c0.2,0.3,0.3,0.6,0.3,0.9c0,0.1,0,0.1-0.1,0.2c-0.1,0.1-0.1,0.1-0.2,0.1h-1.7c-0.1,0-0.2,0-0.3-0.1c-0.1,0-0.2-0.1-0.2-0.2
								l-0.1-0.1c-0.1-0.1-0.1-0.1-0.2-0.2c-0.1-0.1-0.2-0.1-0.4-0.2c-0.2,0-0.4-0.1-0.6-0.1c-0.2,0-0.3,0-0.5,0s-0.3,0.1-0.4,0.1
								c-0.1,0-0.2,0.1-0.3,0.2c-0.1,0.1-0.1,0.2-0.1,0.3s0,0.2,0.1,0.3s0.2,0.2,0.4,0.2c0.2,0.1,0.5,0.1,0.8,0.2
								c0.3,0.1,0.7,0.2,1.2,0.3s0.9,0.2,1.3,0.4c0.4,0.2,0.7,0.3,0.9,0.6c0.2,0.2,0.4,0.5,0.5,0.8s0.2,0.7,0.2,1.1
								c0,0.5-0.1,0.9-0.3,1.2s-0.5,0.7-0.9,0.9c-0.4,0.3-0.8,0.4-1.3,0.6c-0.5,0.1-1,0.2-1.6,0.2s-1.2-0.1-1.6-0.2
								c-0.5-0.2-0.9-0.4-1.3-0.6c-0.4-0.3-0.6-0.6-0.8-0.9c-0.2-0.3-0.3-0.7-0.3-1c0-0.1,0-0.1,0.1-0.2c0.1-0.1,0.1-0.1,0.2-0.1
								h1.7c0.1,0,0.2,0,0.3,0s0.1,0.1,0.2,0.1c0,0,0.1,0.1,0.2,0.2c0.1,0.1,0.2,0.2,0.3,0.2c0.1,0.1,0.3,0.2,0.5,0.2
								c0.2,0.1,0.4,0.1,0.7,0.1c0.5,0,0.9-0.1,1.2-0.2c0.3-0.1,0.5-0.3,0.5-0.6c0-0.1-0.1-0.2-0.2-0.3c-0.1-0.1-0.3-0.2-0.5-0.2
								c-0.2-0.1-0.5-0.1-0.9-0.2c-0.4-0.1-0.8-0.2-1.3-0.3c-0.9-0.2-1.6-0.5-2-1s-0.6-1.1-0.6-1.8c0-0.4,0.1-0.7,0.3-1.1
								c0.2-0.3,0.4-0.7,0.8-0.9c0.3-0.3,0.7-0.5,1.2-0.6C579.7,208.1,580.2,208,580.8,208z"/>
							<path class="st6" d="M595.1,208.2c0.1,0,0.2,0,0.3,0.1s0.1,0.2,0.1,0.3v8.6c0,0.1,0,0.2-0.1,0.3s-0.2,0.1-0.3,0.1h-1.7
								c-0.1,0-0.2,0-0.3-0.1s-0.1-0.2-0.1-0.3v-3.3h-3v3.3c0,0.1,0,0.2-0.1,0.3s-0.2,0.1-0.3,0.1H588c-0.1,0-0.2,0-0.3-0.1
								s-0.1-0.2-0.1-0.3v-8.6c0-0.1,0-0.2,0.1-0.3s0.2-0.1,0.3-0.1h1.7c0.1,0,0.2,0,0.3,0.1s0.1,0.2,0.1,0.3v3.2h3v-3.2
								c0-0.1,0-0.2,0.1-0.3s0.2-0.1,0.3-0.1H595.1z"/>
							<path class="st6" d="M598.4,211.6c0-0.5,0.1-1,0.3-1.4s0.5-0.8,0.8-1.1s0.8-0.6,1.3-0.8s1.1-0.3,1.7-0.3
								c0.6,0,1.2,0.1,1.7,0.3s0.9,0.4,1.3,0.8c0.4,0.3,0.6,0.7,0.8,1.1c0.2,0.4,0.3,0.9,0.3,1.4c0,0.4,0,0.8,0,1.2s0,0.8,0,1.2
								c0,0.5-0.1,1-0.3,1.4s-0.5,0.8-0.8,1.1c-0.4,0.3-0.8,0.6-1.3,0.8s-1.1,0.3-1.7,0.3c-0.7,0-1.2-0.1-1.7-0.3s-0.9-0.4-1.3-0.8
								c-0.4-0.3-0.6-0.7-0.8-1.1c-0.2-0.4-0.3-0.9-0.3-1.4c0-0.4,0-0.8,0-1.2C598.3,212.4,598.4,212,598.4,211.6z M604.2,213.9
								c0-0.2,0-0.3,0-0.5s0-0.4,0-0.6s0-0.4,0-0.6c0-0.2,0-0.4,0-0.5c0-0.2-0.1-0.4-0.1-0.6c-0.1-0.2-0.2-0.3-0.3-0.5
								c-0.1-0.1-0.3-0.2-0.5-0.3s-0.4-0.1-0.7-0.1s-0.5,0-0.7,0.1s-0.4,0.2-0.5,0.3s-0.2,0.3-0.3,0.5s-0.1,0.4-0.1,0.6
								c0,0.2,0,0.3,0,0.5s0,0.4,0,0.6s0,0.4,0,0.6c0,0.2,0,0.4,0,0.5c0,0.4,0.2,0.8,0.5,1.1s0.7,0.4,1.2,0.4c0.6,0,1-0.1,1.2-0.4
								C604,214.7,604.2,214.4,604.2,213.9z"/>
							<path class="st6" d="M613.7,208.2c0.6,0,1.1,0.1,1.5,0.2c0.5,0.1,0.8,0.3,1.2,0.6c0.3,0.3,0.6,0.6,0.7,1
								c0.2,0.4,0.3,0.8,0.3,1.4c0,0.5-0.1,1-0.3,1.4s-0.4,0.7-0.7,1s-0.7,0.5-1.2,0.6s-1,0.2-1.5,0.2H612v2.7c0,0.1,0,0.2-0.1,0.3
								s-0.2,0.1-0.3,0.1h-1.7c-0.1,0-0.2,0-0.3-0.1s-0.1-0.2-0.1-0.3v-8.6c0-0.1,0-0.2,0.1-0.3s0.2-0.1,0.3-0.1L613.7,208.2
								L613.7,208.2z M612,212.3h1.6c0.4,0,0.7-0.1,0.9-0.2c0.2-0.2,0.4-0.4,0.4-0.8c0-0.4-0.1-0.6-0.4-0.8
								c-0.2-0.2-0.6-0.2-0.9-0.2H612V212.3z"/>
						</g>
					</g>
				</g>
			</g>
			<g>
				<defs>
					<path id="SVGID_13_" d="M638.5,140.4h-18.1c-1.8,0-3.3,1.2-3.7,2.9l-0.6,2.2c-0.5,1.8-2.1,3.1-4,3.1H582c-1.9,0-3.5-1.3-4-3.1
						l-0.6-2.2c-0.5-1.7-2-2.9-3.7-2.9h-18.1c-8.5,0-15.5,6.9-15.5,15.5v176.4c0,8.5,6.9,15.5,15.5,15.5h82.9
						c8.5,0,15.5-6.9,15.5-15.5V155.9C654,147.3,647.1,140.4,638.5,140.4z"/>
				</defs>
				<clipPath id="SVGID_14_">
					<use xlink:href="#SVGID_13_"  style="overflow:visible;"/>
				</clipPath>
				
					<linearGradient id="SVGID_15_" gradientUnits="userSpaceOnUse" x1="597.2001" y1="324.7442" x2="597.2001" y2="292.7932" gradientTransform="matrix(1 0 0 -1 0 502)">
					<stop  offset="0" style="stop-color:#000000"/>
					<stop  offset="1" style="stop-color:#000000;stop-opacity:0"/>
				</linearGradient>
				<path class="st17" d="M540.2,175.3v14.2c0,6.3,5.1,11.4,11.4,11.4c6.3,0,11.4-5.1,11.4-11.4c0,6.3,5.1,11.4,11.4,11.4
					c6.3,0,11.4-5.1,11.4-11.4c0,6.3,5.1,11.4,11.4,11.4l0,0c6.3,0,11.4-5.1,11.4-11.4c0,6.3,5.1,11.4,11.4,11.4
					c6.3,0,11.4-5.1,11.4-11.4c0,6.3,5.1,11.4,11.4,11.4c6.3,0,11.4-5.1,11.4-11.4v-14.2H540.2z"/>
			</g>
			<g>
				<defs>
					<path id="SVGID_16_" d="M638.5,140.4h-18.1c-1.8,0-3.3,1.2-3.7,2.9l-0.6,2.2c-0.5,1.8-2.1,3.1-4,3.1H582c-1.9,0-3.5-1.3-4-3.1
						l-0.6-2.2c-0.5-1.7-2-2.9-3.7-2.9h-18.1c-8.5,0-15.5,6.9-15.5,15.5v176.4c0,8.5,6.9,15.5,15.5,15.5h82.9
						c8.5,0,15.5-6.9,15.5-15.5V155.9C654,147.3,647.1,140.4,638.5,140.4z"/>
				</defs>
				<clipPath id="SVGID_17_">
					<use xlink:href="#SVGID_16_"  style="overflow:visible;"/>
				</clipPath>
				<path class="st18" d="M605.6,145h-17c-0.4,0-0.8-0.4-0.8-0.8l0,0c0-0.4,0.4-0.8,0.8-0.8h17c0.4,0,0.8,0.4,0.8,0.8l0,0
					C606.4,144.6,606,145,605.6,145z"/>
			</g>
			<g>
				<defs>
					<path id="SVGID_18_" d="M638.5,140.4h-18.1c-1.8,0-3.3,1.2-3.7,2.9l-0.6,2.2c-0.5,1.8-2.1,3.1-4,3.1H582c-1.9,0-3.5-1.3-4-3.1
						l-0.6-2.2c-0.5-1.7-2-2.9-3.7-2.9h-18.1c-8.5,0-15.5,6.9-15.5,15.5v176.4c0,8.5,6.9,15.5,15.5,15.5h82.9
						c8.5,0,15.5-6.9,15.5-15.5V155.9C654,147.3,647.1,140.4,638.5,140.4z"/>
				</defs>
				<clipPath id="SVGID_19_">
					<use xlink:href="#SVGID_18_"  style="overflow:visible;"/>
				</clipPath>
				<path class="st19" d="M585.1,144.2c0,0.7-0.6,1.3-1.3,1.3s-1.3-0.6-1.3-1.3s0.6-1.3,1.3-1.3S585.1,143.5,585.1,144.2z"/>
			</g>
			<g>
				<defs>
					<path id="SVGID_20_" d="M638.5,140.4h-18.1c-1.8,0-3.3,1.2-3.7,2.9l-0.6,2.2c-0.5,1.8-2.1,3.1-4,3.1H582c-1.9,0-3.5-1.3-4-3.1
						l-0.6-2.2c-0.5-1.7-2-2.9-3.7-2.9h-18.1c-8.5,0-15.5,6.9-15.5,15.5v176.4c0,8.5,6.9,15.5,15.5,15.5h82.9
						c8.5,0,15.5-6.9,15.5-15.5V155.9C654,147.3,647.1,140.4,638.5,140.4z"/>
				</defs>
				<clipPath id="SVGID_21_">
					<use xlink:href="#SVGID_20_"  style="overflow:visible;"/>
				</clipPath>
				<g class="st20">
					<g>
						<path class="st21" d="M551.5,196.5L551.5,196.5c-6.3,0-11.4-5.1-11.4-11.4V129h22.8v56.1C562.9,191.4,557.8,196.5,551.5,196.5
							z"/>
						<path class="st8" d="M540.2,179.8v5.4c0,6.3,5.1,11.4,11.4,11.4c6.3,0,11.4-5.1,11.4-11.4v-5.4H540.2z"/>
					</g>
					<g>
						<path class="st22" d="M574.3,196.5L574.3,196.5c-6.3,0-11.4-5.1-11.4-11.4V129h22.8v56.1C585.7,191.4,580.6,196.5,574.3,196.5
							z"/>
						<path class="st8" d="M562.9,179.8v5.4c0,6.3,5.1,11.4,11.4,11.4c6.3,0,11.4-5.1,11.4-11.4v-5.4H562.9z"/>
					</g>
					<g>
						<path class="st21" d="M597.1,196.5L597.1,196.5c-6.3,0-11.4-5.1-11.4-11.4V129h22.8v56.1C608.5,191.4,603.4,196.5,597.1,196.5
							z"/>
						<path class="st8" d="M585.7,179.8v5.4c0,6.3,5.1,11.4,11.4,11.4c6.3,0,11.4-5.1,11.4-11.4v-5.4H585.7z"/>
					</g>
					<g>
						<path class="st22" d="M619.8,196.5L619.8,196.5c-6.3,0-11.4-5.1-11.4-11.4V129h22.8v56.1C631.2,191.4,626.1,196.5,619.8,196.5
							z"/>
						<path class="st8" d="M608.5,179.8v5.4c0,6.3,5.1,11.4,11.4,11.4c6.3,0,11.4-5.1,11.4-11.4v-5.4H608.5z"/>
					</g>
					<g>
						<path class="st21" d="M642.6,196.5L642.6,196.5c-6.3,0-11.4-5.1-11.4-11.4V129H654v56.1C654,191.4,648.9,196.5,642.6,196.5z"
							/>
						<path class="st8" d="M631.2,179.8v5.4c0,6.3,5.1,11.4,11.4,11.4c6.3,0,11.4-5.1,11.4-11.4v-5.4H631.2z"/>
					</g>
				</g>
			</g>
			<g>
				<defs>
					<path id="SVGID_22_" d="M638.5,140.4h-18.1c-1.8,0-3.3,1.2-3.7,2.9l-0.6,2.2c-0.5,1.8-2.1,3.1-4,3.1H582c-1.9,0-3.5-1.3-4-3.1
						l-0.6-2.2c-0.5-1.7-2-2.9-3.7-2.9h-18.1c-8.5,0-15.5,6.9-15.5,15.5v176.4c0,8.5,6.9,15.5,15.5,15.5h82.9
						c8.5,0,15.5-6.9,15.5-15.5V155.9C654,147.3,647.1,140.4,638.5,140.4z"/>
				</defs>
				<clipPath id="SVGID_23_">
					<use xlink:href="#SVGID_22_"  style="overflow:visible;"/>
				</clipPath>
				<g class="st23">
					<path class="st21" d="M605.7,237.9c0,4.9-3.8,8.8-8.6,8.8c-4.7,0-8.6-4-8.6-8.8H588V262h18.2v-24.1H605.7z"/>
					<path class="st22" d="M618,263.1c0,0-13.9-7.9-7.1-25.2h-5.2c0,11.7-3.8,15.5-8.6,15.5c-4.7,0-8.6-3.8-8.6-15.5h-5.2
						c6.8,17.3-7.1,25.2-7.1,25.2c2.2,16.3,0.1,33.4-1.3,42c7.1,0.7,14.6,1.1,22.2,1.1c7.7,0,15.1-0.4,22.2-1.1
						C617.9,296.5,615.8,279.5,618,263.1z"/>
					<g>
						<circle class="st21" cx="597.1" cy="261" r="1.5"/>
						<circle class="st21" cx="597.1" cy="270.6" r="1.5"/>
						<circle class="st21" cx="597.1" cy="280.2" r="1.5"/>
						<path class="st21" d="M598.6,289.8c0,0.9-0.7,1.5-1.5,1.5c-0.9,0-1.5-0.7-1.5-1.5s0.7-1.5,1.5-1.5
							C597.9,288.2,598.6,288.9,598.6,289.8z"/>
					</g>
				</g>
			</g>
			<g>
				<defs>
					<path id="SVGID_24_" d="M638.5,140.4h-18.1c-1.8,0-3.3,1.2-3.7,2.9l-0.6,2.2c-0.5,1.8-2.1,3.1-4,3.1H582c-1.9,0-3.5-1.3-4-3.1
						l-0.6-2.2c-0.5-1.7-2-2.9-3.7-2.9h-18.1c-8.5,0-15.5,6.9-15.5,15.5v176.4c0,8.5,6.9,15.5,15.5,15.5h82.9
						c8.5,0,15.5-6.9,15.5-15.5V155.9C654,147.3,647.1,140.4,638.5,140.4z"/>
				</defs>
				<clipPath id="SVGID_25_">
					<use xlink:href="#SVGID_24_"  style="overflow:visible;"/>
				</clipPath>
				<g class="st24">
					<path class="st25" d="M538.4,240.4c-4.5,0-8.4-0.6-10.4-1.6l0,0v10.5h20.7v-10.5l0,0C546.8,239.8,542.9,240.4,538.4,240.4z"/>
					<path class="st1" d="M548.7,238.8c-0.5,4-4.9,7.1-10.3,7.1c-5.4,0-9.9-3.1-10.3-7.1c-13.5,3.1-22.4,11.3-22.4,11.3L514,264
						l4.4-3.1l1.5,44h18.5h18.5l1.5-44l4.4,3.1l8.3-13.8C571.1,250.2,562.3,242,548.7,238.8z"/>
					<g>
						<polygon class="st26" points="519.2,286.2 557.6,286.2 557.6,284.9 519.2,284.9 						"/>
						<polygon class="st26" points="557.3,293.6 519.5,293.6 519.5,294.9 557.3,294.9 						"/>
						<polygon class="st26" points="518.9,276.4 518.9,277.7 557.9,277.7 557.9,276.4 						"/>
						<polygon class="st26" points="518.6,268.1 558.2,268.1 558.3,266.8 518.5,266.8 						"/>
					</g>
				</g>
			</g>
			<g>
				<defs>
					<path id="SVGID_26_" d="M638.5,140.4h-18.1c-1.8,0-3.3,1.2-3.7,2.9l-0.6,2.2c-0.5,1.8-2.1,3.1-4,3.1H582c-1.9,0-3.5-1.3-4-3.1
						l-0.6-2.2c-0.5-1.7-2-2.9-3.7-2.9h-18.1c-8.5,0-15.5,6.9-15.5,15.5v176.4c0,8.5,6.9,15.5,15.5,15.5h82.9
						c8.5,0,15.5-6.9,15.5-15.5V155.9C654,147.3,647.1,140.4,638.5,140.4z"/>
				</defs>
				<clipPath id="SVGID_27_">
					<use xlink:href="#SVGID_26_"  style="overflow:visible;"/>
				</clipPath>
				<g class="st27">
					<path class="st16" d="M666.5,238.1h-34.8l-1.6,66.9h11.1c0-10.7,2.1-47.8,7.9-47.8s7.9,37.1,7.9,47.8h11.1L666.5,238.1z"/>
					<g>
						<line class="st28" x1="634" y1="238.1" x2="632.6" y2="305"/>
						<line class="st28" x1="664.2" y1="238.1" x2="665.6" y2="305"/>
					</g>
					<g>
						<path class="st29" d="M657,305h11.1l-0.1-5.7h-11.1C657,301.6,657,303.5,657,305z"/>
						<path class="st29" d="M641.3,299.3h-11.1l-0.1,5.7h11.1C641.2,303.5,641.2,301.6,641.3,299.3z"/>
					</g>
					<path class="st9" d="M638.2,238.1h-6.5l-0.3,12.3C636.3,248.5,637.8,241,638.2,238.1z"/>
					<path class="st9" d="M660,238.1h6.5l0.3,12.3C661.9,248.5,660.4,241,660,238.1z"/>
					<line class="st28" x1="649.1" y1="238.1" x2="649.1" y2="257.4"/>
					<path class="st28" d="M651.9,238.1v7.6c0,2.3-1.1,4.4-2.8,5.6l0,0"/>
				</g>
			</g>
			<g>
				<defs>
					<path id="SVGID_28_" d="M638.5,140.4h-18.1c-1.8,0-3.3,1.2-3.7,2.9l-0.6,2.2c-0.5,1.8-2.1,3.1-4,3.1H582c-1.9,0-3.5-1.3-4-3.1
						l-0.6-2.2c-0.5-1.7-2-2.9-3.7-2.9h-18.1c-8.5,0-15.5,6.9-15.5,15.5v176.4c0,8.5,6.9,15.5,15.5,15.5h82.9
						c8.5,0,15.5-6.9,15.5-15.5V155.9C654,147.3,647.1,140.4,638.5,140.4z"/>
				</defs>
				<clipPath id="SVGID_29_">
					<use xlink:href="#SVGID_28_"  style="overflow:visible;"/>
				</clipPath>
				<path class="st30" d="M576.5,317.6h41.2c4.8,0,8.7,3.9,8.7,8.7l0,0c0,4.8-3.9,8.7-8.7,8.7h-41.2c-4.8,0-8.7-3.9-8.7-8.7l0,0
					C567.8,321.4,571.7,317.6,576.5,317.6z"/>
			</g>
			<g>
				<defs>
					<path id="SVGID_30_" d="M638.5,140.4h-18.1c-1.8,0-3.3,1.2-3.7,2.9l-0.6,2.2c-0.5,1.8-2.1,3.1-4,3.1H582c-1.9,0-3.5-1.3-4-3.1
						l-0.6-2.2c-0.5-1.7-2-2.9-3.7-2.9h-18.1c-8.5,0-15.5,6.9-15.5,15.5v176.4c0,8.5,6.9,15.5,15.5,15.5h82.9
						c8.5,0,15.5-6.9,15.5-15.5V155.9C654,147.3,647.1,140.4,638.5,140.4z"/>
				</defs>
				<clipPath id="SVGID_31_">
					<use xlink:href="#SVGID_30_"  style="overflow:visible;"/>
				</clipPath>
				<g class="st31">
					<path class="st6" d="M585.7,329.5c-0.1,0-0.1,0-0.2-0.1c-0.1-0.1-0.1-0.1-0.1-0.2V323c0-0.1,0-0.1,0.1-0.2
						c0.1,0,0.1-0.1,0.2-0.1h3.1c0.4,0,0.8,0.1,1.1,0.2s0.5,0.3,0.7,0.5s0.3,0.4,0.4,0.6c0.1,0.2,0.1,0.5,0.1,0.7s0,0.3-0.1,0.5
						c0,0.1-0.1,0.3-0.1,0.4c-0.1,0.1-0.1,0.2-0.2,0.2c-0.1,0.1-0.1,0.1-0.1,0.1c0.2,0.2,0.4,0.4,0.5,0.6s0.1,0.5,0.1,0.8
						s0,0.5-0.1,0.8c-0.1,0.2-0.2,0.5-0.4,0.7s-0.4,0.3-0.7,0.5c-0.3,0.1-0.6,0.2-1,0.2H585.7z M589.2,324.9c0-0.2,0-0.3-0.1-0.4
						s-0.2-0.1-0.4-0.1h-1.5v1.1h1.5c0.2,0,0.3,0,0.4-0.1C589.2,325.2,589.2,325,589.2,324.9z M587.2,328h1.6c0.2,0,0.3-0.1,0.5-0.2
						c0.1-0.1,0.2-0.2,0.2-0.4c0-0.2-0.1-0.3-0.2-0.4c-0.1-0.1-0.3-0.2-0.5-0.2h-1.6V328z"/>
					<path class="st6" d="M599.6,322.8c0.1,0,0.1,0,0.2,0.1c0.1,0.1,0.1,0.1,0.1,0.2v3.8c0,0.4-0.1,0.8-0.2,1.2
						c-0.1,0.3-0.3,0.6-0.6,0.8c-0.3,0.2-0.6,0.4-0.9,0.5c-0.4,0.1-0.7,0.2-1.2,0.2c-0.4,0-0.8-0.1-1.2-0.2s-0.7-0.3-0.9-0.5
						c-0.3-0.2-0.5-0.5-0.6-0.8s-0.2-0.7-0.2-1.2v-3.8c0-0.1,0-0.1,0.1-0.2c0.1,0,0.1-0.1,0.2-0.1h1.2c0.1,0,0.1,0,0.2,0.1
						c0.1,0.1,0.1,0.1,0.1,0.2v3.8c0,0.4,0.1,0.7,0.3,0.9c0.2,0.2,0.5,0.3,0.9,0.3s0.7-0.1,0.9-0.3c0.2-0.2,0.3-0.5,0.3-0.9v-3.8
						c0-0.1,0-0.1,0.1-0.2c0,0,0.1-0.1,0.2-0.1H599.6z"/>
					<path class="st6" d="M606.5,329.3c0,0.1,0,0.1-0.1,0.2s-0.1,0.1-0.2,0.1H605c-0.1,0-0.1,0-0.2-0.1c-0.1-0.1-0.1-0.1-0.1-0.2v-2
						l-2.2-4v-0.1c0-0.1,0-0.1,0.1-0.1l0.1-0.1h1.3c0.1,0,0.2,0,0.3,0.1s0.1,0.1,0.1,0.1l1.2,2.3l1.2-2.3l0.1-0.1
						c0.1-0.1,0.2-0.1,0.3-0.1h1.3c0.1,0,0.1,0,0.1,0.1l0.1,0.1v0.1l-2.2,4L606.5,329.3L606.5,329.3z"/>
				</g>
			</g>
		</g>
		<path class="st8" d="M608,144.7h-21.9c-0.5,0-0.9-0.4-0.9-0.9l0,0c0-0.5,0.4-0.9,0.9-0.9H608c0.5,0,0.9,0.4,0.9,0.9l0,0
			C609,144.3,608.5,144.7,608,144.7z"/>
	</g>
	<g>
		<g class="st3">
			
				<linearGradient id="SVGID_32_" gradientUnits="userSpaceOnUse" x1="490.9" y1="389.0398" x2="490.9" y2="308.5216" gradientTransform="matrix(1 0 0 -1 0 502)">
				<stop  offset="0" style="stop-color:#000000"/>
				<stop  offset="1" style="stop-color:#000000;stop-opacity:0"/>
			</linearGradient>
			<path class="st32" d="M522.3,170.4h-62.8c-2.2,0-4.1-1.8-4.1-4.1v-32.9c0-2.2,1.8-4.1,4.1-4.1h62.8c2.2,0,4.1,1.8,4.1,4.1v32.9
				C526.4,168.6,524.6,170.4,522.3,170.4z"/>
		</g>
		<g>
			<path class="st16" d="M524,168.2h-62.8c-2.2,0-4.1-1.8-4.1-4.1v-32.9c0-2.2,1.8-4.1,4.1-4.1H524c2.2,0,4.1,1.8,4.1,4.1v32.9
				C528.1,166.4,526.3,168.2,524,168.2z"/>
			<rect x="457.1" y="137.7" class="st9" width="71" height="9.1"/>
			<g>
				<path class="st29" d="M489.3,153.2h-26.5c-0.5,0-1-0.4-1-1l0,0c0-0.5,0.4-1,1-1h26.5c0.5,0,1,0.4,1,1l0,0
					C490.2,152.8,489.8,153.2,489.3,153.2z"/>
				<path class="st29" d="M478.1,158.4h-15.3c-0.5,0-1-0.4-1-1l0,0c0-0.5,0.4-1,1-1h15.3c0.5,0,1,0.4,1,1l0,0
					C479.1,157.9,478.6,158.4,478.1,158.4z"/>
			</g>
			<g>
				<path class="st29" d="M489.3,133.6h-26.5c-0.5,0-1-0.4-1-1l0,0c0-0.5,0.4-1,1-1h26.5c0.5,0,1,0.4,1,1l0,0
					C490.2,133.2,489.8,133.6,489.3,133.6z"/>
			</g>
			<g>
				<circle class="st2" cx="510.4" cy="158.3" r="5.4"/>
				<circle class="st2" cx="518" cy="158.3" r="5.4"/>
			</g>
			<path class="st26" d="M512.6,158.3c0,1.5,0.6,2.9,1.6,3.9c1-1,1.6-2.3,1.6-3.9s-0.6-2.9-1.6-3.9
				C513.2,155.4,512.6,156.8,512.6,158.3z"/>
		</g>
	</g>
	<g>
		<g>
			<g>
				<path class="st6" d="M496.7,251.7c-0.3,0-0.5-0.2-0.5-0.5v-8.4c0-4.7-4.2-8.5-9.5-8.5s-9.5,3.8-9.5,8.5v8.4
					c0,0.3-0.2,0.5-0.5,0.5s-0.5-0.2-0.5-0.5v-8.4c0-5.2,4.7-9.5,10.4-9.5c5.7,0,10.4,4.3,10.4,9.5v8.4
					C497.2,251.5,497,251.7,496.7,251.7z"/>
			</g>
			<polygon class="st33" points="506.1,248.5 501.1,248.5 462.2,248.5 458.4,310.8 509.9,310.8 			"/>
			<polygon class="st21" points="504.9,310.8 458.4,310.8 462.2,248.5 501.1,248.5 			"/>
			<g>
				<ellipse class="st34" cx="471.7" cy="251.2" rx="1.2" ry="1.1"/>
				<ellipse class="st34" cx="491.6" cy="251.2" rx="1.2" ry="1.1"/>
			</g>
			<path class="st35" d="M485.7,233.4c-1.7,0.2-3.4,0.7-4.8,1.6c0.2,0,0.5,0,0.7,0c0.4,0,0.9,0,1.3,0.1c1.2-0.5,2.5-0.8,3.9-0.8
				c0.3,0,0.6,0,0.9,0C487.1,233.9,486.4,233.6,485.7,233.4z"/>
			<path class="st6" d="M491.6,251.7c-0.3,0-0.5-0.2-0.5-0.5v-8.4c0-4.7-4.2-8.5-9.5-8.5c-5.2,0-9.5,3.8-9.5,8.5v8.4
				c0,0.3-0.2,0.5-0.5,0.5s-0.5-0.2-0.5-0.5v-8.4c0-5.2,4.7-9.5,10.4-9.5c5.7,0,10.4,4.3,10.4,9.5v8.4
				C492,251.5,491.8,251.7,491.6,251.7z"/>
		</g>
		<path class="st34" d="M407,164.9c3.1,6.7,0.5,10.5-1.5,14.6s-4.5,7.2-3.2,14.2s-1.3,18-11.1,23c-9.8,5-19.1,21.8-23.1,12.2
			l3.3-29.3l23.6-33.9L407,164.9z"/>
		<path class="st22" d="M390.8,191L390.8,191c2.3-1.2,5.2-0.1,6.2,2.3l9.6,23.2l22.9,13c0.5,0.3,1,0.7,1.3,1.2l3.2,4.5
			c0.4,0.5,0.1,1.2-0.6,1.3L430,237c-1.2,0.2-2.4-0.6-2.8-1.7l-1.2-3.2l-20.7-7.4c-2.8-1-5.1-3.1-6.4-5.8L388.7,197
			C387.7,194.8,388.6,192.1,390.8,191z"/>
		<path class="st8" d="M390.8,191L390.8,191c2.3-1.2,5.2-0.1,6.2,2.3l9.6,23.2l22.9,13c0.5,0.3,1,0.7,1.3,1.2l3.2,4.5
			c0.4,0.5,0.1,1.2-0.6,1.3L430,237c-1.2,0.2-2.4-0.6-2.8-1.7l-1.2-3.2l-20.7-7.4c-2.8-1-5.1-3.1-6.4-5.8L388.7,197
			C387.7,194.8,388.6,192.1,390.8,191z"/>
		<g>
			<path class="st6" d="M455.3,347.5c0,2.8-2.3,5-5,5s-5-2.3-5-5c0-2.8,2.3-5,5-5S455.3,344.7,455.3,347.5z"/>
			<path class="st6" d="M518.7,347.5c0,2.8-2.3,5-5,5c-2.8,0-5-2.3-5-5c0-2.8,2.3-5,5-5C516.4,342.4,518.7,344.7,518.7,347.5z"/>
			<path class="st9" d="M515.5,347.5c0,1-0.8,1.9-1.9,1.9c-1,0-1.9-0.8-1.9-1.9c0-1,0.8-1.9,1.9-1.9
				C514.7,345.6,515.5,346.4,515.5,347.5z"/>
			<path class="st9" d="M452.1,347.5c0,1-0.8,1.9-1.9,1.9c-1,0-1.9-0.8-1.9-1.9c0-1,0.8-1.9,1.9-1.9
				C451.3,345.6,452.1,346.4,452.1,347.5z"/>
			<path class="st34" d="M440.6,251.3l13.5,60.6h62.1v-40.2L440.6,251.3z M442.7,253.5l38.8,10.4H445L442.7,253.5z M484.4,264.7
				l26.5,7.1h-64.1l-1.6-7.1H484.4z M514.6,272.9v6.9h-66l-1.6-7.1h66.8L514.6,272.9z M452.3,296.4h62.3v7.1h-60.7L452.3,296.4z
				 M452.1,295.6l-1.6-7.1h64.1v7.1H452.1z M450.3,287.7l-1.6-7.1h65.9v7.1H450.3z M455.4,310.3l-1.3-6h60.6v6H455.4z"/>
			<path class="st36" d="M511.2,335.5c-2.1-5.1-6.5-9-11.9-10.3l-42.2-10.6l-16.8-75.3c-0.9-4.2-4.6-7.2-9-7.2h-20.9v3.2h20.9
				c2.8,0,5.2,1.9,5.9,4.7l17,76l-4.6,26.3l3.1,0.6l4.4-25l41.5,10.4c4.4,1.1,8,4.3,9.7,8.4l2.6,6.5l2.9-1.2L511.2,335.5z"/>
			<path class="st9" d="M430.9,235.6h-20.8c-0.2,0-0.3-0.1-0.3-0.3v-3.4c0-0.2,0.1-0.3,0.3-0.3h20.8c0.2,0,0.3,0.1,0.3,0.3v3.4
				C431.2,235.5,431.1,235.6,430.9,235.6z"/>
			<g>
				<path class="st37" d="M456.9,347.5h-3.2c0-1.9-1.5-3.4-3.4-3.4s-3.4,1.5-3.4,3.4h-3.2c0-3.7,3-6.6,6.6-6.6
					S456.9,343.8,456.9,347.5z"/>
			</g>
			<g>
				<path class="st37" d="M520.3,347.5h-3.2c0-1.9-1.5-3.4-3.4-3.4c-1.9,0-3.4,1.5-3.4,3.4H507c0-3.7,3-6.6,6.6-6.6
					C517.3,340.9,520.3,343.8,520.3,347.5z"/>
			</g>
		</g>
		<g>
			<path class="st22" d="M411.3,318c0,0-3,23.6,0.7,26.6s11.8,4.5,11.9,6.5s-23.3,2.2-24.5-0.4s3.2-6,3.5-13.3
				c0.3-7.4-0.5-19.3-0.5-19.3h8.9V318z"/>
			<path class="st22" d="M352.5,316.6c0,0-14.7,18.6-13.1,23.1s7.8,9.9,6.9,11.7c-0.9,1.8-21.1-10.1-20.8-13
				c0.3-2.8,5.8-3.5,9.9-9.6s9.5-16.8,9.5-16.8L352.5,316.6z"/>
			<path class="st8" d="M344.9,312.1c0,0-1.5,3-3.6,6.6c2.1,1.8,4.3,3.1,6.6,4c2.5-3.5,4.5-6.1,4.5-6.1L344.9,312.1z"/>
			<path class="st8" d="M411.3,318h-8.9c0,0,0.3,3.8,0.4,8.5c3.3-0.4,6-1,7.7-1.5C410.9,321,411.3,318,411.3,318z"/>
			<path class="st21" d="M395.2,188.3c0,0,3.5,6.9,5.1,10.4s-0.2,9.5-2.6,11.6s-5.3,6.6-6.1,12.7h-18.9c0,0,0.6-16.2,2.3-22.1
				c1.7-5.9,14.3-14.1,14.3-14.1L395.2,188.3z"/>
			<path class="st22" d="M404.6,166.2l2.1,7H405c0,0,0.1,5.3-1.8,6.4c-2.7,1.5-4.7,0.5-5.9,2.6c-1.2,2.1-2,6.2-2,6.2s-3,0.4-5.8-1.4
				C389.4,186.9,392.8,168.6,404.6,166.2z"/>
			
				<linearGradient id="SVGID_33_" gradientUnits="userSpaceOnUse" x1="393.9436" y1="325.4743" x2="401.752" y2="317.9151" gradientTransform="matrix(1 0 0 -1 0 502)">
				<stop  offset="0" style="stop-color:#000000"/>
				<stop  offset="1" style="stop-color:#000000;stop-opacity:0"/>
			</linearGradient>
			<path class="st38" d="M395.6,173.3l-0.3-0.4c-1.6,2.3-2.9,4.8-3.8,7l4.7,4.6c0.3-0.8,0.6-1.7,1-2.3c1.2-2.1,3.2-1,5.9-2.6
				C396.2,179.6,395.6,173.3,395.6,173.3z"/>
			<path class="st9" d="M372.8,223.1h18.9c0,0,1.3,0.3,2.5,7.6s5.3,22.8,12.1,33.8c11.4,18.7,6.1,54.5,6.1,54.5s-12.4,4.5-25.4,1.3
				s-30.5,5.3-43.8-9c0,0,10.9-21.2,13.5-35C359.3,262.5,361.9,234.1,372.8,223.1z"/>
			
				<linearGradient id="SVGID_34_" gradientUnits="userSpaceOnUse" x1="389.5139" y1="292.5928" x2="401.4759" y2="256.2638" gradientTransform="matrix(1 0 0 -1 0 502)">
				<stop  offset="0" style="stop-color:#000000"/>
				<stop  offset="1" style="stop-color:#000000;stop-opacity:0"/>
			</linearGradient>
			<path class="st39" d="M394.2,230.7c-1.2-7.3-2.5-7.6-2.5-7.6c0.7-5.2,2.9-9.2,5-11.6l-11.2-19.1l-2.3,4.2c0,0,0.9,30.3,13.1,43.3
				C395.2,236.2,394.5,233,394.2,230.7z"/>
			<path class="st22" d="M386.5,191L386.5,191c2.3-1.2,5.2-0.1,6.2,2.3l9.6,23.2l22.9,13c0.5,0.3,1,0.7,1.3,1.2l3.2,4.5
				c0.4,0.5,0.1,1.2-0.6,1.3l-3.5,0.4c-1.2,0.2-2.4-0.6-2.8-1.7l-1.2-3.2l-20.7-7.4c-2.8-1-5.1-3.1-6.4-5.8L384.4,197
				C383.4,194.8,384.3,192.1,386.5,191z"/>
			<path class="st37" d="M407,164.9c0,0-4,6.9-8.9,9.8c-4.9,2.9-6.5,12.7-10.1,19.4c-3.6,6.6-10.8,11.6-12.4,21
				c-1.4,8-4.5,12.3-7.5,13.9c0,0-2.7-5.2-1.5-12.2s-2.3-11.5-1.5-17s8.2-10.4,11.4-15.1c5-7.3,5.2-17.4,12.8-22.4
				C396.9,157.1,404.6,161.1,407,164.9z"/>
			<path class="st9" d="M412.1,344.6l-3,2.9L401,345c-1.1,2.5-2.2,4.1-1.5,5.6c1.2,2.6,24.6,2.4,24.5,0.4
				C423.8,349,415.8,347.5,412.1,344.6z"/>
			<path class="st9" d="M336,341.4l-5.5-7.6c-2.6,1.9-4.9,2.8-5,4.6c-0.3,2.9,19.8,14.7,20.8,13c0.9-1.7-5-7-6.8-11.4L336,341.4z"/>
			
				<linearGradient id="SVGID_35_" gradientUnits="userSpaceOnUse" x1="357.4014" y1="248.7111" x2="350.12" y2="164.4893" gradientTransform="matrix(1 0 0 -1 0 502)">
				<stop  offset="0" style="stop-color:#000000"/>
				<stop  offset="1" style="stop-color:#000000;stop-opacity:0"/>
			</linearGradient>
			<path class="st40" d="M343.1,311.3c4.7,5.1,10,7.3,15.4,8.2c9.6-23.7,0-54,0-54c-0.7,4.1-1.3,7.8-1.8,10.9
				C354,290.1,343.1,311.3,343.1,311.3z"/>
		</g>
	</g>
	<g>
		
			<linearGradient id="SVGID_36_" gradientUnits="userSpaceOnUse" x1="474.9774" y1="422.325" x2="422.2151" y2="372.3744" gradientTransform="matrix(0.9594 0.2822 0.2822 -0.9594 -113.3381 453.6242)">
			<stop  offset="0" style="stop-color:#000000"/>
			<stop  offset="1" style="stop-color:#000000;stop-opacity:0"/>
		</linearGradient>
		<path class="st41" d="M447.6,213c10.1-5.5,13.8-18.2,8.3-28.3s-18.2-13.8-28.3-8.3c-8.9,4.9-12.9,15.4-9.8,24.7l-8,7l11.7-0.2
			C427.8,215.5,438.7,217.9,447.6,213z"/>
		<path class="st6" d="M446.5,211.2c9.8-5.4,13.5-17.7,8.1-27.5s-17.7-13.5-27.5-8.1c-8.7,4.7-12.5,14.9-9.6,24l-7.7,8.5l11.3-1.9
			C427.2,213.6,437.8,215.9,446.5,211.2z"/>
		<g>
			<path class="st21" d="M440.8,179.6c0,1.8-1.4,3.3-3.2,3.3c-1.8,0-3.2-1.5-3.2-3.3h-0.2v9h6.8v-9H440.8z"/>
			<path class="st22" d="M445.5,189.1c0,0-5.2-3-2.7-9.5h-2c0,4.4-1.4,5.8-3.2,5.8c-1.8,0-3.2-1.4-3.2-5.8h-2
				c2.6,6.5-2.7,9.5-2.7,9.5c0.8,6.1,0,12.5-0.5,15.8c2.7,0.3,5.5,0.4,8.3,0.4c2.9,0,5.7-0.2,8.3-0.4
				C445.4,201.6,444.6,195.2,445.5,189.1z"/>
		</g>
	</g>
	<g>
		<g>
			<path class="st6" d="M450.5,135.4h-16.6c-0.5,0-1-0.4-1-1l0,0c0-0.5,0.4-1,1-1h16.6c0.5,0,1,0.4,1,1l0,0
				C451.4,135,451,135.4,450.5,135.4z"/>
		</g>
		<g>
			<path class="st6" d="M450.5,144.4h-18.4c-0.5,0-1-0.4-1-1l0,0c0-0.5,0.4-1,1-1h18.4c0.5,0,1,0.4,1,1l0,0
				C451.4,144,451,144.4,450.5,144.4z"/>
		</g>
		<g>
			<path class="st6" d="M450.5,153.4h-21c-0.5,0-1-0.4-1-1l0,0c0-0.5,0.4-1,1-1h21c0.5,0,1,0.4,1,1l0,0
				C451.4,153,451,153.4,450.5,153.4z"/>
		</g>
		<g>
			<path class="st6" d="M450.5,162.5H426c-0.5,0-1-0.4-1-1l0,0c0-0.5,0.4-1,1-1h24.4c0.5,0,1,0.4,1,1l0,0
				C451.4,162,451,162.5,450.5,162.5z"/>
		</g>
	</g>
	<g>
		<line class="st42" x1="477.1" y1="174.7" x2="463.8" y2="174.7"/>
		<line class="st42" x1="477.1" y1="181.2" x2="463.8" y2="181.2"/>
		<line class="st42" x1="477.1" y1="187.7" x2="463.8" y2="187.7"/>
		<line class="st42" x1="477.1" y1="194.2" x2="463.8" y2="194.2"/>
	</g>
	<g>
		
			<linearGradient id="SVGID_37_" gradientUnits="userSpaceOnUse" x1="401.4" y1="383.5015" x2="401.4" y2="335.8206" gradientTransform="matrix(1 0 0 -1 0 502)">
			<stop  offset="0" style="stop-color:#000000"/>
			<stop  offset="1" style="stop-color:#000000;stop-opacity:0"/>
		</linearGradient>
		<circle class="st43" cx="401.4" cy="135.3" r="19.1"/>
		
			<ellipse transform="matrix(0.2283 -0.9736 0.9736 0.2283 180.9288 495.5508)" class="st21" cx="403.1" cy="133.6" rx="19.2" ry="19.2"/>
		<g>
			<path class="st6" d="M410.9,124.5c-4.5-1.7-7.8,2.8-7.8,2.8s-3.3-4.5-7.8-2.8c-5.7,2.2-4.5,8.8-2.6,11.8c3,4.8,10.4,8.3,10.4,8.3
				s7.5-3.6,10.4-8.3C415.5,133.3,416.6,126.7,410.9,124.5z"/>
		</g>
	</g>
	<g>
		
			<linearGradient id="SVGID_38_" gradientUnits="userSpaceOnUse" x1="581.3163" y1="185.2461" x2="642.931" y2="185.2461" gradientTransform="matrix(0.9779 -0.2093 -0.2093 -0.9779 87.6825 554.679)">
			<stop  offset="0" style="stop-color:#000000"/>
			<stop  offset="1" style="stop-color:#000000;stop-opacity:0"/>
		</linearGradient>
		<path class="st44" d="M677.8,255l-54,11.6c-1.7,0.4-3.4-0.7-3.8-2.5l-5.2-24.5c-0.4-1.7,0.7-3.4,2.5-3.8l54-11.6
			c1.7-0.4,3.4,0.7,3.8,2.5l5.2,24.5C680.6,252.9,679.5,254.6,677.8,255z"/>
		<path class="st21" d="M679.7,252.3l-54,11.6c-1.7,0.4-3.4-0.7-3.8-2.5l-5.2-24.5c-0.4-1.7,0.7-3.4,2.5-3.8l54-11.6
			c1.7-0.4,3.4,0.7,3.8,2.5l5.2,24.5C682.5,250.3,681.4,252,679.7,252.3z"/>
		<g>
			<path class="st6" d="M628.7,242.4c0.5-0.1,1.1-0.1,1.5-0.1c0.5,0.1,0.9,0.2,1.3,0.4c0.4,0.2,0.7,0.4,1,0.6
				c0.3,0.3,0.4,0.5,0.5,0.8c0,0.1,0,0.1,0,0.2c0,0.1-0.1,0.1-0.2,0.1l-1.7,0.4c-0.1,0-0.2,0-0.3,0s-0.2-0.1-0.3-0.1l-0.1-0.1
				c-0.1,0-0.2-0.1-0.3-0.1s-0.3-0.1-0.4-0.1c-0.2,0-0.4,0-0.6,0c-0.2,0-0.3,0.1-0.5,0.1c-0.1,0.1-0.3,0.1-0.4,0.2
				c-0.1,0.1-0.2,0.2-0.2,0.3c-0.1,0.1-0.1,0.2,0,0.3c0,0.1,0.1,0.2,0.2,0.3c0.1,0.1,0.3,0.1,0.5,0.1s0.5,0,0.8,0s0.7,0,1.2,0
				s0.9,0,1.3,0.1c0.4,0.1,0.7,0.2,1,0.4s0.5,0.4,0.7,0.7s0.3,0.6,0.4,1c0.1,0.4,0.1,0.8,0,1.2s-0.3,0.7-0.6,1s-0.7,0.6-1.1,0.8
				c-0.5,0.2-1,0.4-1.5,0.5c-0.6,0.1-1.1,0.2-1.6,0.1c-0.5-0.1-1-0.2-1.4-0.3c-0.4-0.2-0.7-0.4-1-0.7s-0.4-0.6-0.5-0.9
				c0-0.1,0-0.1,0-0.2c0-0.1,0.1-0.1,0.2-0.1l1.7-0.4c0.1,0,0.2,0,0.3,0s0.2,0,0.2,0.1c0,0,0.1,0.1,0.2,0.1c0.1,0.1,0.2,0.1,0.3,0.2
				c0.1,0.1,0.3,0.1,0.5,0.1s0.4,0,0.7,0c0.4-0.1,0.8-0.2,1.1-0.4s0.4-0.4,0.3-0.6c0-0.1-0.1-0.2-0.2-0.3c-0.1-0.1-0.3-0.1-0.5-0.1
				s-0.5,0-0.9,0s-0.8,0-1.3,0c-0.9,0-1.6-0.2-2.1-0.5c-0.5-0.4-0.8-0.9-1-1.6c-0.1-0.4-0.1-0.7,0-1.1c0.1-0.4,0.3-0.7,0.5-1
				c0.3-0.3,0.6-0.6,1-0.8C627.6,242.7,628.1,242.5,628.7,242.4z"/>
			<path class="st6" d="M639.5,240.2c0.2,0,0.3,0,0.4,0.1c0.1,0.1,0.2,0.2,0.2,0.2l4.5,7.4c0.1,0.1,0.1,0.1,0.1,0.2
				c0,0.1,0,0.1,0,0.2c0,0.1-0.1,0.1-0.2,0.1l-1.6,0.3c-0.2,0-0.3,0-0.4,0c-0.1-0.1-0.1-0.1-0.2-0.2l-0.6-1l-3.4,0.7l-0.1,1.1
				c0,0.1,0,0.2-0.1,0.2s-0.2,0.1-0.3,0.2l-1.6,0.3c-0.1,0-0.1,0-0.2,0c-0.1,0-0.1-0.1-0.1-0.2c0,0,0-0.1,0-0.2l1.1-8.6
				c0-0.1,0.1-0.2,0.1-0.3c0.1-0.1,0.2-0.2,0.4-0.2L639.5,240.2z M638.6,246.2l2.1-0.4L639,243L638.6,246.2z"/>
			<path class="st6" d="M652.5,244.6c0.1,0,0.2,0,0.3,0c0.1,0.1,0.1,0.1,0.2,0.2l0.3,1.3c0,0.1,0,0.2-0.1,0.3s-0.1,0.1-0.2,0.2
				l-5.9,1.3c-0.1,0-0.2,0-0.3,0c-0.1-0.1-0.1-0.1-0.2-0.2l-1.8-8.2c0-0.1,0-0.2,0-0.3c0.1-0.1,0.1-0.1,0.2-0.2l1.7-0.4
				c0.1,0,0.2,0,0.3,0c0.1,0.1,0.1,0.1,0.2,0.2l1.4,6.5L652.5,244.6z"/>
			<path class="st6" d="M661.3,242.7c0.1,0,0.2,0,0.3,0.1s0.1,0.1,0.2,0.2l0.3,1.3c0,0.1,0,0.2-0.1,0.3s-0.1,0.1-0.2,0.2l-6,1.3
				c-0.1,0-0.2,0-0.3,0c-0.1-0.1-0.1-0.1-0.2-0.2l-1.8-8.2c0-0.1,0-0.2,0-0.3c0.1-0.1,0.1-0.1,0.2-0.2l5.9-1.3c0.1,0,0.2,0,0.3,0
				c0.1,0.1,0.1,0.1,0.2,0.2l0.3,1.3c0,0.1,0,0.2-0.1,0.3s-0.1,0.1-0.2,0.2l-3.9,0.8l0.3,1.4l3.6-0.8c0.1,0,0.2,0,0.3,0
				c0.1,0.1,0.1,0.1,0.2,0.2l0.3,1.3c0,0.1,0,0.2-0.1,0.3s-0.1,0.1-0.2,0.2l-3.6,0.8l0.3,1.4L661.3,242.7z"/>
			<path class="st6" d="M666.5,236.2c0.1,0.3,0.2,0.7,0.2,1s0,0.5,0,0.7s-0.1,0.5-0.2,0.7c-0.1,0.2-0.3,0.4-0.5,0.5
				s-0.5,0.3-0.8,0.3c-0.3,0.1-0.6,0.1-0.9,0c-0.3,0-0.5-0.1-0.7-0.3c-0.2-0.1-0.4-0.3-0.5-0.5s-0.2-0.4-0.3-0.7
				c-0.1-0.2-0.1-0.3-0.1-0.5c0-0.1-0.1-0.3-0.1-0.5c0-0.3,0-0.5,0-0.7s0.1-0.5,0.2-0.7c0.1-0.2,0.3-0.4,0.5-0.5s0.5-0.3,0.8-0.3
				c0.3-0.1,0.6-0.1,0.9,0c0.3,0,0.5,0.1,0.7,0.3c0.2,0.1,0.4,0.3,0.5,0.5C666.3,235.7,666.4,236,666.5,236.2z M669.4,234
				c0-0.1,0.1-0.2,0.1-0.2c0.1-0.1,0.1-0.1,0.3-0.1l1-0.2c0.1,0,0.2,0,0.2,0c0.1,0,0.1,0.1,0.1,0.2c0,0,0,0,0,0.1v0.1l-4.5,9.6
				c0,0.1-0.1,0.2-0.1,0.2c-0.1,0.1-0.1,0.1-0.3,0.1l-1,0.2c-0.1,0-0.2,0-0.2,0c-0.1,0-0.1-0.1-0.1-0.2c0,0,0,0,0-0.1v-0.1
				L669.4,234z M664.2,237.7c0.1,0.2,0.1,0.4,0.2,0.5c0.1,0.1,0.2,0.1,0.4,0.1s0.3-0.1,0.4-0.2c0-0.1,0.1-0.3,0-0.5
				c0-0.3-0.1-0.6-0.2-0.8c-0.1-0.2-0.1-0.4-0.2-0.5c-0.1-0.1-0.2-0.1-0.4-0.1s-0.3,0.1-0.4,0.2c0,0.1-0.1,0.3,0,0.5
				C664,237.1,664.1,237.4,664.2,237.7z M673.4,239.4c0.1,0.3,0.2,0.7,0.2,1s0,0.5,0,0.7s-0.1,0.5-0.2,0.7c-0.1,0.2-0.3,0.4-0.5,0.5
				s-0.5,0.3-0.8,0.3c-0.3,0.1-0.6,0.1-0.9,0c-0.3,0-0.5-0.1-0.7-0.3c-0.2-0.1-0.4-0.3-0.5-0.5s-0.2-0.4-0.3-0.7
				c-0.1-0.2-0.1-0.3-0.1-0.5c0-0.1-0.1-0.3-0.1-0.5c0-0.3,0-0.5,0-0.7s0.1-0.5,0.2-0.7c0.1-0.2,0.3-0.4,0.5-0.5s0.5-0.3,0.8-0.3
				c0.3-0.1,0.6-0.1,0.9,0c0.3,0,0.5,0.1,0.7,0.3c0.2,0.1,0.4,0.3,0.5,0.5C673.2,238.9,673.3,239.2,673.4,239.4z M671,240.9
				c0.1,0.2,0.1,0.4,0.2,0.5c0.1,0.1,0.2,0.1,0.4,0.1s0.3-0.1,0.4-0.2c0-0.1,0.1-0.3,0-0.5c0-0.3-0.1-0.6-0.2-0.8
				c-0.1-0.2-0.1-0.4-0.2-0.5c-0.1-0.1-0.2-0.1-0.4-0.1s-0.3,0.1-0.4,0.2c0,0.1-0.1,0.3,0,0.5C670.9,240.3,671,240.6,671,240.9z"/>
		</g>
	</g>
	<line class="st45" x1="289" y1="352.5" x2="675.1" y2="352.5"/>
	<g>
		<g>
			<path class="st11" d="M669.6,314c-0.3,0-0.5-0.2-0.5-0.5v-8.4c0-4.7-4.2-8.5-9.5-8.5c-5.2,0-9.5,3.8-9.5,8.5v8.4
				c0,0.3-0.2,0.5-0.5,0.5s-0.5-0.2-0.5-0.5v-8.4c0-5.2,4.7-9.5,10.4-9.5s10.4,4.3,10.4,9.5v8.4C670.1,313.8,669.9,314,669.6,314z"
				/>
		</g>
		<polygon class="st7" points="682,310.8 676.4,310.8 632,310.8 627.6,357.2 686.4,357.2 		"/>
		<polygon class="st46" points="680.7,357.2 627.6,357.2 632,310.8 676.4,310.8 		"/>
		<g>
			<ellipse class="st34" cx="644.6" cy="313.5" rx="1.2" ry="1.1"/>
			<ellipse class="st34" cx="664.4" cy="313.5" rx="1.2" ry="1.1"/>
		</g>
		
			<linearGradient id="SVGID_39_" gradientUnits="userSpaceOnUse" x1="653.8253" y1="205.55" x2="660.5452" y2="205.55" gradientTransform="matrix(1 0 0 -1 0 502)">
			<stop  offset="0" style="stop-color:#000000"/>
			<stop  offset="1" style="stop-color:#000000;stop-opacity:0"/>
		</linearGradient>
		<path class="st47" d="M658.6,295.6c-1.7,0.2-3.4,0.7-4.8,1.6c0.2,0,0.5,0,0.7,0c0.4,0,0.9,0,1.3,0.1c1.2-0.5,2.5-0.8,3.9-0.8
			c0.3,0,0.6,0,0.9,0C659.9,296.2,659.3,295.9,658.6,295.6z"/>
		<path class="st11" d="M664.4,314c-0.3,0-0.5-0.2-0.5-0.5v-8.4c0-4.7-4.2-8.5-9.5-8.5c-5.2,0-9.5,3.8-9.5,8.5v8.4
			c0,0.3-0.2,0.5-0.5,0.5s-0.5-0.2-0.5-0.5v-8.4c0-5.2,4.7-9.5,10.4-9.5s10.4,4.3,10.4,9.5v8.4C664.9,313.8,664.7,314,664.4,314z"/>
	</g>
	<line class="st45" x1="609" y1="357.2" x2="701.7" y2="357.2"/>
</g>
</svg>
