<?xml version="1.0" encoding="utf-8"?>
<!-- Generator: Adobe Illustrator 21.1.0, SVG Export Plug-In . SVG Version: 6.00 Build 0)  -->
<svg version="1.1" id="Entertainments-72x72_1_" xmlns="http://www.w3.org/2000/svg" xmlns:xlink="http://www.w3.org/1999/xlink"
	 x="0px" y="0px" viewBox="0 0 72 72" style="enable-background:new 0 0 72 72;" xml:space="preserve">
<style type="text/css">
	.st0{fill:#FFEEDF;}
	.st1{fill:#FFA504;}
	.st2{fill:#FF7900;}
	.st3{fill:#FFB500;}
	.st4{fill:#FFE6B9;}
</style>
<g id="Entertainments-72x72">
	<circle id="Oval-Copy-42" class="st0" cx="36" cy="36" r="36"/>
	<g id="Group-3-Copy-2" transform="translate(17.000000, 18.000000)">
		<rect id="Rectangle-Copy-149" x="16.3" y="25.8" class="st1" width="5.4" height="9.5"/>
		<path id="Rectangle-Copy-150" class="st2" d="M10.2,33.9h17.6c1.1,0,2,0.9,2,2v0.7c0,0.7-0.6,1.3-1.3,1.3h-19
			c-0.7,0-1.3-0.6-1.3-1.3V36C8.1,34.8,9.1,33.9,10.2,33.9z"/>
		<path id="Rectangle-Copy-151" class="st2" d="M1.3,2.7h6.8v13.6H6.8C3,16.3,0,13.2,0,9.5V4.1C0,3.3,0.6,2.7,1.3,2.7z"/>
		<path id="Rectangle-Copy-152" class="st2" d="M29.9,2.7h6.8c0.7,0,1.3,0.6,1.3,1.3v5.4c0,3.7-3,6.8-6.8,6.8h-1.4V2.7z"/>
		<path id="r-copy" class="st3" d="M9.5,0h19.1c1.5,0,2.7,1.2,2.7,2.7v12.2c0,6.7-5.5,12.2-12.2,12.2l0,0c-6.7,0-12.2-5.5-12.2-12.2
			V2.7C6.8,1.2,8,0,9.5,0z"/>
		<circle id="Oval-Copy-73" class="st4" cx="19" cy="12.2" r="4.1"/>
	</g>
</g>
</svg>
