<?xml version="1.0" encoding="utf-8"?>
<!-- Generator: Adobe Illustrator 21.1.0, SVG Export Plug-In . SVG Version: 6.00 Build 0)  -->
<svg version="1.1" id="Game-72x72_1_" xmlns="http://www.w3.org/2000/svg" xmlns:xlink="http://www.w3.org/1999/xlink" x="0px"
	 y="0px" viewBox="0 0 72 72" style="enable-background:new 0 0 72 72;" xml:space="preserve">
<style type="text/css">
	.st0{fill:#F8F1FF;}
	.st1{fill:#5C2B91;}
	.st2{fill:#865ED3;}
	.st3{fill:none;stroke:#CBABFF;stroke-width:1.5652;stroke-linecap:round;}
	.st4{fill:#E9DCFF;}
</style>
<g id="Game-72x72">
	<circle id="Oval-Copy-26" class="st0" cx="36" cy="36" r="36"/>
	<g id="Group-55-Copy-3" transform="translate(16.000000, 21.000000)">
		<g id="Group" transform="translate(0.000000, 0.000000)">
			<path id="Rectangle-Copy-19" class="st1" d="M13.6,0h13.7c1.9,0,3.4,1.5,3.4,3.4v5.9H10.2V3.4C10.2,1.5,11.8,0,13.6,0z"/>
			<path id="Combined-Shape" class="st2" d="M20.5,8.1h4.8c1,0,1.9-0.7,2.2-1.7l0.3-1.3c0.5-1.7,2-2.9,3.8-2.9h1.8
				c2.2,0,4.1,1.6,4.4,3.8L41,25.1c0.4,2.4-1.2,4.6-3.6,5c-0.2,0-0.5,0.1-0.7,0.1h-1c-2.6,0-5-1.3-6.4-3.5l-0.6-0.9
				c-1-1.6-2.8-2.6-4.7-2.6h-3.4h-3.4c-1.9,0-3.7,1-4.7,2.6l-0.6,0.9c-1.4,2.2-3.8,3.5-6.4,3.5h-1c-0.2,0-0.5,0-0.7-0.1
				c-2.4-0.4-4-2.6-3.6-5L3.2,6c0.4-2.2,2.2-3.8,4.4-3.8h1.8c1.8,0,3.3,1.2,3.8,2.9l0.3,1.3c0.3,1,1.2,1.7,2.2,1.7H20.5z"/>
			<path id="Path-17" class="st3" d="M17.3,19.4h6.3"/>
			<ellipse id="Oval-Copy-47" class="st4" cx="10" cy="13.3" rx="3.2" ry="3.1"/>
			<path id="Rectangle" class="st4" d="M34.7,13.2L34.7,13.2c0,0.9-0.7,1.5-1.5,1.5h-4.8c-0.9,0-1.6-0.7-1.6-1.5l0,0
				c0-0.9,0.7-1.5,1.6-1.5h4.8C34,11.6,34.7,12.3,34.7,13.2z"/>
			<path id="Rectangle_1_" class="st4" d="M30.8,17L30.8,17c-0.9,0-1.6-0.7-1.6-1.6v-4.6c0-0.9,0.7-1.6,1.6-1.6l0,0
				c0.9,0,1.6,0.7,1.6,1.6v4.6C32.3,16.3,31.6,17,30.8,17z"/>
		</g>
	</g>
</g>
</svg>
