<?xml version="1.0" encoding="utf-8"?>
<!-- Generator: Adobe Illustrator 21.1.0, SVG Export Plug-In . SVG Version: 6.00 Build 0)  -->
<svg version="1.1" id="Home-72x72_1_" xmlns="http://www.w3.org/2000/svg" xmlns:xlink="http://www.w3.org/1999/xlink" x="0px"
	 y="0px" viewBox="0 0 72 72" style="enable-background:new 0 0 72 72;" xml:space="preserve">
<style type="text/css">
	.st0{fill:#FFEEDF;}
	.st1{fill:#FF8200;}
	.st2{fill:#FFB022;}
	.st3{fill:#CD6F17;}
	.st4{fill:#FFE8C5;}
	.st5{fill:none;stroke:#3E4855;stroke-width:3.7565;stroke-linecap:round;}
</style>
<g id="Home-72x72">
	<circle id="Oval-Copy-12" class="st0" cx="36" cy="36" r="36"/>
	<g id="Group-51-Copy-3" transform="translate(17.000000, 17.000000)">
		<path id="Rectangle-Copy-86" class="st1" d="M28.2,0h2.2c0.7,0,1.3,0.6,1.3,1.3v9.7h-4.8V1.3C26.9,0.6,27.5,0,28.2,0z"/>
		<path id="Rectangle-Copy-84" class="st2" d="M1.6,16.6L19,1.6l17.4,15v19.9c0,1.4-1.1,2.5-2.5,2.5H4.1c-1.4,0-2.5-1.1-2.5-2.5
			V16.6z"/>
		<path id="Rectangle-Copy-92" class="st3" d="M15.8,23.4h6.4c0.9,0,1.6,0.7,1.6,1.6v14h-9.5V25C14.2,24.1,15,23.4,15.8,23.4z"/>
		<ellipse id="Oval-Copy-49" class="st4" cx="19" cy="14" rx="3.2" ry="3.1"/>
		<path id="Path-18-Copy-2" class="st5" d="M0,17.2L17.4,2.9c0.9-0.8,2.3-0.8,3.2,0L38,17.2"/>
	</g>
</g>
</svg>
