<?xml version="1.0" encoding="utf-8"?>
<!-- Generator: Adobe Illustrator 21.1.0, SVG Export Plug-In . SVG Version: 6.00 Build 0)  -->
<svg version="1.1" id="Mobile-72x72_1_" xmlns="http://www.w3.org/2000/svg" xmlns:xlink="http://www.w3.org/1999/xlink" x="0px"
	 y="0px" viewBox="0 0 72 72" style="enable-background:new 0 0 72 72;" xml:space="preserve">
<style type="text/css">
	.st0{fill:#DAEAFF;}
	.st1{fill:#3A4350;}
	.st2{fill:#A7CEFF;}
	.st3{fill:#FFFFFF;}
</style>
<g id="Mobile-72x72">
	<circle id="Oval-Copy-10" class="st0" cx="36" cy="36" r="36"/>
	<g id="Group-Copy" transform="translate(21.000000, 14.000000)">
		<g id="Group-50-Copy-2">
			<g id="Group-42">
				<path id="Rectangle-Copy-98" class="st1" d="M3.1,0h23.7C28.6,0,30,1.4,30,3.1v37.7c0,1.7-1.4,3.1-3.1,3.1H3.1
					C1.4,44,0,42.6,0,40.9V3.1C0,1.4,1.4,0,3.1,0z"/>
				<path id="Combined-Shape" class="st2" d="M15,6.3h4.2c0.6,0,1.1-0.3,1.4-0.8l0.9-1.5c0.3-0.5,0.8-0.8,1.4-0.8h2.7
					c0.9,0,1.6,0.7,1.6,1.6v34.6c0,0.9-0.7,1.6-1.6,1.6H15H4.6c-0.9,0-1.6-0.7-1.6-1.6V4.7c0-0.9,0.7-1.6,1.6-1.6h2.7
					c0.6,0,1.1,0.3,1.4,0.8l0.9,1.5c0.3,0.5,0.8,0.8,1.4,0.8H15z"/>
			</g>
		</g>
		<rect id="Rectangle" x="7.9" y="34.6" class="st3" width="14.2" height="3.1"/>
	</g>
</g>
</svg>
