<svg xmlns="http://www.w3.org/2000/svg" width="415.372" height="144.954" viewBox="0 0 415.372 144.954">
  <g id="Group_1" data-name="Group 1" transform="translate(0)">
    <path id="path4" d="M107.251,199.764a49.319,49.319,0,0,0,7.52-14.651,61.672,61.672,0,0,0,2.732-19.173q0-11.314-5.416-17.746t-15.449-6.407a27.6,27.6,0,0,0-12.572,3.023,33.9,33.9,0,0,0-11,9.163A45.485,45.485,0,0,0,65.2,168.6a61.076,61.076,0,0,0-2.969,19.682q0,12.113,5.562,18.278t15.376,6.165a27.387,27.387,0,0,0,13.1-3.366A33.287,33.287,0,0,0,107.251,199.764Zm38.825-36a79.361,79.361,0,0,1-2.539,19.753,67.468,67.468,0,0,1-7.933,18.617,66.061,66.061,0,0,1-12.947,15.134,57.286,57.286,0,0,1-17.5,10.42,14.709,14.709,0,0,0-.417,2.423,25.886,25.886,0,0,0-.145,2.635c0,3.263.992,5.633,3,7.083,1.982,1.474,5.409,2.2,10.251,2.2a31.6,31.6,0,0,0,7.059-.944,34.9,34.9,0,0,0,5.874-1.814h2.684l-4.3,18.569q-4.172.9-8.486,1.62a79.929,79.929,0,0,1-11.966.7q-14.434,0-21.808-5.609-7.4-5.622-7.4-16.2a27.121,27.121,0,0,1,.169-3.265c.12-1.016.266-1.983.387-2.926h-.411q-21.577,0-33.776-11.146-12.221-11.169-12.209-30.7A73.256,73.256,0,0,1,38.323,164.2a65.99,65.99,0,0,1,13.37-21.808A62.329,62.329,0,0,1,72.7,127.788a67.893,67.893,0,0,1,27.32-5.439q21.651,0,33.847,11.194,12.222,11.17,12.21,30.222Z" transform="translate(-33.656 -122.345)" fill="#ffa22d" fill-rule="evenodd"/>
    <path id="path6" d="M184.276,165.946q0,19.8-16.4,31.91Q151.5,209.965,122.03,209.965h-10.84l-8.326,36.1H74.152l25.564-110.73H139.5a105.912,105.912,0,0,1,18.938,1.5,39.667,39.667,0,0,1,13.937,5.128,24.2,24.2,0,0,1,8.86,9.469,31.132,31.132,0,0,1,3.046,14.52Zm-30.462,2.765c0-4.29-1.573-7.489-4.7-9.545q-4.688-3.125-13.937-3.125H123.63L115.989,189.1H126.27c8.682,0,15.46-1.777,20.284-5.306q7.272-5.288,7.259-15.079Zm82.589,37.9c-4.8.406-9.317.863-13.506,1.422a52.636,52.636,0,0,0-10.738,2.361,15.315,15.315,0,0,0-6.956,4.62,12.14,12.14,0,0,0-2.411,7.87,6.3,6.3,0,0,0,3.2,6.041q3.2,1.751,9.29,1.751a23.511,23.511,0,0,0,8.534-1.8,41.988,41.988,0,0,0,8.534-4.619Zm-7.032,30.64c-1.7,1.091-3.726,2.412-6.143,3.935a46.879,46.879,0,0,1-6.625,3.655,57.875,57.875,0,0,1-7.844,2.614,45.778,45.778,0,0,1-10.155.888q-10.472,0-17.085-5.838a19.451,19.451,0,0,1-6.6-15.232,29.217,29.217,0,0,1,4.7-16.805A31.733,31.733,0,0,1,193.5,199.5a76.963,76.963,0,0,1,20.563-5.586c7.946-1.142,16.552-2,25.843-2.539q.077-.457.305-1.442a9.126,9.126,0,0,0,.254-2.284,7.452,7.452,0,0,0-4.928-7.388c-3.245-1.422-8.148-2.132-14.648-2.132a54.365,54.365,0,0,0-14.6,2.235q-8,2.208-12.007,3.706h-2.463l3.934-19.75c3.125-.787,7.971-1.7,14.52-2.691a130.2,130.2,0,0,1,19.547-1.472q19.649,0,28.813,5.128t9.189,15.917a36.3,36.3,0,0,1-.254,3.885,31.361,31.361,0,0,1-.71,4.163l-13.049,56.813H227.34ZM301.2,276.677H271.773l21.3-32.266-13.7-81.818h27.341l7.212,54.706,31.853-54.706h28.252Z" transform="translate(41.345 -131.724)" fill="#009cde" fill-rule="evenodd"/>
  </g>
</svg>
