<?xml version="1.0" encoding="utf-8"?>
<!-- Generator: Adobe Illustrator 21.1.0, SVG Export Plug-In . SVG Version: 6.00 Build 0)  -->
<svg version="1.1" id="SM-72x72_1_" xmlns="http://www.w3.org/2000/svg" xmlns:xlink="http://www.w3.org/1999/xlink" x="0px"
	 y="0px" viewBox="0 0 72 72" style="enable-background:new 0 0 72 72;" xml:space="preserve">
<style type="text/css">
	.st0{fill:#F8F1FF;}
	.st1{fill:url(#Rectangle-Copy-180_1_);}
	.st2{fill:#FFC865;}
	.st3{fill:#DFC8FF;}
</style>
<g id="SM-72x72">
	<circle id="Oval-Copy-28" class="st0" cx="36" cy="36" r="36"/>
	<g id="Group-Copy-5" transform="translate(16.000000, 17.000000)">
		<g id="Group-Copy">
			
				<linearGradient id="Rectangle-Copy-180_1_" gradientUnits="userSpaceOnUse" x1="-602.9774" y1="389.3895" x2="-602.9774" y2="388.3895" gradientTransform="matrix(11.0385 0 0 -23.75 6661.4614 9262.25)">
				<stop  offset="0" style="stop-color:#8359CE"/>
				<stop  offset="1" style="stop-color:#6A2BA4"/>
			</linearGradient>
			<path id="Rectangle-Copy-180" class="st1" d="M3.1,14.2h4.8c1.7,0,3.1,1.4,3.1,3.1v17.5c0,1.7-1.4,3.1-3.1,3.1H3.1
				C1.4,38,0,36.6,0,34.9V17.4C0,15.7,1.4,14.2,3.1,14.2z"/>
			<path id="Path-20-Copy-3" class="st2" d="M14.2,14.2h1.3c2.4,0,4.4-2,4.4-4.4V2.3c0-0.9,0.7-1.6,1.6-1.6c0.2,0,0.4,0,0.6,0.1
				l1.8,0.7c2.4,1,3.9,3.3,3.9,5.8v4.4c0,0.9,0.7,1.6,1.6,1.6h8.5c1.7,0,3.1,1.4,3.1,3.1c0,0.2,0,0.4,0,0.5l-3.3,18.4
				c-0.3,1.5-1.6,2.6-3.1,2.6H14.2c-1.7,0-3.1-1.4-3.1-3.1v-2v-6.8v-5.9v-2.8C11,15.7,12.4,14.2,14.2,14.2z"/>
			<ellipse id="Oval-Copy-79" class="st3" cx="5.5" cy="32.5" rx="2.4" ry="2.4"/>
		</g>
	</g>
</g>
</svg>
