<?xml version="1.0" encoding="utf-8"?>
<!-- Generator: Adobe Illustrator 22.0.0, SVG Export Plug-In . SVG Version: 6.00 Build 0)  -->
<svg version="1.1" id="OBJECTS" xmlns="http://www.w3.org/2000/svg" xmlns:xlink="http://www.w3.org/1999/xlink" x="0px" y="0px"
	 viewBox="0 0 750 500" style="enable-background:new 0 0 750 500;" xml:space="preserve">
<style type="text/css">
	.st0{fill:#FFFFFF;}
	.st1{fill:url(#SVGID_1_);}
	.st2{opacity:0.1246;fill:url(#SVGID_2_);}
	.st3{opacity:8.164900e-02;fill:url(#SVGID_3_);}
	.st4{fill:#2672E7;}
	.st5{opacity:0.63;fill:#D1D3D4;}
	.st6{fill:#FF6066;}
	.st7{fill:#FFE340;}
	.st8{fill:#2D2D2C;}
	.st9{clip-path:url(#SVGID_5_);fill:#FF6066;}
	.st10{clip-path:url(#SVGID_7_);fill:#FF6066;}
	.st11{clip-path:url(#SVGID_9_);fill:#FF6066;}
	.st12{fill:#3A4C9F;}
	.st13{fill:#273B82;}
	.st14{fill:#B8D5FF;}
	.st15{fill:#D1D2D4;}
	.st16{opacity:0.15;}
	.st17{opacity:0.26;}
	.st18{opacity:0.62;}
	.st19{fill:#9CC9FF;}
	.st20{fill:none;stroke:#FFFFFF;stroke-width:1.0545;stroke-linecap:round;stroke-linejoin:round;stroke-miterlimit:10;}
	.st21{fill:#568BFF;}
	.st22{fill:#171587;}
	.st23{fill:#FFE1BD;}
	.st24{fill:#08085E;}
	.st25{fill:#492107;}
	.st26{fill:#201D93;}
	.st27{fill:#C46600;}
	.st28{fill:#DB7700;}
	.st29{fill:#E8C5A0;}
	.st30{fill:#B3C5CE;}
	.st31{fill:#E8F1F8;}
	.st32{opacity:0.24;fill:#474747;}
	.st33{fill:#D4DEDF;}
	.st34{fill:#632F00;}
	.st35{fill:#4C2E1E;}
	.st36{fill:#8C4200;}
	.st37{fill:#282C3B;}
	.st38{fill:#2D24A3;}
	.st39{fill:#B4BCC5;}
	.st40{fill:#FFCC99;}
	.st41{fill:#3838D6;}
	.st42{opacity:0.38;}
	.st43{fill:none;stroke:#FFFFFF;stroke-width:0.9056;stroke-miterlimit:10;}
	.st44{fill:#626466;}
	.st45{fill:#29568C;}
</style>
<rect x="90" y="0" class="st0" width="660" height="422.5"/>
<linearGradient id="SVGID_1_" gradientUnits="userSpaceOnUse" x1="745.4769" y1="-62.3876" x2="454.0508" y2="285.7217">
	<stop  offset="0" style="stop-color:#374FA1"/>
	<stop  offset="0.8147" style="stop-color:#458EFE"/>
</linearGradient>
<path class="st1" d="M750,0v379.5c-58.4,25.2-132.3,14.3-179.4-28c-14.6-13.1-27.1-29-44.6-38.2c-38.5-20-93-3.3-124.4-32.7
	c-27.1-25.5-19.9-70.3-40.1-101.2c-8.8-13.4-20.6-24.9-33.5-34.7C281,109,276.2,28.1,323.3,0H750z"/>
<linearGradient id="SVGID_2_" gradientUnits="userSpaceOnUse" x1="738.7921" y1="-48.4809" x2="446.487" y2="300.6784">
	<stop  offset="0" style="stop-color:#006DFF"/>
	<stop  offset="0.7617" style="stop-color:#00BFD8"/>
</linearGradient>
<path class="st2" d="M739.2,10.6L750,390.3c-58.3,25.4-142.9,17.3-189.9-25.3c-14.6-13.2-27-29.3-44.5-38.5
	c-38.4-20.2-92.8-3.3-124.1-33c-27.1-25.7-19.8-70.9-40-102c-8.8-13.5-20.5-25.1-33.4-35c-46.9-36-40.8-128.1,6.1-156.5L739.2,10.6z
	"/>
<linearGradient id="SVGID_3_" gradientUnits="userSpaceOnUse" x1="715.3906" y1="84.803" x2="545.7522" y2="287.4365">
	<stop  offset="0" style="stop-color:#FFFFFF"/>
	<stop  offset="0.2561" style="stop-color:#BFD8FF"/>
	<stop  offset="0.7617" style="stop-color:#458EFE"/>
</linearGradient>
<path class="st3" d="M750,113.8v236c-6.5,3.5-14.4,5.5-21.9,6.4c-24.5,2.9-50-2.8-70.4-15.7c-29.9-19-46.6-50.9-71.9-75
	c-19.3-18.4-43.8-32-70.4-39.2c-17.4-4.7-35.6-6.7-52.2-13.4c-23.6-9.5-43.1-29.6-46.2-53.2c-3.2-23.6,12.9-49.4,37.9-55.1
	c21-4.8,42.8,4.3,64.5,3.6c18.4-0.6,35.3-8.1,50.5-17.1c13.7-8.1,22.6-17.5,40.4-17.1c13.2,0.3,25.9,5.5,36.2,13.1
	c12.6,9.4,22.4,22.8,37.6,27.7c20.8,6.7,40.4-7.4,60.5-2.9C746.5,112.4,748.3,113,750,113.8z"/>
<g>
	<path class="st4" d="M75.5,130.1c-1.1,0.6-2.4,0.8-4,0.8c-2.1,0-3.7-0.7-5-2s-1.9-3.1-1.9-5.2c0-2.3,0.7-4.2,2.1-5.6
		c1.4-1.4,3.2-2.1,5.4-2.1c1.4,0,2.5,0.2,3.4,0.6v1.8c-1-0.6-2.2-0.9-3.5-0.9c-1.7,0-3,0.6-4.1,1.7c-1,1.1-1.6,2.6-1.6,4.4
		c0,1.8,0.5,3.2,1.5,4.2c1,1,2.3,1.6,3.8,1.6c1.5,0,2.7-0.3,3.8-1V130.1z"/>
	<path class="st4" d="M82.6,130.9c-1.5,0-2.8-0.5-3.7-1.4c-0.9-1-1.4-2.2-1.4-3.8c0-1.7,0.5-3.1,1.4-4.1c1-1,2.3-1.5,3.9-1.5
		c1.6,0,2.8,0.5,3.6,1.4c0.9,0.9,1.3,2.3,1.3,3.9c0,1.6-0.5,3-1.4,3.9C85.5,130.5,84.2,130.9,82.6,130.9z M82.8,121.6
		c-1.1,0-1.9,0.4-2.6,1.1c-0.6,0.7-0.9,1.7-0.9,3c0,1.2,0.3,2.2,0.9,2.9s1.5,1.1,2.5,1.1c1.1,0,1.9-0.3,2.5-1
		c0.6-0.7,0.9-1.7,0.9-2.9c0-1.3-0.3-2.3-0.9-3C84.7,121.9,83.8,121.6,82.8,121.6z"/>
	<path class="st4" d="M100.7,134.5h-1.4v-3.8h-8.8v-10.3h1.7v8.9h5.3v-8.9h1.7v8.9h1.5V134.5z"/>
	<path class="st4" d="M111.8,130.7h-1.5v-8.2c-0.1,0.3-0.4,0.7-0.7,1.2l-4.8,7H103v-10.3h1.5v8.1c0.1-0.2,0.3-0.5,0.5-1l5-7.1h1.7
		V130.7z"/>
	<path class="st4" d="M122.7,130.7H121v-1.6h0c-0.7,1.2-1.8,1.8-3.2,1.8c-1,0-1.9-0.3-2.4-0.8c-0.6-0.5-0.9-1.3-0.9-2.2
		c0-1.9,1.1-3,3.4-3.4l3.1-0.4c0-1.7-0.7-2.6-2.2-2.6c-1.3,0-2.4,0.4-3.4,1.3v-1.7c1-0.6,2.2-1,3.5-1c2.5,0,3.7,1.3,3.7,3.8V130.7z
		 M121,125.5l-2.5,0.3c-0.8,0.1-1.4,0.3-1.8,0.6c-0.4,0.3-0.6,0.8-0.6,1.4c0,0.5,0.2,0.9,0.5,1.2s0.8,0.5,1.5,0.5
		c0.8,0,1.5-0.3,2.1-0.9c0.5-0.6,0.8-1.3,0.8-2.2V125.5z"/>
	<path class="st4" d="M133.4,130.7h-1.7v-8.9h-2.4c-0.3,3.3-0.8,5.7-1.4,7s-1.6,2-2.7,2c-0.3,0-0.6,0-0.9-0.1v-1.4
		c0.2,0.1,0.5,0.2,0.8,0.2c1.5,0,2.5-3,2.9-9.1h5.5V130.7z"/>
	<path class="st4" d="M136.8,130.7v-10.3h1.7v4h2.8c1.1,0,1.9,0.3,2.5,0.8c0.6,0.5,0.9,1.3,0.9,2.3c0,1-0.3,1.8-0.9,2.4
		c-0.6,0.6-1.4,0.9-2.4,0.9H136.8z M138.5,125.8v3.5h2.5c1.4,0,2.1-0.6,2.1-1.8c0-1.1-0.7-1.7-2.1-1.7H138.5z"/>
	<path class="st4" d="M156,130.7h-1.7V126H149v4.7h-1.7v-10.3h1.7v4.2h5.3v-4.2h1.7V130.7z"/>
	<path class="st4" d="M159.4,130.7v-10.3h1.7v4h2.8c1.1,0,1.9,0.3,2.5,0.8c0.6,0.5,0.9,1.3,0.9,2.3c0,1-0.3,1.8-0.9,2.4
		c-0.6,0.6-1.4,0.9-2.4,0.9H159.4z M161.1,125.8v3.5h2.5c1.4,0,2.1-0.6,2.1-1.8c0-1.1-0.7-1.7-2.1-1.7H161.1z M170.8,130.7h-1.7
		v-10.3h1.7V130.7z"/>
	<path class="st4" d="M182.6,126h-7.4c0,1.1,0.3,2,0.9,2.7c0.6,0.6,1.4,0.9,2.5,0.9c1.2,0,2.3-0.4,3.2-1.1v1.5c-0.9,0.7-2.1,1-3.6,1
		c-1.5,0-2.6-0.5-3.5-1.4c-0.8-0.9-1.3-2.3-1.3-3.9c0-1.6,0.5-2.9,1.4-3.9s2.1-1.5,3.4-1.5s2.4,0.4,3.2,1.3c0.7,0.9,1.1,2.1,1.1,3.6
		V126z M180.9,124.6c0-1-0.2-1.7-0.7-2.2s-1.1-0.8-1.9-0.8c-0.8,0-1.5,0.3-2,0.8c-0.6,0.6-0.9,1.3-1,2.2H180.9z"/>
	<path class="st4" d="M198,130.2c-0.8,0.5-1.8,0.7-2.9,0.7c-1.5,0-2.7-0.5-3.6-1.4s-1.4-2.2-1.4-3.7c0-1.7,0.5-3.1,1.5-4.1
		s2.3-1.5,3.9-1.5c0.9,0,1.7,0.2,2.4,0.5v1.7c-0.8-0.5-1.6-0.8-2.5-0.8c-1.1,0-1.9,0.4-2.6,1.1c-0.7,0.8-1,1.7-1,3
		c0,1.2,0.3,2.2,1,2.9c0.6,0.7,1.5,1,2.6,1c0.9,0,1.8-0.3,2.6-0.9V130.2z"/>
	<path class="st4" d="M208.9,126h-7.4c0,1.1,0.3,2,0.9,2.7c0.6,0.6,1.4,0.9,2.5,0.9c1.2,0,2.3-0.4,3.2-1.1v1.5c-0.9,0.7-2.1,1-3.6,1
		c-1.5,0-2.6-0.5-3.5-1.4c-0.8-0.9-1.3-2.3-1.3-3.9c0-1.6,0.5-2.9,1.4-3.9s2.1-1.5,3.4-1.5s2.4,0.4,3.2,1.3c0.7,0.9,1.1,2.1,1.1,3.6
		V126z M207.2,124.6c0-1-0.2-1.7-0.7-2.2s-1.1-0.8-1.9-0.8c-0.8,0-1.5,0.3-2,0.8c-0.6,0.6-0.9,1.3-1,2.2H207.2z"/>
	<path class="st4" d="M218,121.8h-3.1v8.9h-1.7v-8.9h-3.1v-1.4h7.9V121.8z"/>
	<path class="st4" d="M228.8,130.7h-1.5v-8.2c-0.1,0.3-0.4,0.7-0.7,1.2l-4.8,7H220v-10.3h1.5v8.1c0.1-0.2,0.3-0.5,0.5-1l5-7.1h1.7
		V130.7z"/>
</g>
<g>
	<ellipse class="st5" cx="539.9" cy="377.1" rx="31.7" ry="4"/>
	<g>
		<g>
			<path class="st6" d="M597.3,64.9c0,7.1-5.8,12.9-12.9,12.9c-7.1,0-12.9-5.8-12.9-12.9c0-7.1,5.8-12.9,12.9-12.9
				C591.5,52.1,597.3,57.8,597.3,64.9z"/>
			<path class="st0" d="M592.5,63.2c0,5-8.1,9.1-8.1,9.1s-8.1-4.1-8.1-9.1c0-6.4,8.4-4.7,8.4-1.9C584.6,58.5,592.5,57.2,592.5,63.2z
				"/>
		</g>
		<g>
			<circle class="st6" cx="667.4" cy="383.7" r="11.8"/>
			<path class="st0" d="M674.9,382.1c0,4.6-7.4,8.3-7.4,8.3s-7.4-3.7-7.4-8.3c0-5.9,7.7-4.3,7.7-1.7
				C667.6,377.8,674.9,376.6,674.9,382.1z"/>
		</g>
		<g>
			<circle class="st6" cx="726.5" cy="215" r="7.8"/>
			<path class="st0" d="M731.4,213.9c0,3.1-5,5.5-5,5.5s-4.9-2.5-5-5.5c0-3.9,5.1-2.9,5.1-1.1C726.6,211,731.4,210.3,731.4,213.9z"
				/>
		</g>
		<g>
			
				<ellipse transform="matrix(0.9246 -0.3809 0.3809 0.9246 -25.3836 194.3713)" class="st7" cx="478.4" cy="161.3" rx="8.5" ry="8.5"/>
			<path class="st8" d="M484.8,161.3c0,3.5-2.9,6.4-6.4,6.4c-3.5,0-6.4-2.9-6.4-6.4H484.8z"/>
			<g>
				<defs>
					<path id="SVGID_4_" d="M484.8,161.3c0,3.5-2.9,6.4-6.4,6.4c-3.5,0-6.4-2.9-6.4-6.4H484.8z"/>
				</defs>
				<clipPath id="SVGID_5_">
					<use xlink:href="#SVGID_4_"  style="overflow:visible;"/>
				</clipPath>
				<ellipse class="st9" cx="478.4" cy="167.7" rx="4.3" ry="3"/>
			</g>
			<g>
				<g>
					<path class="st8" d="M473.2,159.8c-0.1,0-0.3-0.1-0.3-0.2c0-0.2,0.1-0.3,0.2-0.4l1.9-0.5l-1.8-1.1c-0.1-0.1-0.2-0.3-0.1-0.4
						c0.1-0.1,0.3-0.2,0.4-0.1l2.4,1.5c0.1,0.1,0.2,0.2,0.1,0.3c0,0.1-0.1,0.2-0.2,0.2L473.2,159.8
						C473.2,159.8,473.2,159.8,473.2,159.8z"/>
				</g>
				<g>
					<path class="st8" d="M483.6,159.8C483.6,159.8,483.6,159.8,483.6,159.8l-2.7-0.7c-0.1,0-0.2-0.1-0.2-0.2c0-0.1,0-0.2,0.1-0.3
						l2.4-1.5c0.1-0.1,0.3,0,0.4,0.1c0.1,0.1,0,0.3-0.1,0.4l-1.8,1.1l1.9,0.5c0.2,0,0.3,0.2,0.2,0.4
						C483.9,159.8,483.7,159.8,483.6,159.8z"/>
				</g>
			</g>
		</g>
		<g>
			<path class="st7" d="M725.3,281.1c0,6.2-5,11.2-11.2,11.2c-6.2,0-11.2-5-11.2-11.2c0-6.2,5-11.2,11.2-11.2
				C720.3,269.9,725.3,274.9,725.3,281.1z"/>
			<path class="st8" d="M722.5,281.1c0,4.6-3.7,8.3-8.3,8.3c-4.6,0-8.3-3.7-8.3-8.3H722.5z"/>
			<g>
				<defs>
					<path id="SVGID_6_" d="M722.5,281.1c0,4.6-3.7,8.3-8.3,8.3c-4.6,0-8.3-3.7-8.3-8.3H722.5z"/>
				</defs>
				<clipPath id="SVGID_7_">
					<use xlink:href="#SVGID_6_"  style="overflow:visible;"/>
				</clipPath>
				<path class="st10" d="M719.8,289.5c0,2.2-2.5,3.9-5.6,3.9c-3.1,0-5.6-1.7-5.6-3.9c0-2.2,2.5-3.9,5.6-3.9
					C717.3,285.6,719.8,287.3,719.8,289.5z"/>
			</g>
			<g>
				<g>
					<path class="st8" d="M707.3,279.1c-0.2,0-0.3-0.1-0.4-0.3c-0.1-0.2,0.1-0.4,0.3-0.5l2.5-0.6l-2.3-1.4c-0.2-0.1-0.2-0.3-0.1-0.5
						c0.1-0.2,0.3-0.2,0.5-0.1l3.1,1.9c0.1,0.1,0.2,0.2,0.2,0.4c0,0.2-0.1,0.3-0.3,0.3L707.3,279.1
						C707.4,279.1,707.3,279.1,707.3,279.1z"/>
				</g>
				<g>
					<path class="st8" d="M721,279.1C721,279.1,720.9,279.1,721,279.1l-3.5-0.9c-0.2,0-0.3-0.2-0.3-0.3c0-0.2,0-0.3,0.2-0.4l3.1-1.9
						c0.2-0.1,0.4-0.1,0.5,0.1c0.1,0.2,0.1,0.4-0.1,0.5l-2.3,1.4l2.5,0.6c0.2,0.1,0.3,0.3,0.3,0.5C721.3,279,721.2,279.1,721,279.1z
						"/>
				</g>
			</g>
		</g>
		<g>
			
				<ellipse transform="matrix(0.2288 -0.9735 0.9735 0.2288 416.2398 677.6694)" class="st7" cx="635.8" cy="76.1" rx="10.3" ry="10.3"/>
			<path class="st8" d="M643.5,76.1c0,4.2-3.4,7.7-7.7,7.7c-4.2,0-7.7-3.4-7.7-7.7H643.5z"/>
			<g>
				<defs>
					<path id="SVGID_8_" d="M643.5,76.1c0,4.2-3.4,7.7-7.7,7.7c-4.2,0-7.7-3.4-7.7-7.7H643.5z"/>
				</defs>
				<clipPath id="SVGID_9_">
					<use xlink:href="#SVGID_8_"  style="overflow:visible;"/>
				</clipPath>
				<path class="st11" d="M641,83.8c0,2-2.3,3.6-5.2,3.6c-2.9,0-5.2-1.6-5.2-3.6s2.3-3.6,5.2-3.6C638.7,80.3,641,81.9,641,83.8z"/>
			</g>
			<g>
				<g>
					<path class="st8" d="M629.5,74.3c-0.2,0-0.3-0.1-0.3-0.3c0-0.2,0.1-0.4,0.3-0.4l2.3-0.6l-2.1-1.3c-0.2-0.1-0.2-0.3-0.1-0.5
						c0.1-0.2,0.3-0.2,0.5-0.1l2.9,1.8c0.1,0.1,0.2,0.2,0.2,0.4c0,0.1-0.1,0.3-0.3,0.3L629.5,74.3C629.6,74.3,629.6,74.3,629.5,74.3
						z"/>
				</g>
				<g>
					<path class="st8" d="M642.1,74.3C642.1,74.3,642.1,74.3,642.1,74.3l-3.2-0.8c-0.1,0-0.2-0.1-0.3-0.3c0-0.1,0-0.3,0.2-0.4
						l2.9-1.8c0.2-0.1,0.4-0.1,0.5,0.1c0.1,0.2,0.1,0.4-0.1,0.5l-2.1,1.3l2.3,0.6c0.2,0,0.3,0.2,0.3,0.4
						C642.4,74.2,642.3,74.3,642.1,74.3z"/>
				</g>
			</g>
		</g>
		<g>
			<g>
				<path class="st12" d="M568.3,99.4h103.1c10.9,0,19.7,8.8,19.7,19.7v216.2c0,10.9-8.8,19.7-19.7,19.7H568.3
					c-10.9,0-19.7-8.8-19.7-19.7V119.1C548.5,108.2,557.4,99.4,568.3,99.4z"/>
				
					<rect x="554.5" y="127.4" transform="matrix(-1 -1.224647e-16 1.224647e-16 -1 1239.5782 454.4447)" class="st0" width="130.6" height="199.6"/>
				<path class="st13" d="M599.3,114.7L599.3,114.7c0-1,0.8-1.8,1.8-1.8h37.4c1,0,1.8,0.8,1.8,1.8l0,0c0,1-0.8,1.8-1.8,1.8h-37.4
					C600.1,116.5,599.3,115.7,599.3,114.7z"/>
				
					<ellipse transform="matrix(0.1985 -0.9801 0.9801 0.1985 163.5425 879.9813)" class="st13" cx="619.8" cy="340" rx="7.9" ry="7.9"/>
			</g>
			<rect x="554.5" y="176.1" class="st14" width="130.6" height="139.6"/>
			<rect x="588" y="145.5" class="st15" width="64.4" height="4.9"/>
			<rect x="588" y="154.4" class="st15" width="37.1" height="3.6"/>
			
				<ellipse transform="matrix(0.7071 -0.7071 0.7071 0.7071 60.7323 448.3314)" class="st15" cx="571.6" cy="150.9" rx="10.2" ry="10.2"/>
			<path class="st15" d="M667.4,147.7c0,0.9-0.7,1.6-1.6,1.6c-0.9,0-1.6-0.7-1.6-1.6c0-0.9,0.7-1.6,1.6-1.6
				C666.7,146,667.4,146.8,667.4,147.7z M671.2,146c-0.9,0-1.6,0.7-1.6,1.6c0,0.9,0.7,1.6,1.6,1.6c0.9,0,1.6-0.7,1.6-1.6
				C672.8,146.8,672.1,146,671.2,146z M676.6,146c-0.9,0-1.6,0.7-1.6,1.6c0,0.9,0.7,1.6,1.6,1.6s1.6-0.7,1.6-1.6
				C678.2,146.8,677.5,146,676.6,146z"/>
			<g>
				<defs>
					
						<ellipse id="SVGID_10_" transform="matrix(0.7071 -0.7071 0.7071 0.7071 60.7323 448.3314)" cx="571.6" cy="150.9" rx="10.2" ry="10.2"/>
				</defs>
				<clipPath id="SVGID_11_">
					<use xlink:href="#SVGID_10_"  style="overflow:visible;"/>
				</clipPath>
			</g>
			<g>
				<g>
					<g>
						<g>
							<rect x="572.3" y="240.9" class="st6" width="9.1" height="22.8"/>
						</g>
					</g>
				</g>
				<g>
					<g>
						<g>
							<rect x="592.8" y="220.9" class="st12" width="9.1" height="42.8"/>
						</g>
					</g>
				</g>
				<g>
					<g>
						<g>
							<rect x="613.3" y="225.3" class="st6" width="9.1" height="38.4"/>
						</g>
					</g>
				</g>
				<g>
					<g>
						<g>
							<rect x="633.8" y="210.5" class="st12" width="9.1" height="53.2"/>
						</g>
					</g>
				</g>
				<g class="st16">
					<g>
						<g>
							<rect x="592.8" y="220.9" class="st17" width="4.2" height="42.8"/>
						</g>
					</g>
				</g>
				<g class="st16">
					<g>
						<g>
							<rect x="572.3" y="240.9" class="st17" width="4.2" height="22.8"/>
						</g>
					</g>
				</g>
				<g class="st18">
					<g>
						<g>
							<rect x="633.8" y="210.5" class="st17" width="4.2" height="53.2"/>
						</g>
					</g>
				</g>
				<g class="st16">
					<g>
						<g>
							<rect x="613.3" y="225.3" class="st17" width="4.2" height="38.4"/>
						</g>
					</g>
				</g>
				<g>
					<g>
						<g>
							<rect x="655.3" y="199.3" class="st6" width="9.1" height="64.4"/>
						</g>
					</g>
				</g>
				<g class="st16">
					<g>
						<g>
							<rect x="655.3" y="199.3" class="st17" width="4.2" height="64.4"/>
						</g>
					</g>
				</g>
				<g>
					<g>
						<g>
							<polygon class="st0" points="670.7,271.1 564.5,271.1 564.5,184.5 565.7,184.5 565.7,269.9 670.7,269.9 							"/>
						</g>
					</g>
				</g>
				<g>
					<g>
						<g>
							<polygon class="st0" points="658.8,195.5 655.9,187.7 663.8,189.1 							"/>
						</g>
					</g>
				</g>
				<g>
					<g>
						<g>
							<g>
								<g>
									<rect x="564.2" y="281.1" class="st12" width="7.6" height="7.6"/>
								</g>
							</g>
						</g>
					</g>
					<g>
						<g>
							<g>
								<rect x="564.2" y="294.4" class="st6" width="7.6" height="7.6"/>
							</g>
						</g>
					</g>
					<g>
						<g>
							<g>
								<rect x="574" y="297.7" class="st19" width="39.5" height="4.3"/>
							</g>
						</g>
					</g>
					<g>
						<g>
							<g>
								<rect x="574" y="284.4" class="st19" width="39.5" height="4.3"/>
							</g>
						</g>
					</g>
				</g>
				<g>
					<g>
						<g>
							<g>
								<rect x="621.1" y="281.1" class="st12" width="7.6" height="7.6"/>
							</g>
						</g>
					</g>
					<g>
						<g>
							<g>
								<rect x="621.1" y="294.4" class="st6" width="7.6" height="7.6"/>
							</g>
						</g>
					</g>
					<g>
						<g>
							<g>
								<rect x="630.9" y="297.7" class="st19" width="39.5" height="4.3"/>
							</g>
						</g>
					</g>
					<g>
						<g>
							<g>
								<rect x="630.9" y="284.4" class="st19" width="39.5" height="4.3"/>
							</g>
						</g>
					</g>
				</g>
				<polyline class="st20" points="576.5,223.4 597.4,208.2 617.5,217.4 637.9,199.3 659.1,190.6 				"/>
			</g>
		</g>
		<g>
			<g>
				<ellipse transform="matrix(0.6623 -0.7492 0.7492 0.6623 141.0088 582.9634)" class="st21" cx="717.2" cy="135" rx="9" ry="9"/>
				<path class="st0" d="M719,129.8c1.1,0.3,0.2,2.7-0.5,3.1l2.5,0c0.6,0,1.1,0.6,1,1.2l-0.6,3c-0.2,1-1.1,1.7-2.1,1.7l-3.6,0l0-5.6
					C717.6,132.7,718,129.6,719,129.8z M714.9,138.1v-4.3c0-0.4-0.3-0.7-0.7-0.7h-1.1c-0.4,0-0.7,0.3-0.7,0.7v4.3
					c0,0.4,0.3,0.7,0.7,0.7h1.1C714.6,138.8,714.9,138.5,714.9,138.1z"/>
			</g>
		</g>
		<g>
			<circle class="st21" cx="721.4" cy="345.2" r="17.2"/>
			<g>
				<path class="st0" d="M726.4,337.7c0,2.8-2.3,5-5,5c-2.8,0-5-2.3-5-5c0-2.8,2.3-5,5-5C724.2,332.6,726.4,334.9,726.4,337.7z"/>
				<path class="st0" d="M725,357.7h-7.1c-1.4,0-2.6-1.2-2.6-2.6v-5.5c0-3.4,2.8-6.1,6.1-6.1l0,0c3.4,0,6.1,2.8,6.1,6.1v5.5
					C727.5,356.6,726.4,357.7,725,357.7z"/>
			</g>
		</g>
		<g>
			
				<ellipse transform="matrix(0.7071 -0.7071 0.7071 0.7071 93.6878 393.7369)" class="st21" cx="522.1" cy="83.8" rx="8.8" ry="8.8"/>
			<g>
				<path class="st0" d="M524.7,79.9c0,1.4-1.2,2.6-2.6,2.6s-2.6-1.2-2.6-2.6c0-1.4,1.2-2.6,2.6-2.6S524.7,78.5,524.7,79.9z"/>
				<path class="st0" d="M523.9,90.2h-3.6c-0.7,0-1.3-0.6-1.3-1.3V86c0-1.7,1.4-3.1,3.1-3.1l0,0c1.7,0,3.1,1.4,3.1,3.1v2.8
					C525.3,89.6,524.7,90.2,523.9,90.2z"/>
			</g>
		</g>
		<g>
			<circle class="st21" cx="682.3" cy="66.7" r="14.9"/>
			<g>
				<path class="st0" d="M686.7,60.2c0,2.4-2,4.4-4.4,4.4c-2.4,0-4.4-2-4.4-4.4c0-2.4,2-4.4,4.4-4.4
					C684.7,55.8,686.7,57.8,686.7,60.2z"/>
				<path class="st0" d="M685.4,77.6h-6.2c-1.2,0-2.2-1-2.2-2.2v-4.8c0-2.9,2.4-5.3,5.3-5.3l0,0c2.9,0,5.3,2.4,5.3,5.3v4.8
					C687.6,76.6,686.6,77.6,685.4,77.6z"/>
			</g>
		</g>
		<g>
			
				<ellipse transform="matrix(0.229 -0.9734 0.9734 0.229 81.3381 871.2106)" class="st21" cx="590.6" cy="384.3" rx="8.8" ry="8.8"/>
			<g>
				<path class="st0" d="M593.2,380.4c0,1.4-1.2,2.6-2.6,2.6c-1.4,0-2.6-1.2-2.6-2.6c0-1.4,1.2-2.6,2.6-2.6
					C592.1,377.8,593.2,379,593.2,380.4z"/>
				<path class="st0" d="M592.4,390.7h-3.6c-0.7,0-1.3-0.6-1.3-1.3v-2.8c0-1.7,1.4-3.1,3.1-3.1l0,0c1.7,0,3.1,1.4,3.1,3.1v2.8
					C593.8,390.1,593.2,390.7,592.4,390.7z"/>
			</g>
		</g>
	</g>
	<g>
		<g>
			<path class="st5" d="M422.8,373.7c0,0,0.3,12.1,6.4,12.1c6.1,0,17.4-7.3,19.1-6.6c1.7,0.7,16.1,8.2,17.6,7.9
				c1.6-0.3,1.2-2.4,3-2.7c1.8-0.3,22.2,11.2,26.2,2.2c2.4-5.5-9.1-7.5-9.1-7.5s13.4-15.1,16.8-26.9
				C506.3,340.4,422.8,373.7,422.8,373.7z"/>
			<g>
				<path class="st22" d="M465.2,377.9c0,0,14.3,0.6,25.2-9.1c8.7-7.8,15.1-20.7,16.9-26.4c1.8-5.7,2.6-17-0.1-18.9
					c-2.7-1.9-52.3,45.3-52.3,45.3L465.2,377.9z"/>
				<path class="st22" d="M401,347.2c0,0,6-6.8,22.1-6.7c12.6,0,53.8,11.3,53.8,11.3L459,371L401,347.2z"/>
				<g>
					<polygon class="st23" points="476,374.6 467.6,371 464.8,376.4 468.6,379.5 474.9,379.5 					"/>
					<path class="st24" d="M469.4,379.9c0,0,2.8,0.3,4.9-2.1c2.1-2.5,0.9-3.5,2.2-3.7c1.3-0.1,7.2,2.5,13,1.9
						c5.8-0.6,7.6-1.5,7.9,0.7c0.3,2.2-0.5,10.2-7.5,9.9C483,386.3,469.4,379.9,469.4,379.9z"/>
					<path class="st25" d="M468.6,379.5c0,0,2.8,0.3,4.9-2.1c2.1-2.5,0.9-3.5,2.2-3.7c1.3-0.1,7.2,2.5,13,1.9
						c5.8-0.6,7.6-1.5,7.9,0.7c0.3,2.2-0.5,10.2-7.5,9.9C482.1,385.9,468.6,379.5,468.6,379.5z"/>
				</g>
				<path class="st26" d="M423.1,350c9.1,5.6,46.8,18.2,46.8,18.2s1.4,9.7-6.7,12.6c0,0-45.5-12.8-56.2-17.8
					c-10.8-4.9-7.5-13.6-6-15.8C402.5,345,411.7,343.1,423.1,350z"/>
			</g>
			<path class="st27" d="M457.5,283c0.9,0.5,1.6,1.2,2,2.1c0.5,0.9,0.7,2.1,0.5,3.2c-0.5,2.8-1.1,7.3-1.8,12
				c-1.1,7.5-2.4,15.7-3.5,19c-0.2,0.7,3.1,4.6,1.7,6.5c0,0.1-0.4,15.2-0.5,15.3c0,0-1.5,1.5-1.5,1.5c-0.6,0.4-2.7,1.3-3.9,0.8
				c-1.2-0.5-29,8.5-28.7,8.2c11.6-13.4,21.3-20.9,22.1-22.2c1.4-2.5,0.5-28.5,1.1-33.7c0.3-2.5,1.2-5.7,2.5-7.8
				c1.3-2.1,3.3-3.4,4.6-4.5C454,281.5,455.1,281.8,457.5,283z"/>
			<path class="st28" d="M486.4,323.6c-1.5,3.8-1.8,8-0.9,12c1.8,8-0.2,8.5-0.2,8.5s-9.6,6.7-18.9,7.6c-8.4,0.9-15.4,1.4-15.3-5.7
				l2.7,2.1c0-0.4,0-0.8,0-1.2c0.3-16-3-16.8-3.8-34.7c-0.8-18.3-5.3-20.8-1.3-26c5.9-7.7,21.7-11.6,34.2-8.7
				c9.4,2.2,12.5,4.7,12.4,11.6c0,2.3-0.4,5.1-1,8.5C492.6,306.6,488.9,317,486.4,323.6z"/>
			<g>
				<path class="st23" d="M476.7,267.2c-3.6,2.4-5.9,4.3-10.5,4.3c-1.7,0-1.1-0.7-2.7-1.1c0.8,0.4-0.8,1.1-0.2,1.3
					c1.2,0.3,2.1,1.3,2.2,2.5l0.3,5.3l2.1,4.3l3.6-2.3l5.2-3.4l-0.5-8.2C476.2,269.9,475.3,268.6,476.7,267.2z"/>
				<path class="st29" d="M468.2,276.1l0.4,4.9l-0.7,2.7l-2.1-4.3l-0.3-5.3c-0.1-1.2-0.9-2.2-2.2-2.5c-1.3-0.3-0.7-1.3-2.6-3.3
					c-0.1-0.1-0.2-0.3-0.3-0.4c0.2,0.1,0.5,2,4.8,2.5C468.4,270.8,468,273,468.2,276.1z"/>
			</g>
			<path class="st0" d="M476.6,274.2c0,0,1.3,0.7,2.5,2.6c0,0-1.7,0.8-3.2,1.7c-1.4,0.8-8,5.5-8,5.5l-1.9-4
				C466,280,472.9,275.3,476.6,274.2z"/>
			<path class="st0" d="M466,280c0,0-2.3,0.8-3,2.5c0,0-1.2-2.3,0.3-6.3c0,0,1.3-1.2,2.2-1.6L466,280z"/>
			<g>
				<polygon class="st30" points="476,345.6 431.4,345.2 457.9,355.1 				"/>
				<polygon class="st31" points="457.8,356.1 477,354.4 477.1,352.8 457.7,354.6 				"/>
			</g>
			<path class="st23" d="M461.5,341.9l-3.6,2c0,0-3.6-2.5-7.1,0.2c-3.6,2.7,0.7,10.3,3.4,9.5c2.6-0.8,10.3-6.5,10.3-6.5L461.5,341.9
				z"/>
			<polygon class="st32" points="411.6,355.7 407.1,357 455.9,357.5 477.3,351.6 431.9,352.1 			"/>
			<path class="st27" d="M479,339.8c-6.8,2.1-13.9,12.9-13.9,12.9l-0.6-1c0,0-3.5-1.6-4.5-4.8c-0.4-1.3-0.3-5-0.3-5
				s17-8.5,22.2-14.2c2.5-2.8,2.8-5.1,5.2-6.3c-0.1-0.2-0.1-0.4-0.2-0.6c-2.6-7.6-2.5-18.4-3.6-23.8c-0.5-2.6-0.5-5.4,0.2-7.9
				c0.5-1.7,1.2-3.3,2.2-4.8c1.6-2.3,3.9-4.1,6.8-3.4c1.1,0.2,2,0.8,2.8,1.6c0.8,0.9,1.3,2,1.5,3.1c1.1,7.9,4.5,29.7,4.3,34.6
				c0,0.9-0.2,1.6-0.4,2.3c-0.1,0.2-0.1,0.5-0.2,0.8C497.9,330.2,485.7,337.7,479,339.8z"/>
			<g>
				<path class="st33" d="M457.8,356.1l-46.3-4.2c-1.5-0.1-2.8-1.4-3-2.9l-3.7-32.3c-0.2-1.7,1.2-3.2,3-3l43.4,4
					c1.3,0.1,2.3,1.1,2.5,2.4L457.8,356.1z"/>
			</g>
			<g>
				<path class="st34" d="M455.3,253.7c-0.1,0-0.1,0.7-1.1,1.9c-1,1.2-1.1,3.6-1.1,3.5c0-0.1-2-5.6-1.4-6.9c0.6-1.3,1.8-1.7,2.1-1.3
					C454.1,251.4,455.3,253.7,455.3,253.7z"/>
				<path class="st23" d="M478.5,262.9c0.1,1.5,0.2,2.9,0.1,3.9c0,0.1,0,0.3-0.1,0.4c0,0.1,0,0.3-0.1,0.4
					c-1.1,4.4-6.8,10.7-10.7,11.2c-0.5,0-1,0.1-1.5,0c-5.5-0.3-8.7-4.8-10.6-9.6c-0.1-0.2-0.1-0.3-0.2-0.5
					c-1.6-4.5-2.2-9.1-2.3-10.7c0-0.4,0-0.6,0-0.6c-0.3-1.8,0-3.1,0.1-3.7c0.1-0.2,0.1-0.3,0.1-0.3s0.1,0,0.2-0.1
					c1.5-0.5,11.9-3.7,12.1-3.7c0.2,0,10.7,0.7,10.7,0.7S477.9,257.7,478.5,262.9z"/>
				<path class="st35" d="M469,255.3"/>
				<path class="st36" d="M479.9,262.7c0.1,1.5,0.2,2.9,0.1,3.9c0,0.1,0,0.3-0.1,0.4c-0.7,4.4-6.2,11.4-12.3,11.9
					c-0.5,0.1-0.9,0.1-1.4,0.1c-6.6,0.3-8.9-4.7-10.8-9.7c-0.1-0.2-0.1-0.3-0.2-0.5c0,0,2.3,3.7,3.5,3.8c1.1,0.1-0.3-1.3,2.8-2.5
					c2-0.8,5-0.7,6.4-0.5c1.3,0.2,3.6,0.8,4.4,1c0.2,0,0.4,0,0.5,0c1.1-0.6,3.3-4.3,3.7-6.7C476.8,262.9,479.1,262.5,479.9,262.7z"
					/>
				<path class="st36" d="M448.5,248.2c0,0,0.3,8,13.5,4.8c13.1-3.2,12.1,9.8,12.1,9.8s1.8-4.4,2.4-2.7c0.5,1.7,0,6,0,6
					s3.6,0.4,3.7-1.4c0.1-1.1,0.2-16.2-2.4-19.8c-2.6-3.6-5.7-3.4-5.7-3.4s-3.3-2.8-11-0.5c-7.7,2.3-11.8-0.6-11.8-0.4
					C449.2,241,448,243.2,448.5,248.2z"/>
			</g>
			<path class="st37" d="M473.9,260.1c-0.1-0.5-2.5-0.4-4.2-0.2c-1.7,0.2-6.2,0.8-7.1,1.3c-0.9,0.6-0.9,0.9-1.4,1
				c-0.5,0.1-0.5-0.3-1.6-0.6c-1.1-0.3-3.7,0-5.3,0.2c-1.7,0.2-3.3,0.5-3.3,1.1c0,0.6,0.3,1.5,0.6,1.7c0.3,0.1,0.3,0.1,1.6,2.3
				c0.7,1.2,1.8,1.9,4,1.5c2.8-0.5,3.1-2.8,3.3-3.8c0.3-1,0.5-1.1,0.9-1.2c0.4-0.1,0.7,0,1.2,0.9c0.5,0.9,0.8,2.9,3.6,2.9
				c3.7,0,5.4-1,6-2.7c0.8-2.4,0.6-2.4,0.9-2.6c0.1-0.1,0.9-0.4,1-0.7C474,260.8,474,260.4,473.9,260.1z M459.5,265.4
				c-0.1,1.2-1,2.3-2.9,2.6c-1.7,0.2-2.5-0.4-3.3-2c-0.7-1.4-0.7-2.5-0.4-2.8c0.3-0.4,1.2-0.4,3.3-0.6c2.1-0.2,2.8-0.2,3.1,0.4
				C459.5,263.3,459.7,264.2,459.5,265.4z M471.7,263.7c-0.4,1.7-1.3,2.6-3.7,2.8c-3.3,0.4-3.9-0.5-4.3-1.7
				c-0.4-1.1-0.6-2.1-0.5-2.3c0.1-0.7,0.8-0.8,2.9-1.2c2.1-0.4,4.9-0.8,5.3-0.5C471.8,261.1,472.1,262.2,471.7,263.7z"/>
			<g>
				<polygon class="st23" points="443.3,369.2 451.8,365.9 454.5,371.3 450.6,374.3 444.2,374.1 				"/>
				<path class="st24" d="M449.7,374.7c0,0-2.8,0.3-4.8-2.3c-2-2.6-0.8-3.6-2.1-3.8c-1.3-0.2-7.2,2.3-13.1,1.5
					c-5.8-0.8-7.6-1.7-7.9,0.4c-0.4,2.2,0.1,10.2,7.2,10.1C435.9,380.7,449.7,374.7,449.7,374.7z"/>
				<path class="st25" d="M450.6,374.3c0,0-2.8,0.3-4.8-2.3c-2-2.6-0.8-3.6-2.1-3.8c-1.3-0.2-7.2,2.3-13.1,1.5
					c-5.8-0.8-7.6-1.7-7.9,0.4c-0.4,2.2,0.1,10.2,7.2,10.1C436.9,380.3,450.6,374.3,450.6,374.3z"/>
			</g>
			<path class="st38" d="M448.9,363c0,0,21.4-17.4,30.4-26.7c9-9.3,14.6-18.3,25.1-14.7c10.5,3.6-2.7,23.1-12.3,30.7
				c-9.6,7.6-33.2,24.4-33.2,24.4S446.3,372.2,448.9,363z"/>
		</g>
		<circle class="st39" cx="429.2" cy="334.9" r="3.8"/>
	</g>
	<g>
		<g>
			<path class="st4" d="M474.5,224.4h-86.8c-3,0-5.5-2.5-5.5-5.5v-18.5c0-3,2.5-5.5,5.5-5.5h86.8c3,0,5.5,2.5,5.5,5.5v18.5
				C480,221.9,477.5,224.4,474.5,224.4z"/>
			<g>
				<g>
					
						<ellipse transform="matrix(0.7071 -0.7071 0.7071 0.7071 -32.0404 341.7781)" class="st0" cx="396.5" cy="209.6" rx="8.4" ry="8.4"/>
					<path class="st12" d="M398.2,204.7c1,0.2,0.2,2.6-0.5,2.9l2.4,0c0.6,0,1,0.5,0.9,1.1l-0.6,2.8c-0.2,0.9-1,1.6-1.9,1.6l-3.4,0
						l0-5.3C396.9,207.4,397.2,204.4,398.2,204.7z M394.3,212.4v-4c0-0.4-0.3-0.7-0.7-0.7h-0.9c-0.4,0-0.7,0.3-0.7,0.7v4
						c0,0.4,0.3,0.7,0.7,0.7h0.9C394,213.1,394.3,212.8,394.3,212.4z"/>
				</g>
				<g>
					<path class="st0" d="M409.2,207.9L409.2,207.9l-1.2,0.6l-0.2-0.7l1.4-0.8h0.8v6.6h-0.9V207.9z"/>
					<path class="st0" d="M416.8,210.3c0,2.2-0.8,3.5-2.3,3.5c-1.3,0-2.2-1.2-2.2-3.4c0-2.2,1-3.4,2.3-3.4
						C416,207,416.8,208.2,416.8,210.3z M413.2,210.4c0,1.7,0.5,2.7,1.3,2.7c0.9,0,1.4-1.1,1.4-2.8c0-1.6-0.4-2.7-1.3-2.7
						C413.8,207.7,413.2,208.6,413.2,210.4z"/>
					<path class="st0" d="M422.1,210.3c0,2.2-0.8,3.5-2.3,3.5c-1.3,0-2.2-1.2-2.2-3.4c0-2.2,1-3.4,2.3-3.4
						C421.3,207,422.1,208.2,422.1,210.3z M418.5,210.4c0,1.7,0.5,2.7,1.3,2.7c0.9,0,1.4-1.1,1.4-2.8c0-1.6-0.4-2.7-1.3-2.7
						C419,207.7,418.5,208.6,418.5,210.4z"/>
					<path class="st0" d="M427.3,210.3c0,2.2-0.8,3.5-2.3,3.5c-1.3,0-2.2-1.2-2.2-3.4c0-2.2,1-3.4,2.3-3.4
						C426.5,207,427.3,208.2,427.3,210.3z M423.7,210.4c0,1.7,0.5,2.7,1.3,2.7c0.9,0,1.4-1.1,1.4-2.8c0-1.6-0.4-2.7-1.3-2.7
						C424.3,207.7,423.7,208.6,423.7,210.4z"/>
				</g>
			</g>
			<g>
				<g>
					
						<ellipse transform="matrix(0.1598 -0.9871 0.9871 0.1598 166.7008 614.9875)" class="st0" cx="444.6" cy="209.6" rx="8.4" ry="8.4"/>
					<path class="st6" d="M449.7,208.1c0,3.1-5.1,5.7-5.1,5.7s-5.1-2.6-5.1-5.7c0-4,5.2-3,5.3-1.2
						C444.8,205.1,449.7,204.3,449.7,208.1z"/>
				</g>
				<g>
					<path class="st0" d="M455.8,213.1c0.2,0,0.4,0,0.7,0c0.5-0.1,1-0.3,1.4-0.6c0.4-0.4,0.8-1,0.9-1.8h0c-0.4,0.4-0.9,0.7-1.6,0.7
						c-1.2,0-2-0.9-2-2c0-1.3,0.9-2.4,2.3-2.4s2.2,1.1,2.2,2.8c0,1.5-0.5,2.5-1.1,3.1c-0.5,0.5-1.2,0.8-1.9,0.9
						c-0.3,0.1-0.6,0.1-0.8,0.1V213.1z M456.1,209.2c0,0.8,0.5,1.4,1.3,1.4c0.6,0,1.1-0.3,1.3-0.7c0.1-0.1,0.1-0.2,0.1-0.3
						c0-1.1-0.4-2-1.4-2C456.7,207.6,456.1,208.3,456.1,209.2z"/>
					<path class="st0" d="M460.4,212c0-0.8,0.5-1.4,1.3-1.8l0,0c-0.7-0.3-1-0.9-1-1.5c0-1,0.9-1.8,2-1.8c1.3,0,1.9,0.8,1.9,1.6
						c0,0.6-0.3,1.2-1.1,1.5v0c0.8,0.3,1.3,0.9,1.3,1.7c0,1.1-1,1.9-2.2,1.9C461.3,213.8,460.4,213,460.4,212z M464,212
						c0-0.8-0.6-1.2-1.5-1.4c-0.8,0.2-1.2,0.7-1.2,1.4c0,0.7,0.5,1.3,1.3,1.3C463.5,213.1,464,212.6,464,212z M461.5,208.7
						c0,0.7,0.5,1,1.3,1.2c0.6-0.2,1-0.6,1-1.2c0-0.5-0.3-1.1-1.1-1.1C461.9,207.6,461.5,208.1,461.5,208.7z"/>
					<path class="st0" d="M470.1,210.3c0,2.2-0.8,3.5-2.3,3.5c-1.3,0-2.2-1.2-2.2-3.4c0-2.2,1-3.4,2.3-3.4
						C469.3,207,470.1,208.2,470.1,210.3z M466.5,210.4c0,1.7,0.5,2.7,1.3,2.7c0.9,0,1.4-1.1,1.4-2.8c0-1.6-0.4-2.7-1.3-2.7
						C467.1,207.7,466.5,208.6,466.5,210.4z"/>
				</g>
			</g>
		</g>
		<polygon class="st4" points="451.5,220.6 457.2,232.8 462.6,221.4 		"/>
	</g>
	<g>
		<g>
			<path class="st4" d="M523.5,135h-86.8c-3,0-5.5-2.5-5.5-5.5V111c0-3,2.5-5.5,5.5-5.5h86.8c3,0,5.5,2.5,5.5,5.5v18.5
				C529,132.6,526.6,135,523.5,135z"/>
			<g>
				<g>
					<circle class="st0" cx="445.6" cy="120.3" r="8.4"/>
					<path class="st12" d="M447.2,115.4c1,0.2,0.2,2.6-0.5,2.9l2.4,0c0.6,0,1,0.5,0.9,1.1l-0.6,2.8c-0.2,0.9-1,1.6-1.9,1.6l-3.4,0
						l0-5.3C445.9,118.1,446.2,115.1,447.2,115.4z M443.4,123.1v-4c0-0.4-0.3-0.7-0.7-0.7h-0.9c-0.4,0-0.7,0.3-0.7,0.7v4
						c0,0.4,0.3,0.7,0.7,0.7h0.9C443.1,123.8,443.4,123.5,443.4,123.1z"/>
				</g>
				<g>
					<path class="st0" d="M458.2,118.6L458.2,118.6l-1.2,0.6l-0.2-0.7l1.4-0.8h0.8v6.6h-0.9V118.6z"/>
					<path class="st0" d="M465.8,121c0,2.2-0.8,3.5-2.3,3.5c-1.3,0-2.2-1.2-2.2-3.4c0-2.2,1-3.4,2.3-3.4
						C465.1,117.7,465.8,118.9,465.8,121z M462.3,121.1c0,1.7,0.5,2.7,1.3,2.7c0.9,0,1.4-1.1,1.4-2.8c0-1.6-0.4-2.7-1.3-2.7
						C462.8,118.3,462.3,119.3,462.3,121.1z"/>
					<path class="st0" d="M471.1,121c0,2.2-0.8,3.5-2.3,3.5c-1.3,0-2.2-1.2-2.2-3.4c0-2.2,1-3.4,2.3-3.4
						C470.3,117.7,471.1,118.9,471.1,121z M467.5,121.1c0,1.7,0.5,2.7,1.3,2.7c0.9,0,1.4-1.1,1.4-2.8c0-1.6-0.4-2.7-1.3-2.7
						C468,118.3,467.5,119.3,467.5,121.1z"/>
					<path class="st0" d="M476.3,121c0,2.2-0.8,3.5-2.3,3.5c-1.3,0-2.2-1.2-2.2-3.4c0-2.2,1-3.4,2.3-3.4
						C475.5,117.7,476.3,118.9,476.3,121z M472.7,121.1c0,1.7,0.5,2.7,1.3,2.7c0.9,0,1.4-1.1,1.4-2.8c0-1.6-0.4-2.7-1.3-2.7
						C473.3,118.3,472.7,119.3,472.7,121.1z"/>
				</g>
			</g>
			<g>
				<g>
					<circle class="st0" cx="493.6" cy="120.3" r="8.4"/>
					<path class="st6" d="M498.7,118.8c0,3.1-5.1,5.7-5.1,5.7s-5.1-2.6-5.1-5.7c0-4,5.2-3,5.3-1.2
						C493.8,115.8,498.7,115,498.7,118.8z"/>
				</g>
				<g>
					<path class="st0" d="M504.8,123.8c0.2,0,0.4,0,0.7,0c0.5-0.1,1-0.3,1.4-0.6c0.4-0.4,0.8-1,0.9-1.8h0c-0.4,0.4-0.9,0.7-1.6,0.7
						c-1.2,0-2-0.9-2-2c0-1.3,0.9-2.4,2.3-2.4s2.2,1.1,2.2,2.8c0,1.5-0.5,2.5-1.1,3.1c-0.5,0.5-1.2,0.8-1.9,0.9
						c-0.3,0.1-0.6,0.1-0.8,0.1V123.8z M505.2,119.9c0,0.8,0.5,1.4,1.3,1.4c0.6,0,1.1-0.3,1.3-0.7c0.1-0.1,0.1-0.2,0.1-0.3
						c0-1.1-0.4-2-1.4-2C505.7,118.3,505.2,119,505.2,119.9z"/>
					<path class="st0" d="M509.5,122.7c0-0.8,0.5-1.4,1.3-1.8l0,0c-0.7-0.3-1-0.9-1-1.5c0-1,0.9-1.8,2-1.8c1.3,0,1.9,0.8,1.9,1.6
						c0,0.6-0.3,1.2-1.1,1.5v0c0.8,0.3,1.3,0.9,1.3,1.7c0,1.1-1,1.9-2.2,1.9C510.3,124.5,509.5,123.7,509.5,122.7z M513,122.7
						c0-0.8-0.6-1.2-1.5-1.4c-0.8,0.2-1.2,0.7-1.2,1.4c0,0.7,0.5,1.3,1.3,1.3C512.5,123.8,513,123.3,513,122.7z M510.5,119.4
						c0,0.7,0.5,1,1.3,1.2c0.6-0.2,1-0.6,1-1.2c0-0.5-0.3-1.1-1.1-1.1C511,118.3,510.5,118.8,510.5,119.4z"/>
					<path class="st0" d="M519.2,121c0,2.2-0.8,3.5-2.3,3.5c-1.3,0-2.2-1.2-2.2-3.4c0-2.2,1-3.4,2.3-3.4
						C518.4,117.7,519.2,118.9,519.2,121z M515.6,121.1c0,1.7,0.5,2.7,1.3,2.7c0.9,0,1.4-1.1,1.4-2.8c0-1.6-0.4-2.7-1.3-2.7
						C516.1,118.3,515.6,119.3,515.6,121.1z"/>
				</g>
			</g>
		</g>
		<polygon class="st4" points="506.7,132.3 516.1,141.9 516.1,129.7 		"/>
	</g>
	<g>
		<path class="st40" d="M542.1,362.6c0,0,0.9,4.2,0.8,7.5c-0.4,2.3,0,3,0,3l8.7-0.7c0,0-3.9-1.9-3.6-10.9
			C548.4,352.4,542.1,362.6,542.1,362.6z"/>
		<path class="st26" d="M542.9,370.8c0,0,3.8,1.4,7.6,0.3c4.4,2,7.5,2.8,11.5,3.4c4,0.5,3.3,3.8-3.6,3.4c-6.9-0.5-11.7-0.1-13.2,0
			c-1.5,0.2-4,0.4-4.1-0.7C541.1,376.1,541.6,370.4,542.9,370.8z"/>
		<path class="st40" d="M515.3,362.6c0,0,0.9,4.2,0.8,7.5c-0.4,2.3,0,3,0,3l8.7-0.7c0,0-3.9-1.9-3.6-10.9
			C521.6,352.4,515.3,362.6,515.3,362.6z"/>
		<path class="st38" d="M516,370.8c0,0,3.8,1.4,7.6,0.3c4.4,2,7.5,2.8,11.5,3.4c4,0.5,3.3,3.8-3.6,3.4c-6.9-0.5-11.7-0.1-13.2,0
			c-1.5,0.2-4,0.4-4.1-0.7C514.2,376.1,514.8,370.4,516,370.8z"/>
		<path class="st26" d="M545.5,236.8c0,0,5.6,58.9,6,66.6c0.3,7.7,0.3,10.3,0,15c-0.3,4.7,2.5,44,2.5,44s-13.1,3.4-16.4,0.4
			c0,0,0.5-42.9-1.1-50.2c-1.7-7.3-8.2-44.5-8.2-44.5l7.5-38L545.5,236.8z"/>
		<path class="st41" d="M515.1,154.8c0,0,0.5-10.3,4.8-13c4.2-2.8,15.5-3.8,19,1c3.5,4.8,7.2,25.4-9.8,28.1l-8.8,40.6
			c0,0-22.9-2.3-24.6-14.6c-1.8-12.3,8.7-18,8.7-18s-5-10.3,0.3-17.6C509.9,154.1,515.1,154.8,515.1,154.8z"/>
		<path class="st40" d="M548.2,190.1c0,0,20.7,3,26.3,2.7c4.4,0.3,10.7-25.8,11.3-27.4c3.5-2.4,4.9-4.2,4.8-6
			c-0.1-1.8-4.5-3.3-4.9-2.4c0.7-2.4,0.9-3.1,1.1-3.9c0.4-1.7-0.8-3-2.5,3.4c-1.7,6.3-1.5,5.3-1.9,7.5c-2.8,5.8-9.9,19.2-10.4,21.2
			c-9.2-0.2-24.9-4.1-24.9-4.1L548.2,190.1z"/>
		<path class="st38" d="M517.1,307.8c1.3-11-1.1-55.6-1-65.1c0.1-9.5,26.7-4.6,26.7-4.6s-8.3,55.4-9.3,63.4c-1,8-2.3,10.3-2.8,18
			c-0.5,7.7-4.2,43.7-4.2,43.7s-14.6,2.5-15.7-0.3C508.4,348.7,517.1,307.8,517.1,307.8z"/>
		<path class="st0" d="M537.5,175.7l12,3.2c0,0-1.3,10.1,0,13.1h-8.3c0,0-1.4,4.3-2.2,6.3c-0.8,2,6.2,35.6,7.2,42
			c0,0-17.7-3.3-31.7,3.1c0,0,1.3-13.3,6-22.7c4.7-9.3-14-31.1-14-31.1s5.7-17.5,15.7-18.6C530.1,170.1,530.1,173.7,537.5,175.7z"/>
		<path class="st40" d="M536.8,146.4c0,0,3.7,9.9,1.3,14.6c-2.3,4.7-8,4-8,4v10.7c0,0-0.6,0.6-1.6,0.6c-1.8,0.1-6.4-2.9-6.4-2.9
			v-24.7L536.8,146.4z"/>
		<path class="st40" d="M503.1,188.9c0,0-17.8,20.2-16.8,22.7c1,2.5,20.8,13.5,22.5,15c1.8,1.5,7.1,7.5,7.3,6.7
			c0.2-0.8,3.4-2.7,3.7-4.7c0.3-2-1.5-3.8-1.5-3.8l-7.5-1c0,0-13.5-11.3-14-12.8c-0.5-1.5,15.3-17,15.3-17L503.1,188.9z"/>
		<path class="st0" d="M501.5,188c0,0,10.3-14.5,16.7-14c6.4,0.5,6,9.8,0,16.3c-6,6.5-8,9-8,9S502.8,195.7,501.5,188z"/>
		<path class="st41" d="M537.3,144.9c0,0-2.4,11.4-7.9,14.4c-5.5,3-1.3,10.4-6.6,15.9c-2.8,2.9-8.1-0.3-8.1-0.3l5.3-28.5
			L537.3,144.9z"/>
	</g>
	<g class="st42">
		<circle class="st43" cx="734.3" cy="172.2" r="4"/>
		<path class="st43" d="M682.7,164.7c0,2.2-1.8,4-4,4c-2.2,0-4-1.8-4-4c0-2.2,1.8-4,4-4C681,160.7,682.7,162.5,682.7,164.7z"/>
		<circle class="st43" cx="408.5" cy="157.9" r="4"/>
		<circle class="st43" cx="355.9" cy="118.5" r="4"/>
		<circle class="st43" cx="697.2" cy="369.9" r="4"/>
		<path class="st43" d="M307.5,363c0,2.2-1.8,4-4,4s-4-1.8-4-4c0-2.2,1.8-4,4-4S307.5,360.8,307.5,363z"/>
		<path class="st43" d="M498.1,249.9c0,2.2-1.8,4-4,4s-4-1.8-4-4s1.8-4,4-4S498.1,247.7,498.1,249.9z"/>
		<path class="st43" d="M316.5,203.3c0,2.2-1.8,4-4,4c-2.2,0-4-1.8-4-4c0-2.2,1.8-4,4-4C314.7,199.3,316.5,201.1,316.5,203.3z"/>
		<circle class="st43" cx="454.8" cy="74.9" r="4"/>
		<path class="st43" d="M735.4,74.3c0,2.2-1.8,4-4,4c-2.2,0-4-1.8-4-4s1.8-4,4-4C733.6,70.4,735.4,72.1,735.4,74.3z"/>
		<path class="st0" d="M610.3,84.7h-2.9v-2.9c0-0.5-0.4-0.9-0.9-0.9s-0.9,0.4-0.9,0.9v2.9h-2.9c-0.5,0-0.9,0.4-0.9,0.9
			c0,0.5,0.4,0.9,0.9,0.9h2.9v2.9c0,0.5,0.4,0.9,0.9,0.9s0.9-0.4,0.9-0.9v-2.9h2.9c0.5,0,0.9-0.4,0.9-0.9
			C611.2,85.1,610.8,84.7,610.3,84.7z"/>
		<path class="st0" d="M505.9,60.5h-2.9v-2.9c0-0.5-0.4-0.9-0.9-0.9c-0.5,0-0.9,0.4-0.9,0.9v2.9h-2.9c-0.5,0-0.9,0.4-0.9,0.9
			c0,0.5,0.4,0.9,0.9,0.9h2.9v2.9c0,0.5,0.4,0.9,0.9,0.9c0.5,0,0.9-0.4,0.9-0.9v-2.9h2.9c0.5,0,0.9-0.4,0.9-0.9
			C506.7,60.9,506.3,60.5,505.9,60.5z"/>
		<path class="st0" d="M400.3,89.3h-2.9v-2.9c0-0.5-0.4-0.9-0.9-0.9c-0.5,0-0.9,0.4-0.9,0.9v2.9h-2.9c-0.5,0-0.9,0.4-0.9,0.9
			s0.4,0.9,0.9,0.9h2.9V94c0,0.5,0.4,0.9,0.9,0.9c0.5,0,0.9-0.4,0.9-0.9v-2.9h2.9c0.5,0,0.9-0.4,0.9-0.9S400.8,89.3,400.3,89.3z"/>
		<path class="st0" d="M453.3,173.1h-2.9v-2.9c0-0.5-0.4-0.9-0.9-0.9s-0.9,0.4-0.9,0.9v2.9h-2.9c-0.5,0-0.9,0.4-0.9,0.9
			c0,0.5,0.4,0.9,0.9,0.9h2.9v2.9c0,0.5,0.4,0.9,0.9,0.9s0.9-0.4,0.9-0.9v-2.9h2.9c0.5,0,0.9-0.4,0.9-0.9
			C454.1,173.5,453.7,173.1,453.3,173.1z"/>
		<path class="st0" d="M403.3,309.7h-2.9v-2.9c0-0.5-0.4-0.9-0.9-0.9s-0.9,0.4-0.9,0.9v2.9h-2.9c-0.5,0-0.9,0.4-0.9,0.9
			c0,0.5,0.4,0.9,0.9,0.9h2.9v2.9c0,0.5,0.4,0.9,0.9,0.9s0.9-0.4,0.9-0.9v-2.9h2.9c0.5,0,0.9-0.4,0.9-0.9
			C404.1,310.1,403.8,309.7,403.3,309.7z"/>
		<path class="st0" d="M735.2,309.7h-2.9v-2.9c0-0.5-0.4-0.9-0.9-0.9c-0.5,0-0.9,0.4-0.9,0.9v2.9h-2.9c-0.5,0-0.9,0.4-0.9,0.9
			c0,0.5,0.4,0.9,0.9,0.9h2.9v2.9c0,0.5,0.4,0.9,0.9,0.9c0.5,0,0.9-0.4,0.9-0.9v-2.9h2.9c0.5,0,0.9-0.4,0.9-0.9
			C736.1,310.1,735.7,309.7,735.2,309.7z"/>
		<path class="st0" d="M423.8,261.6h-2.9v-2.9c0-0.5-0.4-0.9-0.9-0.9s-0.9,0.4-0.9,0.9v2.9h-2.9c-0.5,0-0.9,0.4-0.9,0.9
			c0,0.5,0.4,0.9,0.9,0.9h2.9v2.9c0,0.5,0.4,0.9,0.9,0.9s0.9-0.4,0.9-0.9v-2.9h2.9c0.5,0,0.9-0.4,0.9-0.9
			C424.6,262,424.3,261.6,423.8,261.6z"/>
		<path class="st0" d="M644.1,364.5h-2.9v-2.9c0-0.5-0.4-0.9-0.9-0.9c-0.5,0-0.9,0.4-0.9,0.9v2.9h-2.9c-0.5,0-0.9,0.4-0.9,0.9
			c0,0.5,0.4,0.9,0.9,0.9h2.9v2.9c0,0.5,0.4,0.9,0.9,0.9c0.5,0,0.9-0.4,0.9-0.9v-2.9h2.9c0.5,0,0.9-0.4,0.9-0.9
			C644.9,364.9,644.5,364.5,644.1,364.5z"/>
		<path class="st0" d="M713.9,236h-2.9V233c0-0.5-0.4-0.9-0.9-0.9c-0.5,0-0.9,0.4-0.9,0.9v2.9h-2.9c-0.5,0-0.9,0.4-0.9,0.9
			c0,0.5,0.4,0.9,0.9,0.9h2.9v2.9c0,0.5,0.4,0.9,0.9,0.9c0.5,0,0.9-0.4,0.9-0.9v-2.9h2.9c0.5,0,0.9-0.4,0.9-0.9
			C714.7,236.3,714.3,236,713.9,236z"/>
	</g>
</g>
<g>
	<path class="st44" d="M72.3,221.7c-0.8,0.5-1.7,0.7-2.8,0.7c-0.7,0-1.4-0.1-2-0.4c-0.6-0.3-1.1-0.6-1.5-1.1c-0.4-0.5-0.7-1-1-1.6
		c-0.2-0.6-0.3-1.3-0.3-2.1c0-0.8,0.1-1.5,0.4-2.2c0.2-0.7,0.6-1.3,1-1.8c0.5-0.5,1-0.9,1.7-1.2c0.7-0.3,1.4-0.4,2.3-0.4
		c0.9,0,1.7,0.2,2.4,0.5v1.4c-0.8-0.5-1.6-0.7-2.5-0.7c-0.6,0-1.2,0.1-1.7,0.3c-0.5,0.2-0.9,0.5-1.2,0.9c-0.3,0.4-0.6,0.9-0.8,1.4
		s-0.3,1.1-0.3,1.7c0,0.5,0.1,1.1,0.2,1.6c0.1,0.5,0.4,0.9,0.7,1.3c0.3,0.4,0.7,0.7,1.1,0.9c0.5,0.2,1,0.3,1.6,0.3
		c1,0,1.9-0.3,2.7-0.9V221.7z"/>
	<path class="st44" d="M77.8,213v9.2h-1.3V213h-3.1v-1.1H81v1.1H77.8z"/>
	<path class="st44" d="M90.2,222.2v-8.4c0,0.1-0.1,0.2-0.1,0.2c0,0.1-0.1,0.2-0.1,0.2l-5.8,8h-1.2v-10.3h1.2v8.3
		c0-0.1,0.1-0.2,0.1-0.3c0.1-0.1,0.1-0.2,0.2-0.4l5.6-7.6h1.2v10.3H90.2z"/>
	<path class="st44" d="M100.8,222.2l-4.8-5h0v5h-1.3v-10.3H96v4.8h0l4.6-4.8h1.7l-4.9,5l5.2,5.3H100.8z"/>
	<path class="st44" d="M104.7,217.2c0,0.6,0.1,1.2,0.3,1.7c0.2,0.5,0.4,0.9,0.7,1.3c0.3,0.3,0.7,0.6,1.1,0.8
		c0.4,0.2,0.9,0.3,1.5,0.3c1.2,0,2.3-0.4,3.3-1.2v1.3c-1,0.7-2.2,1.1-3.6,1.1c-0.7,0-1.3-0.1-1.9-0.4c-0.6-0.2-1.1-0.6-1.5-1.1
		c-0.4-0.5-0.7-1-0.9-1.7c-0.2-0.7-0.3-1.4-0.3-2.3c0-0.8,0.1-1.5,0.4-2.1c0.2-0.7,0.6-1.2,1-1.7c0.4-0.5,0.9-0.9,1.5-1.1
		c0.6-0.3,1.2-0.4,1.9-0.4c0.7,0,1.3,0.1,1.8,0.3c0.5,0.2,1,0.6,1.3,1c0.4,0.4,0.6,1,0.8,1.6c0.2,0.6,0.3,1.3,0.3,2.1v0.6H104.7z
		 M110.9,216.1c0-1.1-0.3-1.9-0.8-2.5c-0.5-0.6-1.2-0.9-2.1-0.9c-0.4,0-0.9,0.1-1.2,0.2c-0.4,0.2-0.7,0.4-1,0.7s-0.5,0.6-0.7,1.1
		s-0.3,0.9-0.4,1.4H110.9z"/>
	<path class="st44" d="M116.1,220.5v6.4h-1.3v-15h1.3v2h0c0.4-0.7,0.9-1.3,1.6-1.6c0.6-0.4,1.4-0.6,2.2-0.6c0.7,0,1.3,0.1,1.8,0.4
		c0.5,0.2,1,0.6,1.3,1c0.4,0.4,0.6,1,0.8,1.6c0.2,0.6,0.3,1.3,0.3,2.1c0,0.9-0.1,1.6-0.3,2.3c-0.2,0.7-0.5,1.3-0.9,1.8
		c-0.4,0.5-0.9,0.9-1.5,1.2c-0.6,0.3-1.2,0.4-2,0.4C118,222.4,116.9,221.8,116.1,220.5L116.1,220.5z M116.1,217.9
		c0,0.5,0.1,0.9,0.2,1.3s0.4,0.8,0.7,1.1c0.3,0.3,0.6,0.6,1,0.7c0.4,0.2,0.9,0.3,1.3,0.3c0.5,0,1-0.1,1.4-0.3
		c0.4-0.2,0.8-0.5,1.1-0.9c0.3-0.4,0.5-0.9,0.7-1.5c0.2-0.6,0.2-1.2,0.2-1.9c0-0.6-0.1-1.1-0.2-1.6c-0.1-0.5-0.4-0.9-0.6-1.2
		s-0.6-0.6-1-0.8c-0.4-0.2-0.8-0.3-1.3-0.3c-0.5,0-1,0.1-1.5,0.3s-0.8,0.5-1.1,0.8c-0.3,0.3-0.5,0.7-0.7,1.2s-0.2,0.9-0.2,1.5V217.9
		z"/>
	<path class="st44" d="M134.3,219c0,0.5-0.1,1-0.3,1.4c-0.2,0.4-0.4,0.7-0.7,1c-0.3,0.3-0.6,0.5-1,0.6c-0.4,0.1-0.8,0.2-1.2,0.2
		h-4.3v-10.3h1.3v4.1h2.9c0.5,0,1,0.1,1.4,0.2c0.4,0.1,0.8,0.3,1.1,0.6c0.3,0.3,0.5,0.6,0.7,1C134.3,218.1,134.3,218.5,134.3,219z
		 M133,219c0-0.6-0.2-1.1-0.6-1.4c-0.4-0.3-0.9-0.5-1.7-0.5h-2.6v4h2.7c0.4,0,0.7,0,1-0.1s0.5-0.2,0.7-0.4s0.3-0.4,0.4-0.6
		C132.9,219.6,133,219.3,133,219z M136.4,222.2v-10.3h1.3v10.3H136.4z"/>
	<path class="st44" d="M154.6,219.2c0,0.4-0.1,0.8-0.2,1.2c-0.2,0.4-0.4,0.7-0.7,0.9c-0.3,0.3-0.6,0.5-1,0.6
		c-0.4,0.2-0.8,0.2-1.3,0.2h-4.5v-10.3h4.3c0.5,0,1,0.1,1.4,0.2c0.4,0.1,0.7,0.3,1,0.5s0.5,0.5,0.6,0.8c0.1,0.3,0.2,0.6,0.2,1
		c0,0.7-0.2,1.2-0.5,1.6s-0.8,0.7-1.5,0.8c0.8,0.1,1.4,0.4,1.8,0.8S154.6,218.5,154.6,219.2z M152.9,214.6c0-0.2,0-0.4-0.1-0.6
		s-0.2-0.4-0.4-0.5c-0.2-0.1-0.4-0.2-0.6-0.3c-0.3-0.1-0.6-0.1-0.9-0.1h-2.8v3.3h2.6c0.4,0,0.7,0,1-0.1s0.5-0.2,0.7-0.4
		c0.2-0.2,0.3-0.3,0.4-0.6S152.9,214.8,152.9,214.6z M153.3,219.2c0-0.3,0-0.5-0.1-0.7s-0.2-0.4-0.4-0.6c-0.2-0.2-0.5-0.3-0.8-0.4
		c-0.3-0.1-0.7-0.1-1.1-0.1h-2.7v3.6h3c0.7,0,1.3-0.2,1.6-0.5S153.3,219.8,153.3,219.2z"/>
	<path class="st44" d="M168.3,222.2H167l-5.3-14.4h1.5l4.1,11.5c0.1,0.2,0.1,0.4,0.2,0.6c0.1,0.2,0.1,0.4,0.1,0.7h0
		c0-0.2,0.1-0.4,0.1-0.6c0.1-0.2,0.1-0.5,0.2-0.7l4.3-11.5h1.5L168.3,222.2z"/>
	<path class="st44" d="M176.4,209.3c-0.3,0-0.5-0.1-0.7-0.3c-0.2-0.2-0.3-0.4-0.3-0.7c0-0.3,0.1-0.5,0.3-0.6
		c0.2-0.2,0.4-0.3,0.7-0.3c0.1,0,0.3,0,0.4,0.1s0.2,0.1,0.3,0.2c0.1,0.1,0.2,0.2,0.2,0.3c0.1,0.1,0.1,0.2,0.1,0.4
		c0,0.1,0,0.2-0.1,0.4c0,0.1-0.1,0.2-0.2,0.3c-0.1,0.1-0.2,0.1-0.3,0.2C176.7,209.2,176.6,209.3,176.4,209.3z M175.8,222.2v-10.3
		h1.3v10.3H175.8z"/>
	<path class="st44" d="M181.8,220.5v1.7h-1.3v-15.2h1.3v6.9h0c0.4-0.7,0.9-1.3,1.6-1.6c0.6-0.4,1.4-0.6,2.2-0.6
		c0.7,0,1.3,0.1,1.8,0.4c0.5,0.2,1,0.6,1.3,1s0.6,1,0.8,1.6c0.2,0.6,0.3,1.3,0.3,2.1c0,0.9-0.1,1.6-0.3,2.3
		c-0.2,0.7-0.5,1.3-0.9,1.8c-0.4,0.5-0.9,0.9-1.5,1.2c-0.6,0.3-1.2,0.4-2,0.4C183.6,222.4,182.5,221.8,181.8,220.5L181.8,220.5z
		 M181.8,217.9c0,0.5,0.1,0.9,0.2,1.3s0.4,0.8,0.7,1.1c0.3,0.3,0.6,0.6,1,0.7c0.4,0.2,0.9,0.3,1.3,0.3c0.5,0,1-0.1,1.4-0.3
		c0.4-0.2,0.8-0.5,1.1-0.9c0.3-0.4,0.5-0.9,0.7-1.5c0.2-0.6,0.2-1.2,0.2-1.9c0-0.6-0.1-1.1-0.2-1.6c-0.1-0.5-0.4-0.9-0.6-1.2
		s-0.6-0.6-1-0.8c-0.4-0.2-0.8-0.3-1.3-0.3c-0.5,0-1,0.1-1.5,0.3s-0.8,0.5-1.1,0.8c-0.3,0.3-0.5,0.7-0.7,1.2s-0.2,0.9-0.2,1.5V217.9
		z"/>
	<path class="st44" d="M193.1,217.2c0,0.6,0.1,1.2,0.3,1.7c0.2,0.5,0.4,0.9,0.7,1.3c0.3,0.3,0.7,0.6,1.1,0.8
		c0.4,0.2,0.9,0.3,1.5,0.3c1.2,0,2.3-0.4,3.3-1.2v1.3c-1,0.7-2.2,1.1-3.6,1.1c-0.7,0-1.3-0.1-1.9-0.4c-0.6-0.2-1.1-0.6-1.5-1.1
		c-0.4-0.5-0.7-1-0.9-1.7c-0.2-0.7-0.3-1.4-0.3-2.3c0-0.8,0.1-1.5,0.4-2.1c0.2-0.7,0.6-1.2,1-1.7c0.4-0.5,0.9-0.9,1.5-1.1
		c0.6-0.3,1.2-0.4,1.9-0.4c0.7,0,1.3,0.1,1.8,0.3c0.5,0.2,1,0.6,1.3,1c0.4,0.4,0.6,1,0.8,1.6c0.2,0.6,0.3,1.3,0.3,2.1v0.6H193.1z
		 M199.3,216.1c0-1.1-0.3-1.9-0.8-2.5c-0.5-0.6-1.2-0.9-2.1-0.9c-0.4,0-0.9,0.1-1.2,0.2c-0.4,0.2-0.7,0.4-1,0.7s-0.5,0.6-0.7,1.1
		s-0.3,0.9-0.4,1.4H199.3z"/>
	<path class="st44" d="M208.4,213.2c-0.3-0.2-0.7-0.3-1.2-0.3c-0.3,0-0.7,0.1-0.9,0.2c-0.3,0.1-0.5,0.3-0.7,0.5
		c-0.2,0.2-0.4,0.5-0.5,0.8c-0.1,0.3-0.3,0.6-0.3,0.9s-0.1,0.6-0.2,1c0,0.3-0.1,0.6-0.1,0.9v5h-1.3v-10.3h1.3v2.2h0
		c0.1-0.4,0.3-0.7,0.5-1c0.2-0.3,0.4-0.5,0.6-0.8c0.2-0.2,0.5-0.4,0.8-0.5c0.3-0.1,0.6-0.2,0.9-0.2c0.2,0,0.4,0,0.6,0
		c0.2,0,0.3,0.1,0.5,0.1V213.2z"/>
	<path class="st44" d="M208.4,224.7h-1l1.4-4.9h1.3L208.4,224.7z"/>
	<path class="st44" d="M72.2,244c0,0.4-0.1,0.8-0.3,1.2s-0.4,0.7-0.8,1c-0.4,0.3-0.8,0.5-1.4,0.7c-0.6,0.2-1.2,0.2-2,0.2
		c-0.3,0-0.6,0-0.9,0c-0.3,0-0.6-0.1-0.9-0.1c-0.3-0.1-0.5-0.1-0.8-0.2s-0.5-0.2-0.6-0.3v-1.3c0.5,0.3,1,0.4,1.5,0.6
		c0.6,0.1,1.1,0.2,1.7,0.2s1.1,0,1.5-0.1c0.4-0.1,0.7-0.2,1-0.4s0.4-0.4,0.5-0.6s0.2-0.5,0.2-0.8c0-0.7-0.3-1.2-0.8-1.5
		s-1.4-0.4-2.4-0.4h-1.2V241h1.1c1,0,1.7-0.1,2.1-0.4c0.5-0.3,0.7-0.8,0.7-1.4c0-0.5-0.2-0.9-0.6-1.2c-0.4-0.3-1.1-0.5-1.9-0.5
		c-0.5,0-1.1,0.1-1.6,0.2s-1.1,0.3-1.5,0.6V237c0.5-0.2,1-0.3,1.6-0.5s1.1-0.2,1.7-0.2c0.6,0,1.2,0.1,1.7,0.2
		c0.5,0.1,0.9,0.3,1.2,0.6c0.3,0.2,0.5,0.5,0.7,0.9c0.1,0.3,0.2,0.7,0.2,1.1c0,0.6-0.2,1.2-0.6,1.6c-0.4,0.4-0.9,0.7-1.6,0.8v0.1
		c0.4,0,0.8,0.1,1.1,0.2c0.3,0.1,0.6,0.3,0.8,0.5s0.4,0.5,0.5,0.8C72.1,243.4,72.2,243.7,72.2,244z"/>
	<path class="st44" d="M82.6,243.9c0,0.4-0.1,0.8-0.2,1.2c-0.2,0.4-0.4,0.7-0.7,0.9c-0.3,0.3-0.6,0.5-1,0.6
		c-0.4,0.2-0.8,0.2-1.3,0.2h-4.5v-10.3H79c0.5,0,1,0.1,1.4,0.2c0.4,0.1,0.7,0.3,1,0.5s0.5,0.5,0.6,0.8c0.1,0.3,0.2,0.6,0.2,1
		c0,0.7-0.2,1.2-0.5,1.6s-0.8,0.7-1.5,0.8c0.8,0.1,1.4,0.4,1.8,0.8S82.6,243.2,82.6,243.9z M80.9,239.3c0-0.2,0-0.4-0.1-0.6
		s-0.2-0.4-0.4-0.5c-0.2-0.1-0.4-0.2-0.6-0.3c-0.3-0.1-0.6-0.1-0.9-0.1h-2.8v3.3h2.6c0.4,0,0.7,0,1-0.1s0.5-0.2,0.7-0.4
		c0.2-0.2,0.3-0.3,0.4-0.6S80.9,239.5,80.9,239.3z M81.3,243.9c0-0.3,0-0.5-0.1-0.7s-0.2-0.4-0.4-0.6c-0.2-0.2-0.5-0.3-0.8-0.4
		c-0.3-0.1-0.7-0.1-1.1-0.1h-2.7v3.6h3c0.7,0,1.3-0.2,1.6-0.5S81.3,244.5,81.3,243.9z"/>
	<path class="st44" d="M89.6,247.1c-0.8,0-1.5-0.1-2.1-0.4c-0.6-0.3-1.1-0.6-1.6-1.1c-0.4-0.5-0.8-1-1-1.7c-0.2-0.7-0.3-1.4-0.3-2.2
		c0-0.9,0.1-1.6,0.4-2.3c0.2-0.7,0.6-1.3,1-1.7c0.5-0.5,1-0.8,1.6-1.1s1.4-0.4,2.1-0.4c0.8,0,1.4,0.1,2,0.4c0.6,0.2,1.1,0.6,1.5,1.1
		c0.4,0.5,0.7,1,1,1.7c0.2,0.7,0.3,1.4,0.3,2.3c0,0.8-0.1,1.5-0.4,2.2c-0.2,0.7-0.6,1.2-1,1.7c-0.4,0.5-1,0.8-1.6,1.1
		C91.1,247,90.4,247.1,89.6,247.1z M89.7,237.4c-0.6,0-1.1,0.1-1.6,0.3s-0.9,0.5-1.2,0.8c-0.3,0.4-0.6,0.8-0.8,1.4
		c-0.2,0.5-0.3,1.2-0.3,1.8c0,0.6,0.1,1.2,0.3,1.7c0.2,0.5,0.4,1,0.7,1.3c0.3,0.4,0.7,0.7,1.2,0.8s1,0.3,1.6,0.3
		c0.6,0,1.1-0.1,1.6-0.3c0.4-0.2,0.8-0.5,1.1-0.8c0.3-0.4,0.5-0.8,0.7-1.3c0.2-0.5,0.2-1.1,0.2-1.8c0-1.4-0.3-2.4-0.9-3.2
		S90.8,237.4,89.7,237.4z"/>
	<path class="st44" d="M104.3,246.9v-4.8h-5.7v4.8h-1.3v-10.3h1.3v4.4h5.7v-4.4h1.3v10.3H104.3z"/>
	<path class="st44" d="M115.1,246.9l-4.8-5h0v5H109v-10.3h1.3v4.8h0l4.6-4.8h1.7l-4.9,5l5.2,5.3H115.1z"/>
	<path class="st44" d="M125.9,246.9v-8.4c0,0.1-0.1,0.2-0.1,0.2c0,0.1-0.1,0.2-0.1,0.2l-5.8,8h-1.2v-10.3h1.2v8.3
		c0-0.1,0.1-0.2,0.1-0.3c0.1-0.1,0.1-0.2,0.2-0.4l5.6-7.6h1.2v10.3H125.9z"/>
	<path class="st44" d="M144.1,243.9c0,0.4-0.1,0.8-0.2,1.2c-0.2,0.4-0.4,0.7-0.7,0.9c-0.3,0.3-0.6,0.5-1,0.6
		c-0.4,0.2-0.8,0.2-1.3,0.2h-4.5v-10.3h4.3c0.5,0,1,0.1,1.4,0.2c0.4,0.1,0.7,0.3,1,0.5s0.5,0.5,0.6,0.8c0.1,0.3,0.2,0.6,0.2,1
		c0,0.7-0.2,1.2-0.5,1.6s-0.8,0.7-1.5,0.8c0.8,0.1,1.4,0.4,1.8,0.8S144.1,243.2,144.1,243.9z M142.4,239.3c0-0.2,0-0.4-0.1-0.6
		s-0.2-0.4-0.4-0.5c-0.2-0.1-0.4-0.2-0.6-0.3c-0.3-0.1-0.6-0.1-0.9-0.1h-2.8v3.3h2.6c0.4,0,0.7,0,1-0.1s0.5-0.2,0.7-0.4
		c0.2-0.2,0.3-0.3,0.4-0.6S142.4,239.5,142.4,239.3z M142.8,243.9c0-0.3,0-0.5-0.1-0.7s-0.2-0.4-0.4-0.6c-0.2-0.2-0.5-0.3-0.8-0.4
		c-0.3-0.1-0.7-0.1-1.1-0.1h-2.7v3.6h3c0.7,0,1.3-0.2,1.6-0.5S142.8,244.5,142.8,243.9z"/>
	<path class="st44" d="M152.2,244.8c0.2,0.2,0.5,0.3,0.8,0.5s0.6,0.3,0.9,0.4c0.3,0.1,0.6,0.2,0.9,0.2c0.3,0.1,0.6,0.1,0.9,0.1
		c1.1,0,1.9-0.2,2.5-0.6c0.6-0.4,0.8-1,0.8-1.8c0-0.4-0.1-0.7-0.2-1c-0.1-0.3-0.3-0.6-0.6-0.8s-0.6-0.5-1-0.7
		c-0.4-0.2-0.9-0.5-1.5-0.8c-0.6-0.3-1.2-0.7-1.6-1c-0.4-0.3-0.8-0.6-1.1-0.9c-0.3-0.3-0.5-0.6-0.6-1c-0.1-0.4-0.2-0.8-0.2-1.2
		c0-0.6,0.1-1.1,0.4-1.6c0.3-0.5,0.6-0.9,1-1.2c0.4-0.3,0.9-0.6,1.5-0.7c0.6-0.2,1.2-0.3,1.8-0.3c1.1,0,2.1,0.2,2.9,0.5v1.5
		c-0.9-0.5-1.9-0.7-3-0.7c-0.4,0-0.8,0.1-1.2,0.2c-0.4,0.1-0.7,0.3-1,0.5s-0.5,0.5-0.7,0.7c-0.2,0.3-0.3,0.6-0.3,1
		c0,0.4,0.1,0.7,0.2,1s0.3,0.5,0.5,0.8c0.2,0.2,0.6,0.5,1,0.7c0.4,0.2,0.9,0.5,1.5,0.8c0.6,0.3,1.1,0.6,1.6,0.9
		c0.5,0.3,0.8,0.6,1.1,1c0.3,0.3,0.5,0.7,0.7,1.1c0.1,0.4,0.2,0.8,0.2,1.2c0,0.6-0.1,1.2-0.4,1.7c-0.2,0.5-0.6,0.9-1,1.2
		c-0.4,0.3-0.9,0.6-1.5,0.7c-0.6,0.2-1.2,0.2-1.9,0.2c-0.2,0-0.5,0-0.8-0.1c-0.3,0-0.6-0.1-1-0.2c-0.3-0.1-0.6-0.2-0.9-0.3
		s-0.5-0.2-0.7-0.3V244.8z"/>
	<path class="st44" d="M169.4,246.9l-4.8-5h0v5h-1.3v-15.2h1.3v9.7h0l4.6-4.8h1.7l-4.9,5l5.3,5.3H169.4z"/>
	<path class="st44" d="M176.1,248.7c-0.4,1-0.9,1.8-1.4,2.2c-0.5,0.5-1.2,0.7-1.9,0.7c-0.4,0-0.7,0-0.9-0.1v-1.2
		c0.1,0.1,0.3,0.1,0.5,0.1c0.2,0,0.3,0,0.5,0c0.4,0,0.8-0.1,1.1-0.4c0.3-0.3,0.6-0.7,0.8-1.2l0.9-2.1l-4-10.2h1.4l3,8.2
		c0,0.1,0.1,0.2,0.1,0.4c0,0.1,0.1,0.3,0.1,0.4h0.1c0-0.1,0.1-0.2,0.1-0.3c0-0.1,0.1-0.2,0.1-0.4l3.2-8.2h1.4L176.1,248.7z"/>
	<path class="st44" d="M184.2,245.2v6.4h-1.3v-15h1.3v2h0c0.4-0.7,0.9-1.3,1.6-1.6c0.6-0.4,1.4-0.6,2.2-0.6c0.7,0,1.3,0.1,1.8,0.4
		c0.5,0.2,1,0.6,1.3,1c0.4,0.4,0.6,1,0.8,1.6c0.2,0.6,0.3,1.3,0.3,2.1c0,0.9-0.1,1.6-0.3,2.3c-0.2,0.7-0.5,1.3-0.9,1.8
		c-0.4,0.5-0.9,0.9-1.5,1.2c-0.6,0.3-1.2,0.4-2,0.4C186,247.1,184.9,246.5,184.2,245.2L184.2,245.2z M184.2,242.6
		c0,0.5,0.1,0.9,0.2,1.3s0.4,0.8,0.7,1.1c0.3,0.3,0.6,0.6,1,0.7c0.4,0.2,0.9,0.3,1.3,0.3c0.5,0,1-0.1,1.4-0.3
		c0.4-0.2,0.8-0.5,1.1-0.9c0.3-0.4,0.5-0.9,0.7-1.5c0.2-0.6,0.2-1.2,0.2-1.9c0-0.6-0.1-1.1-0.2-1.6c-0.1-0.5-0.4-0.9-0.6-1.2
		s-0.6-0.6-1-0.8c-0.4-0.2-0.8-0.3-1.3-0.3c-0.5,0-1,0.1-1.5,0.3s-0.8,0.5-1.1,0.8c-0.3,0.3-0.5,0.7-0.7,1.2s-0.2,0.9-0.2,1.5V242.6
		z"/>
	<path class="st44" d="M195.5,242c0,0.6,0.1,1.2,0.3,1.7c0.2,0.5,0.4,0.9,0.7,1.3c0.3,0.3,0.7,0.6,1.1,0.8c0.4,0.2,0.9,0.3,1.5,0.3
		c1.2,0,2.3-0.4,3.3-1.2v1.3c-1,0.7-2.2,1.1-3.6,1.1c-0.7,0-1.3-0.1-1.9-0.4c-0.6-0.2-1.1-0.6-1.5-1.1c-0.4-0.5-0.7-1-0.9-1.7
		c-0.2-0.7-0.3-1.4-0.3-2.3c0-0.8,0.1-1.5,0.4-2.1c0.2-0.7,0.6-1.2,1-1.7c0.4-0.5,0.9-0.9,1.5-1.1c0.6-0.3,1.2-0.4,1.9-0.4
		c0.7,0,1.3,0.1,1.8,0.3c0.5,0.2,1,0.6,1.3,1c0.4,0.4,0.6,1,0.8,1.6c0.2,0.6,0.3,1.3,0.3,2.1v0.6H195.5z M201.7,240.8
		c0-1.1-0.3-1.9-0.8-2.5c-0.5-0.6-1.2-0.9-2.1-0.9c-0.4,0-0.9,0.1-1.2,0.2c-0.4,0.2-0.7,0.4-1,0.7s-0.5,0.6-0.7,1.1
		s-0.3,0.9-0.4,1.4H201.7z"/>
	<path class="st44" d="M205.3,249.4h-1l1.4-4.9h1.3L205.3,249.4z"/>
	<path class="st44" d="M66.6,262.4v9.2h-1.3v-10.3h5.4v1.1H66.6z"/>
	<path class="st44" d="M76.8,271.8c-0.8,0-1.5-0.1-2.1-0.4c-0.6-0.3-1.1-0.6-1.6-1.1c-0.4-0.5-0.8-1-1-1.7c-0.2-0.6-0.3-1.4-0.3-2.2
		c0-0.9,0.1-1.6,0.4-2.3c0.2-0.7,0.6-1.3,1-1.7s1-0.8,1.6-1.1s1.4-0.4,2.1-0.4c0.8,0,1.4,0.1,2,0.4c0.6,0.2,1.1,0.6,1.5,1.1
		c0.4,0.5,0.7,1,1,1.7c0.2,0.7,0.3,1.4,0.3,2.3c0,0.8-0.1,1.5-0.4,2.2c-0.2,0.7-0.6,1.2-1,1.7c-0.4,0.5-1,0.8-1.6,1.1
		C78.3,271.7,77.6,271.8,76.8,271.8z M76.9,262.2c-0.6,0-1.1,0.1-1.6,0.3s-0.9,0.5-1.2,0.8c-0.3,0.4-0.6,0.8-0.8,1.4
		c-0.2,0.5-0.3,1.2-0.3,1.8c0,0.6,0.1,1.2,0.3,1.7c0.2,0.5,0.4,1,0.7,1.3c0.3,0.4,0.7,0.7,1.2,0.8c0.5,0.2,1,0.3,1.6,0.3
		c0.6,0,1.1-0.1,1.6-0.3c0.4-0.2,0.8-0.5,1.1-0.8c0.3-0.4,0.5-0.8,0.7-1.3s0.2-1.1,0.2-1.8c0-1.4-0.3-2.4-0.9-3.2
		C78.9,262.5,78,262.2,76.9,262.2z"/>
	<path class="st44" d="M90.5,271.6v-9.2h-2.7c-0.1,1.6-0.3,3-0.5,4.1c-0.2,1.2-0.5,2.1-0.8,2.9c-0.3,0.8-0.7,1.3-1.2,1.7
		s-1,0.6-1.6,0.6c-0.1,0-0.3,0-0.4,0c-0.1,0-0.2,0-0.3-0.1v-1.1c0.1,0,0.2,0.1,0.3,0.1c0.1,0,0.2,0,0.4,0c0.4,0,0.8-0.2,1.1-0.6
		c0.3-0.4,0.6-1,0.8-1.8c0.2-0.8,0.4-1.8,0.6-2.9c0.2-1.2,0.3-2.5,0.4-4h5.2v10.3H90.5z"/>
	<path class="st44" d="M99.5,271.8c-0.8,0-1.5-0.1-2.1-0.4c-0.6-0.3-1.1-0.6-1.6-1.1c-0.4-0.5-0.8-1-1-1.7c-0.2-0.6-0.3-1.4-0.3-2.2
		c0-0.9,0.1-1.6,0.4-2.3c0.2-0.7,0.6-1.3,1-1.7s1-0.8,1.6-1.1s1.4-0.4,2.1-0.4c0.8,0,1.4,0.1,2,0.4c0.6,0.2,1.1,0.6,1.5,1.1
		c0.4,0.5,0.7,1,1,1.7c0.2,0.7,0.3,1.4,0.3,2.3c0,0.8-0.1,1.5-0.4,2.2c-0.2,0.7-0.6,1.2-1,1.7c-0.4,0.5-1,0.8-1.6,1.1
		C101,271.7,100.3,271.8,99.5,271.8z M99.6,262.2c-0.6,0-1.1,0.1-1.6,0.3s-0.9,0.5-1.2,0.8c-0.3,0.4-0.6,0.8-0.8,1.4
		c-0.2,0.5-0.3,1.2-0.3,1.8c0,0.6,0.1,1.2,0.3,1.7c0.2,0.5,0.4,1,0.7,1.3c0.3,0.4,0.7,0.7,1.2,0.8c0.5,0.2,1,0.3,1.6,0.3
		c0.6,0,1.1-0.1,1.6-0.3c0.4-0.2,0.8-0.5,1.1-0.8c0.3-0.4,0.5-0.8,0.7-1.3s0.2-1.1,0.2-1.8c0-1.4-0.3-2.4-0.9-3.2
		C101.6,262.5,100.7,262.2,99.6,262.2z"/>
	<path class="st44" d="M114.1,271.1c-0.8,0.5-1.7,0.7-2.8,0.7c-0.7,0-1.4-0.1-2-0.4c-0.6-0.3-1.1-0.6-1.5-1.1c-0.4-0.5-0.7-1-1-1.6
		c-0.2-0.6-0.3-1.3-0.3-2.1c0-0.8,0.1-1.5,0.4-2.2c0.2-0.7,0.6-1.3,1-1.8s1-0.9,1.7-1.2c0.7-0.3,1.4-0.4,2.3-0.4
		c0.9,0,1.7,0.2,2.4,0.5v1.4c-0.8-0.5-1.6-0.7-2.5-0.7c-0.6,0-1.2,0.1-1.7,0.3c-0.5,0.2-0.9,0.5-1.2,0.9c-0.3,0.4-0.6,0.9-0.8,1.4
		s-0.3,1.1-0.3,1.7c0,0.5,0.1,1.1,0.2,1.6c0.1,0.5,0.4,0.9,0.7,1.3c0.3,0.4,0.7,0.7,1.1,0.9c0.5,0.2,1,0.3,1.6,0.3
		c1,0,1.9-0.3,2.7-0.9V271.1z"/>
	<path class="st44" d="M122.6,271.6v-1.8h0c-0.3,0.7-0.8,1.2-1.4,1.5c-0.6,0.4-1.3,0.5-2,0.5c-0.5,0-1-0.1-1.4-0.2
		c-0.4-0.1-0.7-0.3-1-0.6c-0.3-0.3-0.5-0.6-0.7-0.9c-0.2-0.4-0.2-0.8-0.2-1.2c0-0.9,0.3-1.7,0.9-2.2c0.6-0.6,1.5-0.9,2.7-1.1
		l3.2-0.5c0-2-0.8-3-2.3-3c-1.2,0-2.3,0.4-3.4,1.3v-1.4c0.2-0.2,0.5-0.3,0.7-0.4c0.3-0.1,0.6-0.2,0.9-0.3c0.3-0.1,0.6-0.2,0.9-0.2
		c0.3-0.1,0.6-0.1,0.9-0.1c1.2,0,2,0.3,2.6,1c0.6,0.6,0.9,1.6,0.9,2.9v6.7H122.6z M119.9,266.6c-0.5,0.1-0.9,0.2-1.2,0.3
		s-0.6,0.2-0.8,0.4s-0.4,0.4-0.5,0.6c-0.1,0.3-0.2,0.6-0.2,0.9c0,0.3,0,0.5,0.1,0.8s0.2,0.4,0.4,0.6s0.4,0.3,0.7,0.4
		c0.3,0.1,0.6,0.1,0.9,0.1c0.5,0,0.9-0.1,1.3-0.3c0.4-0.2,0.7-0.4,1-0.7s0.5-0.7,0.7-1.1c0.2-0.4,0.2-0.9,0.2-1.4v-1L119.9,266.6z"
		/>
	<path class="st44" d="M140.6,268.6c0,0.4-0.1,0.8-0.2,1.2c-0.2,0.4-0.4,0.7-0.7,0.9s-0.6,0.5-1,0.6c-0.4,0.2-0.8,0.2-1.3,0.2h-4.5
		v-10.3h4.3c0.5,0,1,0.1,1.4,0.2s0.7,0.3,1,0.5c0.3,0.2,0.5,0.5,0.6,0.8c0.1,0.3,0.2,0.6,0.2,1c0,0.6-0.2,1.2-0.5,1.6
		s-0.8,0.7-1.5,0.8c0.8,0.1,1.4,0.4,1.8,0.8S140.6,268,140.6,268.6z M138.9,264c0-0.2,0-0.4-0.1-0.6c-0.1-0.2-0.2-0.4-0.4-0.5
		c-0.2-0.1-0.4-0.2-0.6-0.3s-0.6-0.1-0.9-0.1h-2.8v3.3h2.6c0.4,0,0.7,0,1-0.1s0.5-0.2,0.7-0.4c0.2-0.2,0.3-0.3,0.4-0.6
		S138.9,264.2,138.9,264z M139.3,268.6c0-0.3,0-0.5-0.1-0.7c-0.1-0.2-0.2-0.4-0.4-0.6c-0.2-0.2-0.5-0.3-0.8-0.4
		c-0.3-0.1-0.7-0.1-1.1-0.1h-2.7v3.6h3c0.7,0,1.3-0.2,1.6-0.5S139.3,269.2,139.3,268.6z"/>
	<path class="st44" d="M147.6,271.8c-0.8,0-1.5-0.1-2.1-0.4c-0.6-0.3-1.1-0.6-1.6-1.1c-0.4-0.5-0.8-1-1-1.7
		c-0.2-0.6-0.3-1.4-0.3-2.2c0-0.9,0.1-1.6,0.4-2.3c0.2-0.7,0.6-1.3,1-1.7s1-0.8,1.6-1.1s1.4-0.4,2.1-0.4c0.8,0,1.4,0.1,2,0.4
		c0.6,0.2,1.1,0.6,1.5,1.1c0.4,0.5,0.7,1,1,1.7c0.2,0.7,0.3,1.4,0.3,2.3c0,0.8-0.1,1.5-0.4,2.2c-0.2,0.7-0.6,1.2-1,1.7
		c-0.4,0.5-1,0.8-1.6,1.1C149.1,271.7,148.4,271.8,147.6,271.8z M147.7,262.2c-0.6,0-1.1,0.1-1.6,0.3s-0.9,0.5-1.2,0.8
		c-0.3,0.4-0.6,0.8-0.8,1.4c-0.2,0.5-0.3,1.2-0.3,1.8c0,0.6,0.1,1.2,0.3,1.7c0.2,0.5,0.4,1,0.7,1.3c0.3,0.4,0.7,0.7,1.2,0.8
		c0.5,0.2,1,0.3,1.6,0.3c0.6,0,1.1-0.1,1.6-0.3c0.4-0.2,0.8-0.5,1.1-0.8c0.3-0.4,0.5-0.8,0.7-1.3s0.2-1.1,0.2-1.8
		c0-1.4-0.3-2.4-0.9-3.2C149.8,262.5,148.9,262.2,147.7,262.2z"/>
	<path class="st44" d="M161.3,271.6v-14.4h4c0.6,0,1.2,0.1,1.6,0.2c0.5,0.2,0.9,0.4,1.2,0.7c0.3,0.3,0.6,0.6,0.8,1.1
		c0.2,0.4,0.3,0.9,0.3,1.3c0,0.4-0.1,0.8-0.2,1.2c-0.1,0.4-0.3,0.7-0.5,1c-0.2,0.3-0.5,0.6-0.8,0.8c-0.3,0.2-0.7,0.4-1.1,0.5v0
		c0.5,0,0.9,0.2,1.3,0.4c0.4,0.2,0.7,0.4,1,0.7s0.5,0.7,0.7,1.1s0.2,0.8,0.2,1.3c0,0.6-0.1,1.2-0.3,1.7c-0.2,0.5-0.5,0.9-0.9,1.3
		c-0.4,0.4-0.9,0.6-1.4,0.8c-0.6,0.2-1.2,0.3-1.8,0.3H161.3z M162.6,258.4v5.1h1.9c0.5,0,0.9-0.1,1.3-0.2c0.4-0.1,0.7-0.3,1-0.6
		s0.5-0.5,0.7-0.9s0.2-0.7,0.2-1.2c0-1.6-1-2.3-3-2.3H162.6z M162.6,264.7v5.6h2.5c1.1,0,1.9-0.2,2.5-0.7c0.6-0.5,0.9-1.2,0.9-2.1
		c0-1.8-1.3-2.8-3.8-2.8H162.6z"/>
	<path class="st44" d="M180.6,271.6l-5.9-6.7c-0.2-0.2-0.3-0.3-0.3-0.4h0v7.2h-1.4v-14.4h1.4v6.8h0c0-0.1,0.1-0.1,0.2-0.2
		c0.1-0.1,0.1-0.1,0.2-0.2l5.7-6.4h1.7l-6.3,7l6.8,7.5H180.6z"/>
	<path class="st44" d="M184.4,274.1h-1l1.4-4.9h1.3L184.4,274.1z"/>
	<path class="st44" d="M201.1,271.6l-4.8-5h0v5H195v-10.3h1.3v4.8h0l4.6-4.8h1.7l-4.9,5l5.2,5.3H201.1z"/>
	<path class="st44" d="M211.2,271.6v-9.2h-2.7c-0.1,1.6-0.3,3-0.5,4.1c-0.2,1.2-0.5,2.1-0.8,2.9c-0.3,0.8-0.7,1.3-1.2,1.7
		s-1,0.6-1.6,0.6c-0.1,0-0.3,0-0.4,0c-0.1,0-0.2,0-0.3-0.1v-1.1c0.1,0,0.2,0.1,0.3,0.1c0.1,0,0.2,0,0.4,0c0.4,0,0.8-0.2,1.1-0.6
		c0.3-0.4,0.6-1,0.8-1.8c0.2-0.8,0.4-1.8,0.6-2.9c0.2-1.2,0.3-2.5,0.4-4h5.2v10.3H211.2z"/>
	<path class="st44" d="M221.9,271.6v-1.8h0c-0.3,0.7-0.8,1.2-1.4,1.5c-0.6,0.4-1.3,0.5-2,0.5c-0.5,0-1-0.1-1.4-0.2
		c-0.4-0.1-0.7-0.3-1-0.6c-0.3-0.3-0.5-0.6-0.7-0.9c-0.2-0.4-0.2-0.8-0.2-1.2c0-0.9,0.3-1.7,0.9-2.2c0.6-0.6,1.5-0.9,2.7-1.1
		l3.2-0.5c0-2-0.8-3-2.3-3c-1.2,0-2.3,0.4-3.4,1.3v-1.4c0.2-0.2,0.5-0.3,0.7-0.4c0.3-0.1,0.6-0.2,0.9-0.3c0.3-0.1,0.6-0.2,0.9-0.2
		c0.3-0.1,0.6-0.1,0.9-0.1c1.2,0,2,0.3,2.6,1c0.6,0.6,0.9,1.6,0.9,2.9v6.7H221.9z M219.2,266.6c-0.5,0.1-0.9,0.2-1.2,0.3
		s-0.6,0.2-0.8,0.4s-0.4,0.4-0.5,0.6c-0.1,0.3-0.2,0.6-0.2,0.9c0,0.3,0,0.5,0.1,0.8s0.2,0.4,0.4,0.6s0.4,0.3,0.7,0.4
		c0.3,0.1,0.6,0.1,0.9,0.1c0.5,0,0.9-0.1,1.3-0.3c0.4-0.2,0.7-0.4,1-0.7s0.5-0.7,0.7-1.1c0.2-0.4,0.2-0.9,0.2-1.4v-1L219.2,266.6z"
		/>
	<path class="st44" d="M233.3,271.1c-0.8,0.5-1.7,0.7-2.8,0.7c-0.7,0-1.4-0.1-2-0.4c-0.6-0.3-1.1-0.6-1.5-1.1c-0.4-0.5-0.7-1-1-1.6
		c-0.2-0.6-0.3-1.3-0.3-2.1c0-0.8,0.1-1.5,0.4-2.2c0.2-0.7,0.6-1.3,1-1.8s1-0.9,1.7-1.2c0.7-0.3,1.4-0.4,2.3-0.4
		c0.9,0,1.7,0.2,2.4,0.5v1.4c-0.8-0.5-1.6-0.7-2.5-0.7c-0.6,0-1.2,0.1-1.7,0.3c-0.5,0.2-0.9,0.5-1.2,0.9c-0.3,0.4-0.6,0.9-0.8,1.4
		s-0.3,1.1-0.3,1.7c0,0.5,0.1,1.1,0.2,1.6c0.1,0.5,0.4,0.9,0.7,1.3c0.3,0.4,0.7,0.7,1.1,0.9c0.5,0.2,1,0.3,1.6,0.3
		c1,0,1.9-0.3,2.7-0.9V271.1z"/>
	<path class="st44" d="M242.7,271.1c-0.8,0.5-1.7,0.7-2.8,0.7c-0.7,0-1.4-0.1-2-0.4c-0.6-0.3-1.1-0.6-1.5-1.1c-0.4-0.5-0.7-1-1-1.6
		c-0.2-0.6-0.3-1.3-0.3-2.1c0-0.8,0.1-1.5,0.4-2.2c0.2-0.7,0.6-1.3,1-1.8s1-0.9,1.7-1.2c0.7-0.3,1.4-0.4,2.3-0.4
		c0.9,0,1.7,0.2,2.4,0.5v1.4c-0.8-0.5-1.6-0.7-2.5-0.7c-0.6,0-1.2,0.1-1.7,0.3c-0.5,0.2-0.9,0.5-1.2,0.9c-0.3,0.4-0.6,0.9-0.8,1.4
		s-0.3,1.1-0.3,1.7c0,0.5,0.1,1.1,0.2,1.6c0.1,0.5,0.4,0.9,0.7,1.3c0.3,0.4,0.7,0.7,1.1,0.9c0.5,0.2,1,0.3,1.6,0.3
		c1,0,1.9-0.3,2.7-0.9V271.1z"/>
	<path class="st44" d="M252.8,268.4c0,0.5-0.1,1-0.3,1.4c-0.2,0.4-0.4,0.7-0.7,1c-0.3,0.3-0.6,0.5-1,0.6c-0.4,0.1-0.8,0.2-1.2,0.2
		h-4.3v-10.3h1.3v4.1h2.9c0.5,0,1,0.1,1.4,0.2c0.4,0.1,0.8,0.3,1.1,0.6c0.3,0.3,0.5,0.6,0.7,1C252.7,267.5,252.8,267.9,252.8,268.4z
		 M251.5,268.4c0-0.6-0.2-1.1-0.6-1.4c-0.4-0.3-0.9-0.5-1.7-0.5h-2.6v4h2.7c0.4,0,0.7,0,1-0.1c0.3-0.1,0.5-0.2,0.7-0.4
		c0.2-0.2,0.3-0.4,0.4-0.6C251.4,269,251.5,268.7,251.5,268.4z M254.8,271.6v-10.3h1.3v10.3H254.8z"/>
	<path class="st44" d="M273.1,268.6c0,0.4-0.1,0.8-0.2,1.2c-0.2,0.4-0.4,0.7-0.7,0.9s-0.6,0.5-1,0.6c-0.4,0.2-0.8,0.2-1.3,0.2h-4.5
		v-10.3h4.3c0.5,0,1,0.1,1.4,0.2s0.7,0.3,1,0.5c0.3,0.2,0.5,0.5,0.6,0.8c0.1,0.3,0.2,0.6,0.2,1c0,0.6-0.2,1.2-0.5,1.6
		s-0.8,0.7-1.5,0.8c0.8,0.1,1.4,0.4,1.8,0.8S273.1,268,273.1,268.6z M271.3,264c0-0.2,0-0.4-0.1-0.6c-0.1-0.2-0.2-0.4-0.4-0.5
		c-0.2-0.1-0.4-0.2-0.6-0.3s-0.6-0.1-0.9-0.1h-2.8v3.3h2.6c0.4,0,0.7,0,1-0.1s0.5-0.2,0.7-0.4c0.2-0.2,0.3-0.3,0.4-0.6
		S271.3,264.2,271.3,264z M271.7,268.6c0-0.3,0-0.5-0.1-0.7c-0.1-0.2-0.2-0.4-0.4-0.6c-0.2-0.2-0.5-0.3-0.8-0.4
		c-0.3-0.1-0.7-0.1-1.1-0.1h-2.7v3.6h3c0.7,0,1.3-0.2,1.6-0.5S271.7,269.2,271.7,268.6z"/>
	<path class="st44" d="M287.6,271.8c-1.1,0-2-0.2-2.8-0.6c-0.8-0.4-1.6-0.9-2.1-1.6c-0.6-0.7-1-1.4-1.4-2.3
		c-0.3-0.9-0.5-1.8-0.5-2.9c0-1.1,0.2-2.2,0.5-3.1c0.3-0.9,0.8-1.7,1.4-2.4s1.3-1.2,2.2-1.6c0.9-0.4,1.9-0.6,3-0.6
		c1,0,2,0.2,2.8,0.5c0.8,0.4,1.5,0.9,2.1,1.5c0.6,0.6,1,1.4,1.3,2.3s0.5,1.8,0.5,2.9c0,1.1-0.2,2.1-0.5,3c-0.3,0.9-0.7,1.7-1.3,2.4
		c-0.6,0.7-1.3,1.2-2.2,1.6C289.8,271.6,288.8,271.8,287.6,271.8z M287.8,258.1c-0.9,0-1.7,0.2-2.4,0.5c-0.7,0.3-1.3,0.8-1.7,1.3
		s-0.8,1.2-1.1,2s-0.4,1.6-0.4,2.4c0,0.8,0.1,1.6,0.3,2.3c0.2,0.7,0.6,1.4,1,2c0.4,0.6,1,1,1.7,1.4c0.7,0.3,1.5,0.5,2.4,0.5
		s1.7-0.2,2.4-0.5s1.3-0.7,1.7-1.3s0.8-1.2,1-2c0.2-0.8,0.4-1.6,0.4-2.5c0-0.8-0.1-1.6-0.3-2.4c-0.2-0.8-0.5-1.4-1-2s-1-1-1.7-1.3
		C289.5,258.3,288.7,258.1,287.8,258.1z"/>
	<path class="st44" d="M305.2,271.6l-5.9-6.7c-0.2-0.2-0.3-0.3-0.3-0.4h0v7.2h-1.4v-14.4h1.4v6.8h0c0-0.1,0.1-0.1,0.2-0.2
		c0.1-0.1,0.1-0.1,0.2-0.2l5.7-6.4h1.7l-6.3,7l6.8,7.5H305.2z"/>
</g>
<g>
	<path class="st45" d="M78,171.6h-3.3V160h-6.1v11.6h-3.3v-14.4H78V171.6z"/>
	<path class="st45" d="M87.5,171.8c-2.1,0-3.8-0.7-5.1-2c-1.3-1.3-2-3.1-2-5.3c0-2.3,0.7-4.1,2-5.5c1.3-1.4,3.1-2.1,5.3-2.1
		c2.1,0,3.8,0.7,5.1,2c1.3,1.3,1.9,3.1,1.9,5.3c0,2.3-0.7,4.1-2,5.5S89.6,171.8,87.5,171.8z M87.6,159.7c-1.2,0-2.1,0.4-2.8,1.3
		c-0.7,0.9-1,2-1,3.4c0,1.4,0.3,2.6,1,3.4c0.7,0.8,1.6,1.2,2.7,1.2c1.1,0,2-0.4,2.7-1.2c0.7-0.8,1-1.9,1-3.4c0-1.5-0.3-2.7-1-3.5
		S88.7,159.7,87.6,159.7z"/>
	<path class="st45" d="M109.3,171.6h-4.2l-4.3-6.3c-0.1-0.1-0.2-0.4-0.4-0.8h-0.1v7.1h-3.3v-14.4h3.3v6.8h0.1
		c0.1-0.2,0.2-0.5,0.4-0.8l4-6h3.9l-5.1,6.9L109.3,171.6z"/>
	<path class="st45" d="M122,157.2l-4.6,9.9c-0.9,1.8-1.7,3.1-2.4,3.8c-0.8,0.7-1.7,1-2.9,1c-0.8,0-1.4-0.1-1.9-0.3v-3
		c0.6,0.4,1.1,0.5,1.7,0.5c0.8,0,1.5-0.7,2.2-2l-4.8-9.9h3.8l2.4,5.8c0.1,0.3,0.3,0.7,0.3,1.2h0c0.1-0.4,0.2-0.7,0.3-1.1l2.3-5.8
		H122z"/>
	<path class="st45" d="M136.2,171.6h-3.3V160h-6.1v11.6h-3.3v-14.4h12.6V171.6z"/>
	<path class="st45" d="M152.4,171.6h-3.6l-1-3.2h-5.2l-1,3.2h-3.6l5.3-14.4h3.9L152.4,171.6z M147,165.9l-1.6-4.8
		c-0.1-0.4-0.2-0.8-0.2-1.3h-0.1c0,0.4-0.1,0.8-0.3,1.3l-1.6,4.9H147z"/>
	<path class="st45" d="M167.4,171.6h-3.1v-7.9c0-0.9,0-1.7,0.1-2.3h-0.1c-0.1,0.3-0.4,0.7-0.7,1.2l-6,9.1h-3.3v-14.4h3.1v8
		c0,1,0,1.6-0.1,2h0c0-0.1,0.3-0.5,0.8-1.2l5.8-8.8h3.5V171.6z M165.3,152.3c-0.1,1.1-0.6,1.9-1.4,2.5c-0.8,0.6-1.8,0.9-3,0.9
		c-1.2,0-2.2-0.3-3-0.9c-0.8-0.6-1.2-1.5-1.3-2.5h2.3c0,0.5,0.2,0.9,0.6,1.3c0.4,0.3,0.9,0.5,1.4,0.5c0.5,0,1-0.2,1.4-0.5
		c0.4-0.3,0.6-0.8,0.6-1.3H165.3z"/>
	<path class="st45" d="M181,159.8h-4.2v11.8h-3.3v-11.8h-4.2v-2.6H181V159.8z"/>
	<path class="st45" d="M191.7,171.6H183v-14.4h8.4v2.6h-5.1v3.2h4.8v2.6h-4.8v3.3h5.5V171.6z"/>
	<path class="st45" d="M213,171.6h-3.1v-7.9c0-0.9,0-1.7,0.1-2.3h-0.1c-0.1,0.3-0.4,0.7-0.7,1.2l-6,9.1h-3.3v-14.4h3.1v8
		c0,1,0,1.6-0.1,2h0c0-0.1,0.3-0.5,0.8-1.2l5.8-8.8h3.5V171.6z"/>
	<path class="st45" d="M71.5,196.5c-2.1,0-3.8-0.7-5.1-2c-1.3-1.3-2-3.1-2-5.3c0-2.3,0.7-4.1,2-5.5c1.3-1.4,3.1-2.1,5.3-2.1
		c2.1,0,3.8,0.7,5.1,2c1.3,1.3,1.9,3.1,1.9,5.3c0,2.3-0.7,4.1-2,5.5S73.6,196.5,71.5,196.5z M71.6,184.4c-1.2,0-2.1,0.4-2.8,1.3
		c-0.7,0.9-1,2-1,3.4c0,1.4,0.3,2.6,1,3.4c0.7,0.8,1.6,1.2,2.7,1.2c1.1,0,2-0.4,2.7-1.2c0.7-0.8,1-1.9,1-3.4c0-1.5-0.3-2.7-1-3.5
		S72.8,184.4,71.6,184.4z"/>
	<path class="st45" d="M93.8,196.3h-3.3v-11.6h-6.1v11.6h-3.3v-14.4h12.6V196.3z"/>
	<path class="st45" d="M109,196.3h-3.3v-11.7h-2.9c-0.8,5.5-1.5,8.9-2.2,10.1c-0.7,1.2-1.7,1.8-3.1,1.8c-0.6,0-1.2-0.1-1.8-0.3v-2.6
		c0.4,0.1,0.7,0.2,1,0.2c0.3,0,0.5-0.1,0.7-0.3c0.2-0.2,0.5-0.6,0.7-1.4s0.6-2,0.9-3.9c0.4-1.8,0.7-4,1-6.4h8.9V196.3z"/>
	<path class="st45" d="M125.2,196.3h-3.6l-1-3.2h-5.2l-1,3.2h-3.6l5.3-14.4h3.9L125.2,196.3z M119.9,190.6l-1.6-4.8
		c-0.1-0.4-0.2-0.8-0.2-1.3H118c0,0.4-0.1,0.8-0.3,1.3l-1.6,4.9H119.9z"/>
	<path class="st45" d="M137.2,196.3h-3.3v-5.7c-1.4,0.7-2.8,1.1-4.2,1.1c-3,0-4.5-1.4-4.5-4.3v-5.5h3.3v5.2c0,1.2,0.7,1.9,2.1,1.9
		c1.1,0,2.2-0.3,3.3-1v-6.1h3.3V196.3z"/>
	<path class="st45" d="M153.8,196.3h-3.1v-7.9c0-0.9,0-1.7,0.1-2.3h-0.1c-0.1,0.3-0.4,0.7-0.7,1.2l-6,9.1h-3.3v-14.4h3.1v8
		c0,1,0,1.6-0.1,2h0c0-0.1,0.3-0.5,0.8-1.2l5.8-8.8h3.5V196.3z"/>
	<path class="st45" d="M157.2,196.3v-14.4h5.3c1.6,0,2.9,0.3,3.8,0.9s1.3,1.4,1.3,2.5c0,0.8-0.3,1.5-0.8,2c-0.5,0.6-1.2,1-2,1.2v0
		c1,0.1,1.9,0.5,2.5,1.1c0.6,0.6,0.9,1.4,0.9,2.3c0,1.3-0.5,2.4-1.4,3.1s-2.3,1.2-3.9,1.2H157.2z M160.5,184.3v3.4h1.4
		c0.7,0,1.2-0.2,1.6-0.5c0.4-0.3,0.6-0.8,0.6-1.3c0-1.1-0.8-1.6-2.4-1.6H160.5z M160.5,190.1v3.8h1.8c0.8,0,1.4-0.2,1.8-0.5
		c0.4-0.3,0.6-0.8,0.6-1.4c0-0.6-0.2-1-0.6-1.4c-0.4-0.3-1-0.5-1.8-0.5H160.5z"/>
	<path class="st45" d="M183.4,196.3h-3.6l-1-3.2h-5.2l-1,3.2H169l5.3-14.4h3.9L183.4,196.3z M178,190.6l-1.6-4.8
		c-0.1-0.4-0.2-0.8-0.2-1.3h-0.1c0,0.4-0.1,0.8-0.3,1.3l-1.6,4.9H178z"/>
	<path class="st45" d="M198.4,196.3h-3.1v-7.9c0-0.9,0-1.7,0.1-2.3h-0.1c-0.1,0.3-0.4,0.7-0.7,1.2l-6,9.1h-3.3v-14.4h3.1v8
		c0,1,0,1.6-0.1,2h0c0-0.1,0.3-0.5,0.8-1.2l5.8-8.8h3.5V196.3z M196.3,177.1c-0.1,1.1-0.6,1.9-1.4,2.5c-0.8,0.6-1.8,0.9-3,0.9
		c-1.2,0-2.2-0.3-3-0.9c-0.8-0.6-1.2-1.5-1.3-2.5h2.3c0,0.5,0.2,0.9,0.6,1.3c0.4,0.3,0.9,0.5,1.4,0.5c0.5,0,1-0.2,1.4-0.5
		c0.4-0.3,0.6-0.8,0.6-1.3H196.3z"/>
	<path class="st45" d="M212,184.5h-4.2v11.8h-3.3v-11.8h-4.2v-2.6H212V184.5z"/>
	<path class="st45" d="M222.8,196.3H214v-14.4h8.4v2.6h-5.1v3.2h4.8v2.6h-4.8v3.3h5.5V196.3z"/>
</g>
<g>
</g>
<g>
</g>
<g>
</g>
<g>
</g>
<g>
</g>
<g>
</g>
</svg>
