<?xml version="1.0" encoding="utf-8"?>
<!-- Generator: Adobe Illustrator 22.0.0, SVG Export Plug-In . SVG Version: 6.00 Build 0)  -->
<svg version="1.1" id="OBJECTS" xmlns="http://www.w3.org/2000/svg" xmlns:xlink="http://www.w3.org/1999/xlink" x="0px" y="0px"
	 viewBox="0 0 750 500" style="enable-background:new 0 0 750 500;" xml:space="preserve">
<style type="text/css">
	.st0{fill:#FFFFFF;}
	.st1{fill:url(#SVGID_1_);}
	.st2{opacity:0.1246;fill:url(#SVGID_2_);}
	.st3{opacity:8.164900e-02;fill:url(#SVGID_3_);}
	.st4{fill:#2672E7;}
	.st5{opacity:0.63;fill:#D1D3D4;}
	.st6{fill:#FF6066;}
	.st7{fill:#FFE340;}
	.st8{fill:#2D2D2C;}
	.st9{clip-path:url(#SVGID_5_);fill:#FF6066;}
	.st10{clip-path:url(#SVGID_7_);fill:#FF6066;}
	.st11{clip-path:url(#SVGID_9_);fill:#FF6066;}
	.st12{fill:#3A4C9F;}
	.st13{fill:#273B82;}
	.st14{fill:#B8D5FF;}
	.st15{fill:#D1D2D4;}
	.st16{opacity:0.15;}
	.st17{opacity:0.26;}
	.st18{opacity:0.62;}
	.st19{fill:#9CC9FF;}
	.st20{fill:none;stroke:#FFFFFF;stroke-width:1.0545;stroke-linecap:round;stroke-linejoin:round;stroke-miterlimit:10;}
	.st21{fill:#568BFF;}
	.st22{fill:#171587;}
	.st23{fill:#FFE1BD;}
	.st24{fill:#08085E;}
	.st25{fill:#492107;}
	.st26{fill:#201D93;}
	.st27{fill:#C46600;}
	.st28{fill:#DB7700;}
	.st29{fill:#E8C5A0;}
	.st30{fill:#B3C5CE;}
	.st31{fill:#E8F1F8;}
	.st32{opacity:0.24;fill:#474747;}
	.st33{fill:#D4DEDF;}
	.st34{fill:#632F00;}
	.st35{fill:#4C2E1E;}
	.st36{fill:#8C4200;}
	.st37{fill:#282C3B;}
	.st38{fill:#2D24A3;}
	.st39{fill:#B4BCC5;}
	.st40{fill:#FFCC99;}
	.st41{fill:#3838D6;}
	.st42{opacity:0.38;}
	.st43{fill:none;stroke:#FFFFFF;stroke-width:0.9056;stroke-miterlimit:10;}
	.st44{fill:#626466;}
	.st45{fill:#29568C;}
</style>
<rect x="139.7" y="0" class="st0" width="610.3" height="390.7"/>
<linearGradient id="SVGID_1_" gradientUnits="userSpaceOnUse" x1="745.8176" y1="-57.689" x2="476.3396" y2="264.2032">
	<stop  offset="0" style="stop-color:#374FA1"/>
	<stop  offset="0.8147" style="stop-color:#458EFE"/>
</linearGradient>
<path class="st1" d="M750,0v350.9c-54,23.3-122.3,13.2-165.9-25.9c-13.5-12.1-25-26.9-41.2-35.3c-35.6-18.5-86-3-115-30.3
	c-25.1-23.5-18.4-65-37.1-93.6c-8.1-12.4-19-23-31-32.1C316.3,100.8,311.9,26,355.4,0H750z"/>
<linearGradient id="SVGID_2_" gradientUnits="userSpaceOnUse" x1="739.6362" y1="-44.8297" x2="469.3454" y2="278.0334">
	<stop  offset="0" style="stop-color:#006DFF"/>
	<stop  offset="0.7617" style="stop-color:#00BFD8"/>
</linearGradient>
<path class="st2" d="M740,9.8l10,351.1c-53.9,23.5-132.1,16-175.6-23.4c-13.5-12.2-25-27.1-41.2-35.6
	c-35.5-18.7-85.8-3.1-114.8-30.5c-25-23.7-18.4-65.5-37-94.3c-8.1-12.5-19-23.2-30.9-32.4C307.2,111.4,312.8,26.2,356.2,0L740,9.8z"
	/>
<linearGradient id="SVGID_3_" gradientUnits="userSpaceOnUse" x1="717.9971" y1="78.4162" x2="561.1346" y2="265.7889">
	<stop  offset="0" style="stop-color:#FFFFFF"/>
	<stop  offset="0.2561" style="stop-color:#BFD8FF"/>
	<stop  offset="0.7617" style="stop-color:#458EFE"/>
</linearGradient>
<path class="st3" d="M750,105.2v218.2c-6,3.2-13.3,5.1-20.2,5.9c-22.6,2.7-46.3-2.6-65.1-14.5c-27.7-17.5-43.1-47.1-66.5-69.3
	c-17.9-17-40.5-29.6-65.1-36.3c-16.1-4.4-32.9-6.2-48.3-12.4c-21.8-8.8-39.8-27.3-42.7-49.2c-2.9-21.8,12-45.6,35.1-50.9
	c19.4-4.4,39.6,3.9,59.6,3.3c17-0.5,32.6-7.5,46.7-15.8c12.6-7.5,20.9-16.2,37.4-15.8c12.2,0.3,24,5.1,33.5,12.2
	c11.6,8.7,20.7,21.1,34.8,25.6c19.2,6.2,37.3-6.8,56-2.7C746.8,103.9,748.4,104.5,750,105.2z"/>
<g>
	<path class="st4" d="M126.3,120.3c-1,0.5-2.2,0.8-3.7,0.8c-1.9,0-3.5-0.6-4.6-1.8c-1.2-1.2-1.7-2.8-1.7-4.8c0-2.1,0.7-3.9,2-5.2
		c1.3-1.3,3-2,5-2c1.3,0,2.3,0.2,3.2,0.5v1.7c-1-0.5-2-0.8-3.2-0.8c-1.6,0-2.8,0.5-3.8,1.5c-1,1-1.4,2.4-1.4,4.1
		c0,1.6,0.5,2.9,1.4,3.9c0.9,1,2.1,1.4,3.6,1.4c1.4,0,2.5-0.3,3.5-0.9V120.3z"/>
	<path class="st4" d="M132.9,121.1c-1.4,0-2.6-0.4-3.4-1.3c-0.9-0.9-1.3-2.1-1.3-3.5c0-1.6,0.4-2.8,1.3-3.7c0.9-0.9,2.1-1.3,3.6-1.3
		c1.4,0,2.6,0.4,3.4,1.3c0.8,0.9,1.2,2.1,1.2,3.6c0,1.5-0.4,2.7-1.3,3.6C135.5,120.6,134.4,121.1,132.9,121.1z M133,112.4
		c-1,0-1.8,0.3-2.4,1c-0.6,0.7-0.9,1.6-0.9,2.8c0,1.1,0.3,2,0.9,2.7c0.6,0.7,1.4,1,2.3,1c1,0,1.8-0.3,2.3-1c0.5-0.6,0.8-1.5,0.8-2.7
		c0-1.2-0.3-2.1-0.8-2.8S134,112.4,133,112.4z"/>
	<path class="st4" d="M149.6,124.3h-1.3v-3.5h-8.1v-9.5h1.5v8.2h4.9v-8.2h1.5v8.2h1.4V124.3z"/>
	<path class="st4" d="M159.9,120.9h-1.4v-7.6c-0.1,0.3-0.3,0.6-0.6,1.1l-4.5,6.5h-1.6v-9.5h1.4v7.5c0.1-0.2,0.2-0.5,0.5-0.9l4.6-6.6
		h1.6V120.9z"/>
	<path class="st4" d="M169.9,120.9h-1.5v-1.5h0c-0.7,1.1-1.7,1.7-3,1.7c-1,0-1.7-0.3-2.3-0.8s-0.8-1.2-0.8-2c0-1.8,1.1-2.8,3.2-3.1
		l2.9-0.4c0-1.6-0.7-2.4-2-2.4c-1.2,0-2.2,0.4-3.1,1.2V112c0.9-0.6,2-0.9,3.3-0.9c2.3,0,3.4,1.2,3.4,3.6V120.9z M168.4,116l-2.3,0.3
		c-0.7,0.1-1.3,0.3-1.6,0.5c-0.4,0.3-0.5,0.7-0.5,1.3c0,0.5,0.2,0.8,0.5,1.1c0.3,0.3,0.8,0.4,1.3,0.4c0.8,0,1.4-0.3,1.9-0.8
		c0.5-0.5,0.8-1.2,0.8-2V116z"/>
	<path class="st4" d="M179.9,120.9h-1.5v-8.2h-2.2c-0.3,3.1-0.7,5.2-1.3,6.5c-0.6,1.2-1.5,1.9-2.5,1.9c-0.3,0-0.6,0-0.8-0.1v-1.3
		c0.2,0.1,0.5,0.2,0.7,0.2c1.4,0,2.3-2.8,2.7-8.4h5.1V120.9z"/>
	<path class="st4" d="M183,120.9v-9.5h1.5v3.7h2.6c1,0,1.8,0.3,2.4,0.8c0.6,0.5,0.9,1.2,0.9,2.1c0,0.9-0.3,1.6-0.9,2.2
		c-0.6,0.5-1.3,0.8-2.2,0.8H183z M184.5,116.3v3.3h2.3c1.3,0,1.9-0.6,1.9-1.7c0-1.1-0.6-1.6-1.9-1.6H184.5z"/>
	<path class="st4" d="M200.7,120.9h-1.5v-4.3h-4.9v4.3h-1.5v-9.5h1.5v3.9h4.9v-3.9h1.5V120.9z"/>
	<path class="st4" d="M203.9,120.9v-9.5h1.5v3.7h2.6c1,0,1.8,0.3,2.4,0.8c0.6,0.5,0.9,1.2,0.9,2.1c0,0.9-0.3,1.6-0.9,2.2
		c-0.6,0.5-1.3,0.8-2.2,0.8H203.9z M205.4,116.3v3.3h2.3c1.3,0,1.9-0.6,1.9-1.7c0-1.1-0.6-1.6-1.9-1.6H205.4z M214.4,120.9h-1.5
		v-9.5h1.5V120.9z"/>
	<path class="st4" d="M225.3,116.5h-6.8c0,1.1,0.3,1.9,0.9,2.5s1.3,0.9,2.3,0.9c1.1,0,2.1-0.4,3-1.1v1.4c-0.8,0.6-2,0.9-3.4,0.9
		c-1.4,0-2.4-0.4-3.2-1.3c-0.8-0.9-1.2-2.1-1.2-3.6c0-1.5,0.4-2.7,1.3-3.6c0.9-0.9,1.9-1.4,3.2-1.4s2.2,0.4,2.9,1.2
		c0.7,0.8,1,1.9,1,3.4V116.5z M223.8,115.2c0-0.9-0.2-1.6-0.6-2.1c-0.4-0.5-1-0.7-1.8-0.7c-0.7,0-1.3,0.3-1.9,0.8
		c-0.5,0.5-0.8,1.2-0.9,2H223.8z"/>
	<path class="st4" d="M239.6,120.4c-0.7,0.4-1.6,0.7-2.6,0.7c-1.4,0-2.5-0.4-3.3-1.3s-1.3-2-1.3-3.4c0-1.6,0.5-2.8,1.4-3.8
		c0.9-1,2.1-1.4,3.6-1.4c0.8,0,1.6,0.2,2.2,0.5v1.6c-0.7-0.5-1.5-0.7-2.3-0.7c-1,0-1.8,0.3-2.4,1c-0.6,0.7-0.9,1.6-0.9,2.7
		c0,1.1,0.3,2,0.9,2.6c0.6,0.6,1.4,1,2.4,1c0.8,0,1.6-0.3,2.4-0.8V120.4z"/>
	<path class="st4" d="M249.7,116.5h-6.8c0,1.1,0.3,1.9,0.9,2.5s1.3,0.9,2.3,0.9c1.1,0,2.1-0.4,3-1.1v1.4c-0.8,0.6-2,0.9-3.4,0.9
		c-1.4,0-2.4-0.4-3.2-1.3c-0.8-0.9-1.2-2.1-1.2-3.6c0-1.5,0.4-2.7,1.3-3.6c0.9-0.9,1.9-1.4,3.2-1.4s2.2,0.4,2.9,1.2
		c0.7,0.8,1,1.9,1,3.4V116.5z M248.1,115.2c0-0.9-0.2-1.6-0.6-2.1c-0.4-0.5-1-0.7-1.8-0.7c-0.7,0-1.3,0.3-1.9,0.8
		c-0.5,0.5-0.8,1.2-0.9,2H248.1z"/>
	<path class="st4" d="M258.1,112.6h-2.9v8.2h-1.5v-8.2h-2.9v-1.3h7.3V112.6z"/>
	<path class="st4" d="M268,120.9h-1.4v-7.6c-0.1,0.3-0.3,0.6-0.6,1.1l-4.5,6.5h-1.6v-9.5h1.4v7.5c0.1-0.2,0.2-0.5,0.5-0.9l4.6-6.6
		h1.6V120.9z"/>
</g>
<g>
	<ellipse class="st5" cx="555.7" cy="348.7" rx="29.3" ry="3.7"/>
	<g>
		<g>
			<path class="st6" d="M608.8,60.1c0,6.6-5.3,11.9-11.9,11.9c-6.6,0-11.9-5.3-11.9-11.9s5.3-11.9,11.9-11.9
				C603.4,48.2,608.8,53.5,608.8,60.1z"/>
			<path class="st0" d="M604.4,58.5c0,4.6-7.5,8.4-7.5,8.4s-7.5-3.8-7.5-8.4c0-5.9,7.7-4.4,7.8-1.7
				C597.1,54.1,604.4,52.9,604.4,58.5z"/>
		</g>
		<g>
			<circle class="st6" cx="673.6" cy="354.8" r="10.9"/>
			<path class="st0" d="M680.5,353.3c0,4.2-6.9,7.7-6.9,7.7s-6.9-3.4-6.9-7.7c0-5.4,7.1-4,7.1-1.6
				C673.8,349.3,680.5,348.3,680.5,353.3z"/>
		</g>
		<g>
			<circle class="st6" cx="728.2" cy="198.8" r="7.2"/>
			<path class="st0" d="M732.8,197.8c0,2.8-4.6,5.1-4.6,5.1s-4.6-2.3-4.6-5.1c0-3.6,4.7-2.7,4.7-1
				C728.4,195.2,732.8,194.4,732.8,197.8z"/>
		</g>
		<g>
			
				<ellipse transform="matrix(0.9246 -0.3809 0.3809 0.9246 -19.2141 201.247)" class="st7" cx="498.8" cy="149.2" rx="7.9" ry="7.9"/>
			<path class="st8" d="M504.7,149.2c0,3.3-2.6,5.9-5.9,5.9c-3.3,0-5.9-2.6-5.9-5.9H504.7z"/>
			<g>
				<defs>
					<path id="SVGID_4_" d="M504.7,149.2c0,3.3-2.6,5.9-5.9,5.9c-3.3,0-5.9-2.6-5.9-5.9H504.7z"/>
				</defs>
				<clipPath id="SVGID_5_">
					<use xlink:href="#SVGID_4_"  style="overflow:visible;"/>
				</clipPath>
				<ellipse class="st9" cx="498.8" cy="155.1" rx="4" ry="2.8"/>
			</g>
			<g>
				<g>
					<path class="st8" d="M494,147.8c-0.1,0-0.2-0.1-0.3-0.2c0-0.1,0.1-0.3,0.2-0.3l1.8-0.4l-1.6-1c-0.1-0.1-0.2-0.2-0.1-0.4
						c0.1-0.1,0.2-0.2,0.4-0.1l2.2,1.3c0.1,0.1,0.1,0.2,0.1,0.3c0,0.1-0.1,0.2-0.2,0.2L494,147.8C494,147.8,494,147.8,494,147.8z"/>
				</g>
				<g>
					<path class="st8" d="M503.7,147.8C503.7,147.8,503.6,147.8,503.7,147.8l-2.5-0.6c-0.1,0-0.2-0.1-0.2-0.2c0-0.1,0-0.2,0.1-0.3
						l2.2-1.3c0.1-0.1,0.3,0,0.4,0.1c0.1,0.1,0,0.3-0.1,0.4l-1.6,1l1.8,0.4c0.1,0,0.2,0.2,0.2,0.3
						C503.9,147.7,503.8,147.8,503.7,147.8z"/>
				</g>
			</g>
		</g>
		<g>
			<path class="st7" d="M727.2,259.9c0,5.7-4.6,10.3-10.3,10.3s-10.3-4.6-10.3-10.3c0-5.7,4.6-10.3,10.3-10.3
				S727.2,254.2,727.2,259.9z"/>
			<path class="st8" d="M724.6,259.9c0,4.3-3.4,7.7-7.7,7.7c-4.3,0-7.7-3.4-7.7-7.7H724.6z"/>
			<g>
				<defs>
					<path id="SVGID_6_" d="M724.6,259.9c0,4.3-3.4,7.7-7.7,7.7c-4.3,0-7.7-3.4-7.7-7.7H724.6z"/>
				</defs>
				<clipPath id="SVGID_7_">
					<use xlink:href="#SVGID_6_"  style="overflow:visible;"/>
				</clipPath>
				<path class="st10" d="M722.1,267.7c0,2-2.3,3.6-5.2,3.6c-2.9,0-5.2-1.6-5.2-3.6c0-2,2.3-3.6,5.2-3.6
					C719.7,264.1,722.1,265.7,722.1,267.7z"/>
			</g>
			<g>
				<g>
					<path class="st8" d="M710.5,258.1c-0.2,0-0.3-0.1-0.3-0.3c0-0.2,0.1-0.4,0.3-0.4l2.3-0.6l-2.2-1.3c-0.2-0.1-0.2-0.3-0.1-0.5
						c0.1-0.2,0.3-0.2,0.5-0.1l2.9,1.8c0.1,0.1,0.2,0.2,0.2,0.4c0,0.1-0.1,0.3-0.3,0.3L710.5,258.1
						C710.6,258.1,710.6,258.1,710.5,258.1z"/>
				</g>
				<g>
					<path class="st8" d="M723.2,258.1C723.2,258.1,723.1,258.1,723.2,258.1l-3.2-0.8c-0.1,0-0.2-0.1-0.3-0.3s0-0.3,0.2-0.4l2.9-1.8
						c0.2-0.1,0.4-0.1,0.5,0.1c0.1,0.2,0.1,0.4-0.1,0.5l-2.2,1.3l2.3,0.6c0.2,0,0.3,0.2,0.3,0.4C723.5,258,723.3,258.1,723.2,258.1z
						"/>
				</g>
			</g>
		</g>
		<g>
			
				<ellipse transform="matrix(0.2288 -0.9735 0.9735 0.2288 428.4502 681.6179)" class="st7" cx="644.4" cy="70.4" rx="9.5" ry="9.5"/>
			<path class="st8" d="M651.5,70.4c0,3.9-3.2,7.1-7.1,7.1c-3.9,0-7.1-3.2-7.1-7.1H651.5z"/>
			<g>
				<defs>
					<path id="SVGID_8_" d="M651.5,70.4c0,3.9-3.2,7.1-7.1,7.1c-3.9,0-7.1-3.2-7.1-7.1H651.5z"/>
				</defs>
				<clipPath id="SVGID_9_">
					<use xlink:href="#SVGID_8_"  style="overflow:visible;"/>
				</clipPath>
				<path class="st11" d="M649.2,77.5c0,1.8-2.1,3.3-4.8,3.3c-2.6,0-4.8-1.5-4.8-3.3s2.1-3.3,4.8-3.3
					C647.1,74.2,649.2,75.7,649.2,77.5z"/>
			</g>
			<g>
				<g>
					<path class="st8" d="M638.6,68.7c-0.1,0-0.3-0.1-0.3-0.2c0-0.2,0.1-0.4,0.2-0.4l2.1-0.5l-2-1.2c-0.2-0.1-0.2-0.3-0.1-0.5
						c0.1-0.2,0.3-0.2,0.5-0.1l2.6,1.6c0.1,0.1,0.2,0.2,0.2,0.3c0,0.1-0.1,0.2-0.2,0.3L638.6,68.7C638.7,68.7,638.6,68.7,638.6,68.7
						z"/>
				</g>
				<g>
					<path class="st8" d="M650.3,68.7C650.2,68.7,650.2,68.7,650.3,68.7l-2.9-0.7c-0.1,0-0.2-0.1-0.2-0.3c0-0.1,0-0.3,0.2-0.3
						l2.6-1.6c0.2-0.1,0.4,0,0.5,0.1c0.1,0.2,0,0.4-0.1,0.5l-2,1.2l2.1,0.5c0.2,0,0.3,0.2,0.2,0.4C650.5,68.6,650.4,68.7,650.3,68.7
						z"/>
				</g>
			</g>
		</g>
		<g>
			<g>
				<path class="st12" d="M583.4,91.9h92.3c10.9,0,19.7,8.8,19.7,19.7v197c0,10.9-8.8,19.7-19.7,19.7h-92.3
					c-10.9,0-19.7-8.8-19.7-19.7v-197C563.7,100.7,572.5,91.9,583.4,91.9z"/>
				
					<rect x="569.2" y="117.8" transform="matrix(-1 -1.224647e-16 1.224647e-16 -1 1259.1914 420.2192)" class="st0" width="120.8" height="184.5"/>
				<path class="st13" d="M610.6,106L610.6,106c0-0.9,0.7-1.6,1.6-1.6h34.6c0.9,0,1.6,0.7,1.6,1.6l0,0c0,0.9-0.7,1.6-1.6,1.6h-34.6
					C611.4,107.7,610.6,107,610.6,106z"/>
				
					<ellipse transform="matrix(0.1985 -0.9801 0.9801 0.1985 196.4998 869.0684)" class="st13" cx="629.6" cy="314.4" rx="7.3" ry="7.3"/>
			</g>
			<rect x="569.2" y="162.9" class="st14" width="120.8" height="129"/>
			<rect x="600.2" y="134.6" class="st15" width="59.6" height="4.5"/>
			<rect x="600.2" y="142.8" class="st15" width="34.3" height="3.3"/>
			
				<ellipse transform="matrix(0.7071 -0.7071 0.7071 0.7071 72.7024 454.507)" class="st15" cx="585" cy="139.5" rx="9.4" ry="9.4"/>
			<path class="st15" d="M673.6,136.6c0,0.8-0.7,1.5-1.5,1.5c-0.8,0-1.5-0.7-1.5-1.5c0-0.8,0.7-1.5,1.5-1.5
				C673,135,673.6,135.7,673.6,136.6z M677.1,135c-0.8,0-1.5,0.7-1.5,1.5c0,0.8,0.7,1.5,1.5,1.5c0.8,0,1.5-0.7,1.5-1.5
				C678.6,135.7,678,135,677.1,135z M682.1,135c-0.8,0-1.5,0.7-1.5,1.5c0,0.8,0.7,1.5,1.5,1.5s1.5-0.7,1.5-1.5
				C683.6,135.7,683,135,682.1,135z"/>
			<g>
				<defs>
					
						<ellipse id="SVGID_10_" transform="matrix(0.7071 -0.7071 0.7071 0.7071 72.7024 454.507)" cx="585" cy="139.5" rx="9.4" ry="9.4"/>
				</defs>
				<clipPath id="SVGID_11_">
					<use xlink:href="#SVGID_10_"  style="overflow:visible;"/>
				</clipPath>
			</g>
			<g>
				<g>
					<g>
						<g>
							<rect x="585.7" y="222.8" class="st6" width="8.4" height="21.1"/>
						</g>
					</g>
				</g>
				<g>
					<g>
						<g>
							<rect x="604.6" y="204.3" class="st12" width="8.4" height="39.6"/>
						</g>
					</g>
				</g>
				<g>
					<g>
						<g>
							<rect x="623.6" y="208.4" class="st6" width="8.4" height="35.5"/>
						</g>
					</g>
				</g>
				<g>
					<g>
						<g>
							<rect x="642.5" y="194.6" class="st12" width="8.4" height="49.2"/>
						</g>
					</g>
				</g>
				<g class="st16">
					<g>
						<g>
							<rect x="604.6" y="204.3" class="st17" width="3.9" height="39.6"/>
						</g>
					</g>
				</g>
				<g class="st16">
					<g>
						<g>
							<rect x="585.7" y="222.8" class="st17" width="3.9" height="21.1"/>
						</g>
					</g>
				</g>
				<g class="st18">
					<g>
						<g>
							<rect x="642.5" y="194.6" class="st17" width="3.9" height="49.2"/>
						</g>
					</g>
				</g>
				<g class="st16">
					<g>
						<g>
							<rect x="623.6" y="208.4" class="st17" width="3.9" height="35.5"/>
						</g>
					</g>
				</g>
				<g>
					<g>
						<g>
							<rect x="662.4" y="184.3" class="st6" width="8.4" height="59.5"/>
						</g>
					</g>
				</g>
				<g class="st16">
					<g>
						<g>
							<rect x="662.4" y="184.3" class="st17" width="3.9" height="59.5"/>
						</g>
					</g>
				</g>
				<g>
					<g>
						<g>
							<polygon class="st0" points="676.7,250.7 578.4,250.7 578.4,170.6 579.6,170.6 579.6,249.5 676.7,249.5 							"/>
						</g>
					</g>
				</g>
				<g>
					<g>
						<g>
							<polygon class="st0" points="665.7,180.7 663,173.5 670.3,174.9 							"/>
						</g>
					</g>
				</g>
				<g>
					<g>
						<g>
							<g>
								<g>
									<rect x="578.2" y="259.9" class="st12" width="7.1" height="7.1"/>
								</g>
							</g>
						</g>
					</g>
					<g>
						<g>
							<g>
								<rect x="578.2" y="272.2" class="st6" width="7.1" height="7.1"/>
							</g>
						</g>
					</g>
					<g>
						<g>
							<g>
								<rect x="587.2" y="275.3" class="st19" width="36.6" height="4"/>
							</g>
						</g>
					</g>
					<g>
						<g>
							<g>
								<rect x="587.2" y="262.9" class="st19" width="36.6" height="4"/>
							</g>
						</g>
					</g>
				</g>
				<g>
					<g>
						<g>
							<g>
								<rect x="630.9" y="259.9" class="st12" width="7.1" height="7.1"/>
							</g>
						</g>
					</g>
					<g>
						<g>
							<g>
								<rect x="630.9" y="272.2" class="st6" width="7.1" height="7.1"/>
							</g>
						</g>
					</g>
					<g>
						<g>
							<g>
								<rect x="639.8" y="275.3" class="st19" width="36.6" height="4"/>
							</g>
						</g>
					</g>
					<g>
						<g>
							<g>
								<rect x="639.8" y="262.9" class="st19" width="36.6" height="4"/>
							</g>
						</g>
					</g>
				</g>
				<polyline class="st20" points="589.6,206.6 608.8,192.5 627.4,201 646.4,184.3 666,176.2 				"/>
			</g>
		</g>
		<g>
			<g>
				
					<ellipse transform="matrix(0.6623 -0.7492 0.7492 0.6623 149.4618 581.3774)" class="st21" cx="719.7" cy="124.9" rx="8.3" ry="8.3"/>
				<path class="st0" d="M721.3,120.1c1,0.2,0.2,2.5-0.5,2.9l2.3,0c0.6,0,1,0.5,0.9,1.1l-0.6,2.7c-0.2,0.9-1,1.5-1.9,1.5l-3.3,0
					l0-5.2C720.1,122.7,720.4,119.8,721.3,120.1z M717.5,127.7v-3.9c0-0.4-0.3-0.7-0.7-0.7H716c-0.4,0-0.7,0.3-0.7,0.7v3.9
					c0,0.4,0.3,0.7,0.7,0.7h0.9C717.3,128.3,717.5,128,717.5,127.7z"/>
			</g>
		</g>
		<g>
			<circle class="st21" cx="723.5" cy="319.2" r="15.9"/>
			<g>
				<path class="st0" d="M728.2,312.2c0,2.6-2.1,4.7-4.7,4.7c-2.6,0-4.7-2.1-4.7-4.7c0-2.6,2.1-4.7,4.7-4.7
					C726.1,307.6,728.2,309.6,728.2,312.2z"/>
				<path class="st0" d="M726.8,330.8h-6.6c-1.3,0-2.4-1.1-2.4-2.4v-5.1c0-3.1,2.5-5.7,5.7-5.7l0,0c3.1,0,5.7,2.5,5.7,5.7v5.1
					C729.2,329.7,728.2,330.8,726.8,330.8z"/>
			</g>
		</g>
		<g>
			
				<ellipse transform="matrix(0.7071 -0.7071 0.7071 0.7071 103.1758 404.0241)" class="st21" cx="539.3" cy="77.5" rx="8.1" ry="8.1"/>
			<g>
				<path class="st0" d="M541.7,73.9c0,1.3-1.1,2.4-2.4,2.4s-2.4-1.1-2.4-2.4c0-1.3,1.1-2.4,2.4-2.4S541.7,72.6,541.7,73.9z"/>
				<path class="st0" d="M541,83.4h-3.4c-0.7,0-1.2-0.5-1.2-1.2v-2.6c0-1.6,1.3-2.9,2.9-2.9l0,0c1.6,0,2.9,1.3,2.9,2.9v2.6
					C542.2,82.9,541.6,83.4,541,83.4z"/>
			</g>
		</g>
		<g>
			<circle class="st21" cx="687.4" cy="61.7" r="13.7"/>
			<g>
				<path class="st0" d="M691.4,55.7c0,2.2-1.8,4-4,4s-4-1.8-4-4c0-2.2,1.8-4,4-4S691.4,53.4,691.4,55.7z"/>
				<path class="st0" d="M690.3,71.8h-5.7c-1.1,0-2.1-0.9-2.1-2.1v-4.4c0-2.7,2.2-4.9,4.9-4.9l0,0c2.7,0,4.9,2.2,4.9,4.9v4.4
					C692.3,70.8,691.4,71.8,690.3,71.8z"/>
			</g>
		</g>
		<g>
			
				<ellipse transform="matrix(0.229 -0.9734 0.9734 0.229 118.7633 860.5812)" class="st21" cx="602.6" cy="355.3" rx="8.1" ry="8.1"/>
			<g>
				<path class="st0" d="M605,351.8c0,1.3-1.1,2.4-2.4,2.4s-2.4-1.1-2.4-2.4c0-1.3,1.1-2.4,2.4-2.4S605,350.5,605,351.8z"/>
				<path class="st0" d="M604.3,361.3h-3.4c-0.7,0-1.2-0.5-1.2-1.2v-2.6c0-1.6,1.3-2.9,2.9-2.9l0,0c1.6,0,2.9,1.3,2.9,2.9v2.6
					C605.5,360.7,605,361.3,604.3,361.3z"/>
			</g>
		</g>
	</g>
	<g>
		<g>
			<path class="st5" d="M447.4,345.5c0,0,0.3,11.2,5.9,11.2c5.6,0,16.1-6.7,17.7-6.1c1.6,0.6,14.9,7.6,16.3,7.3
				c1.4-0.2,1.1-2.2,2.8-2.5s20.5,10.4,24.2,2c2.3-5.1-8.4-6.9-8.4-6.9s12.4-14,15.6-24.9C524.7,314.8,447.4,345.5,447.4,345.5z"/>
			<g>
				<path class="st22" d="M486.6,349.5c0,0,13.3,0.6,23.3-8.4c8-7.2,13.9-19.2,15.6-24.4c1.7-5.3,2.4-15.7-0.1-17.5
					c-2.5-1.8-48.4,41.9-48.4,41.9L486.6,349.5z"/>
				<path class="st22" d="M427.3,321.1c0,0,5.5-6.3,20.4-6.2c11.6,0,49.7,10.5,49.7,10.5L480.9,343L427.3,321.1z"/>
				<g>
					<polygon class="st23" points="496.6,346.4 488.9,343 486.2,348 489.7,350.9 495.7,350.9 					"/>
					<path class="st24" d="M490.6,351.3c0,0,2.6,0.3,4.5-2c1.9-2.3,0.8-3.3,2.1-3.4c1.2-0.1,6.6,2.3,12,1.8c5.4-0.6,7-1.4,7.3,0.6
						c0.3,2-0.4,9.4-6.9,9.2C503.1,357.2,490.6,351.3,490.6,351.3z"/>
					<path class="st25" d="M489.7,350.9c0,0,2.6,0.3,4.5-2c1.9-2.3,0.8-3.3,2.1-3.4c1.2-0.1,6.6,2.3,12,1.8c5.4-0.6,7-1.4,7.3,0.6
						c0.3,2-0.4,9.4-6.9,9.2C502.3,356.8,489.7,350.9,489.7,350.9z"/>
				</g>
				<path class="st26" d="M447.7,323.7c8.4,5.1,43.3,16.8,43.3,16.8s1.3,9-6.2,11.6c0,0-42-11.9-52-16.4c-9.9-4.6-6.9-12.5-5.5-14.6
					C428.7,319,437.2,317.3,447.7,323.7z"/>
			</g>
			<path class="st27" d="M479.5,261.7c0.8,0.4,1.5,1.1,1.8,1.9c0.4,0.9,0.6,1.9,0.4,2.9c-0.5,2.6-1,6.7-1.7,11.1
				c-1,7-2.2,14.5-3.2,17.5c-0.2,0.7,2.9,4.3,1.6,6c0,0.1-0.4,14.1-0.5,14.1c0,0-1.4,1.4-1.4,1.4c-0.5,0.3-2.5,1.2-3.6,0.7
				c-1.1-0.5-26.8,7.8-26.6,7.6c10.8-12.4,19.7-19.3,20.4-20.5c1.3-2.4,0.4-26.4,1-31.2c0.3-2.3,1.1-5.3,2.3-7.2
				c1.2-2,3-3.1,4.2-4.2C476.3,260.3,477.3,260.5,479.5,261.7z"/>
			<path class="st28" d="M506.2,299.2c-1.4,3.5-1.7,7.4-0.9,11.1c1.6,7.4-0.2,7.9-0.2,7.9s-8.9,6.1-17.5,7.1
				c-7.7,0.8-14.3,1.3-14.1-5.2l2.5,2c0-0.4,0-0.8,0-1.2c0.3-14.8-2.8-15.5-3.6-32.1c-0.8-17-4.9-19.2-1.2-24
				c5.5-7.1,20.1-10.7,31.6-8c8.7,2,11.5,4.3,11.5,10.8c0,2.1-0.4,4.7-0.9,7.9C512,283.5,508.5,293.2,506.2,299.2z"/>
			<g>
				<path class="st23" d="M497.3,247.1c-3.3,2.2-5.4,4-9.7,4c-1.6,0-1-0.6-2.5-1c0.7,0.4-0.8,1.1-0.2,1.2c1.1,0.2,1.9,1.2,2,2.3
					l0.3,4.9l1.9,4l3.3-2.1l4.8-3.1l-0.5-7.6C496.8,249.6,496,248.4,497.3,247.1z"/>
				<path class="st29" d="M489.4,255.4l0.3,4.5l-0.6,2.5l-1.9-4l-0.3-4.9c-0.1-1.1-0.9-2.1-2-2.3c-1.2-0.3-0.6-1.2-2.4-3
					c-0.1-0.1-0.2-0.2-0.3-0.4c0.2,0.1,0.5,1.8,4.5,2.3C489.6,250.4,489.2,252.4,489.4,255.4z"/>
			</g>
			<path class="st0" d="M497.2,253.6c0,0,1.2,0.7,2.3,2.4c0,0-1.6,0.7-3,1.6c-1.3,0.8-7.4,5.1-7.4,5.1l-1.8-3.7
				C487.4,259,493.8,254.6,497.2,253.6z"/>
			<path class="st0" d="M487.4,259c0,0-2.1,0.7-2.8,2.3c0,0-1.1-2.1,0.3-5.8c0,0,1.2-1.1,2.1-1.5L487.4,259z"/>
			<g>
				<polygon class="st30" points="496.6,319.5 455.3,319.2 479.9,328.3 				"/>
				<polygon class="st31" points="479.8,329.3 497.5,327.7 497.7,326.2 479.7,327.9 				"/>
			</g>
			<path class="st23" d="M483.2,316.2l-3.4,1.8c0,0-3.3-2.3-6.6,0.2c-3.3,2.5,0.7,9.5,3.1,8.8c2.4-0.7,9.6-6,9.6-6L483.2,316.2z"/>
			<polygon class="st32" points="437.1,328.9 432.9,330.1 478,330.5 497.8,325.1 455.8,325.6 			"/>
			<path class="st27" d="M499.4,314.2c-6.3,2-12.8,12-12.8,12l-0.6-0.9c0,0-3.2-1.5-4.1-4.5c-0.3-1.2-0.3-4.6-0.3-4.6
				s15.7-7.8,20.5-13.2c2.3-2.6,2.6-4.7,4.8-5.8c-0.1-0.2-0.1-0.3-0.2-0.5c-2.4-7-2.3-17-3.3-22c-0.5-2.4-0.4-5,0.2-7.3
				c0.4-1.6,1.1-3.1,2.1-4.4c1.5-2.1,3.6-3.8,6.2-3.1c1,0.2,1.9,0.8,2.5,1.5c0.7,0.8,1.2,1.8,1.4,2.9c1,7.3,4.2,27.4,4,31.9
				c0,0.8-0.2,1.5-0.4,2.2c0,0.2-0.1,0.5-0.2,0.7C516.9,305.4,505.7,312.2,499.4,314.2z"/>
			<g>
				<path class="st33" d="M479.8,329.3l-42.8-3.9c-1.4-0.1-2.6-1.2-2.7-2.7l-3.4-29.8c-0.2-1.6,1.2-3,2.8-2.8l40.1,3.7
					c1.2,0.1,2.2,1,2.3,2.2L479.8,329.3z"/>
			</g>
			<g>
				<path class="st34" d="M477.5,234.6c-0.1,0-0.1,0.7-1,1.8c-1,1.1-1,3.3-1,3.2c0-0.1-1.8-5.2-1.3-6.4c0.5-1.2,1.6-1.6,1.9-1.2
					C476.3,232.5,477.5,234.6,477.5,234.6z"/>
				<path class="st23" d="M498.9,243.1c0.1,1.4,0.2,2.7,0.1,3.6c0,0.1,0,0.3-0.1,0.4c0,0.1,0,0.3-0.1,0.4c-1,4.1-6.2,9.9-9.9,10.4
					c-0.5,0-1,0.1-1.4,0c-5.1-0.2-8.1-4.4-9.8-8.8c-0.1-0.2-0.1-0.3-0.2-0.5c-1.5-4.1-2-8.4-2.1-9.9c0-0.4,0-0.6,0-0.6
					c-0.3-1.6,0-2.9,0.1-3.4c0.1-0.2,0.1-0.3,0.1-0.3s0.1,0,0.2,0c1.4-0.4,11-3.4,11.2-3.4c0.2,0,9.9,0.7,9.9,0.7
					S498.4,238.3,498.9,243.1z"/>
				<path class="st35" d="M490.2,236.1"/>
				<path class="st36" d="M500.3,242.9c0.1,1.4,0.2,2.7,0.1,3.6c0,0.1,0,0.3-0.1,0.4c-0.7,4.1-5.7,10.5-11.4,11
					c-0.4,0.1-0.9,0.1-1.3,0.1c-6.1,0.2-8.3-4.4-9.9-8.9c-0.1-0.2-0.1-0.3-0.2-0.5c0,0,2.1,3.4,3.2,3.5c1.1,0.1-0.3-1.2,2.6-2.4
					c1.8-0.7,4.6-0.7,5.9-0.5c1.2,0.2,3.4,0.8,4.1,0.9c0.2,0,0.3,0,0.4,0c1-0.5,3.1-4,3.4-6.2C497.4,243.1,499.5,242.7,500.3,242.9z
					"/>
				<path class="st36" d="M471.2,229.5c0,0,0.3,7.4,12.4,4.4c12.1-3,11.2,9.1,11.2,9.1s1.7-4,2.2-2.5c0.5,1.6,0,5.6,0,5.6
					s3.3,0.4,3.4-1.3c0.1-1,0.2-14.9-2.2-18.3c-2.4-3.3-5.3-3.2-5.3-3.2s-3-2.6-10.2-0.5c-7.2,2.1-10.9-0.5-10.9-0.3
					C471.9,222.8,470.7,224.9,471.2,229.5z"/>
			</g>
			<path class="st37" d="M494.7,240.5c-0.1-0.5-2.3-0.4-3.9-0.2c-1.6,0.2-5.7,0.7-6.6,1.2c-0.9,0.5-0.8,0.9-1.3,0.9
				c-0.4,0.1-0.5-0.3-1.4-0.6c-1-0.3-3.4,0-4.9,0.2c-1.6,0.2-3.1,0.5-3,1c0,0.5,0.2,1.4,0.5,1.5c0.3,0.1,0.3,0.1,1.4,2.1
				c0.6,1.1,1.6,1.7,3.7,1.4c2.6-0.5,2.8-2.6,3.1-3.5c0.2-0.9,0.4-1,0.8-1.1c0.4-0.1,0.7,0,1.1,0.8s0.7,2.7,3.3,2.7
				c3.4,0,5-0.9,5.5-2.5c0.7-2.2,0.6-2.2,0.9-2.4c0.1-0.1,0.9-0.4,0.9-0.6C494.8,241.1,494.8,240.7,494.7,240.5z M481.4,245.4
				c-0.1,1.1-0.9,2.2-2.6,2.4c-1.6,0.2-2.3-0.4-3.1-1.8c-0.7-1.3-0.7-2.3-0.4-2.6c0.3-0.4,1.1-0.4,3.1-0.5c2-0.2,2.6-0.2,2.9,0.4
				C481.4,243.4,481.5,244.3,481.4,245.4z M492.6,243.8c-0.4,1.6-1.2,2.4-3.4,2.6c-3.1,0.4-3.6-0.5-4-1.5s-0.5-1.9-0.5-2.2
				c0.1-0.7,0.8-0.8,2.7-1.1c1.9-0.3,4.5-0.7,4.9-0.5C492.7,241.5,493,242.5,492.6,243.8z"/>
			<g>
				<polygon class="st23" points="466.4,341.4 474.3,338.3 476.7,343.4 473.1,346.1 467.2,346 				"/>
				<path class="st24" d="M472.3,346.5c0,0-2.6,0.2-4.5-2.1c-1.9-2.4-0.7-3.3-2-3.5c-1.2-0.2-6.7,2.1-12.1,1.4
					c-5.4-0.7-7-1.6-7.3,0.4c-0.3,2,0.1,9.4,6.6,9.4C459.6,352,472.3,346.5,472.3,346.5z"/>
				<path class="st25" d="M473.1,346.1c0,0-2.6,0.2-4.5-2.1c-1.9-2.4-0.7-3.3-2-3.5c-1.2-0.2-6.7,2.1-12.1,1.4
					c-5.4-0.7-7-1.6-7.3,0.4c-0.3,2,0.1,9.4,6.6,9.4C460.4,351.7,473.1,346.1,473.1,346.1z"/>
			</g>
			<path class="st38" d="M471.6,335.7c0,0,19.8-16.1,28.1-24.7c8.3-8.6,13.5-16.9,23.2-13.6c9.7,3.4-2.5,21.3-11.3,28.4
				c-8.8,7-30.7,22.5-30.7,22.5S469.2,344.2,471.6,335.7z"/>
		</g>
		<circle class="st39" cx="453.4" cy="309.7" r="3.5"/>
	</g>
	<g>
		<g>
			<path class="st4" d="M494.8,207.5h-79.5c-3,0-5.5-2.5-5.5-5.5v-16.3c0-3,2.5-5.5,5.5-5.5h79.5c3,0,5.5,2.5,5.5,5.5v16.3
				C500.4,205,497.9,207.5,494.8,207.5z"/>
			<g>
				<g>
					
						<ellipse transform="matrix(0.7071 -0.7071 0.7071 0.7071 -13.0834 355.9785)" class="st0" cx="423.2" cy="193.8" rx="7.8" ry="7.8"/>
					<path class="st12" d="M424.7,189.3c0.9,0.2,0.2,2.4-0.5,2.7l2.2,0c0.5,0,0.9,0.5,0.8,1l-0.5,2.6c-0.2,0.8-0.9,1.4-1.8,1.4
						l-3.1,0l0-4.9C423.5,191.7,423.8,189,424.7,189.3z M421.1,196.4v-3.6c0-0.4-0.3-0.7-0.7-0.7h-0.8c-0.4,0-0.7,0.3-0.7,0.7v3.6
						c0,0.4,0.3,0.7,0.7,0.7h0.8C420.8,197,421.1,196.7,421.1,196.4z"/>
				</g>
				<g>
					<path class="st0" d="M434.8,192.2L434.8,192.2l-1.1,0.6l-0.2-0.6l1.3-0.7h0.7v6.1h-0.8V192.2z"/>
					<path class="st0" d="M441.9,194.5c0,2.1-0.8,3.2-2.1,3.2c-1.2,0-2-1.1-2-3.1c0-2.1,0.9-3.2,2.1-3.2
						C441.2,191.4,441.9,192.5,441.9,194.5z M438.6,194.6c0,1.6,0.5,2.5,1.2,2.5c0.8,0,1.3-1,1.3-2.6c0-1.5-0.4-2.5-1.2-2.5
						C439.1,192,438.6,192.9,438.6,194.6z"/>
					<path class="st0" d="M446.8,194.5c0,2.1-0.8,3.2-2.1,3.2c-1.2,0-2-1.1-2-3.1c0-2.1,0.9-3.2,2.1-3.2
						C446,191.4,446.8,192.5,446.8,194.5z M443.4,194.6c0,1.6,0.5,2.5,1.2,2.5c0.8,0,1.3-1,1.3-2.6c0-1.5-0.4-2.5-1.2-2.5
						C444,192,443.4,192.9,443.4,194.6z"/>
					<path class="st0" d="M451.6,194.5c0,2.1-0.8,3.2-2.1,3.2c-1.2,0-2-1.1-2-3.1c0-2.1,0.9-3.2,2.1-3.2
						C450.8,191.4,451.6,192.5,451.6,194.5z M448.3,194.6c0,1.6,0.5,2.5,1.2,2.5c0.8,0,1.3-1,1.3-2.6c0-1.5-0.4-2.5-1.2-2.5
						C448.8,192,448.3,192.9,448.3,194.6z"/>
				</g>
			</g>
			<g>
				<g>
					
						<ellipse transform="matrix(0.1598 -0.9871 0.9871 0.1598 201.6043 624.4298)" class="st0" cx="467.6" cy="193.8" rx="7.8" ry="7.8"/>
					<path class="st6" d="M472.3,192.4c0,2.9-4.7,5.3-4.7,5.3s-4.7-2.4-4.7-5.3c0-3.7,4.8-2.7,4.9-1.1
						C467.8,189.7,472.3,188.9,472.3,192.4z"/>
				</g>
				<g>
					<path class="st0" d="M478,197c0.2,0,0.4,0,0.7,0c0.5-0.1,0.9-0.3,1.3-0.6c0.4-0.4,0.7-0.9,0.8-1.6h0c-0.3,0.4-0.8,0.7-1.4,0.7
						c-1.1,0-1.8-0.8-1.8-1.9c0-1.2,0.8-2.2,2.1-2.2c1.3,0,2,1,2,2.6c0,1.3-0.5,2.3-1.1,2.9c-0.5,0.5-1.1,0.7-1.8,0.8
						c-0.3,0-0.6,0.1-0.8,0V197z M478.3,193.5c0,0.8,0.5,1.3,1.2,1.3c0.6,0,1-0.3,1.2-0.6c0-0.1,0.1-0.2,0.1-0.3
						c0-1-0.4-1.8-1.3-1.8C478.8,192,478.3,192.6,478.3,193.5z"/>
					<path class="st0" d="M482.2,196c0-0.8,0.5-1.3,1.2-1.6l0,0c-0.7-0.3-1-0.8-1-1.4c0-1,0.8-1.6,1.9-1.6c1.2,0,1.8,0.7,1.8,1.5
						c0,0.5-0.3,1.1-1,1.4v0c0.8,0.3,1.2,0.8,1.2,1.6c0,1.1-0.9,1.8-2.1,1.8C483,197.7,482.2,196.9,482.2,196z M485.5,196
						c0-0.7-0.5-1.1-1.3-1.3c-0.7,0.2-1.1,0.7-1.1,1.3c0,0.6,0.4,1.2,1.2,1.2C485.1,197.1,485.5,196.6,485.5,196z M483.3,192.9
						c0,0.6,0.5,0.9,1.2,1.1c0.5-0.2,0.9-0.6,0.9-1.1c0-0.5-0.3-1-1-1C483.6,192,483.3,192.4,483.3,192.9z"/>
					<path class="st0" d="M491.2,194.5c0,2.1-0.8,3.2-2.1,3.2c-1.2,0-2-1.1-2-3.1c0-2.1,0.9-3.2,2.1-3.2
						C490.5,191.4,491.2,192.5,491.2,194.5z M487.9,194.6c0,1.6,0.5,2.5,1.2,2.5c0.8,0,1.3-1,1.3-2.6c0-1.5-0.4-2.5-1.2-2.5
						C488.4,192,487.9,192.9,487.9,194.6z"/>
				</g>
			</g>
		</g>
		<polygon class="st4" points="473.9,204 479.3,215.2 484.3,204.7 		"/>
	</g>
	<g>
		<g>
			<path class="st4" d="M540.2,124.9h-79.5c-3,0-5.5-2.5-5.5-5.5V103c0-3,2.5-5.5,5.5-5.5h79.5c3,0,5.5,2.5,5.5,5.5v16.3
				C545.7,122.4,543.2,124.9,540.2,124.9z"/>
			<g>
				<g>
					<circle class="st0" cx="468.5" cy="111.2" r="7.8"/>
					<path class="st12" d="M470,106.7c0.9,0.2,0.2,2.4-0.5,2.7l2.2,0c0.5,0,0.9,0.5,0.8,1L472,113c-0.2,0.8-0.9,1.4-1.8,1.4l-3.1,0
						l0-4.9C468.8,109.2,469.1,106.5,470,106.7z M466.5,113.8v-3.6c0-0.4-0.3-0.7-0.7-0.7H465c-0.4,0-0.7,0.3-0.7,0.7v3.6
						c0,0.4,0.3,0.7,0.7,0.7h0.8C466.2,114.5,466.5,114.2,466.5,113.8z"/>
				</g>
				<g>
					<path class="st0" d="M480.2,109.7L480.2,109.7l-1.1,0.6l-0.2-0.6l1.3-0.7h0.7v6.1h-0.8V109.7z"/>
					<path class="st0" d="M487.3,111.9c0,2.1-0.8,3.2-2.1,3.2c-1.2,0-2-1.1-2-3.1c0-2.1,0.9-3.2,2.1-3.2
						C486.5,108.8,487.3,109.9,487.3,111.9z M483.9,112c0,1.6,0.5,2.5,1.2,2.5c0.8,0,1.3-1,1.3-2.6c0-1.5-0.4-2.5-1.2-2.5
						C484.5,109.4,483.9,110.3,483.9,112z"/>
					<path class="st0" d="M492.1,111.9c0,2.1-0.8,3.2-2.1,3.2c-1.2,0-2-1.1-2-3.1c0-2.1,0.9-3.2,2.1-3.2
						C491.3,108.8,492.1,109.9,492.1,111.9z M488.8,112c0,1.6,0.5,2.5,1.2,2.5c0.8,0,1.3-1,1.3-2.6c0-1.5-0.4-2.5-1.2-2.5
						C489.3,109.4,488.8,110.3,488.8,112z"/>
					<path class="st0" d="M496.9,111.9c0,2.1-0.8,3.2-2.1,3.2c-1.2,0-2-1.1-2-3.1c0-2.1,0.9-3.2,2.1-3.2
						C496.2,108.8,496.9,109.9,496.9,111.9z M493.6,112c0,1.6,0.5,2.5,1.2,2.5c0.8,0,1.3-1,1.3-2.6c0-1.5-0.4-2.5-1.2-2.5
						C494.1,109.4,493.6,110.3,493.6,112z"/>
				</g>
			</g>
			<g>
				<g>
					<circle class="st0" cx="512.9" cy="111.2" r="7.8"/>
					<path class="st6" d="M517.7,109.8c0,2.9-4.7,5.3-4.7,5.3s-4.7-2.4-4.7-5.3c0-3.7,4.8-2.7,4.9-1.1
						C513.1,107.1,517.7,106.4,517.7,109.8z"/>
				</g>
				<g>
					<path class="st0" d="M523.3,114.4c0.2,0,0.4,0,0.7,0c0.5-0.1,0.9-0.3,1.3-0.6c0.4-0.4,0.7-0.9,0.8-1.6h0
						c-0.3,0.4-0.8,0.7-1.4,0.7c-1.1,0-1.8-0.8-1.8-1.9c0-1.2,0.8-2.2,2.1-2.2c1.3,0,2,1,2,2.6c0,1.3-0.5,2.3-1.1,2.9
						c-0.5,0.5-1.1,0.7-1.8,0.8c-0.3,0-0.6,0.1-0.8,0V114.4z M523.6,110.9c0,0.8,0.5,1.3,1.2,1.3c0.6,0,1-0.3,1.2-0.6
						c0-0.1,0.1-0.2,0.1-0.3c0-1-0.4-1.8-1.3-1.8C524.1,109.4,523.6,110,523.6,110.9z"/>
					<path class="st0" d="M527.6,113.5c0-0.8,0.5-1.3,1.2-1.6l0,0c-0.7-0.3-1-0.8-1-1.4c0-1,0.8-1.6,1.9-1.6c1.2,0,1.8,0.7,1.8,1.5
						c0,0.5-0.3,1.1-1,1.4v0c0.8,0.3,1.2,0.8,1.2,1.6c0,1.1-0.9,1.8-2.1,1.8C528.3,115.1,527.6,114.4,527.6,113.5z M530.9,113.4
						c0-0.7-0.5-1.1-1.3-1.3c-0.7,0.2-1.1,0.7-1.1,1.3c0,0.6,0.4,1.2,1.2,1.2C530.4,114.5,530.9,114.1,530.9,113.4z M528.6,110.4
						c0,0.6,0.5,0.9,1.2,1.1c0.5-0.2,0.9-0.6,0.9-1.1c0-0.5-0.3-1-1-1C529,109.4,528.6,109.8,528.6,110.4z"/>
					<path class="st0" d="M536.5,111.9c0,2.1-0.8,3.2-2.1,3.2c-1.2,0-2-1.1-2-3.1c0-2.1,0.9-3.2,2.1-3.2
						C535.8,108.8,536.5,109.9,536.5,111.9z M533.2,112c0,1.6,0.5,2.5,1.2,2.5c0.8,0,1.3-1,1.3-2.6c0-1.5-0.4-2.5-1.2-2.5
						C533.7,109.4,533.2,110.3,533.2,112z"/>
				</g>
			</g>
		</g>
		<polygon class="st4" points="525,122.4 533.8,131.2 533.8,120 		"/>
	</g>
	<g>
		<path class="st40" d="M557.8,335.3c0,0,0.8,3.9,0.8,6.9c-0.4,2.1,0,2.8,0,2.8l8.1-0.7c0,0-3.6-1.8-3.3-10.1
			C563.6,325.8,557.8,335.3,557.8,335.3z"/>
		<path class="st26" d="M558.5,342.8c0,0,3.5,1.3,7,0.3c4.1,1.9,7,2.6,10.7,3.1c3.7,0.5,3.1,3.5-3.3,3.1c-6.3-0.4-10.8-0.1-12.2,0
			c-1.4,0.1-3.7,0.3-3.8-0.7C556.8,347.7,557.3,342.5,558.5,342.8z"/>
		<path class="st40" d="M533,335.3c0,0,0.8,3.9,0.8,6.9c-0.4,2.1,0,2.8,0,2.8l8.1-0.7c0,0-3.6-1.8-3.3-10.1
			C538.8,325.8,533,335.3,533,335.3z"/>
		<path class="st38" d="M533.7,342.8c0,0,3.5,1.3,7,0.3c4.1,1.9,7,2.6,10.7,3.1c3.7,0.5,3.1,3.5-3.3,3.1c-6.3-0.4-10.8-0.1-12.2,0
			c-1.4,0.1-3.7,0.3-3.8-0.7C532,347.7,532.5,342.5,533.7,342.8z"/>
		<path class="st26" d="M560.9,219c0,0,5.2,54.5,5.5,61.6c0.3,7.1,0.3,9.6,0,13.9c-0.3,4.3,2.4,40.7,2.4,40.7s-12.1,3.2-15.2,0.4
			c0,0,0.5-39.7-1-46.5c-1.5-6.8-7.6-41.2-7.6-41.2l7-35.2L560.9,219z"/>
		<path class="st41" d="M532.8,143.1c0,0,0.5-9.5,4.4-12c3.9-2.5,14.4-3.5,17.6,0.9c3.2,4.4,6.6,23.5-9,25.9l-8.1,37.5
			c0,0-21.2-2.2-22.8-13.5c-1.6-11.3,8-16.6,8-16.6s-4.6-9.5,0.2-16.2C528,142.5,532.8,143.1,532.8,143.1z"/>
		<path class="st40" d="M563.4,175.8c0,0,19.1,2.7,24.3,2.5c4.1,0.2,9.9-23.9,10.5-25.3c3.2-2.2,4.5-3.9,4.5-5.6
			c0-1.7-4.2-3.1-4.6-2.2c0.7-2.2,0.8-2.9,1-3.7c0.4-1.6-0.7-2.8-2.3,3.1c-1.6,5.8-1.4,4.9-1.8,6.9c-2.6,5.3-9.1,17.7-9.6,19.6
			c-8.5-0.2-23-3.8-23-3.8L563.4,175.8z"/>
		<path class="st38" d="M534.7,284.6c1.2-10.2-1-51.4-0.9-60.2c0.1-8.7,24.7-4.3,24.7-4.3s-7.7,51.2-8.6,58.6
			c-0.9,7.4-2.2,9.6-2.6,16.7c-0.5,7.1-3.9,40.4-3.9,40.4s-13.5,2.3-14.6-0.3C526.6,322.4,534.7,284.6,534.7,284.6z"/>
		<path class="st0" d="M553.5,162.4l11.1,3c0,0-1.2,9.4,0,12.1h-7.7c0,0-1.3,4-2.1,5.9c-0.7,1.9,5.8,33,6.7,38.8
			c0,0-16.3-3-29.3,2.8c0,0,1.2-12.3,5.6-21c4.3-8.6-13-28.8-13-28.8s5.3-16.2,14.5-17.2C546.7,157.3,546.6,160.6,553.5,162.4z"/>
		<path class="st40" d="M552.9,135.3c0,0,3.4,9.2,1.2,13.5c-2.2,4.3-7.4,3.7-7.4,3.7v9.9c0,0-0.5,0.5-1.5,0.6
			c-1.6,0.1-5.9-2.7-5.9-2.7v-22.8L552.9,135.3z"/>
		<path class="st40" d="M521.7,174.7c0,0-16.4,18.6-15.5,21c0.9,2.3,19.2,12.5,20.8,13.9c1.6,1.4,6.6,6.9,6.8,6.2
			c0.2-0.7,3.2-2.5,3.4-4.4c0.2-1.9-1.4-3.5-1.4-3.5l-6.9-0.9c0,0-12.5-10.4-13-11.8c-0.5-1.4,14.1-15.7,14.1-15.7L521.7,174.7z"/>
		<path class="st0" d="M520.2,173.8c0,0,9.5-13.4,15.4-13c5.9,0.5,5.6,9.1,0,15.1c-5.6,6-7.4,8.3-7.4,8.3S521.4,180.9,520.2,173.8z"
			/>
		<path class="st41" d="M553.3,134c0,0-2.2,10.5-7.3,13.3c-5.1,2.8-1.2,9.6-6.1,14.7c-2.6,2.7-7.5-0.3-7.5-0.3l4.9-26.4L553.3,134z"
			/>
	</g>
	<g class="st42">
		<circle class="st43" cx="735.5" cy="159.3" r="3.7"/>
		<path class="st43" d="M687.8,152.3c0,2-1.6,3.7-3.7,3.7c-2,0-3.7-1.6-3.7-3.7c0-2,1.6-3.7,3.7-3.7
			C686.2,148.6,687.8,150.3,687.8,152.3z"/>
		<circle class="st43" cx="434.2" cy="146.1" r="3.7"/>
		<circle class="st43" cx="385.6" cy="109.6" r="3.7"/>
		<circle class="st43" cx="701.2" cy="342" r="3.7"/>
		<path class="st43" d="M340.9,335.6c0,2-1.6,3.7-3.7,3.7c-2,0-3.7-1.6-3.7-3.7c0-2,1.6-3.7,3.7-3.7
			C339.2,332,340.9,333.6,340.9,335.6z"/>
		<path class="st43" d="M517.1,231.1c0,2-1.6,3.7-3.7,3.7c-2,0-3.7-1.6-3.7-3.7c0-2,1.6-3.7,3.7-3.7
			C515.4,227.4,517.1,229.1,517.1,231.1z"/>
		<path class="st43" d="M349.1,188c0,2-1.6,3.7-3.7,3.7c-2,0-3.7-1.6-3.7-3.7c0-2,1.6-3.7,3.7-3.7C347.5,184.3,349.1,186,349.1,188z
			"/>
		<circle class="st43" cx="477" cy="69.3" r="3.7"/>
		<path class="st43" d="M736.5,68.7c0,2-1.6,3.7-3.7,3.7s-3.7-1.6-3.7-3.7s1.6-3.7,3.7-3.7S736.5,66.7,736.5,68.7z"/>
		<path class="st0" d="M620.8,78.3h-2.7v-2.7c0-0.4-0.4-0.8-0.8-0.8s-0.8,0.4-0.8,0.8v2.7h-2.7c-0.4,0-0.8,0.4-0.8,0.8
			c0,0.4,0.4,0.8,0.8,0.8h2.7v2.7c0,0.4,0.4,0.8,0.8,0.8s0.8-0.4,0.8-0.8v-2.7h2.7c0.4,0,0.8-0.4,0.8-0.8
			C621.6,78.7,621.3,78.3,620.8,78.3z"/>
		<path class="st0" d="M524.3,56h-2.7v-2.7c0-0.4-0.4-0.8-0.8-0.8c-0.4,0-0.8,0.4-0.8,0.8V56h-2.7c-0.4,0-0.8,0.4-0.8,0.8
			c0,0.4,0.4,0.8,0.8,0.8h2.7v2.7c0,0.4,0.4,0.8,0.8,0.8c0.4,0,0.8-0.4,0.8-0.8v-2.7h2.7c0.4,0,0.8-0.4,0.8-0.8
			C525,56.3,524.7,56,524.3,56z"/>
		<path class="st0" d="M426.7,82.6H424v-2.7c0-0.4-0.4-0.8-0.8-0.8c-0.4,0-0.8,0.4-0.8,0.8v2.7h-2.7c-0.4,0-0.8,0.4-0.8,0.8
			s0.4,0.8,0.8,0.8h2.7v2.7c0,0.4,0.4,0.8,0.8,0.8c0.4,0,0.8-0.4,0.8-0.8v-2.7h2.7c0.4,0,0.8-0.4,0.8-0.8S427.1,82.6,426.7,82.6z"/>
		<path class="st0" d="M475.6,160.1h-2.7v-2.7c0-0.4-0.4-0.8-0.8-0.8c-0.4,0-0.8,0.4-0.8,0.8v2.7h-2.7c-0.4,0-0.8,0.4-0.8,0.8
			c0,0.4,0.4,0.8,0.8,0.8h2.7v2.7c0,0.4,0.4,0.8,0.8,0.8c0.4,0,0.8-0.4,0.8-0.8v-2.7h2.7c0.4,0,0.8-0.4,0.8-0.8
			C476.4,160.4,476,160.1,475.6,160.1z"/>
		<path class="st0" d="M429.4,286.4h-2.7v-2.7c0-0.4-0.4-0.8-0.8-0.8s-0.8,0.4-0.8,0.8v2.7h-2.7c-0.4,0-0.8,0.4-0.8,0.8
			c0,0.4,0.4,0.8,0.8,0.8h2.7v2.7c0,0.4,0.4,0.8,0.8,0.8s0.8-0.4,0.8-0.8V288h2.7c0.4,0,0.8-0.4,0.8-0.8
			C430.2,286.7,429.8,286.4,429.4,286.4z"/>
		<path class="st0" d="M736.3,286.4h-2.7v-2.7c0-0.4-0.4-0.8-0.8-0.8c-0.4,0-0.8,0.4-0.8,0.8v2.7h-2.7c-0.4,0-0.8,0.4-0.8,0.8
			c0,0.4,0.4,0.8,0.8,0.8h2.7v2.7c0,0.4,0.4,0.8,0.8,0.8c0.4,0,0.8-0.4,0.8-0.8V288h2.7c0.4,0,0.8-0.4,0.8-0.8
			C737.1,286.7,736.8,286.4,736.3,286.4z"/>
		<path class="st0" d="M448.4,241.9h-2.7v-2.7c0-0.4-0.4-0.8-0.8-0.8c-0.4,0-0.8,0.4-0.8,0.8v2.7h-2.7c-0.4,0-0.8,0.4-0.8,0.8
			c0,0.4,0.4,0.8,0.8,0.8h2.7v2.7c0,0.4,0.4,0.8,0.8,0.8c0.4,0,0.8-0.4,0.8-0.8v-2.7h2.7c0.4,0,0.8-0.4,0.8-0.8
			C449.1,242.3,448.8,241.9,448.4,241.9z"/>
		<path class="st0" d="M652.1,337.1h-2.7v-2.7c0-0.4-0.4-0.8-0.8-0.8c-0.4,0-0.8,0.4-0.8,0.8v2.7h-2.7c-0.4,0-0.8,0.4-0.8,0.8
			c0,0.4,0.4,0.8,0.8,0.8h2.7v2.7c0,0.4,0.4,0.8,0.8,0.8c0.4,0,0.8-0.4,0.8-0.8v-2.7h2.7c0.4,0,0.8-0.4,0.8-0.8
			C652.8,337.4,652.5,337.1,652.1,337.1z"/>
		<path class="st0" d="M716.6,218.2h-2.7v-2.7c0-0.4-0.4-0.8-0.8-0.8c-0.4,0-0.8,0.4-0.8,0.8v2.7h-2.7c-0.4,0-0.8,0.4-0.8,0.8
			c0,0.4,0.4,0.8,0.8,0.8h2.7v2.7c0,0.4,0.4,0.8,0.8,0.8c0.4,0,0.8-0.4,0.8-0.8v-2.7h2.7c0.4,0,0.8-0.4,0.8-0.8
			C717.4,218.5,717,218.2,716.6,218.2z"/>
	</g>
</g>
<g>
	<path class="st44" d="M123.3,205c-0.7,0.4-1.6,0.6-2.6,0.7c-0.7,0-1.3-0.1-1.9-0.4c-0.6-0.2-1-0.6-1.4-1c-0.4-0.4-0.7-0.9-0.9-1.5
		c-0.2-0.6-0.3-1.2-0.3-1.9c0-0.7,0.1-1.4,0.3-2c0.2-0.6,0.5-1.2,1-1.6c0.4-0.5,0.9-0.8,1.5-1.1c0.6-0.3,1.3-0.4,2.1-0.4
		c0.8,0,1.5,0.2,2.2,0.5v1.3c-0.7-0.5-1.5-0.7-2.3-0.7c-0.6,0-1.1,0.1-1.5,0.3c-0.4,0.2-0.8,0.5-1.1,0.9c-0.3,0.4-0.5,0.8-0.7,1.3
		c-0.2,0.5-0.2,1-0.2,1.6c0,0.5,0.1,1,0.2,1.5s0.3,0.9,0.6,1.2c0.3,0.4,0.6,0.6,1.1,0.9c0.4,0.2,0.9,0.3,1.5,0.3
		c0.9,0,1.7-0.3,2.5-0.8V205z"/>
	<path class="st44" d="M128.5,197v8.5h-1.2V197h-2.9v-1h7v1H128.5z"/>
	<path class="st44" d="M139.8,205.4v-7.8c0,0.1-0.1,0.1-0.1,0.2c0,0.1-0.1,0.1-0.1,0.2l-5.3,7.4h-1.1v-9.5h1.1v7.7
		c0-0.1,0.1-0.2,0.1-0.3c0.1-0.1,0.1-0.2,0.2-0.3l5.2-7.1h1.2v9.5H139.8z"/>
	<path class="st44" d="M149.7,205.4l-4.4-4.6h0v4.6h-1.2v-9.5h1.2v4.5h0l4.3-4.5h1.6l-4.6,4.6l4.8,4.9H149.7z"/>
	<path class="st44" d="M153.3,200.9c0,0.6,0.1,1.1,0.2,1.6s0.4,0.9,0.7,1.2c0.3,0.3,0.6,0.6,1,0.7c0.4,0.2,0.9,0.3,1.4,0.3
		c1.1,0,2.1-0.4,3.1-1.1v1.2c-0.9,0.7-2,1-3.4,1c-0.6,0-1.2-0.1-1.8-0.3c-0.5-0.2-1-0.5-1.3-1c-0.4-0.4-0.7-0.9-0.9-1.6
		c-0.2-0.6-0.3-1.3-0.3-2.1c0-0.7,0.1-1.4,0.3-2s0.5-1.1,0.9-1.6c0.4-0.4,0.9-0.8,1.4-1c0.5-0.3,1.1-0.4,1.8-0.4
		c0.6,0,1.2,0.1,1.7,0.3c0.5,0.2,0.9,0.5,1.2,0.9c0.3,0.4,0.6,0.9,0.7,1.5c0.2,0.6,0.3,1.2,0.3,1.9v0.6H153.3z M159,199.8
		c0-1-0.3-1.8-0.7-2.3s-1.1-0.8-1.9-0.8c-0.4,0-0.8,0.1-1.1,0.2c-0.3,0.1-0.7,0.3-0.9,0.6c-0.3,0.3-0.5,0.6-0.7,1
		c-0.2,0.4-0.3,0.8-0.4,1.3H159z"/>
	<path class="st44" d="M163.8,203.9v5.9h-1.2v-13.9h1.2v1.8h0c0.4-0.7,0.8-1.2,1.4-1.5c0.6-0.4,1.3-0.5,2-0.5c0.6,0,1.2,0.1,1.7,0.3
		c0.5,0.2,0.9,0.5,1.2,0.9c0.3,0.4,0.6,0.9,0.8,1.5c0.2,0.6,0.3,1.2,0.3,1.9c0,0.8-0.1,1.5-0.3,2.2s-0.5,1.2-0.9,1.7
		s-0.8,0.8-1.4,1.1c-0.5,0.3-1.1,0.4-1.8,0.4C165.6,205.7,164.5,205.1,163.8,203.9L163.8,203.9z M163.8,201.5c0,0.4,0.1,0.8,0.2,1.2
		c0.1,0.4,0.4,0.7,0.6,1c0.3,0.3,0.6,0.5,1,0.7c0.4,0.2,0.8,0.3,1.2,0.3c0.5,0,0.9-0.1,1.3-0.3c0.4-0.2,0.7-0.5,1-0.9
		c0.3-0.4,0.5-0.8,0.6-1.3c0.1-0.5,0.2-1.1,0.2-1.8c0-0.6-0.1-1.1-0.2-1.5c-0.1-0.4-0.3-0.8-0.6-1.1c-0.3-0.3-0.6-0.6-0.9-0.7
		c-0.4-0.2-0.8-0.3-1.2-0.3c-0.5,0-1,0.1-1.4,0.3c-0.4,0.2-0.7,0.4-1,0.7c-0.3,0.3-0.5,0.7-0.7,1.1s-0.2,0.9-0.2,1.4V201.5z"/>
	<path class="st44" d="M180.7,202.5c0,0.5-0.1,0.9-0.2,1.3c-0.2,0.4-0.4,0.7-0.7,0.9c-0.3,0.2-0.6,0.4-1,0.6
		c-0.4,0.1-0.7,0.2-1.1,0.2h-4v-9.5h1.2v3.8h2.7c0.5,0,0.9,0.1,1.3,0.2c0.4,0.1,0.7,0.3,1,0.6s0.5,0.5,0.6,0.9
		C180.6,201.7,180.7,202.1,180.7,202.5z M179.5,202.5c0-0.5-0.2-1-0.5-1.3c-0.3-0.3-0.9-0.5-1.6-0.5h-2.4v3.7h2.5
		c0.4,0,0.7,0,0.9-0.1c0.3-0.1,0.5-0.2,0.6-0.4s0.3-0.4,0.4-0.6C179.4,203.1,179.5,202.8,179.5,202.5z M182.6,205.4v-9.5h1.2v9.5
		H182.6z"/>
	<path class="st44" d="M199.4,202.7c0,0.4-0.1,0.8-0.2,1.1s-0.4,0.6-0.6,0.9c-0.3,0.2-0.6,0.4-1,0.6c-0.4,0.1-0.8,0.2-1.2,0.2h-4.2
		v-9.5h3.9c0.5,0,0.9,0.1,1.3,0.2c0.4,0.1,0.7,0.3,0.9,0.5s0.4,0.4,0.6,0.7c0.1,0.3,0.2,0.6,0.2,0.9c0,0.6-0.2,1.1-0.5,1.5
		s-0.8,0.7-1.4,0.8c0.7,0.1,1.3,0.3,1.7,0.7C199.2,201.6,199.4,202.1,199.4,202.7z M197.8,198.4c0-0.2,0-0.4-0.1-0.6
		c-0.1-0.2-0.2-0.3-0.3-0.5c-0.1-0.1-0.3-0.2-0.6-0.3c-0.2-0.1-0.5-0.1-0.8-0.1h-2.6v3.1h2.4c0.4,0,0.7,0,0.9-0.1
		c0.3-0.1,0.5-0.2,0.6-0.3s0.3-0.3,0.4-0.5S197.8,198.6,197.8,198.4z M198.2,202.7c0-0.2,0-0.5-0.1-0.7c-0.1-0.2-0.2-0.4-0.4-0.5
		c-0.2-0.1-0.4-0.3-0.7-0.3c-0.3-0.1-0.6-0.1-1-0.1h-2.5v3.3h2.8c0.7,0,1.2-0.1,1.5-0.4S198.2,203.2,198.2,202.7z"/>
	<path class="st44" d="M212.1,205.4h-1.2l-4.9-13.3h1.4l3.8,10.7c0.1,0.2,0.1,0.4,0.2,0.6c0.1,0.2,0.1,0.4,0.1,0.6h0
		c0-0.2,0.1-0.4,0.1-0.6c0.1-0.2,0.1-0.4,0.2-0.7l4-10.6h1.4L212.1,205.4z"/>
	<path class="st44" d="M219.6,193.5c-0.2,0-0.4-0.1-0.6-0.2c-0.2-0.2-0.3-0.4-0.3-0.6c0-0.2,0.1-0.4,0.3-0.6
		c0.2-0.2,0.4-0.2,0.6-0.2c0.1,0,0.2,0,0.3,0.1c0.1,0,0.2,0.1,0.3,0.2c0.1,0.1,0.1,0.2,0.2,0.3c0,0.1,0.1,0.2,0.1,0.3
		c0,0.1,0,0.2-0.1,0.3c0,0.1-0.1,0.2-0.2,0.3c-0.1,0.1-0.2,0.1-0.3,0.2C219.9,193.5,219.8,193.5,219.6,193.5z M219,205.4v-9.5h1.2
		v9.5H219z"/>
	<path class="st44" d="M224.6,203.9v1.5h-1.2v-14.1h1.2v6.4h0c0.4-0.7,0.8-1.2,1.4-1.5c0.6-0.4,1.3-0.5,2-0.5c0.6,0,1.2,0.1,1.7,0.3
		c0.5,0.2,0.9,0.5,1.2,0.9c0.3,0.4,0.6,0.9,0.8,1.5c0.2,0.6,0.3,1.2,0.3,1.9c0,0.8-0.1,1.5-0.3,2.2c-0.2,0.6-0.5,1.2-0.9,1.7
		c-0.4,0.5-0.8,0.8-1.4,1.1c-0.5,0.3-1.1,0.4-1.8,0.4C226.3,205.7,225.3,205.1,224.6,203.9L224.6,203.9z M224.6,201.5
		c0,0.4,0.1,0.8,0.2,1.2c0.1,0.4,0.4,0.7,0.6,1c0.3,0.3,0.6,0.5,1,0.7c0.4,0.2,0.8,0.3,1.2,0.3c0.5,0,0.9-0.1,1.3-0.3
		c0.4-0.2,0.7-0.5,1-0.9c0.3-0.4,0.5-0.8,0.6-1.3c0.1-0.5,0.2-1.1,0.2-1.8c0-0.6-0.1-1.1-0.2-1.5c-0.1-0.4-0.3-0.8-0.6-1.1
		c-0.3-0.3-0.6-0.6-0.9-0.7c-0.4-0.2-0.8-0.3-1.2-0.3c-0.5,0-1,0.1-1.4,0.3c-0.4,0.2-0.7,0.4-1,0.7c-0.3,0.3-0.5,0.7-0.7,1.1
		s-0.2,0.9-0.2,1.4V201.5z"/>
	<path class="st44" d="M235,200.9c0,0.6,0.1,1.1,0.2,1.6s0.4,0.9,0.7,1.2c0.3,0.3,0.6,0.6,1,0.7c0.4,0.2,0.9,0.3,1.4,0.3
		c1.1,0,2.1-0.4,3.1-1.1v1.2c-0.9,0.7-2,1-3.4,1c-0.6,0-1.2-0.1-1.8-0.3c-0.5-0.2-1-0.5-1.3-1c-0.4-0.4-0.7-0.9-0.9-1.6
		c-0.2-0.6-0.3-1.3-0.3-2.1c0-0.7,0.1-1.4,0.3-2s0.5-1.1,0.9-1.6c0.4-0.4,0.9-0.8,1.4-1c0.5-0.3,1.1-0.4,1.8-0.4
		c0.6,0,1.2,0.1,1.7,0.3c0.5,0.2,0.9,0.5,1.2,0.9c0.3,0.4,0.6,0.9,0.7,1.5c0.2,0.6,0.3,1.2,0.3,1.9v0.6H235z M240.8,199.8
		c0-1-0.3-1.8-0.7-2.3s-1.1-0.8-1.9-0.8c-0.4,0-0.8,0.1-1.1,0.2c-0.3,0.1-0.7,0.3-0.9,0.6c-0.3,0.3-0.5,0.6-0.7,1
		c-0.2,0.4-0.3,0.8-0.4,1.3H240.8z"/>
	<path class="st44" d="M249.2,197.1c-0.3-0.2-0.6-0.3-1.1-0.3c-0.3,0-0.6,0.1-0.8,0.2c-0.2,0.1-0.5,0.3-0.6,0.5
		c-0.2,0.2-0.3,0.4-0.5,0.7s-0.2,0.6-0.3,0.8c-0.1,0.3-0.1,0.6-0.2,0.9c0,0.3-0.1,0.6-0.1,0.8v4.7h-1.2v-9.5h1.2v2h0
		c0.1-0.3,0.3-0.7,0.4-0.9c0.2-0.3,0.4-0.5,0.6-0.7c0.2-0.2,0.5-0.3,0.7-0.4c0.3-0.1,0.5-0.1,0.8-0.1c0.2,0,0.4,0,0.5,0
		c0.2,0,0.3,0.1,0.4,0.1V197.1z"/>
	<path class="st44" d="M249.2,207.8h-0.9l1.3-4.5h1.2L249.2,207.8z"/>
	<path class="st44" d="M123.2,225.6c0,0.4-0.1,0.8-0.2,1.1s-0.4,0.6-0.7,0.9c-0.3,0.3-0.8,0.5-1.3,0.6s-1.1,0.2-1.8,0.2
		c-0.3,0-0.6,0-0.9,0s-0.6-0.1-0.8-0.1c-0.3,0-0.5-0.1-0.7-0.2c-0.2-0.1-0.4-0.1-0.6-0.2v-1.2c0.4,0.2,0.9,0.4,1.4,0.5
		c0.5,0.1,1,0.2,1.6,0.2s1,0,1.3-0.1c0.4-0.1,0.7-0.2,0.9-0.4c0.2-0.2,0.4-0.3,0.5-0.6s0.2-0.5,0.2-0.7c0-0.6-0.3-1.1-0.8-1.4
		c-0.5-0.3-1.3-0.4-2.2-0.4h-1.1v-1h1c0.9,0,1.5-0.1,2-0.4c0.4-0.3,0.7-0.7,0.7-1.3c0-0.5-0.2-0.9-0.6-1.1c-0.4-0.3-1-0.4-1.7-0.4
		c-0.5,0-1,0.1-1.5,0.2s-1,0.3-1.4,0.5v-1.1c0.5-0.2,0.9-0.3,1.5-0.4c0.5-0.1,1-0.2,1.6-0.2c0.6,0,1.1,0.1,1.5,0.2s0.8,0.3,1.1,0.5
		c0.3,0.2,0.5,0.5,0.6,0.8c0.1,0.3,0.2,0.6,0.2,1c0,0.6-0.2,1.1-0.5,1.5s-0.8,0.7-1.5,0.8v0c0.4,0,0.7,0.1,1,0.2s0.6,0.3,0.8,0.5
		c0.2,0.2,0.4,0.4,0.5,0.7C123.2,225,123.2,225.3,123.2,225.6z"/>
	<path class="st44" d="M132.9,225.5c0,0.4-0.1,0.8-0.2,1.1s-0.4,0.6-0.6,0.9c-0.3,0.2-0.6,0.4-1,0.6c-0.4,0.1-0.8,0.2-1.2,0.2h-4.2
		v-9.5h3.9c0.5,0,0.9,0.1,1.3,0.2c0.4,0.1,0.7,0.3,0.9,0.5s0.4,0.4,0.6,0.7c0.1,0.3,0.2,0.6,0.2,0.9c0,0.6-0.2,1.1-0.5,1.5
		s-0.8,0.7-1.4,0.8c0.7,0.1,1.3,0.3,1.7,0.7C132.7,224.4,132.9,224.9,132.9,225.5z M131.2,221.2c0-0.2,0-0.4-0.1-0.6
		c-0.1-0.2-0.2-0.3-0.3-0.5c-0.1-0.1-0.3-0.2-0.6-0.3c-0.2-0.1-0.5-0.1-0.8-0.1h-2.6v3.1h2.4c0.4,0,0.7,0,0.9-0.1
		c0.3-0.1,0.5-0.2,0.6-0.3s0.3-0.3,0.4-0.5S131.2,221.5,131.2,221.2z M131.6,225.6c0-0.2,0-0.5-0.1-0.7c-0.1-0.2-0.2-0.4-0.4-0.5
		c-0.2-0.1-0.4-0.3-0.7-0.3c-0.3-0.1-0.6-0.1-1-0.1h-2.5v3.3h2.8c0.7,0,1.2-0.1,1.5-0.4S131.6,226.1,131.6,225.6z"/>
	<path class="st44" d="M139.3,228.5c-0.7,0-1.4-0.1-1.9-0.4c-0.6-0.2-1.1-0.6-1.5-1s-0.7-0.9-0.9-1.5c-0.2-0.6-0.3-1.3-0.3-2
		c0-0.8,0.1-1.5,0.3-2.1c0.2-0.6,0.5-1.2,1-1.6c0.4-0.4,0.9-0.8,1.5-1c0.6-0.2,1.3-0.3,2-0.3c0.7,0,1.3,0.1,1.9,0.3
		c0.6,0.2,1,0.6,1.4,1c0.4,0.4,0.7,0.9,0.9,1.6c0.2,0.6,0.3,1.3,0.3,2.1c0,0.7-0.1,1.4-0.3,2c-0.2,0.6-0.5,1.1-0.9,1.6
		c-0.4,0.4-0.9,0.8-1.5,1C140.7,228.4,140,228.5,139.3,228.5z M139.4,219.6c-0.5,0-1,0.1-1.4,0.3c-0.4,0.2-0.8,0.4-1.1,0.8
		c-0.3,0.3-0.5,0.8-0.7,1.3c-0.2,0.5-0.2,1.1-0.2,1.7c0,0.6,0.1,1.1,0.2,1.6c0.2,0.5,0.4,0.9,0.7,1.2c0.3,0.3,0.7,0.6,1.1,0.8
		c0.4,0.2,0.9,0.3,1.4,0.3c0.5,0,1-0.1,1.4-0.3s0.8-0.4,1.1-0.8s0.5-0.8,0.7-1.2c0.1-0.5,0.2-1,0.2-1.7c0-1.3-0.3-2.3-0.9-2.9
		C141.3,219.9,140.5,219.6,139.4,219.6z"/>
	<path class="st44" d="M152.9,228.3v-4.4h-5.3v4.4h-1.2v-9.5h1.2v4.1h5.3v-4.1h1.2v9.5H152.9z"/>
	<path class="st44" d="M162.9,228.3l-4.4-4.6h0v4.6h-1.2v-9.5h1.2v4.5h0l4.3-4.5h1.6l-4.6,4.6l4.8,4.9H162.9z"/>
	<path class="st44" d="M172.9,228.3v-7.8c0,0.1-0.1,0.1-0.1,0.2c0,0.1-0.1,0.1-0.1,0.2l-5.3,7.4h-1.1v-9.5h1.1v7.7
		c0-0.1,0.1-0.2,0.1-0.3c0.1-0.1,0.1-0.2,0.2-0.3l5.2-7.1h1.2v9.5H172.9z"/>
	<path class="st44" d="M189.7,225.5c0,0.4-0.1,0.8-0.2,1.1s-0.4,0.6-0.6,0.9c-0.3,0.2-0.6,0.4-1,0.6c-0.4,0.1-0.8,0.2-1.2,0.2h-4.2
		v-9.5h3.9c0.5,0,0.9,0.1,1.3,0.2c0.4,0.1,0.7,0.3,0.9,0.5s0.4,0.4,0.6,0.7c0.1,0.3,0.2,0.6,0.2,0.9c0,0.6-0.2,1.1-0.5,1.5
		s-0.8,0.7-1.4,0.8c0.7,0.1,1.3,0.3,1.7,0.7C189.5,224.4,189.7,224.9,189.7,225.5z M188.1,221.2c0-0.2,0-0.4-0.1-0.6
		c-0.1-0.2-0.2-0.3-0.3-0.5c-0.1-0.1-0.3-0.2-0.6-0.3c-0.2-0.1-0.5-0.1-0.8-0.1h-2.6v3.1h2.4c0.4,0,0.7,0,0.9-0.1
		c0.3-0.1,0.5-0.2,0.6-0.3s0.3-0.3,0.4-0.5S188.1,221.5,188.1,221.2z M188.5,225.6c0-0.2,0-0.5-0.1-0.7c-0.1-0.2-0.2-0.4-0.4-0.5
		c-0.2-0.1-0.4-0.3-0.7-0.3c-0.3-0.1-0.6-0.1-1-0.1h-2.5v3.3h2.8c0.7,0,1.2-0.1,1.5-0.4S188.5,226.1,188.5,225.6z"/>
	<path class="st44" d="M197.2,226.3c0.2,0.2,0.5,0.3,0.7,0.5c0.3,0.1,0.6,0.2,0.8,0.3s0.6,0.2,0.9,0.2c0.3,0,0.6,0.1,0.8,0.1
		c1,0,1.8-0.2,2.3-0.6s0.8-1,0.8-1.7c0-0.4-0.1-0.7-0.2-0.9c-0.1-0.3-0.3-0.5-0.6-0.7c-0.3-0.2-0.6-0.5-1-0.7
		c-0.4-0.2-0.8-0.5-1.4-0.8c-0.6-0.3-1.1-0.6-1.5-0.9c-0.4-0.3-0.7-0.6-1-0.8s-0.5-0.6-0.6-0.9c-0.1-0.3-0.2-0.7-0.2-1.1
		c0-0.5,0.1-1,0.3-1.5s0.5-0.8,0.9-1.1c0.4-0.3,0.9-0.5,1.4-0.7s1.1-0.2,1.7-0.2c1.1,0,2,0.1,2.7,0.4v1.4c-0.8-0.5-1.7-0.7-2.8-0.7
		c-0.4,0-0.8,0-1.1,0.1c-0.4,0.1-0.7,0.2-0.9,0.4c-0.3,0.2-0.5,0.4-0.6,0.7c-0.2,0.3-0.2,0.6-0.2,1c0,0.3,0.1,0.6,0.2,0.9
		c0.1,0.3,0.3,0.5,0.5,0.7s0.5,0.4,0.9,0.7c0.4,0.2,0.8,0.5,1.4,0.8c0.6,0.3,1.1,0.6,1.5,0.9s0.8,0.6,1.1,0.9c0.3,0.3,0.5,0.6,0.6,1
		c0.1,0.3,0.2,0.7,0.2,1.1c0,0.6-0.1,1.1-0.3,1.5c-0.2,0.4-0.5,0.8-0.9,1.1c-0.4,0.3-0.9,0.5-1.4,0.7s-1.1,0.2-1.8,0.2
		c-0.2,0-0.5,0-0.8-0.1c-0.3,0-0.6-0.1-0.9-0.1c-0.3-0.1-0.6-0.1-0.9-0.2c-0.3-0.1-0.5-0.2-0.7-0.3V226.3z"/>
	<path class="st44" d="M213.1,228.3l-4.4-4.6h0v4.6h-1.2v-14.1h1.2v9h0l4.2-4.4h1.6l-4.5,4.6l4.9,4.9H213.1z"/>
	<path class="st44" d="M219.3,230c-0.4,0.9-0.8,1.6-1.3,2.1c-0.5,0.4-1.1,0.7-1.8,0.7c-0.3,0-0.6,0-0.9-0.1v-1.1
		c0.1,0,0.3,0.1,0.4,0.1c0.1,0,0.3,0,0.4,0c0.4,0,0.7-0.1,1-0.4c0.3-0.2,0.5-0.6,0.8-1.1l0.8-2l-3.7-9.5h1.3l2.8,7.5
		c0,0.1,0.1,0.2,0.1,0.3s0.1,0.3,0.1,0.4h0c0-0.1,0.1-0.2,0.1-0.3s0.1-0.2,0.1-0.4l2.9-7.6h1.3L219.3,230z"/>
	<path class="st44" d="M226.8,226.7v5.9h-1.2v-13.9h1.2v1.8h0c0.4-0.7,0.8-1.2,1.4-1.5c0.6-0.4,1.3-0.5,2-0.5c0.6,0,1.2,0.1,1.7,0.3
		c0.5,0.2,0.9,0.5,1.2,0.9c0.3,0.4,0.6,0.9,0.8,1.5c0.2,0.6,0.3,1.2,0.3,1.9c0,0.8-0.1,1.5-0.3,2.2s-0.5,1.2-0.9,1.7
		s-0.8,0.8-1.4,1.1c-0.5,0.3-1.1,0.4-1.8,0.4C228.5,228.5,227.5,227.9,226.8,226.7L226.8,226.7z M226.8,224.3c0,0.4,0.1,0.8,0.2,1.2
		c0.1,0.4,0.4,0.7,0.6,1c0.3,0.3,0.6,0.5,1,0.7c0.4,0.2,0.8,0.3,1.2,0.3c0.5,0,0.9-0.1,1.3-0.3c0.4-0.2,0.7-0.5,1-0.9
		c0.3-0.4,0.5-0.8,0.6-1.3c0.1-0.5,0.2-1.1,0.2-1.8c0-0.6-0.1-1.1-0.2-1.5c-0.1-0.4-0.3-0.8-0.6-1.1c-0.3-0.3-0.6-0.6-0.9-0.7
		c-0.4-0.2-0.8-0.3-1.2-0.3c-0.5,0-1,0.1-1.4,0.3c-0.4,0.2-0.7,0.4-1,0.7c-0.3,0.3-0.5,0.7-0.7,1.1s-0.2,0.9-0.2,1.4V224.3z"/>
	<path class="st44" d="M237.2,223.7c0,0.6,0.1,1.1,0.2,1.6s0.4,0.9,0.7,1.2c0.3,0.3,0.6,0.6,1,0.7c0.4,0.2,0.9,0.3,1.4,0.3
		c1.1,0,2.1-0.4,3.1-1.1v1.2c-0.9,0.7-2,1-3.4,1c-0.6,0-1.2-0.1-1.8-0.3c-0.5-0.2-1-0.5-1.3-1c-0.4-0.4-0.7-0.9-0.9-1.6
		c-0.2-0.6-0.3-1.3-0.3-2.1c0-0.7,0.1-1.4,0.3-2s0.5-1.1,0.9-1.6c0.4-0.4,0.9-0.8,1.4-1c0.5-0.3,1.1-0.4,1.8-0.4
		c0.6,0,1.2,0.1,1.7,0.3c0.5,0.2,0.9,0.5,1.2,0.9c0.3,0.4,0.6,0.9,0.7,1.5c0.2,0.6,0.3,1.2,0.3,1.9v0.6H237.2z M243,222.7
		c0-1-0.3-1.8-0.7-2.3s-1.1-0.8-1.9-0.8c-0.4,0-0.8,0.1-1.1,0.2c-0.3,0.1-0.7,0.3-0.9,0.6c-0.3,0.3-0.5,0.6-0.7,1
		c-0.2,0.4-0.3,0.8-0.4,1.3H243z"/>
	<path class="st44" d="M246.3,230.7h-0.9l1.3-4.5h1.2L246.3,230.7z"/>
	<path class="st44" d="M118.1,242.6v8.5h-1.2v-9.5h5v1H118.1z"/>
	<path class="st44" d="M127.5,251.3c-0.7,0-1.4-0.1-1.9-0.4c-0.6-0.2-1.1-0.6-1.5-1s-0.7-0.9-0.9-1.5c-0.2-0.6-0.3-1.3-0.3-2
		c0-0.8,0.1-1.5,0.3-2.1c0.2-0.6,0.5-1.2,1-1.6c0.4-0.4,0.9-0.8,1.5-1c0.6-0.2,1.3-0.3,2-0.3c0.7,0,1.3,0.1,1.9,0.3
		c0.6,0.2,1,0.6,1.4,1c0.4,0.4,0.7,0.9,0.9,1.6c0.2,0.6,0.3,1.3,0.3,2.1c0,0.7-0.1,1.4-0.3,2c-0.2,0.6-0.5,1.1-0.9,1.6
		c-0.4,0.4-0.9,0.8-1.5,1C128.9,251.2,128.2,251.3,127.5,251.3z M127.6,242.4c-0.5,0-1,0.1-1.4,0.3c-0.4,0.2-0.8,0.4-1.1,0.8
		c-0.3,0.3-0.5,0.8-0.7,1.3c-0.2,0.5-0.2,1.1-0.2,1.7c0,0.6,0.1,1.1,0.2,1.6c0.2,0.5,0.4,0.9,0.7,1.2c0.3,0.3,0.7,0.6,1.1,0.8
		c0.4,0.2,0.9,0.3,1.4,0.3c0.5,0,1-0.1,1.4-0.3s0.8-0.4,1.1-0.8s0.5-0.8,0.7-1.2c0.1-0.5,0.2-1,0.2-1.7c0-1.3-0.3-2.3-0.9-2.9
		C129.5,242.7,128.6,242.4,127.6,242.4z"/>
	<path class="st44" d="M140.2,251.1v-8.5h-2.5c-0.1,1.5-0.3,2.8-0.5,3.8s-0.4,2-0.7,2.7c-0.3,0.7-0.7,1.2-1.1,1.6s-0.9,0.5-1.5,0.5
		c-0.1,0-0.2,0-0.4,0c-0.1,0-0.2,0-0.3-0.1v-1c0.1,0,0.2,0.1,0.3,0.1c0.1,0,0.2,0,0.3,0c0.4,0,0.7-0.2,1-0.6
		c0.3-0.4,0.6-0.9,0.8-1.6c0.2-0.7,0.4-1.6,0.6-2.7c0.2-1.1,0.3-2.3,0.4-3.7h4.8v9.5H140.2z"/>
	<path class="st44" d="M148.5,251.3c-0.7,0-1.4-0.1-1.9-0.4c-0.6-0.2-1.1-0.6-1.5-1s-0.7-0.9-0.9-1.5c-0.2-0.6-0.3-1.3-0.3-2
		c0-0.8,0.1-1.5,0.3-2.1c0.2-0.6,0.5-1.2,1-1.6c0.4-0.4,0.9-0.8,1.5-1c0.6-0.2,1.3-0.3,2-0.3c0.7,0,1.3,0.1,1.9,0.3
		c0.6,0.2,1,0.6,1.4,1c0.4,0.4,0.7,0.9,0.9,1.6c0.2,0.6,0.3,1.3,0.3,2.1c0,0.7-0.1,1.4-0.3,2c-0.2,0.6-0.5,1.1-0.9,1.6
		c-0.4,0.4-0.9,0.8-1.5,1C149.8,251.2,149.2,251.3,148.5,251.3z M148.6,242.4c-0.5,0-1,0.1-1.4,0.3c-0.4,0.2-0.8,0.4-1.1,0.8
		c-0.3,0.3-0.5,0.8-0.7,1.3c-0.2,0.5-0.2,1.1-0.2,1.7c0,0.6,0.1,1.1,0.2,1.6c0.2,0.5,0.4,0.9,0.7,1.2c0.3,0.3,0.7,0.6,1.1,0.8
		c0.4,0.2,0.9,0.3,1.4,0.3c0.5,0,1-0.1,1.4-0.3s0.8-0.4,1.1-0.8s0.5-0.8,0.7-1.2c0.1-0.5,0.2-1,0.2-1.7c0-1.3-0.3-2.3-0.9-2.9
		C150.5,242.7,149.6,242.4,148.6,242.4z"/>
	<path class="st44" d="M162,250.7c-0.7,0.4-1.6,0.6-2.6,0.7c-0.7,0-1.3-0.1-1.9-0.4s-1-0.6-1.4-1c-0.4-0.4-0.7-0.9-0.9-1.5
		c-0.2-0.6-0.3-1.2-0.3-1.9c0-0.7,0.1-1.4,0.3-2c0.2-0.6,0.5-1.2,1-1.6c0.4-0.5,0.9-0.8,1.5-1.1c0.6-0.3,1.3-0.4,2.1-0.4
		c0.8,0,1.5,0.2,2.2,0.5v1.3c-0.7-0.5-1.5-0.7-2.3-0.7c-0.6,0-1.1,0.1-1.5,0.3c-0.4,0.2-0.8,0.5-1.1,0.9c-0.3,0.4-0.5,0.8-0.7,1.3
		c-0.2,0.5-0.2,1-0.2,1.6c0,0.5,0.1,1,0.2,1.5s0.3,0.9,0.6,1.2c0.3,0.4,0.6,0.6,1.1,0.9c0.4,0.2,0.9,0.3,1.5,0.3
		c0.9,0,1.7-0.3,2.5-0.8V250.7z"/>
	<path class="st44" d="M169.9,251.1v-1.7h0c-0.3,0.6-0.7,1.1-1.3,1.4c-0.5,0.3-1.2,0.5-1.8,0.5c-0.5,0-0.9-0.1-1.3-0.2
		s-0.7-0.3-1-0.6c-0.3-0.2-0.5-0.5-0.6-0.9c-0.1-0.3-0.2-0.7-0.2-1.1c0-0.9,0.3-1.5,0.8-2.1c0.5-0.5,1.4-0.8,2.5-1l2.9-0.4
		c0-1.8-0.7-2.7-2.2-2.7c-1.1,0-2.2,0.4-3.1,1.2v-1.3c0.2-0.1,0.4-0.3,0.7-0.4c0.3-0.1,0.5-0.2,0.8-0.3c0.3-0.1,0.6-0.1,0.9-0.2
		s0.6-0.1,0.9-0.1c1.1,0,1.9,0.3,2.4,0.9c0.6,0.6,0.8,1.5,0.8,2.7v6.2H169.9z M167.4,246.5c-0.4,0.1-0.8,0.1-1.1,0.2
		c-0.3,0.1-0.6,0.2-0.8,0.4c-0.2,0.2-0.3,0.4-0.4,0.6s-0.1,0.5-0.1,0.9c0,0.3,0,0.5,0.1,0.7c0.1,0.2,0.2,0.4,0.4,0.6
		c0.2,0.2,0.4,0.3,0.6,0.4c0.2,0.1,0.5,0.1,0.8,0.1c0.4,0,0.8-0.1,1.2-0.2c0.4-0.2,0.7-0.4,0.9-0.7c0.3-0.3,0.5-0.6,0.6-1
		c0.1-0.4,0.2-0.8,0.2-1.3v-0.9L167.4,246.5z"/>
	<path class="st44" d="M186.5,248.4c0,0.4-0.1,0.8-0.2,1.1s-0.4,0.6-0.6,0.9c-0.3,0.2-0.6,0.4-1,0.6c-0.4,0.1-0.8,0.2-1.2,0.2h-4.2
		v-9.5h3.9c0.5,0,0.9,0.1,1.3,0.2c0.4,0.1,0.7,0.3,0.9,0.5s0.4,0.4,0.6,0.7c0.1,0.3,0.2,0.6,0.2,0.9c0,0.6-0.2,1.1-0.5,1.5
		s-0.8,0.7-1.4,0.8c0.7,0.1,1.3,0.3,1.7,0.7C186.3,247.3,186.5,247.8,186.5,248.4z M184.9,244.1c0-0.2,0-0.4-0.1-0.6
		c-0.1-0.2-0.2-0.3-0.3-0.5c-0.1-0.1-0.3-0.2-0.6-0.3c-0.2-0.1-0.5-0.1-0.8-0.1h-2.6v3.1h2.4c0.4,0,0.7,0,0.9-0.1
		c0.3-0.1,0.5-0.2,0.6-0.3s0.3-0.3,0.4-0.5S184.9,244.3,184.9,244.1z M185.3,248.4c0-0.2,0-0.5-0.1-0.7c-0.1-0.2-0.2-0.4-0.4-0.5
		c-0.2-0.1-0.4-0.3-0.7-0.3c-0.3-0.1-0.6-0.1-1-0.1h-2.5v3.3h2.8c0.7,0,1.2-0.1,1.5-0.4S185.3,248.9,185.3,248.4z"/>
	<path class="st44" d="M193,251.3c-0.7,0-1.4-0.1-1.9-0.4c-0.6-0.2-1.1-0.6-1.5-1s-0.7-0.9-0.9-1.5c-0.2-0.6-0.3-1.3-0.3-2
		c0-0.8,0.1-1.5,0.3-2.1c0.2-0.6,0.5-1.2,1-1.6c0.4-0.4,0.9-0.8,1.5-1c0.6-0.2,1.3-0.3,2-0.3c0.7,0,1.3,0.1,1.9,0.3
		c0.6,0.2,1,0.6,1.4,1c0.4,0.4,0.7,0.9,0.9,1.6c0.2,0.6,0.3,1.3,0.3,2.1c0,0.7-0.1,1.4-0.3,2c-0.2,0.6-0.5,1.1-0.9,1.6
		c-0.4,0.4-0.9,0.8-1.5,1C194.4,251.2,193.7,251.3,193,251.3z M193.1,242.4c-0.5,0-1,0.1-1.4,0.3c-0.4,0.2-0.8,0.4-1.1,0.8
		c-0.3,0.3-0.5,0.8-0.7,1.3c-0.2,0.5-0.2,1.1-0.2,1.7c0,0.6,0.1,1.1,0.2,1.6c0.2,0.5,0.4,0.9,0.7,1.2c0.3,0.3,0.7,0.6,1.1,0.8
		c0.4,0.2,0.9,0.3,1.4,0.3c0.5,0,1-0.1,1.4-0.3s0.8-0.4,1.1-0.8s0.5-0.8,0.7-1.2c0.1-0.5,0.2-1,0.2-1.7c0-1.3-0.3-2.3-0.9-2.9
		C195,242.7,194.2,242.4,193.1,242.4z"/>
	<path class="st44" d="M205.6,251.1v-13.3h3.7c0.6,0,1.1,0.1,1.5,0.2c0.4,0.1,0.8,0.4,1.2,0.6s0.6,0.6,0.7,1
		c0.2,0.4,0.3,0.8,0.3,1.2c0,0.4-0.1,0.7-0.2,1.1c-0.1,0.3-0.3,0.6-0.5,0.9c-0.2,0.3-0.4,0.5-0.7,0.7c-0.3,0.2-0.6,0.4-1,0.5v0
		c0.5,0,0.9,0.2,1.2,0.3c0.4,0.2,0.7,0.4,1,0.7c0.3,0.3,0.5,0.6,0.6,1s0.2,0.8,0.2,1.2c0,0.6-0.1,1.1-0.3,1.5
		c-0.2,0.5-0.5,0.9-0.9,1.2c-0.4,0.3-0.8,0.6-1.3,0.8s-1.1,0.3-1.7,0.3H205.6z M206.8,238.9v4.7h1.8c0.5,0,0.9-0.1,1.2-0.2
		s0.7-0.3,1-0.5s0.5-0.5,0.6-0.8c0.1-0.3,0.2-0.7,0.2-1.1c0-1.4-0.9-2.2-2.7-2.2H206.8z M206.8,244.8v5.2h2.3c1,0,1.8-0.2,2.3-0.7
		c0.5-0.5,0.8-1.1,0.8-2c0-1.7-1.2-2.6-3.5-2.6H206.8z"/>
	<path class="st44" d="M223.5,251.1l-5.5-6.2c-0.2-0.2-0.2-0.3-0.3-0.4h0v6.6h-1.3v-13.3h1.3v6.3h0c0-0.1,0.1-0.1,0.1-0.2
		c0.1-0.1,0.1-0.1,0.2-0.2l5.3-5.9h1.6l-5.9,6.4l6.3,6.9H223.5z"/>
	<path class="st44" d="M227,253.5h-0.9l1.3-4.5h1.2L227,253.5z"/>
	<path class="st44" d="M242.4,251.1l-4.4-4.6h0v4.6h-1.2v-9.5h1.2v4.5h0l4.3-4.5h1.6l-4.6,4.6l4.8,4.9H242.4z"/>
	<path class="st44" d="M251.8,251.1v-8.5h-2.5c-0.1,1.5-0.3,2.8-0.5,3.8s-0.4,2-0.7,2.7c-0.3,0.7-0.7,1.2-1.1,1.6s-0.9,0.5-1.5,0.5
		c-0.1,0-0.2,0-0.4,0c-0.1,0-0.2,0-0.3-0.1v-1c0.1,0,0.2,0.1,0.3,0.1c0.1,0,0.2,0,0.3,0c0.4,0,0.7-0.2,1-0.6
		c0.3-0.4,0.6-0.9,0.8-1.6c0.2-0.7,0.4-1.6,0.6-2.7c0.2-1.1,0.3-2.3,0.4-3.7h4.8v9.5H251.8z"/>
	<path class="st44" d="M261.6,251.1v-1.7h0c-0.3,0.6-0.7,1.1-1.3,1.4c-0.5,0.3-1.2,0.5-1.8,0.5c-0.5,0-0.9-0.1-1.3-0.2
		s-0.7-0.3-1-0.6c-0.3-0.2-0.5-0.5-0.6-0.9c-0.1-0.3-0.2-0.7-0.2-1.1c0-0.9,0.3-1.5,0.8-2.1c0.5-0.5,1.4-0.8,2.5-1l2.9-0.4
		c0-1.8-0.7-2.7-2.2-2.7c-1.1,0-2.2,0.4-3.1,1.2v-1.3c0.2-0.1,0.4-0.3,0.7-0.4c0.3-0.1,0.5-0.2,0.8-0.3c0.3-0.1,0.6-0.1,0.9-0.2
		s0.6-0.1,0.9-0.1c1.1,0,1.9,0.3,2.4,0.9c0.6,0.6,0.8,1.5,0.8,2.7v6.2H261.6z M259.2,246.5c-0.4,0.1-0.8,0.1-1.1,0.2
		c-0.3,0.1-0.6,0.2-0.8,0.4c-0.2,0.2-0.3,0.4-0.4,0.6s-0.1,0.5-0.1,0.9c0,0.3,0,0.5,0.1,0.7c0.1,0.2,0.2,0.4,0.4,0.6
		c0.2,0.2,0.4,0.3,0.6,0.4c0.2,0.1,0.5,0.1,0.8,0.1c0.4,0,0.8-0.1,1.2-0.2c0.4-0.2,0.7-0.4,0.9-0.7c0.3-0.3,0.5-0.6,0.6-1
		c0.1-0.4,0.2-0.8,0.2-1.3v-0.9L259.2,246.5z"/>
	<path class="st44" d="M272.2,250.7c-0.7,0.4-1.6,0.6-2.6,0.7c-0.7,0-1.3-0.1-1.9-0.4s-1-0.6-1.4-1c-0.4-0.4-0.7-0.9-0.9-1.5
		c-0.2-0.6-0.3-1.2-0.3-1.9c0-0.7,0.1-1.4,0.3-2c0.2-0.6,0.5-1.2,1-1.6c0.4-0.5,0.9-0.8,1.5-1.1c0.6-0.3,1.3-0.4,2.1-0.4
		c0.8,0,1.5,0.2,2.2,0.5v1.3c-0.7-0.5-1.5-0.7-2.3-0.7c-0.6,0-1.1,0.1-1.5,0.3c-0.4,0.2-0.8,0.5-1.1,0.9c-0.3,0.4-0.5,0.8-0.7,1.3
		c-0.2,0.5-0.2,1-0.2,1.6c0,0.5,0.1,1,0.2,1.5s0.3,0.9,0.6,1.2c0.3,0.4,0.6,0.6,1.1,0.9c0.4,0.2,0.9,0.3,1.5,0.3
		c0.9,0,1.7-0.3,2.5-0.8V250.7z"/>
	<path class="st44" d="M280.9,250.7c-0.7,0.4-1.6,0.6-2.6,0.7c-0.7,0-1.3-0.1-1.9-0.4s-1-0.6-1.4-1c-0.4-0.4-0.7-0.9-0.9-1.5
		c-0.2-0.6-0.3-1.2-0.3-1.9c0-0.7,0.1-1.4,0.3-2c0.2-0.6,0.5-1.2,1-1.6c0.4-0.5,0.9-0.8,1.5-1.1c0.6-0.3,1.3-0.4,2.1-0.4
		c0.8,0,1.5,0.2,2.2,0.5v1.3c-0.7-0.5-1.5-0.7-2.3-0.7c-0.6,0-1.1,0.1-1.5,0.3c-0.4,0.2-0.8,0.5-1.1,0.9c-0.3,0.4-0.5,0.8-0.7,1.3
		c-0.2,0.5-0.2,1-0.2,1.6c0,0.5,0.1,1,0.2,1.5s0.3,0.9,0.6,1.2c0.3,0.4,0.6,0.6,1.1,0.9c0.4,0.2,0.9,0.3,1.5,0.3
		c0.9,0,1.7-0.3,2.5-0.8V250.7z"/>
	<path class="st44" d="M290.2,248.2c0,0.5-0.1,0.9-0.2,1.3c-0.2,0.4-0.4,0.7-0.7,0.9c-0.3,0.2-0.6,0.4-1,0.6
		c-0.4,0.1-0.7,0.2-1.1,0.2h-4v-9.5h1.2v3.8h2.7c0.5,0,0.9,0.1,1.3,0.2c0.4,0.1,0.7,0.3,1,0.6s0.5,0.5,0.6,0.9
		C290.2,247.4,290.2,247.8,290.2,248.2z M289,248.2c0-0.5-0.2-1-0.5-1.3c-0.3-0.3-0.9-0.5-1.6-0.5h-2.4v3.7h2.5c0.4,0,0.7,0,0.9-0.1
		c0.3-0.1,0.5-0.2,0.6-0.4s0.3-0.4,0.4-0.6C289,248.7,289,248.5,289,248.2z M292.1,251.1v-9.5h1.2v9.5H292.1z"/>
	<path class="st44" d="M309,248.4c0,0.4-0.1,0.8-0.2,1.1s-0.4,0.6-0.6,0.9c-0.3,0.2-0.6,0.4-1,0.6c-0.4,0.1-0.8,0.2-1.2,0.2h-4.2
		v-9.5h3.9c0.5,0,0.9,0.1,1.3,0.2c0.4,0.1,0.7,0.3,0.9,0.5s0.4,0.4,0.6,0.7c0.1,0.3,0.2,0.6,0.2,0.9c0,0.6-0.2,1.1-0.5,1.5
		s-0.8,0.7-1.4,0.8c0.7,0.1,1.3,0.3,1.7,0.7C308.8,247.3,309,247.8,309,248.4z M307.4,244.1c0-0.2,0-0.4-0.1-0.6
		c-0.1-0.2-0.2-0.3-0.3-0.5c-0.1-0.1-0.3-0.2-0.6-0.3c-0.2-0.1-0.5-0.1-0.8-0.1h-2.6v3.1h2.4c0.4,0,0.7,0,0.9-0.1
		c0.3-0.1,0.5-0.2,0.6-0.3s0.3-0.3,0.4-0.5S307.4,244.3,307.4,244.1z M307.7,248.4c0-0.2,0-0.5-0.1-0.7c-0.1-0.2-0.2-0.4-0.4-0.5
		c-0.2-0.1-0.4-0.3-0.7-0.3c-0.3-0.1-0.6-0.1-1-0.1h-2.5v3.3h2.8c0.7,0,1.2-0.1,1.5-0.4S307.7,248.9,307.7,248.4z"/>
	<path class="st44" d="M322.5,251.4c-1,0-1.9-0.2-2.6-0.5c-0.8-0.4-1.4-0.8-2-1.4c-0.5-0.6-1-1.3-1.3-2.1s-0.4-1.7-0.4-2.6
		c0-1,0.1-2,0.4-2.9c0.3-0.9,0.7-1.6,1.3-2.2c0.6-0.6,1.2-1.1,2.1-1.4c0.8-0.3,1.7-0.5,2.8-0.5c1,0,1.8,0.2,2.6,0.5
		c0.8,0.3,1.4,0.8,1.9,1.4c0.5,0.6,0.9,1.3,1.2,2.1c0.3,0.8,0.4,1.7,0.4,2.7c0,1-0.1,1.9-0.4,2.8c-0.3,0.9-0.7,1.6-1.2,2.2
		c-0.5,0.6-1.2,1.1-2,1.5S323.5,251.4,322.5,251.4z M322.6,238.7c-0.8,0-1.5,0.2-2.2,0.5c-0.6,0.3-1.2,0.7-1.6,1.2
		c-0.4,0.5-0.8,1.1-1,1.8c-0.2,0.7-0.3,1.5-0.3,2.2c0,0.8,0.1,1.5,0.3,2.2c0.2,0.7,0.5,1.3,0.9,1.8c0.4,0.5,0.9,1,1.6,1.3
		c0.6,0.3,1.4,0.5,2.2,0.5c0.8,0,1.6-0.1,2.2-0.4s1.2-0.7,1.6-1.2c0.4-0.5,0.7-1.1,1-1.8c0.2-0.7,0.3-1.5,0.3-2.3
		c0-0.8-0.1-1.5-0.3-2.2s-0.5-1.3-0.9-1.8c-0.4-0.5-0.9-0.9-1.6-1.2C324.2,238.8,323.5,238.7,322.6,238.7z"/>
	<path class="st44" d="M338.7,251.1l-5.5-6.2c-0.2-0.2-0.2-0.3-0.3-0.4h0v6.6h-1.3v-13.3h1.3v6.3h0c0-0.1,0.1-0.1,0.1-0.2
		c0.1-0.1,0.1-0.1,0.2-0.2l5.3-5.9h1.6l-5.9,6.4l6.3,6.9H338.7z"/>
</g>
<g>
	<path class="st45" d="M128.6,158.7h-3v-10.7h-5.6v10.7h-3v-13.3h11.7V158.7z"/>
	<path class="st45" d="M137.4,158.9c-1.9,0-3.5-0.6-4.7-1.9s-1.8-2.9-1.8-4.9c0-2.1,0.6-3.8,1.9-5.1c1.2-1.3,2.9-2,4.9-2
		c1.9,0,3.5,0.6,4.7,1.9c1.2,1.2,1.8,2.9,1.8,4.9c0,2.1-0.6,3.8-1.9,5.1C141,158.2,139.4,158.9,137.4,158.9z M137.5,147.7
		c-1.1,0-1.9,0.4-2.5,1.2c-0.6,0.8-0.9,1.8-0.9,3.1c0,1.3,0.3,2.4,0.9,3.1c0.6,0.8,1.5,1.2,2.5,1.2c1,0,1.9-0.4,2.5-1.1
		c0.6-0.7,0.9-1.8,0.9-3.1c0-1.4-0.3-2.5-0.9-3.2S138.5,147.7,137.5,147.7z"/>
	<path class="st45" d="M157.6,158.7h-3.8l-3.9-5.8c-0.1-0.1-0.2-0.4-0.4-0.7h0v6.5h-3v-13.3h3v6.3h0c0.1-0.2,0.2-0.4,0.4-0.7
		l3.7-5.6h3.6l-4.7,6.4L157.6,158.7z"/>
	<path class="st45" d="M169.3,145.3l-4.2,9.1c-0.8,1.7-1.5,2.9-2.2,3.5c-0.7,0.6-1.6,0.9-2.7,0.9c-0.7,0-1.3-0.1-1.8-0.3v-2.7
		c0.5,0.3,1,0.5,1.6,0.5c0.8,0,1.4-0.6,2-1.8l-4.4-9.2h3.5l2.2,5.3c0.1,0.3,0.2,0.7,0.3,1.1h0c0.1-0.3,0.2-0.7,0.3-1.1l2.2-5.4
		H169.3z"/>
	<path class="st45" d="M182.4,158.7h-3v-10.7h-5.6v10.7h-3v-13.3h11.7V158.7z"/>
	<path class="st45" d="M197.4,158.7h-3.3l-1-3h-4.8l-1,3H184l4.9-13.3h3.6L197.4,158.7z M192.4,153.4l-1.5-4.5
		c-0.1-0.3-0.2-0.7-0.2-1.2h-0.1c0,0.4-0.1,0.8-0.2,1.2l-1.5,4.5H192.4z"/>
	<path class="st45" d="M211.2,158.7h-2.9v-7.3c0-0.8,0-1.6,0.1-2.2h-0.1c-0.1,0.3-0.4,0.6-0.7,1.1l-5.6,8.4h-3.1v-13.3h2.9v7.4
		c0,0.9,0,1.5-0.1,1.8h0c0-0.1,0.3-0.4,0.7-1.1l5.4-8.1h3.3V158.7z M209.3,140.9c-0.1,1-0.5,1.8-1.3,2.4s-1.7,0.9-2.8,0.9
		c-1.1,0-2.1-0.3-2.8-0.9c-0.7-0.6-1.2-1.4-1.2-2.4h2.2c0,0.5,0.2,0.9,0.6,1.2c0.4,0.3,0.8,0.5,1.3,0.5c0.5,0,0.9-0.2,1.3-0.5
		c0.4-0.3,0.6-0.7,0.6-1.2H209.3z"/>
	<path class="st45" d="M223.8,147.8H220v10.9h-3.1v-10.9h-3.8v-2.4h10.8V147.8z"/>
	<path class="st45" d="M233.8,158.7h-8.1v-13.3h7.8v2.4h-4.8v3h4.4v2.4h-4.4v3h5.1V158.7z"/>
	<path class="st45" d="M253.4,158.7h-2.9v-7.3c0-0.8,0-1.6,0.1-2.2h-0.1c-0.1,0.3-0.4,0.6-0.7,1.1l-5.6,8.4h-3.1v-13.3h2.9v7.4
		c0,0.9,0,1.5-0.1,1.8h0c0-0.1,0.3-0.4,0.7-1.1l5.4-8.1h3.3V158.7z"/>
	<path class="st45" d="M122.6,181.7c-1.9,0-3.5-0.6-4.7-1.9S116,177,116,175c0-2.1,0.6-3.8,1.9-5.1c1.2-1.3,2.9-2,4.9-2
		c1.9,0,3.5,0.6,4.7,1.9c1.2,1.2,1.8,2.9,1.8,4.9c0,2.1-0.6,3.8-1.9,5.1C126.2,181.1,124.6,181.7,122.6,181.7z M122.7,170.5
		c-1.1,0-1.9,0.4-2.5,1.2c-0.6,0.8-0.9,1.8-0.9,3.1c0,1.3,0.3,2.4,0.9,3.1c0.6,0.8,1.5,1.2,2.5,1.2c1,0,1.9-0.4,2.5-1.1
		c0.6-0.7,0.9-1.8,0.9-3.1c0-1.4-0.3-2.5-0.9-3.2S123.8,170.5,122.7,170.5z"/>
	<path class="st45" d="M143.2,181.5h-3v-10.7h-5.6v10.7h-3v-13.3h11.7V181.5z"/>
	<path class="st45" d="M157.3,181.5h-3v-10.8h-2.7c-0.7,5.1-1.4,8.2-2,9.3c-0.6,1.1-1.6,1.7-2.9,1.7c-0.5,0-1.1-0.1-1.6-0.3V179
		c0.4,0.1,0.7,0.2,0.9,0.2c0.3,0,0.5-0.1,0.7-0.2s0.4-0.6,0.7-1.3c0.2-0.7,0.5-1.9,0.9-3.6c0.3-1.7,0.7-3.7,1-5.9h8.2V181.5z"/>
	<path class="st45" d="M172.3,181.5H169l-1-3h-4.8l-1,3H159l4.9-13.3h3.6L172.3,181.5z M167.3,176.2l-1.5-4.5
		c-0.1-0.3-0.2-0.7-0.2-1.2h-0.1c0,0.4-0.1,0.8-0.2,1.2l-1.5,4.5H167.3z"/>
	<path class="st45" d="M183.4,181.5h-3.1v-5.3c-1.3,0.7-2.5,1-3.8,1c-2.8,0-4.2-1.3-4.2-4v-5.1h3v4.8c0,1.2,0.6,1.7,1.9,1.7
		c1,0,2-0.3,3.1-0.9v-5.6h3.1V181.5z"/>
	<path class="st45" d="M198.7,181.5h-2.9v-7.3c0-0.8,0-1.6,0.1-2.2h-0.1c-0.1,0.3-0.4,0.6-0.7,1.1l-5.6,8.4h-3.1v-13.3h2.9v7.4
		c0,0.9,0,1.5-0.1,1.8h0c0-0.1,0.3-0.4,0.7-1.1l5.4-8.1h3.3V181.5z"/>
	<path class="st45" d="M201.8,181.5v-13.3h4.9c1.5,0,2.7,0.3,3.5,0.8s1.2,1.3,1.2,2.3c0,0.7-0.2,1.3-0.7,1.9s-1.1,0.9-1.9,1.1v0
		c1,0.1,1.7,0.5,2.3,1.1s0.9,1.3,0.9,2.1c0,1.2-0.4,2.2-1.3,2.9c-0.9,0.7-2.1,1.1-3.6,1.1H201.8z M204.9,170.4v3.2h1.3
		c0.6,0,1.1-0.2,1.5-0.5c0.4-0.3,0.5-0.7,0.5-1.2c0-1-0.7-1.5-2.2-1.5H204.9z M204.9,175.8v3.5h1.7c0.7,0,1.3-0.2,1.7-0.5
		c0.4-0.3,0.6-0.8,0.6-1.3c0-0.5-0.2-1-0.6-1.3s-0.9-0.5-1.6-0.5H204.9z"/>
	<path class="st45" d="M226.1,181.5h-3.3l-1-3H217l-1,3h-3.3l4.9-13.3h3.6L226.1,181.5z M221.1,176.2l-1.5-4.5
		c-0.1-0.3-0.2-0.7-0.2-1.2h-0.1c0,0.4-0.1,0.8-0.2,1.2l-1.5,4.5H221.1z"/>
	<path class="st45" d="M240,181.5h-2.9v-7.3c0-0.8,0-1.6,0.1-2.2h-0.1c-0.1,0.3-0.4,0.6-0.7,1.1l-5.6,8.4h-3.1v-13.3h2.9v7.4
		c0,0.9,0,1.5-0.1,1.8h0c0-0.1,0.3-0.4,0.7-1.1l5.4-8.1h3.3V181.5z M238,163.7c-0.1,1-0.5,1.8-1.3,2.4s-1.7,0.9-2.8,0.9
		c-1.1,0-2.1-0.3-2.8-0.9c-0.7-0.6-1.2-1.4-1.2-2.4h2.2c0,0.5,0.2,0.9,0.6,1.2c0.4,0.3,0.8,0.5,1.3,0.5c0.5,0,0.9-0.2,1.3-0.5
		c0.4-0.3,0.6-0.7,0.6-1.2H238z"/>
	<path class="st45" d="M252.6,170.6h-3.9v10.9h-3.1v-10.9h-3.8v-2.4h10.8V170.6z"/>
	<path class="st45" d="M262.5,181.5h-8.1v-13.3h7.8v2.4h-4.8v3h4.4v2.4h-4.4v3h5.1V181.5z"/>
</g>
<g>
</g>
<g>
</g>
<g>
</g>
<g>
</g>
<g>
</g>
<g>
</g>
</svg>
