<?xml version="1.0" encoding="utf-8"?>
<!-- Generator: Adobe Illustrator 21.1.0, SVG Export Plug-In . SVG Version: 6.00 Build 0)  -->
<svg version="1.1" id="Phone-72x72_1_" xmlns="http://www.w3.org/2000/svg" xmlns:xlink="http://www.w3.org/1999/xlink" x="0px"
	 y="0px" viewBox="0 0 72 72" style="enable-background:new 0 0 72 72;" xml:space="preserve">
<style type="text/css">
	.st0{fill:#E8EBF3;}
	.st1{fill:url(#Rectangle-Copy-97_1_);}
	.st2{fill:none;stroke:#4B5460;stroke-width:2.3478;stroke-linecap:round;}
	.st3{fill:url(#Rectangle-Copy-99_1_);}
	.st4{fill:#EAF3FF;}
</style>
<g id="Phone-72x72">
	<circle id="Oval-Copy-19" class="st0" cx="36" cy="36" r="36"/>
	<g id="Group-10" transform="translate(16.000000, 19.000000)">
		<g id="Group-61-Copy-3">
			<g id="Group-60">
				
					<linearGradient id="Rectangle-Copy-97_1_" gradientUnits="userSpaceOnUse" x1="-645.7439" y1="392.3399" x2="-645.7439" y2="388.3219" gradientTransform="matrix(41 0 0 -30.9091 26496 12081.5449)">
					<stop  offset="0" style="stop-color:#DCEAFB"/>
					<stop  offset="1" style="stop-color:#616D7E"/>
				</linearGradient>
				<path id="Rectangle-Copy-97" class="st1" d="M1.6,3.1h37.9c0.9,0,1.6,0.7,1.6,1.6v27.8c0,0.9-0.7,1.6-1.6,1.6H1.6
					C0.7,34,0,33.3,0,32.4V4.7C0,3.8,0.7,3.1,1.6,3.1z"/>
				<path id="Path-17-Copy-14" class="st2" d="M24.4,28.6h6.3"/>
				
					<linearGradient id="Rectangle-Copy-99_1_" gradientUnits="userSpaceOnUse" x1="-602.9774" y1="391.5204" x2="-602.9774" y2="389.7735" gradientTransform="matrix(11.0385 0 0 -30.9091 6664.6157 12078.4541)">
					<stop  offset="0" style="stop-color:#596574"/>
					<stop  offset="1" style="stop-color:#2D3540"/>
				</linearGradient>
				<path id="Rectangle-Copy-99" class="st3" d="M5.7,0h6c1.4,0,2.5,1.1,2.5,2.5v3.2c0,1.3-0.2,2.7-0.6,3.9l0,0
					c-0.4,1.3-0.6,2.6-0.6,3.9v1.9v1.9c0,1.3,0.2,2.7,0.6,3.9l0,0c0.4,1.3,0.6,2.6,0.6,3.9v3.2c0,1.4-1.1,2.5-2.5,2.5h-6
					c-1.4,0-2.5-1.1-2.5-2.5v-3.2c0-1.3,0.2-2.7,0.6-3.9l0,0c0.4-1.3,0.6-2.6,0.6-3.9v-1.9v-1.9c0-1.3-0.2-2.7-0.6-3.9l0,0
					C3.3,8.4,3.2,7.1,3.2,5.7V2.5C3.2,1.1,4.3,0,5.7,0z"/>
			</g>
		</g>
		<path id="Rectangle" class="st4" d="M20.5,7.7h1.6c0.9,0,1.5,0.7,1.5,1.5v0c0,0.9-0.7,1.5-1.5,1.5h-1.6c-0.9,0-1.5-0.7-1.5-1.5v0
			C18.9,8.4,19.6,7.7,20.5,7.7z"/>
		<path id="Rectangle-Copy-83" class="st4" d="M20.5,13.9h1.6c0.9,0,1.5,0.7,1.5,1.5l0,0c0,0.9-0.7,1.5-1.5,1.5h-1.6
			c-0.9,0-1.5-0.7-1.5-1.5l0,0C18.9,14.6,19.6,13.9,20.5,13.9z"/>
		<path id="Rectangle-Copy-90" class="st4" d="M20.5,20.1h1.6c0.9,0,1.5,0.7,1.5,1.5v0c0,0.9-0.7,1.5-1.5,1.5h-1.6
			c-0.9,0-1.5-0.7-1.5-1.5v0C18.9,20.8,19.6,20.1,20.5,20.1z"/>
		<path id="Rectangle-Copy-39" class="st4" d="M26.8,7.7h1.6c0.9,0,1.5,0.7,1.5,1.5v0c0,0.9-0.7,1.5-1.5,1.5h-1.6
			c-0.9,0-1.5-0.7-1.5-1.5v0C25.2,8.4,25.9,7.7,26.8,7.7z"/>
		<path id="Rectangle-Copy-88" class="st4" d="M26.8,13.9h1.6c0.9,0,1.5,0.7,1.5,1.5l0,0c0,0.9-0.7,1.5-1.5,1.5h-1.6
			c-0.9,0-1.5-0.7-1.5-1.5l0,0C25.2,14.6,25.9,13.9,26.8,13.9z"/>
		<path id="Rectangle-Copy-91" class="st4" d="M26.8,20.1h1.6c0.9,0,1.5,0.7,1.5,1.5v0c0,0.9-0.7,1.5-1.5,1.5h-1.6
			c-0.9,0-1.5-0.7-1.5-1.5v0C25.2,20.8,25.9,20.1,26.8,20.1z"/>
		<path id="Rectangle-Copy-40" class="st4" d="M33.1,7.7h1.6c0.9,0,1.5,0.7,1.5,1.5v0c0,0.9-0.7,1.5-1.5,1.5h-1.6
			c-0.9,0-1.5-0.7-1.5-1.5v0C31.5,8.4,32.2,7.7,33.1,7.7z"/>
		<path id="Rectangle-Copy-89" class="st4" d="M33.1,13.9h1.6c0.9,0,1.5,0.7,1.5,1.5l0,0c0,0.9-0.7,1.5-1.5,1.5h-1.6
			c-0.9,0-1.5-0.7-1.5-1.5l0,0C31.5,14.6,32.2,13.9,33.1,13.9z"/>
		<path id="Rectangle-Copy-94" class="st4" d="M33.1,20.1h1.6c0.9,0,1.5,0.7,1.5,1.5v0c0,0.9-0.7,1.5-1.5,1.5h-1.6
			c-0.9,0-1.5-0.7-1.5-1.5v0C31.5,20.8,32.2,20.1,33.1,20.1z"/>
	</g>
</g>
</svg>
