<?xml version="1.0" encoding="utf-8"?>
<!-- Generator: Adobe Illustrator 21.1.0, SVG Export Plug-In . SVG Version: 6.00 Build 0)  -->
<svg version="1.1" id="Transport-72x72_1_" xmlns="http://www.w3.org/2000/svg" xmlns:xlink="http://www.w3.org/1999/xlink" x="0px"
	 y="0px" viewBox="0 0 72 72" style="enable-background:new 0 0 72 72;" xml:space="preserve">
<style type="text/css">
	.st0{fill:#DAF9C5;}
	.st1{fill:#7F899A;}
	.st2{fill:url(#Rectangle-Copy-173_1_);}
	.st3{fill:#2D3540;}
	.st4{fill:#5DD43E;}
	.st5{fill:#FFF8F0;}
	.st6{fill:#C3CAD5;}
</style>
<g id="Transport-72x72">
	<circle id="Oval-Copy-15" class="st0" cx="36" cy="36" r="36"/>
	<g id="Group-57-Copy" transform="translate(17.000000, 17.000000)">
		<path id="Rectangle-Copy-171" class="st1" d="M1.7,5.3l1.4-0.5v9.5l-1.4-0.5c-1-0.4-1.7-1.4-1.7-2.5V7.8C0,6.7,0.7,5.7,1.7,5.3z"
			/>
		<path id="Rectangle-Copy-172" class="st1" d="M36.3,5.3l-1.4-0.5v9.5l1.4-0.5c1-0.4,1.7-1.4,1.7-2.5V7.8C38,6.7,37.3,5.7,36.3,5.3
			z"/>
		
			<linearGradient id="Rectangle-Copy-173_1_" gradientUnits="userSpaceOnUse" x1="-642.1" y1="395.1303" x2="-642.1" y2="392.5639" gradientTransform="matrix(31.6667 0 0 -33.25 20352.166 13086)">
			<stop  offset="0" style="stop-color:#9AA6B5"/>
			<stop  offset="1" style="stop-color:#616D7E"/>
		</linearGradient>
		<path id="Rectangle-Copy-173" class="st2" d="M5.8,0h26.3c1.5,0,2.7,1.2,2.7,2.7v27.9c0,1.5-1.2,2.7-2.7,2.7H5.8
			c-1.5,0-2.7-1.2-2.7-2.7V2.7C3.2,1.2,4.4,0,5.8,0z"/>
		<path id="Rectangle-Copy-174" class="st3" d="M3.2,28.5h9.5l-1,7.2C11.4,37,10.3,38,9,38H5.8c-1.5,0-2.7-1.2-2.7-2.7V28.5z"/>
		<path id="Rectangle-Copy-175" class="st3" d="M34.8,28.5h-9.5l1,7.2C26.6,37,27.7,38,29,38h3.1c1.5,0,2.7-1.2,2.7-2.7V28.5z"/>
		<path id="Rectangle-Copy-176" class="st4" d="M3.2,20.6c5.3,0.8,10.6,1.3,15.8,1.3s10.6-0.4,15.8-1.3v10c0,1.5-1.2,2.7-2.7,2.7
			H5.8c-1.5,0-2.7-1.2-2.7-2.7V20.6z"/>
		<path id="Rectangle-Copy-177" class="st5" d="M6.3,25.3h4.2c0.9,0,1.6,0.7,1.6,1.6c0,0.2,0,0.3-0.1,0.5L11.4,29
			c-0.2,0.6-0.8,1.1-1.5,1.1H6.3c-0.9,0-1.6-0.7-1.6-1.6v-1.6C4.8,26,5.5,25.3,6.3,25.3z"/>
		<path id="Rectangle-Copy-178" class="st5" d="M27.5,25.3h4.2c0.9,0,1.6,0.7,1.6,1.6v1.6c0,0.9-0.7,1.6-1.6,1.6H28
			c-0.7,0-1.3-0.4-1.5-1.1L26,27.4c-0.3-0.8,0.2-1.7,1-2C27.2,25.4,27.3,25.3,27.5,25.3z"/>
		<path id="Rectangle-Copy-179" class="st6" d="M11.1,0h15.8l-0.8,2.8c-0.3,1.2-1.4,2-2.6,2h-9.1c-1.2,0-2.3-0.8-2.6-2L11.1,0z"/>
	</g>
</g>
</svg>
