<?xml version="1.0" encoding="utf-8"?>
<!-- Generator: Adobe Illustrator 22.0.0, SVG Export Plug-In . SVG Version: 6.00 Build 0)  -->
<svg version="1.1" id="Слой_1" xmlns="http://www.w3.org/2000/svg" xmlns:xlink="http://www.w3.org/1999/xlink" x="0px" y="0px"
	 viewBox="0 0 750 500" style="enable-background:new 0 0 750 500;" xml:space="preserve">
<style type="text/css">
	.st0{clip-path:url(#SVGID_2_);fill:url(#SVGID_3_);}
	.st1{fill:#404246;}
	.st2{fill:#BBEAFF;}
	.st3{fill:#C8F1FF;}
	.st4{fill:#DAFAFF;}
	.st5{fill:#ADDFFF;}
	.st6{fill:#00FBED;}
	.st7{fill:#ED2C51;}
	.st8{fill:#C71E44;}
	.st9{opacity:0.56;fill:#D9EDFF;enable-background:new    ;}
	.st10{fill:#BDDAFF;}
	.st11{fill:#A7C5FF;}
	.st12{fill:#D4E7FF;}
	.st13{fill:#A0C6F1;}
	.st14{fill:#1C3A42;}
	.st15{fill:#8EB2F1;}
	.st16{fill:#5421A0;}
	.st17{fill:#0CEFFF;}
	.st18{fill:#FFBD00;}
	.st19{fill:#FFC900;}
	.st20{fill:#FFF800;}
	.st21{opacity:8.000000e-02;}
	.st22{fill:#FFFFFF;}
	.st23{opacity:0.36;fill:#FFFFFF;enable-background:new    ;}
	.st24{fill:#CD6DFF;}
	.st25{fill:#833EDA;}
	.st26{fill:#001D4F;}
	.st27{fill:#001329;}
	.st28{fill:#002D71;}
	.st29{fill:#003373;}
	.st30{fill:#181F47;}
	.st31{fill:#FF897E;}
	.st32{fill:#FFD5B6;}
	.st33{fill:#FFC098;}
	.st34{fill:#331B89;}
	.st35{fill:#3D1980;}
	.st36{fill:#E087FF;}
	.st37{fill:#A951E1;}
	.st38{fill:#FFA500;}
	.st39{fill:#FF8400;}
	.st40{fill:url(#SVGID_4_);}
	.st41{opacity:0.2;fill:#007EFF;enable-background:new    ;}
	.st42{fill:#00BEFF;}
	.st43{fill:url(#SVGID_5_);}
	.st44{fill:#D3213A;}
	.st45{fill:#A11527;}
	.st46{fill:#A3CDFF;}
	.st47{fill:#321158;}
	.st48{fill:#00C3FF;}
	.st49{fill:#0092F6;}
	.st50{fill:#0077E0;}
	.st51{fill:#FFA28E;}
	.st52{fill:#E3E8FF;}
	.st53{fill:#F6FFFF;}
	.st54{fill:#FFA000;}
	.st55{fill:#00A1FF;}
	.st56{fill:#FFDBAE;}
	.st57{clip-path:url(#SVGID_7_);}
	.st58{clip-path:url(#SVGID_10_);}
	.st59{clip-path:url(#SVGID_11_);fill:#FFC900;}
	.st60{clip-path:url(#SVGID_7_);fill:#FFA400;}
	.st61{clip-path:url(#SVGID_7_);fill:#FFDA00;}
	.st62{clip-path:url(#SVGID_7_);fill:#5421A0;}
	.st63{clip-path:url(#SVGID_7_);fill:#FFF800;}
	.st64{clip-path:url(#SVGID_7_);fill:#0CEFFF;}
	.st65{fill:#FFB400;}
	.st66{fill:#FFB594;}
	.st67{opacity:0.66;fill:#D9EDFF;enable-background:new    ;}
	.st68{opacity:0.33;fill:#00317F;enable-background:new    ;}
	.st69{fill:#B45FFF;}
	.st70{fill:#CF1E38;}
	.st71{opacity:9.000000e-02;fill:#008DCA;enable-background:new    ;}
	.st72{fill:#FFCC00;}
	.st73{fill:#00EEEE;}
	.st74{fill:#E17AFF;}
	.st75{fill:#B85FE4;}
	.st76{fill:#F1F7FF;}
	.st77{fill:none;}
	.st78{fill:#7246E3;}
</style>
<g>
	<g>
		<g>
			<defs>
				<path id="SVGID_1_" d="M748.4,397.2h-585c-1.8,0-3.3-1.5-3.3-3.3V-3c0-1.8,1.5-3.3,3.3-3.3h585c1.8,0,3.3,1.5,3.3,3.3v396.8
					C751.7,395.7,750.2,397.2,748.4,397.2z"/>
			</defs>
			<clipPath id="SVGID_2_">
				<use xlink:href="#SVGID_1_"  style="overflow:visible;"/>
			</clipPath>
			
				<linearGradient id="SVGID_3_" gradientUnits="userSpaceOnUse" x1="2160.4568" y1="193.8251" x2="2685.5833" y2="112.938" gradientTransform="matrix(0.9359 -0.3522 -0.3522 -0.9359 -1524.7599 1163.6132)">
				<stop  offset="0" style="stop-color:#ED42C2"/>
				<stop  offset="8.256179e-02" style="stop-color:#D73DBC"/>
				<stop  offset="0.3226" style="stop-color:#9A30AD"/>
				<stop  offset="0.5429" style="stop-color:#6B26A0"/>
				<stop  offset="0.7362" style="stop-color:#491F97"/>
				<stop  offset="0.8952" style="stop-color:#341B92"/>
				<stop  offset="1" style="stop-color:#2C1990"/>
			</linearGradient>
			<path class="st0" d="M1021.8-8.6l-49-130.1l-61.7-85.7l-100.4-2.7l-198.1,47l-87.3,32.8L373-32.2c0,0-20.5,85.5,116.8,140.1
				c43.3,17.2,85.2,26.8,118.1,38.9c63.8,23.4,86.3,47.8,90.7,77.8c5.1,34.6-19.4,68.2-56.5,95.8c-2.3,2.5-4.9,4.8-7.3,7
				c-7.7,6.8-15.9,12.9-23.6,19.6c-5,4.4-10.7,9.3-14.5,15.1c-4,17.2,19.9,24.6,32.5,26.9c16.8,3.1,34.9,3,51.9,1.2
				c19.9-2.1,38.8-11.5,52-26.5s20-34.8,21.8-54.5c0.6-6.4,10.6-6.4,10,0c0,0.1,0,0.1,0,0.2c0.1-0.2,0.1-0.4,0.2-0.5
				c0.9-2.3,2.8-3.5,4.8-3.5c0.8-0.7,1.9-1.1,3.1-1.1c2.7-0.1,5,2.4,5,5c0,2.5-0.6,4.9-1.8,6.9c0.6,10.8-4.9,22.4-9.8,31.4
				c0.6,11.2-1.1,22.5-6.5,32.5c-2.6,4.9-6,9.1-9.8,12.8c2.3,1.2,3.7,4.1,2.2,7c-0.9,1.8-2,3.4-3.2,4.8c-0.1,0.3-0.2,0.7-0.3,1
				c-0.7,1.7-1.9,2.7-3.3,3.2c-2.4,2.3-5.5,4-8.8,5.3c-0.8,0.4-1.7,0.8-2.6,1.1c-6.1,6.7-14,11.4-22.9,14c-2.5,1.5-5.2,3.3-8,4.5
				c2.9,2.6,1.8,7.9-3.2,8.6c-23.1,3.1-46.4,3.3-69.7,2.6c-3.6,6.9-6.7,13.6-9,20c63.3,134.1,255.8,2.4,255.8,2.4l173-127.6
				l37.7-60.2l0.4-86.8L1021.8-8.6z"/>
		</g>
	</g>
	<g>
		<g>
			<path class="st1" d="M77.1,158.2v10h0.8l7-10h3.2l-7.7,10.3c3.4,0.5,4.7,2.8,5.7,5.8c0.8,2.3,1.3,4.4,2.2,6.4h-2.9
				c-0.7-1.5-1.3-3.5-1.9-5.3c-0.9-3-2.2-5-5.7-5h-0.9v10.3h-2.6v-22.5H77.1z"/>
			<path class="st1" d="M111.5,169.2c0,7.7-4.3,11.9-9.5,11.9c-5.4,0-9.2-4.6-9.2-11.4c0-7.1,4-11.8,9.5-11.8
				C107.9,157.8,111.5,162.5,111.5,169.2z M95.6,169.6c0,4.8,2.4,9.1,6.5,9.1c4.2,0,6.6-4.2,6.6-9.3c0-4.5-2.1-9.1-6.5-9.1
				C97.8,160.2,95.6,164.6,95.6,169.6z"/>
			<path class="st1" d="M118.5,158.5c1.3-0.2,2.9-0.4,5.1-0.4c2.6,0,4.5,0.7,5.7,1.9c1.1,1.1,1.8,2.7,1.8,4.7s-0.5,3.6-1.6,4.8
				c-1.4,1.6-3.7,2.5-6.3,2.5c-0.8,0-1.5,0-2.1-0.2v9h-2.6V158.5z M121.2,169.3c0.6,0.2,1.3,0.2,2.2,0.2c3.2,0,5.1-1.7,5.1-4.8
				c0-3-1.9-4.4-4.8-4.4c-1.2,0-2,0.1-2.5,0.2V169.3z"/>
			<path class="st1" d="M142.2,160.7H136v-2.5h15.1v2.5h-6.3v20h-2.7L142.2,160.7L142.2,160.7z"/>
			<path class="st1" d="M159.6,158.2v9.5c0,3.6-0.1,6.5-0.2,9.5h0.1c1-2.3,2.3-4.8,3.8-7.4l6.6-11.6h2.6v22.5H170v-9.6
				c0-3.6,0-6.3,0.2-9.1h-0.1c-1,2.5-2.4,5.1-3.8,7.6l-6.4,11.2h-2.8v-22.5L159.6,158.2L159.6,158.2z"/>
			<path class="st1" d="M208,170.8c-0.2-3.1-0.3-6.9-0.3-9.7h-0.1c-0.7,2.6-1.5,5.4-2.6,8.5l-3.6,10.9h-2l-3.3-10.7
				c-1-3.2-1.8-6.1-2.4-8.7h-0.1c-0.1,2.8-0.2,6.6-0.4,9.9l-0.5,9.6h-2.5l1.4-22.5h3.4l3.5,10.9c0.8,2.8,1.5,5.2,2.1,7.6h0.1
				c0.5-2.3,1.2-4.7,2.2-7.6l3.6-10.9h3.4l1.3,22.5h-2.6L208,170.8z"/>
			<path class="st1" d="M221.3,158.2v9.5c0,3.6-0.1,6.5-0.2,9.5h0.1c1-2.3,2.3-4.8,3.8-7.4l6.6-11.6h2.6v22.5h-2.5v-9.6
				c0-3.6,0-6.3,0.2-9.1h-0.1c-1,2.5-2.4,5.1-3.8,7.6l-6.4,11.2h-2.8v-22.5L221.3,158.2L221.3,158.2z"/>
			<path class="st1" d="M255.9,158.2v22.5h-2.7v-20.1h-6.8v6.8c0,4.9-0.2,10.3-3.1,12.5c-0.8,0.5-1.9,1.1-3.1,1.1l-0.3-2.3
				c0.8-0.2,1.7-0.7,2.2-1.2c1.6-1.8,1.8-6.1,1.8-9.7v-9.5h12V158.2z"/>
			<path class="st1" d="M277.7,158.2v22.5H275v-20.1h-6.8v6.8c0,4.9-0.2,10.3-3.1,12.5c-0.8,0.5-1.9,1.1-3.1,1.1l-0.3-2.3
				c0.8-0.2,1.7-0.7,2.2-1.2c1.6-1.8,1.8-6.1,1.8-9.7v-9.5h12V158.2z"/>
			<path class="st1" d="M288.4,158.2v9.5c0,3.6-0.1,6.5-0.2,9.5h0.1c1-2.3,2.3-4.8,3.8-7.4l6.6-11.6h2.6v22.5h-2.5v-9.6
				c0-3.6,0-6.3,0.2-9.1h-0.1c-1,2.5-2.4,5.1-3.8,7.6l-6.4,11.2h-2.8v-22.5L288.4,158.2L288.4,158.2z"/>
			<path class="st1" d="M307.9,184.8c0.7-2,1.5-5.5,1.8-8l3-0.3c-0.7,2.8-2,6.5-2.9,8.1L307.9,184.8z"/>
			<path class="st1" d="M346.9,170.8c-0.2-3.1-0.3-6.9-0.3-9.7h-0.1c-0.7,2.6-1.5,5.4-2.6,8.5l-3.6,10.9h-2l-3.3-10.7
				c-1-3.2-1.8-6.1-2.4-8.7h-0.1c-0.1,2.8-0.2,6.6-0.4,9.9l-0.5,9.6h-2.5l1.4-22.5h3.4l3.5,10.9c0.8,2.8,1.5,5.2,2.1,7.6h0.1
				c0.5-2.3,1.2-4.7,2.2-7.6l3.6-10.9h3.4l1.3,22.5h-2.6L346.9,170.8z"/>
			<path class="st1" d="M360.2,158.2v9.5c0,3.6-0.1,6.5-0.2,9.5h0.1c1-2.3,2.3-4.8,3.8-7.4l6.6-11.6h2.6v22.5h-2.5v-9.6
				c0-3.6,0-6.3,0.2-9.1h-0.1c-1,2.5-2.4,5.1-3.8,7.6l-6.4,11.2h-2.8v-22.5L360.2,158.2L360.2,158.2z"/>
			<path class="st1" d="M381.4,158.5c1.3-0.2,2.9-0.4,5.1-0.4c2.6,0,4.5,0.7,5.7,1.9c1.1,1.1,1.8,2.7,1.8,4.7s-0.5,3.6-1.6,4.8
				c-1.4,1.6-3.7,2.5-6.3,2.5c-0.8,0-1.5,0-2.1-0.2v9h-2.6V158.5z M384,169.3c0.6,0.2,1.3,0.2,2.2,0.2c3.2,0,5.1-1.7,5.1-4.8
				c0-3-1.9-4.4-4.8-4.4c-1.2,0-2,0.1-2.5,0.2L384,169.3L384,169.3z"/>
		</g>
	</g>
	<g>
		<g>
			<path class="st1" d="M81.1,148.1l-7.3-24.6h3.1l3.5,12.1c1,3.3,1.8,6.3,2.4,9.2h0.1c0.6-2.9,1.6-6,2.6-9.2l3.8-12.2h3.1l-8,24.6
				L81.1,148.1L81.1,148.1z"/>
			<path class="st1" d="M100.3,123.5v24.6h-2.9v-24.6C97.4,123.5,100.3,123.5,100.3,123.5z"/>
			<path class="st1" d="M107.6,144.2c1.3,0.9,3.2,1.6,5.2,1.6c3,0,4.7-1.7,4.7-4.2c0-2.3-1.2-3.6-4.2-4.9c-3.7-1.4-5.9-3.5-5.9-7
				c0-3.8,2.9-6.7,7.2-6.7c2.3,0,4,0.6,5,1.2l-0.8,2.6c-0.7-0.4-2.2-1.2-4.3-1.2c-3.1,0-4.2,2-4.2,3.7c0,2.3,1.4,3.4,4.5,4.8
				c3.8,1.6,5.7,3.6,5.7,7.2c0,3.8-2.6,7.1-7.8,7.1c-2.2,0-4.5-0.7-5.7-1.6L107.6,144.2z"/>
			<path class="st1" d="M130.6,140.4l-2.3,7.8h-3l7.6-24.6h3.5l7.6,24.6h-3l-2.4-7.8H130.6z M138,137.9l-2.2-7.1
				c-0.5-1.6-0.8-3.1-1.2-4.5h-0.1c-0.3,1.5-0.7,3-1.1,4.5l-2.2,7.1H138z"/>
			<path class="st1" d="M148,152.6c0.7-2.2,1.6-6.1,2-8.7l3.3-0.4c-0.8,3.1-2.2,7.2-3.2,8.9L148,152.6z"/>
			<path class="st1" d="M188.1,137.3c-0.2-3.4-0.4-7.6-0.3-10.6h-0.1c-0.8,2.9-1.7,6-2.8,9.4l-4,12h-2.2l-3.6-11.7
				c-1.1-3.5-2-6.7-2.6-9.6h-0.1c-0.1,3.1-0.2,7.2-0.4,10.9l-0.6,10.6h-2.8l1.6-24.6h3.7l3.8,11.9c0.9,3,1.7,5.7,2.3,8.3h0.1
				c0.6-2.5,1.4-5.2,2.4-8.3l4-11.9h3.7l1.4,24.6h-2.8L188.1,137.3z"/>
			<path class="st1" d="M201.9,140.4l-2.3,7.8h-3l7.6-24.6h3.5l7.6,24.6h-3.1l-2.4-7.8H201.9z M209.3,137.9l-2.2-7.1
				c-0.5-1.6-0.8-3.1-1.2-4.5h-0.1c-0.3,1.5-0.7,3-1.1,4.5l-2.2,7.1H209.3z"/>
			<path class="st1" d="M220.9,144.2c1.3,0.9,3.2,1.6,5.2,1.6c3,0,4.7-1.7,4.7-4.2c0-2.3-1.2-3.6-4.2-4.9c-3.7-1.4-5.9-3.5-5.9-7
				c0-3.8,2.9-6.7,7.2-6.7c2.3,0,4,0.6,5,1.2l-0.8,2.6c-0.7-0.4-2.2-1.2-4.3-1.2c-3.1,0-4.2,2-4.2,3.7c0,2.3,1.4,3.4,4.5,4.8
				c3.8,1.6,5.7,3.6,5.7,7.2c0,3.8-2.6,7.1-7.8,7.1c-2.2,0-4.5-0.7-5.7-1.6L220.9,144.2z"/>
			<path class="st1" d="M244.6,126.2h-6.8v-2.7h16.6v2.7h-6.8v21.9h-2.9v-21.9H244.6z"/>
			<path class="st1" d="M271.1,136.6h-8.7v8.9h9.7v2.7h-12.6v-24.6h12.1v2.7h-9.2v7.8h8.7V136.6z"/>
			<path class="st1" d="M278.5,123.8c1.5-0.3,3.6-0.5,5.6-0.5c3.1,0,5.1,0.6,6.5,2c1.1,1.1,1.8,2.8,1.8,4.7c0,3.3-1.9,5.4-4.2,6.3
				v0.1c1.7,0.7,2.8,2.4,3.3,5c0.7,3.4,1.3,5.8,1.7,6.8h-3c-0.4-0.7-0.9-2.8-1.5-5.9c-0.7-3.4-1.9-4.7-4.5-4.8h-2.7v10.7h-2.9
				L278.5,123.8L278.5,123.8z M281.4,135h3c3.1,0,5.1-1.9,5.1-4.7c0-3.2-2.1-4.6-5.2-4.6c-1.4,0-2.4,0.1-2.9,0.3V135z"/>
			<path class="st1" d="M314.8,147.3c-1.1,0.6-3.2,1.2-5.9,1.2c-6.3,0-11.1-4.4-11.1-12.5c0-7.7,4.8-12.9,11.7-12.9
				c2.8,0,4.6,0.7,5.3,1.1l-0.7,2.6c-1.1-0.6-2.7-1-4.5-1c-5.3,0-8.7,3.7-8.7,10.2c0,6,3.2,9.9,8.6,9.9c1.8,0,3.6-0.4,4.7-1
				L314.8,147.3z"/>
			<path class="st1" d="M324.9,140.4l-2.3,7.8h-3l7.6-24.6h3.5l7.6,24.6h-3.1l-2.4-7.8H324.9z M332.2,137.9l-2.2-7.1
				c-0.5-1.6-0.8-3.1-1.2-4.5h-0.1c-0.3,1.5-0.7,3-1.1,4.5l-2.2,7.1H332.2z"/>
			<path class="st1" d="M344.2,123.8c1.5-0.3,3.6-0.5,5.6-0.5c3.1,0,5.1,0.6,6.5,2c1.1,1.1,1.8,2.8,1.8,4.7c0,3.3-1.9,5.4-4.2,6.3
				v0.1c1.7,0.7,2.8,2.4,3.3,5c0.7,3.4,1.3,5.8,1.7,6.8h-3c-0.4-0.7-0.9-2.8-1.5-5.9c-0.7-3.4-1.9-4.7-4.5-4.8h-2.7v10.7h-2.9
				L344.2,123.8L344.2,123.8z M347.1,135h3c3.1,0,5.1-1.9,5.1-4.7c0-3.2-2.1-4.6-5.2-4.6c-1.4,0-2.4,0.1-2.9,0.3V135z"/>
			<path class="st1" d="M364.8,123.8c1.8-0.3,3.9-0.5,6.1-0.5c4.2,0,7.1,1.1,9.1,3.1c2,2,3.2,4.9,3.2,8.8c0,4-1.1,7.3-3.2,9.6
				s-5.6,3.5-9.9,3.5c-2.1,0-3.8-0.1-5.3-0.3L364.8,123.8L364.8,123.8z M367.7,145.6c0.7,0.1,1.8,0.2,2.9,0.2
				c6.2,0,9.5-3.8,9.5-10.5c0-5.8-3-9.5-9.1-9.5c-1.5,0-2.6,0.1-3.4,0.3v19.5H367.7z"/>
		</g>
	</g>
	<g>
		<g>
			<g>
				<g>
					<path class="st2" d="M476.7,326.1l-1.8,1.1c-1.6-1.4-4.9-2.4-8.7-2.4c-3.8,0-7.1,1-8.7,2.4l-1.8-1l0.9,5.8l0,0
						c0.6,2.1,4.6,3.8,9.6,3.8c4.9,0,9-1.7,9.6-3.8l0,0L476.7,326.1z"/>
					<path class="st3" d="M458.2,330.3v2.3c0,0,1.5,1.4,5.1,1.6v-2.3C463.3,331.9,460.3,331.7,458.2,330.3z"/>
					<path class="st3" d="M472.6,331l-0.2,2.5c1.4-0.5,2.1-1.3,2.1-1.3l0.3-2.3C474.1,330.4,473.3,330.8,472.6,331z"/>
					<path class="st4" d="M476.7,326.1c0,2.6-4.7,4.7-10.5,4.7s-10.5-2.1-10.5-4.7s4.7-4.7,10.5-4.7
						C472,321.5,476.7,323.6,476.7,326.1z"/>
					<path class="st5" d="M475.1,325.7c0,2.2-4,3.9-8.9,3.9s-8.9-1.8-8.9-3.9c0-2.2,4-3.9,8.9-3.9
						C471.1,321.7,475.1,323.5,475.1,325.7z"/>
				</g>
			</g>
			<path class="st6" d="M459.2,315.4c0,0-5.9-15-3.5-17.9c2.4-3,7.5,13.8,7.5,13.8s-1-13.6,1.5-14.1s3.3,6.5,3.3,6.5
				s2.5-6.8,4.6-6.5c2.1,0.2-1,11.3-1,11.3s1.6-3.5,3.5-3.9s-3,17-3,17l-6.1-0.8"/>
			<path class="st7" d="M459.2,326.1c0,0-4.5-2.4-4.1-4.7c0.4-2.3,4.6,0.8,4.6,0.8s-7.9-10.5,3.5-16.8c10.3-5.7,8.2,15.4,8.2,15.4
				s2.3-2.9,4.7-2.2c3,0.8-2.8,7.5-2.8,7.5S468.4,326.6,459.2,326.1z"/>
			<path class="st8" d="M461.5,327.5c0,0-4.1-2.5-2.9-3.8c1.2-1.4,3.5,1.1,3.5,1.1s-3.8-9.2-1.1-11.5c2.7-2.3,5.3,8.2,5.3,8.2
				s0.1-6.9,2.5-7s0.8,9.7,0.8,9.7s1.9-6.6,3.6-6.4s-1.4,7.8-1.4,7.8s0.8-1.5,1.9-1.3s-1.4,3.3-1.4,3.3S467.8,329.4,461.5,327.5z"/>
		</g>
		<g>
			<g>
				<g>
					<g>
						<g>
							<g>
								<path class="st9" d="M637.2,326.6c0,5.9-29.8,10.8-66.5,10.8c-36.8,0-66.5-4.8-66.5-10.8c0-5.9,29.8-10.8,66.5-10.8
									C607.4,315.9,637.2,320.7,637.2,326.6z"/>
								<path class="st10" d="M629.9,328.2H511.5c-3.8,0-6.9-3.1-6.9-6.9V105.7c0-3.8,3.1-6.9,6.9-6.9h118.4c3.8,0,6.9,3.1,6.9,6.9
									v215.6C636.8,325.1,633.7,328.2,629.9,328.2z"/>
								<path class="st11" d="M583,310.5h-24.6c-3.2,0-5.9,2.6-5.9,5.9c0,3.2,2.6,5.9,5.9,5.9H583c3.2,0,5.9-2.6,5.9-5.9
									C588.8,313.1,586.2,310.5,583,310.5z"/>
								<path class="st12" d="M583,321.5h-24.6c-2.8,0-5.1-2.3-5.1-5.1l0,0c0-2.8,2.3-5.1,5.1-5.1H583c2.8,0,5.1,2.3,5.1,5.1l0,0
									C588.1,319.2,585.8,321.5,583,321.5z"/>
								<path class="st13" d="M585.9,106.7c0,1.2-1,2.1-2.1,2.1h-26.2c-1.2,0-2.1-1-2.1-2.1l0,0c0-1.2,1-2.1,2.1-2.1h26.2
									C585,104.6,585.9,105.5,585.9,106.7L585.9,106.7z"/>
								<path class="st10" d="M557.7,106c-0.4,0-0.7,0.3-0.7,0.7c0,0.4,0.3,0.7,0.7,0.7s0.7-0.3,0.7-0.7S558.1,106,557.7,106z
									 M560,106c-0.4,0-0.7,0.3-0.7,0.7c0,0.4,0.3,0.7,0.7,0.7s0.7-0.3,0.7-0.7S560.4,106,560,106z M562.3,106
									c-0.4,0-0.7,0.3-0.7,0.7c0,0.4,0.3,0.7,0.7,0.7s0.7-0.3,0.7-0.7S562.7,106,562.3,106z M564.6,106c-0.4,0-0.7,0.3-0.7,0.7
									c0,0.4,0.3,0.7,0.7,0.7s0.7-0.3,0.7-0.7S565,106,564.6,106z M566.9,106c-0.4,0-0.7,0.3-0.7,0.7c0,0.4,0.3,0.7,0.7,0.7
									s0.7-0.3,0.7-0.7C567.6,106.3,567.3,106,566.9,106z M569.2,106c-0.4,0-0.7,0.3-0.7,0.7c0,0.4,0.3,0.7,0.7,0.7
									s0.7-0.3,0.7-0.7S569.6,106,569.2,106z M571.5,106c-0.4,0-0.7,0.3-0.7,0.7c0,0.4,0.3,0.7,0.7,0.7s0.7-0.3,0.7-0.7
									S571.9,106,571.5,106z M573.8,106c-0.4,0-0.7,0.3-0.7,0.7c0,0.4,0.3,0.7,0.7,0.7s0.7-0.3,0.7-0.7
									C574.6,106.3,574.2,106,573.8,106z M576.2,106c-0.4,0-0.7,0.3-0.7,0.7c0,0.4,0.3,0.7,0.7,0.7s0.7-0.3,0.7-0.7
									S576.5,106,576.2,106z M578.5,106c-0.4,0-0.7,0.3-0.7,0.7c0,0.4,0.3,0.7,0.7,0.7s0.7-0.3,0.7-0.7S578.9,106,578.5,106z
									 M580.8,106c-0.4,0-0.7,0.3-0.7,0.7c0,0.4,0.3,0.7,0.7,0.7s0.7-0.3,0.7-0.7S581.2,106,580.8,106z M583.1,106
									c-0.4,0-0.7,0.3-0.7,0.7c0,0.4,0.3,0.7,0.7,0.7s0.7-0.3,0.7-0.7S583.5,106,583.1,106z"/>
								<path class="st13" d="M599.7,107.1c0,1.8-1.4,3.2-3.2,3.2s-3.2-1.4-3.2-3.2c0-1.8,1.4-3.2,3.2-3.2S599.7,105.3,599.7,107.1z
									"/>
								<path class="st14" d="M597.7,107.1c0,0.6-0.5,1.1-1.1,1.1s-1.1-0.5-1.1-1.1s0.5-1.1,1.1-1.1
									C597.2,105.9,597.7,106.4,597.7,107.1z"/>
								<g>
									<path class="st15" d="M596.5,109.7c-1.5,0-2.6-1.2-2.6-2.6c0-1.5,1.2-2.6,2.6-2.6c1.5,0,2.6,1.2,2.6,2.6
										C599.2,108.5,598,109.7,596.5,109.7z M596.5,105.9c-0.6,0-1.1,0.5-1.1,1.1s0.5,1.1,1.1,1.1s1.1-0.5,1.1-1.1
										C597.7,106.4,597.2,105.9,596.5,105.9z"/>
								</g>
								<g>
									<g>
										<path class="st16" d="M596.5,108.8c-1,0-1.8-0.8-1.8-1.8s0.8-1.8,1.8-1.8s1.8,0.8,1.8,1.8S597.5,108.8,596.5,108.8z
											 M596.5,106.3c-0.4,0-0.8,0.3-0.8,0.8c0,0.4,0.3,0.8,0.8,0.8c0.4,0,0.8-0.3,0.8-0.8C597.3,106.7,597,106.3,596.5,106.3z"
											/>
									</g>
								</g>
							</g>
						</g>
						<rect x="504.6" y="112.6" class="st16" width="132.2" height="193.7"/>
						<g>
							<circle class="st17" cx="570.8" cy="174.8" r="34.1"/>
							<circle class="st18" cx="570.8" cy="174.8" r="29"/>
							
								<ellipse transform="matrix(0.9925 -0.1222 0.1222 0.9925 -17.0817 71.0624)" class="st19" cx="570.8" cy="174.8" rx="26.4" ry="26.4"/>
							<path class="st20" d="M580.1,176c-0.7-1.3-1.5-2.1-2.4-2.6c-1-0.5-2-0.9-3.2-1.3c-1.2-0.4-2.2-0.6-3.2-0.8s-1.8-0.5-2.4-1
								c-0.7-0.5-1-1.1-1-2c0-0.7,0.3-1.3,0.8-1.7s1.1-0.7,1.7-0.7c0.6,0,1.1,0.1,1.5,0.2c0.4,0.1,0.7,0.3,0.9,0.4
								c0.2,0.1,0.4,0.3,0.6,0.5c0.2,0.2,0.4,0.4,0.4,0.4c0.7,0.6,1.4,0.9,2,0.9c0.9,0,1.8-0.7,2.7-2.1c0.6-1.1,1-1.9,1-2.5
								c0-0.5-0.4-1.2-1.2-2l-0.2-0.2l-0.4-0.4c-0.3-0.2-0.8-0.6-1.6-1c-0.7-0.4-1.6-0.7-2.5-0.9v-3c0-0.9,0-1.6-0.1-2
								c-0.1-0.5-0.3-0.9-0.8-1.3c-0.4-0.4-1.1-0.6-2-0.6c-0.7,0-1.2,0.1-1.6,0.3c-0.4,0.2-0.7,0.5-0.9,0.9s-0.3,0.8-0.3,1.1
								s0,0.9,0,1.6v3c-2.2,0.5-3.9,1.6-5.1,3.3c-1.2,1.7-1.8,3.6-1.8,5.7c0,2.2,0.5,3.9,1.4,5.3c0.9,1.4,2,2.4,3.3,2.9
								c1.3,0.6,2.6,1,3.9,1.4c1.3,0.3,2.4,0.7,3.3,1.1c0.9,0.4,1.4,1,1.4,1.8c0,2.2-1.2,3.3-3.6,3.3c-1.3,0-2.4-0.7-3.4-2l-0.2-0.3
								c-1.1-1.2-2.1-1.9-2.9-1.9c-0.7,0-1.3,0.3-2,1c-1.1,1.2-1.6,2.2-1.6,3.1c0,0.5,0.3,1.3,1,2.2l0.6,0.9c0.4,0.6,1.2,1.2,2.2,2
								c1.1,0.7,2.3,1.3,3.6,1.6v3.3c0,0.7,0,1.2,0,1.6c0,0.3,0.1,0.7,0.3,1.2c0.2,0.4,0.4,0.8,0.8,0.9c0.4,0.2,0.9,0.3,1.6,0.3
								c0.7,0,1.2-0.1,1.6-0.3c0.4-0.2,0.7-0.5,0.9-0.9s0.3-0.8,0.3-1.2s0-0.9,0-1.5v-3.4c2.1-0.5,3.8-1.6,5.3-3.3s2.2-3.9,2.2-6.7
								C581.1,178.8,580.8,177.2,580.1,176z"/>
						</g>
						<g>
							
								<ellipse transform="matrix(0.8112 -0.5847 0.5847 0.8112 -23.0324 347.2483)" class="st17" cx="526.3" cy="209.3" rx="16.6" ry="16.6"/>
							
								<ellipse transform="matrix(0.9239 -0.3827 0.3827 0.9239 -40.0296 217.3516)" class="st18" cx="526.3" cy="209.3" rx="14.1" ry="14.1"/>
							<path class="st19" d="M539.2,209.3c0,7.1-5.8,12.9-12.9,12.9c-7.1,0-12.9-5.8-12.9-12.9c0-7.1,5.8-12.9,12.9-12.9
								C533.4,196.4,539.2,202.2,539.2,209.3z"/>
							<path class="st20" d="M530.8,209.9c-0.3-0.6-0.7-1-1.2-1.3c-0.5-0.2-1-0.5-1.6-0.6c-0.6-0.2-1.1-0.3-1.6-0.4
								c-0.5-0.1-0.9-0.2-1.2-0.5c-0.3-0.2-0.5-0.6-0.5-1c0-0.3,0.1-0.6,0.4-0.8c0.3-0.2,0.6-0.3,0.9-0.3c0.3,0,0.5,0,0.7,0.1
								s0.4,0.1,0.4,0.2c0.1,0.1,0.2,0.2,0.3,0.3s0.2,0.2,0.2,0.2c0.4,0.3,0.7,0.4,1,0.4c0.4,0,0.9-0.3,1.3-1
								c0.3-0.5,0.5-0.9,0.5-1.2c0-0.2-0.2-0.6-0.6-1l-0.1-0.1l-0.2-0.2c-0.1-0.1-0.4-0.3-0.8-0.5c-0.4-0.2-0.8-0.3-1.2-0.4v-1.5
								c0-0.4,0-0.8,0-1s-0.2-0.4-0.4-0.6c-0.2-0.2-0.5-0.3-1-0.3c-0.3,0-0.6,0-0.8,0.1s-0.3,0.2-0.4,0.4c-0.1,0.2-0.1,0.4-0.1,0.6
								c0,0.2,0,0.4,0,0.8v1.5c-1.1,0.2-1.9,0.8-2.5,1.6s-0.9,1.8-0.9,2.8c0,1.1,0.2,1.9,0.7,2.6c0.4,0.7,1,1.2,1.6,1.4
								c0.6,0.3,1.3,0.5,1.9,0.7c0.6,0.2,1.2,0.4,1.6,0.6c0.4,0.2,0.7,0.5,0.7,0.9c0,1.1-0.6,1.6-1.7,1.6c-0.6,0-1.2-0.3-1.7-1
								l-0.1-0.1c-0.6-0.6-1-0.9-1.4-0.9c-0.3,0-0.7,0.2-1,0.5c-0.5,0.6-0.8,1.1-0.8,1.5c0,0.3,0.2,0.6,0.5,1.1l0.3,0.4
								c0.2,0.3,0.6,0.6,1.1,1s1.1,0.6,1.7,0.8v1.6c0,0.3,0,0.6,0,0.8s0.1,0.4,0.1,0.6c0.1,0.2,0.2,0.4,0.4,0.5s0.5,0.1,0.8,0.1
								s0.6,0,0.8-0.1s0.3-0.2,0.4-0.4c0.1-0.2,0.1-0.4,0.2-0.6c0-0.2,0-0.4,0-0.8v-2c1-0.3,1.9-0.8,2.6-1.6
								c0.7-0.8,1.1-1.9,1.1-3.2C531.3,211.2,531.2,210.5,530.8,209.9z"/>
						</g>
						<g>
							<circle class="st17" cx="610.2" cy="217.2" r="12.8"/>
							<circle class="st18" cx="610.2" cy="217.2" r="10.9"/>
							<circle class="st19" cx="610.2" cy="217.2" r="9.9"/>
							<path class="st20" d="M613.7,217.6c-0.2-0.5-0.6-0.8-0.9-1c-0.4-0.2-0.8-0.4-1.2-0.5s-0.8-0.2-1.2-0.3s-0.7-0.2-0.9-0.4
								c-0.3-0.2-0.4-0.4-0.4-0.8c0-0.3,0.1-0.5,0.3-0.7s0.4-0.3,0.7-0.3c0.2,0,0.4,0,0.6,0.1c0.2,0,0.3,0.1,0.3,0.2
								c0.1,0.1,0.2,0.1,0.2,0.2c0.1,0.1,0.1,0.1,0.2,0.2c0.3,0.2,0.5,0.3,0.7,0.3c0.3,0,0.7-0.3,1-0.8c0.2-0.4,0.4-0.7,0.4-0.9
								s-0.2-0.4-0.5-0.7l-0.1-0.1l-0.2-0.2c-0.1-0.1-0.3-0.2-0.6-0.4c-0.3-0.1-0.6-0.3-0.9-0.3v-1.1c0-0.3,0-0.6,0-0.8
								s-0.1-0.3-0.3-0.5s-0.4-0.2-0.7-0.2s-0.5,0-0.6,0.1c-0.2,0.1-0.3,0.2-0.3,0.3c-0.1,0.2-0.1,0.3-0.1,0.4c0,0.1,0,0.3,0,0.6
								v1.1c-0.8,0.2-1.5,0.6-1.9,1.2c-0.5,0.6-0.7,1.4-0.7,2.1c0,0.8,0.2,1.5,0.5,2s0.8,0.9,1.2,1.1c0.5,0.2,1,0.4,1.5,0.5
								s0.9,0.3,1.2,0.4c0.3,0.2,0.5,0.4,0.5,0.7c0,0.8-0.5,1.2-1.4,1.2c-0.5,0-0.9-0.3-1.3-0.8l-0.1-0.1c-0.4-0.5-0.8-0.7-1.1-0.7
								s-0.5,0.1-0.7,0.4c-0.4,0.4-0.6,0.8-0.6,1.2c0,0.2,0.1,0.5,0.4,0.8l0.2,0.3c0.2,0.2,0.4,0.5,0.8,0.7c0.4,0.3,0.9,0.5,1.4,0.6
								v1.2c0,0.3,0,0.5,0,0.6s0,0.3,0.1,0.4c0.1,0.2,0.2,0.3,0.3,0.4c0.2,0.1,0.4,0.1,0.6,0.1c0.3,0,0.5,0,0.6-0.1
								c0.2-0.1,0.3-0.2,0.3-0.3c0.1-0.2,0.1-0.3,0.1-0.4c0-0.1,0-0.3,0-0.6v-1.3c0.8-0.2,1.4-0.6,2-1.2c0.5-0.6,0.8-1.5,0.8-2.5
								C614.1,218.7,614,218.1,613.7,217.6z"/>
						</g>
						<g>
							<path class="st17" d="M630.2,192.7c0,4.4-3.6,8-8,8s-8-3.6-8-8s3.6-8,8-8C626.6,184.7,630.2,188.2,630.2,192.7z"/>
							<path class="st18" d="M629,192.7c0,3.8-3.1,6.8-6.8,6.8c-3.8,0-6.8-3.1-6.8-6.8c0-3.8,3.1-6.8,6.8-6.8
								C625.9,185.8,629,188.9,629,192.7z"/>
							<path class="st19" d="M628.4,192.7c0,3.4-2.8,6.2-6.2,6.2s-6.2-2.8-6.2-6.2s2.8-6.2,6.2-6.2
								C625.6,186.5,628.4,189.2,628.4,192.7z"/>
							<path class="st20" d="M624.4,192.9c-0.2-0.3-0.3-0.5-0.6-0.6c-0.2-0.1-0.5-0.2-0.8-0.3s-0.5-0.2-0.8-0.2
								c-0.2,0-0.4-0.1-0.6-0.2c-0.2-0.1-0.2-0.3-0.2-0.5s0.1-0.3,0.2-0.4c0.1-0.1,0.3-0.2,0.4-0.2c0.1,0,0.3,0,0.4,0
								c0.1,0,0.2,0.1,0.2,0.1l0.1,0.1c0.1,0.1,0.1,0.1,0.1,0.1c0.2,0.1,0.3,0.2,0.5,0.2s0.4-0.2,0.6-0.5c0.2-0.3,0.2-0.4,0.2-0.6
								c0-0.1-0.1-0.3-0.3-0.5l0,0l-0.1-0.1c-0.1-0.1-0.2-0.1-0.4-0.2c-0.2-0.1-0.4-0.2-0.6-0.2v-0.7c0-0.2,0-0.4,0-0.5
								s-0.1-0.2-0.2-0.3c-0.1-0.1-0.3-0.1-0.5-0.1s-0.3,0-0.4,0.1c-0.1,0-0.2,0.1-0.2,0.2c0,0.1-0.1,0.2-0.1,0.3s0,0.2,0,0.4v0.7
								c-0.5,0.1-0.9,0.4-1.2,0.8c-0.3,0.4-0.4,0.8-0.4,1.3s0.1,0.9,0.3,1.3c0.2,0.3,0.5,0.6,0.8,0.7c0.3,0.1,0.6,0.2,0.9,0.3
								c0.3,0.1,0.6,0.2,0.8,0.3s0.3,0.2,0.3,0.4c0,0.5-0.3,0.8-0.8,0.8c-0.3,0-0.6-0.2-0.8-0.5l-0.1-0.1c-0.3-0.3-0.5-0.4-0.7-0.4
								s-0.3,0.1-0.5,0.2c-0.3,0.3-0.4,0.5-0.4,0.7c0,0.1,0.1,0.3,0.2,0.5l0.1,0.2c0.1,0.1,0.3,0.3,0.5,0.5c0.3,0.2,0.5,0.3,0.8,0.4
								v0.8c0,0.2,0,0.3,0,0.4c0,0.1,0,0.2,0.1,0.3c0,0.1,0.1,0.2,0.2,0.2c0.1,0,0.2,0.1,0.4,0.1s0.3,0,0.4-0.1
								c0.1,0,0.2-0.1,0.2-0.2c0-0.1,0.1-0.2,0.1-0.3s0-0.2,0-0.4v-0.8c0.5-0.1,0.9-0.4,1.2-0.8c0.3-0.4,0.5-0.9,0.5-1.6
								C624.6,193.6,624.5,193.2,624.4,192.9z"/>
						</g>
						<g class="st21">
							<polygon class="st22" points="636.8,154.8 504.6,287 504.6,306.3 512.6,306.3 636.8,182.1 							"/>
							<polygon class="st22" points="636.8,154.7 636.8,127.3 624.7,139.3 							"/>
							<polygon class="st22" points="636.8,211.1 636.8,200.4 530.8,306.3 541.5,306.3 							"/>
							<polygon class="st22" points="579.8,100.7 504.6,175.9 504.6,247.5 624.7,127.4 603.8,100.7 							"/>
						</g>
						<path class="st23" d="M596.9,106.3c0,0.6-0.5,1.1-1.1,1.1s-1.1-0.5-1.1-1.1s0.5-1.1,1.1-1.1
							C596.4,105.2,596.9,105.7,596.9,106.3z"/>
						<circle class="st23" cx="597.7" cy="106.3" r="0.5"/>
					</g>
					<g>
						<g>
							<g>
								<polygon class="st24" points="506.2,148.4 487.9,148.4 504.4,112.6 519,112.6 								"/>
								<polygon class="st25" points="524.5,148.4 506.2,148.4 519,112.6 533.7,112.6 								"/>
							</g>
							<g>
								<polygon class="st24" points="542.8,148.4 524.5,148.4 533.7,112.6 548.4,112.6 								"/>
								<polygon class="st25" points="561.1,148.4 542.8,148.4 548.4,112.6 563,112.6 								"/>
							</g>
							<g>
								<polygon class="st24" points="579.5,148.4 561.2,148.4 563.1,112.6 577.8,112.6 								"/>
								<polygon class="st25" points="597.7,148.4 579.5,148.4 577.8,112.6 592.4,112.6 								"/>
							</g>
							<g>
								<polygon class="st24" points="616.1,148.4 597.8,148.4 592.5,112.6 607.1,112.6 								"/>
								<polygon class="st25" points="634.4,148.4 616.1,148.4 607.1,112.6 621.8,112.6 								"/>
							</g>
							<path class="st26" d="M629.3,119.6l25.4,4.4l1.9,33.1l-3.1-0.8c0,0-9.1-18.6-4.4-27.9l-4.2-5.4L629.3,119.6z"/>
							<polygon class="st27" points="653.5,156.2 652.5,159.8 663.1,162.7 656.6,157.1 							"/>
							<g>
								<polygon class="st24" points="652.7,148.4 634.5,148.4 621.8,112.6 636.5,112.6 								"/>
							</g>
						</g>
						<g>
							<g>
								<path class="st25" d="M506.2,148.4h-18.3v19.1c0,5,4.1,9.1,9.1,9.1l0,0c5,0,9.1-4.1,9.1-9.1L506.2,148.4L506.2,148.4z"/>
								<path class="st24" d="M524.5,148.4h-18.3v19.1c0,5,4.1,9.1,9.1,9.1l0,0c5,0,9.1-4.1,9.1-9.1v-19.1H524.5z"/>
							</g>
							<g>
								<path class="st25" d="M542.8,148.4h-18.3v19.1c0,5,4.1,9.1,9.1,9.1l0,0c5,0,9.1-4.1,9.1-9.1v-19.1H542.8z"/>
								<path class="st24" d="M561.1,148.4h-18.3v19.1c0,5,4.1,9.1,9.1,9.1l0,0c5,0,9.1-4.1,9.1-9.1v-19.1H561.1z"/>
							</g>
							<g>
								<path class="st25" d="M579.5,148.4h-18.3v19.1c0,5,4.1,9.1,9.1,9.1l0,0c5,0,9.1-4.1,9.1-9.1v-19.1H579.5z"/>
								<path class="st24" d="M597.7,148.4h-18.3v19.1c0,5,4.1,9.1,9.1,9.1l0,0c5,0,9.1-4.1,9.1-9.1v-19.1H597.7z"/>
							</g>
							<g>
								<path class="st25" d="M616.1,148.4h-18.3v22.1c0,3.4,2.8,6.2,6.2,6.2h6c3.4,0,6.2-2.8,6.2-6.2v-22.1H616.1z"/>
								<path class="st24" d="M634.4,148.4h-18.3v19.1c0,5,4.1,9.1,9.1,9.1l0,0c5,0,9.1-4.1,9.1-9.1v-19.1H634.4z"/>
							</g>
							<g>
								<path class="st25" d="M652.7,148.4h-18.3v22.1c0,3.4,2.8,6.2,6.2,6.2h6c3.4,0,6.2-2.8,6.2-6.2v-22.1H652.7z"/>
							</g>
						</g>
					</g>
				</g>
			</g>
		</g>
		<g>
			<g>
				<g>
					<g>
						<polygon class="st27" points="491.3,360.2 491.3,362.7 480.8,362.7 487.9,360.2 						"/>
						<g>
							<polygon class="st27" points="527.8,351.2 530.7,354.6 521.2,363.1 525.8,353.1 							"/>
							<path class="st26" d="M514.6,299.4c0,0-4,3.1-10.4,16c-4.3,8.6-11,17.2-11,17.2s6,4.6-2.1,27.9h-3.8l-0.4-29.8l6.8-28.4
								L514.6,299.4z"/>
							<path class="st28" d="M525.8,353.1l-21.7-14.6l-5-31l-5.5-5.2l22.9,0.1l-3.2,29.7c0,0,10.6,4.7,14.5,19.1L525.8,353.1z"/>
							<path class="st29" d="M516.6,302.4c-0.1-0.1-2.2-2.8-2.3-2.9l-20.6,2.8c0,0,8,6.4,22.6,3.5
								C516.3,303.5,516.3,303.5,516.6,302.4z"/>
						</g>
						<path class="st30" d="M508.4,245.5c0-4.6-5.7-6.4-8.7-5.5c-0.2,0.6,0.1,2.8-0.2,3.4c-0.6,1.8-1.6,3.4-3.1,4.8
							c-0.1,0.1-0.2,0.2-0.3,0.3l4.5,6.3l3.5,2.9l2.4-1.3c0.3-0.2,0.5-0.4,0.7-0.6C512.3,250.6,508.4,245.5,508.4,245.5z"/>
						<path class="st30" d="M500.9,248.2h-5c0,0-5.9-1.6-2.9-7.8l0.6,2.1c0,0-0.4-3.2,2.7-4v2.8c0,0,0.3-3.1,4.1-3.4l0.3,2l4.3,6.1
							L500.9,248.2z"/>
						<path class="st31" d="M495.4,249.5c0,0-1.6,1.4-1.9,5.1h3.3L495.4,249.5z"/>
						<polyline class="st22" points="494.8,255.1 495.1,257.6 498.5,256.9 499.1,255.1 498.5,253.8 						"/>
						<path class="st32" d="M504.8,254.8v1.5c0,0-1.4-0.9-1.8-2.9c0,0,2.5-0.5,2.1-2.4c-0.4-1.5-2.3-1-2.9,0.3v1.8c0,0-1,0-1.2-3.4
							l-1.2-1.5h-4c0,0-1.5,3.4-1.1,7h2.7c0,0,0,2-2.3,2.4c0.2,0.8,0.3,1.2,0.7,2h4v2.9l2.3,1l2,0.6l1.7-0.8l0.6-2.2v-4.9
							C506.5,256.3,505.5,256.3,504.8,254.8z"/>
						<g>
							<path class="st32" d="M496.2,268.2c0,0-16.1,14.8-30.9,14l1,4.2c0,0,20.3,1.8,37.3-14.3C503.6,272.2,502.7,268.7,496.2,268.2
								z"/>
							<polygon class="st33" points="489.2,273.6 491.6,280.7 493.4,279.9 							"/>
							<path class="st34" d="M493.7,281c2-1.2,4-2.4,8.4-5.7l-1.2-6.7c-1.4-1.3-0.2-4.1-2.7-4.3c0,0-4.9,5.3-9.7,8.3L493.7,281z"/>
							<path class="st35" d="M501.6,275.6l-7-6.8l0.5,11.4C497.3,278.9,499.4,277.4,501.6,275.6z"/>
							<path class="st32" d="M465.2,282.2l-5.1-0.8l-9,4.6c0,0,0.5,2.1,6.8-1.3l0.6,2.1l3.3,1.4l3.4-2.1l1.2,0.2L465.2,282.2z"/>
						</g>
						<path class="st24" d="M516.6,302.4c0,0-6.5,5-22.9-0.1c0,0,0.2-20,0.8-29.9c0.2-2.7,3.4-9.6,6.1-9.6h7.6c2.2,0,3.2,1.1,4,2
							l1.1,1.1l2.6,32.4L516.6,302.4z"/>
						<rect x="495" y="272.3" class="st16" width="4.7" height="1.6"/>
						<polygon class="st36" points="500.9,267.6 501.3,263 503,263 502.5,267.6 						"/>
						<path class="st34" d="M502.1,263l-3.6,2.8c0,0-0.4-2,1.3-3.9C499.8,262,500.5,263,502.1,263z"/>
						<path class="st34" d="M502.1,263c0,0,2.8,0.2,4.3-1.8c0,0,1.2,0.4,1.9,1.8c0,0-0.7,2.5-2.9,3.3L502.1,263z"/>
					</g>
					<g>
						<g>
							<path class="st24" d="M430.4,327.7l-39.7-9.8l14.1-57c0.2-1,1.2-1.6,2.2-1.3l36.2,9c1,0.2,1.6,1.2,1.3,2.2L430.4,327.7z"/>
							<g>
								<g>
									<path class="st37" d="M419.1,267.8c-0.2,0.8-1,1.3-1.8,1.1c-0.8-0.2-1.3-1-1.1-1.8c0.2-0.8,1-1.3,1.8-1.1
										C418.8,266.2,419.3,267,419.1,267.8z"/>
									<path class="st24" d="M418.5,267.7c-0.1,0.5-0.7,0.8-1.2,0.7c-0.5-0.1-0.8-0.7-0.7-1.2c0.1-0.5,0.7-0.8,1.2-0.7
										C418.3,266.7,418.7,267.2,418.5,267.7z"/>
								</g>
								<g>
									<path class="st37" d="M431.5,270.9c-0.2,0.8-1,1.3-1.8,1.1c-0.8-0.2-1.3-1-1.1-1.8c0.2-0.8,1-1.3,1.8-1.1
										C431.2,269.3,431.7,270.1,431.5,270.9z"/>
									<path class="st24" d="M431,270.8c-0.1,0.5-0.7,0.8-1.2,0.7s-0.8-0.7-0.7-1.2s0.7-0.8,1.2-0.7
										C430.8,269.8,431.1,270.3,431,270.8z"/>
								</g>
							</g>
							<g>
								<path class="st16" d="M429.9,271.2c-0.3-0.1-0.5-0.4-0.5-0.8l1.3-5.4c0.8-3.1-1.1-6.3-4.2-7c-3.1-0.8-6.3,1.1-7,4.2
									l-1.3,5.4c-0.1,0.3-0.4,0.5-0.8,0.5c-0.3-0.1-0.5-0.4-0.5-0.8l1.3-5.4c0.9-3.8,4.8-6.1,8.5-5.1c3.8,0.9,6.1,4.8,5.1,8.5
									l-1.3,5.4C430.6,271,430.2,271.2,429.9,271.2z"/>
							</g>
						</g>
						<g>
							<path class="st18" d="M409,337.8h-40.9V279c0-1,0.8-1.8,1.8-1.8h37.3c1,0,1.8,0.8,1.8,1.8L409,337.8L409,337.8z"/>
							<path class="st38" d="M409,336.2h-14.8v-9.5H409v-2.2h-14.8V314H409v-2h-14.8v-9.9h14.7v-4.2L368,298v4.2h6.4l2.1,9.9h-8.6
								v2.1h9l2.2,10.4h-11.3v13.1H409V336.2z M370,336.3l-1.8-9.5h11.7l2,9.5H370z M392.1,336.2H384l-2-9.5h10.2L392.1,336.2z
								 M392.2,324.6h-10.7l-2.3-10.4h13V324.6z M392.2,312h-13.4l-2.1-9.9h15.6L392.2,312z"/>
							<g>
								<g>
									<path class="st39" d="M383.6,282.4c0,0.8-0.7,1.5-1.5,1.5s-1.5-0.7-1.5-1.5s0.7-1.5,1.5-1.5
										C383,280.9,383.6,281.5,383.6,282.4z"/>
									<path class="st18" d="M383.1,282.4c0,0.5-0.4,1-1,1c-0.5,0-1-0.4-1-1c0-0.5,0.4-1,1-1S383.1,281.8,383.1,282.4z"/>
								</g>
								<g>
									<path class="st39" d="M396.5,282.4c0,0.8-0.7,1.5-1.5,1.5s-1.5-0.7-1.5-1.5s0.7-1.5,1.5-1.5S396.5,281.5,396.5,282.4z"/>
									<path class="st18" d="M395.9,282.4c0,0.5-0.4,1-1,1c-0.5,0-1-0.4-1-1c0-0.5,0.4-1,1-1S395.9,281.8,395.9,282.4z"/>
								</g>
							</g>
							<g>
								<path class="st16" d="M395,283c-0.3,0-0.6-0.3-0.6-0.6v-5.6c0-3.2-2.6-5.8-5.8-5.8s-5.8,2.6-5.8,5.8v5.6
									c0,0.3-0.3,0.6-0.6,0.6s-0.6-0.3-0.6-0.6v-5.6c0-3.9,3.2-7,7-7c3.9,0,7,3.2,7,7v5.6C395.6,282.7,395.3,283,395,283z"/>
							</g>
						</g>
						<g>
							
								<linearGradient id="SVGID_4_" gradientUnits="userSpaceOnUse" x1="420.25" y1="163.8" x2="420.25" y2="214.5" gradientTransform="matrix(1 0 0 -1 0 502)">
								<stop  offset="0" style="stop-color:#00F0AF"/>
								<stop  offset="0.2224" style="stop-color:#00EBB5;stop-opacity:0.8215"/>
								<stop  offset="0.5324" style="stop-color:#00DDC8;stop-opacity:0.5726"/>
								<stop  offset="0.8925" style="stop-color:#00C7E5;stop-opacity:0.2836"/>
								<stop  offset="0.9967" style="stop-color:#00BFEF;stop-opacity:0.2"/>
							</linearGradient>
							<rect x="403.1" y="287.5" class="st40" width="34.3" height="50.7"/>
							<rect x="403.1" y="287.5" class="st17" width="34.3" height="50.7"/>
							<g>
								<ellipse class="st18" cx="417.8" cy="315.6" rx="21.8" ry="21.8"/>
								<ellipse class="st19" cx="417.8" cy="315.6" rx="19.8" ry="19.8"/>
								<path class="st20" d="M424.8,316.5c-0.5-0.9-1.1-1.6-1.8-2c-0.7-0.4-1.5-0.7-2.4-1s-1.7-0.5-2.4-0.6
									c-0.7-0.1-1.3-0.4-1.8-0.7c-0.5-0.4-0.7-0.9-0.7-1.5c0-0.5,0.2-1,0.6-1.3s0.8-0.5,1.3-0.5c0.4,0,0.8,0,1.1,0.1
									c0.3,0.1,0.5,0.2,0.7,0.3c0.1,0.1,0.3,0.2,0.5,0.4c0.2,0.2,0.3,0.3,0.3,0.3c0.6,0.4,1.1,0.6,1.5,0.6c0.7,0,1.3-0.5,2-1.6
									c0.5-0.8,0.7-1.4,0.7-1.8s-0.3-0.9-0.9-1.5l-0.1-0.1l-0.3-0.3c-0.2-0.2-0.6-0.4-1.2-0.7c-0.6-0.3-1.2-0.5-1.9-0.7v-2.2
									c0-0.7,0-1.2-0.1-1.5c0-0.3-0.2-0.7-0.6-1c-0.3-0.3-0.8-0.5-1.5-0.5c-0.5,0-0.9,0.1-1.2,0.2c-0.3,0.1-0.5,0.4-0.7,0.7
									c-0.1,0.3-0.2,0.6-0.2,0.9s0,0.6,0,1.2v2.2c-1.6,0.4-2.9,1.2-3.8,2.5s-1.4,2.7-1.4,4.3c0,1.6,0.3,3,1,4s1.5,1.8,2.5,2.2
									c1,0.4,1.9,0.8,2.9,1c1,0.3,1.8,0.5,2.5,0.9c0.7,0.3,1,0.8,1,1.4c0,1.6-0.9,2.4-2.7,2.4c-0.9,0-1.8-0.5-2.5-1.5l-0.2-0.2
									c-0.8-0.9-1.6-1.4-2.1-1.4s-1,0.3-1.5,0.8c-0.8,0.9-1.2,1.7-1.2,2.3c0,0.4,0.3,1,0.8,1.7l0.5,0.7c0.3,0.4,0.9,0.9,1.7,1.5
									c0.8,0.6,1.7,1,2.7,1.2v2.5c0,0.5,0,0.9,0,1.2c0,0.3,0.1,0.5,0.2,0.9c0.1,0.3,0.3,0.6,0.6,0.7c0.3,0.1,0.7,0.2,1.2,0.2
									s0.9-0.1,1.2-0.2c0.3-0.1,0.5-0.4,0.7-0.7c0.1-0.3,0.2-0.6,0.2-0.9s0-0.7,0-1.2v-2.6c1.6-0.4,2.9-1.2,4-2.5s1.6-2.9,1.6-5
									C425.5,318.7,425.3,317.5,424.8,316.5z"/>
							</g>
							<path class="st41" d="M403.1,302h7v9.9h-7v2.1h7v10.5H403v2.2h7.1v9.5H403v2h34.3v-18.5l-1.2,4.8H425l2.2-10.5h10v-2.1h-9.6
								l2.1-10h7.4v-4.2l-34.3,0.1v4.2H403.1z M420.5,336.2h-8.1l-0.1-9.5h10.2L420.5,336.2z M435.6,326.7l-2.4,9.5h-10.6l2-9.5
								H435.6z M423,324.5h-10.7l-0.1-10.5h13L423,324.5z M427.9,302l-2.1,10h-13.5l-0.1-9.9L427.9,302z"/>
							<g>
								<g>
									<path class="st42" d="M416.2,291.8c0,0.7-0.6,1.3-1.3,1.3c-0.7,0-1.3-0.6-1.3-1.3c0-0.7,0.6-1.3,1.3-1.3
										C415.6,290.6,416.2,291.1,416.2,291.8z"/>
									<path class="st17" d="M415.7,291.8c0,0.4-0.4,0.8-0.8,0.8s-0.8-0.4-0.8-0.8s0.4-0.8,0.8-0.8
										C415.3,291,415.7,291.4,415.7,291.8z"/>
								</g>
								<g>
									<path class="st42" d="M426.9,291.8c0,0.7-0.6,1.3-1.3,1.3c-0.7,0-1.3-0.6-1.3-1.3c0-0.7,0.6-1.3,1.3-1.3
										C426.4,290.6,426.9,291.1,426.9,291.8z"/>
									<path class="st17" d="M426.5,291.8c0,0.4-0.4,0.8-0.8,0.8s-0.8-0.4-0.8-0.8s0.4-0.8,0.8-0.8S426.5,291.4,426.5,291.8z"/>
								</g>
							</g>
							<g>
								<path class="st16" d="M425.7,292.4c-0.3,0-0.5-0.2-0.5-0.5v-4.6c0-2.7-2.2-4.9-4.9-4.9c-2.7,0-4.9,2.2-4.9,4.9v4.6
									c0,0.3-0.2,0.5-0.5,0.5s-0.5-0.2-0.5-0.5v-4.6c0-3.3,2.6-5.9,5.9-5.9s5.9,2.6,5.9,5.9v4.6
									C426.2,292.1,425.9,292.4,425.7,292.4z"/>
							</g>
						</g>
						<g>
							
								<linearGradient id="SVGID_5_" gradientUnits="userSpaceOnUse" x1="394.05" y1="168" x2="394.05" y2="209.3" gradientTransform="matrix(1 0 0 -1 0 502)">
								<stop  offset="0" style="stop-color:#00F0AF"/>
								<stop  offset="0.2224" style="stop-color:#00EBB5;stop-opacity:0.8215"/>
								<stop  offset="0.5324" style="stop-color:#00DDC8;stop-opacity:0.5726"/>
								<stop  offset="0.8925" style="stop-color:#00C7E5;stop-opacity:0.2836"/>
								<stop  offset="0.9967" style="stop-color:#00BFEF;stop-opacity:0.2"/>
							</linearGradient>
							<rect x="380.1" y="292.7" class="st43" width="27.9" height="41.3"/>
							<rect x="380.1" y="292.7" class="st7" width="27.9" height="46.6"/>
							<rect x="380.1" y="292.7" class="st7" width="27.9" height="46.6"/>
							<rect x="380.1" y="292.7" class="st7" width="27.9" height="46.6"/>
							<path class="st44" d="M408,302v-4.2l-27.9,0.1v4.2h12.2v9.9h-12.2v2.1h12.1v10.5h-10.7l-1.4-6.6v9.8l1.8,8.4h-1.8v1.5H408
								v-1.5h-13.8v-9.5H408v-2.2h-13.8V314h13.7v-2h-13.7v-9.9L408,302z M392.1,336.2H384l-2-9.5h10.2L392.1,336.2z"/>
							<g>
								<g>
									<path class="st45" d="M390.7,296.2c0,0.6-0.5,1-1,1c-0.6,0-1-0.5-1-1c0-0.6,0.5-1,1-1S390.7,295.7,390.7,296.2z"/>
									<path class="st7" d="M390.3,296.2c0,0.4-0.3,0.7-0.7,0.7c-0.4,0-0.7-0.3-0.7-0.7c0-0.4,0.3-0.7,0.7-0.7
										C390,295.6,390.3,295.9,390.3,296.2z"/>
								</g>
								<g>
									<path class="st45" d="M399.4,296.2c0,0.6-0.5,1-1,1c-0.6,0-1-0.5-1-1c0-0.6,0.5-1,1-1C399,295.2,399.4,295.7,399.4,296.2z"
										/>
									<path class="st7" d="M399,296.2c0,0.4-0.3,0.7-0.7,0.7c-0.4,0-0.7-0.3-0.7-0.7c0-0.4,0.3-0.7,0.7-0.7
										C398.8,295.6,399,295.9,399,296.2z"/>
								</g>
							</g>
							<g>
								<path class="st16" d="M398.4,296.7c-0.2,0-0.4-0.2-0.4-0.4v-3.8c0-2.2-1.8-4-4-4s-4,1.8-4,4v3.8c0,0.2-0.2,0.4-0.4,0.4
									c-0.2,0-0.4-0.2-0.4-0.4v-3.8c0-2.6,2.2-4.8,4.8-4.8c2.6,0,4.8,2.2,4.8,4.8v3.8C398.8,296.5,398.6,296.7,398.4,296.7z"/>
							</g>
						</g>
						<g>
							<path class="st46" d="M459.3,284.9h-1.4h-3h-4c-0.9,0-1.7,0.6-2,1.4l-4.4,13.3h-84.7c-0.6,0-1.2,0.3-1.6,0.8
								s-0.6,1.1-0.4,1.8l8.3,37.6c0.2,1,1.1,1.6,2,1.6h70.8c2.8,0,5,2.3,5,5s-2.3,5-5,5h-54.4c-1.2,0-2.1,0.9-2.1,2.1
								s0.9,2.1,2.1,2.1h54.4c5.1,0,9.2-4.1,9.2-9.2s-4.1-9.2-9.2-9.2H438l10-34.9l4.4-13.2h3.7l0,0h3.3c1.1,0,2.1-0.9,2.1-2.1
								C461.4,285.8,460.4,284.9,459.3,284.9z M412.6,303.8h16.1l-2.3,9.8h-13.8L412.6,303.8L412.6,303.8z M412.6,315.7h13.3
								l-2.4,10.2h-10.9V315.7z M362.4,303.8h11.5l2.3,9.8h-11.7L362.4,303.8z M365,315.7h11.7l2.4,10.2h-11.9L365,315.7z
								 M369.7,337.2l-2-9.2h11.9l2.2,9.2H369.7z M392.1,337.2h-8.2l-2.2-9.2h10.4L392.1,337.2L392.1,337.2z M392.1,325.9h-10.9
								l-2.4-10.2h13.3V325.9z M392.1,313.6h-13.8l-2.3-9.8h16.1L392.1,313.6L392.1,313.6z M410.5,337.2h-16.3V328h16.3V337.2z
								 M410.5,325.9h-16.3v-10.2h16.3V325.9z M410.5,313.6h-16.3v-9.8h16.3V313.6z M412.6,337.2V328H423l-2.2,9.2H412.6z
								 M433.6,337.2H423l2.2-9.2h11.1L433.6,337.2z M436.8,325.9h-11.2l2.4-10.2h11.7L436.8,325.9z M440.3,313.6h-11.8l2.3-9.8
								h12.3L440.3,313.6z"/>
							<g>
								<path class="st16" d="M401.3,355.6c0,3.9-3.2,7.1-7.1,7.1s-7.1-3.2-7.1-7.1s3.2-7.1,7.1-7.1S401.3,351.7,401.3,355.6z"/>
								<path class="st47" d="M398.4,355.6c0,2.3-1.9,4.2-4.2,4.2c-2.3,0-4.2-1.9-4.2-4.2c0-2.3,1.9-4.2,4.2-4.2
									C396.6,351.4,398.4,353.3,398.4,355.6z"/>
								<path class="st18" d="M395.8,355.6c0,0.9-0.7,1.6-1.6,1.6s-1.6-0.7-1.6-1.6s0.7-1.6,1.6-1.6
									C395.1,354,395.8,354.7,395.8,355.6z"/>
							</g>
							<g>
								<path class="st16" d="M434.4,355.6c0,3.9-3.2,7.1-7.1,7.1s-7.1-3.2-7.1-7.1s3.2-7.1,7.1-7.1
									C431.3,348.5,434.4,351.7,434.4,355.6z"/>
								<path class="st47" d="M431.5,355.6c0,2.3-1.9,4.2-4.2,4.2c-2.3,0-4.2-1.9-4.2-4.2c0-2.3,1.9-4.2,4.2-4.2
									C429.7,351.4,431.5,353.3,431.5,355.6z"/>
								<path class="st18" d="M428.9,355.6c0,0.9-0.7,1.6-1.6,1.6s-1.6-0.7-1.6-1.6s0.7-1.6,1.6-1.6
									C428.2,354,428.9,354.7,428.9,355.6z"/>
							</g>
						</g>
					</g>
				</g>
				<g>
					<path class="st32" d="M510.7,264.3c-2.6-0.3-5.9,3-2.4,11c4.1,9.6,3.7,19.1-4.9,31.3l1.3,2.8c0,0,15.7-9.7,13-34.2
						C516.9,268.1,515,264.8,510.7,264.3z"/>
					<polygon class="st33" points="509.1,277.6 517.9,279.2 517.9,277.4 					"/>
					<path class="st34" d="M518.9,277.6h-10.7c-0.3-0.7-1.4-2.5-1.7-3.3c-3.4-8,1.7-10.7,4.3-10.4c4.3,0.4,7.1,4.5,7.9,11.6
						C518.8,276.2,518.9,276.9,518.9,277.6z"/>
				</g>
				<g>
					<path class="st17" d="M515.8,341.7h-25.9c-2.3,0-4.2-1.9-4.2-4.2v-21.2H520v21.2C519.9,339.8,518.1,341.7,515.8,341.7z"/>
					<g>
						<g>
							<path class="st42" d="M498.7,320.7c0,0.7-0.6,1.3-1.3,1.3s-1.3-0.6-1.3-1.3c0-0.7,0.6-1.3,1.3-1.3S498.7,320,498.7,320.7z"/>
							<path class="st17" d="M498.2,320.7c0,0.4-0.4,0.8-0.8,0.8s-0.8-0.4-0.8-0.8s0.4-0.8,0.8-0.8
								C497.9,319.9,498.2,320.2,498.2,320.7z"/>
						</g>
						<g>
							<path class="st42" d="M509.5,320.7c0,0.7-0.6,1.3-1.3,1.3c-0.7,0-1.3-0.6-1.3-1.3c0-0.7,0.6-1.3,1.3-1.3
								C508.9,319.4,509.5,320,509.5,320.7z"/>
							<path class="st17" d="M509,320.7c0,0.4-0.4,0.8-0.8,0.8s-0.8-0.4-0.8-0.8s0.4-0.8,0.8-0.8C508.6,319.9,509,320.2,509,320.7z"
								/>
						</g>
					</g>
					<g>
						<path class="st24" d="M508.2,321.2c-0.3,0-0.5-0.2-0.5-0.5V316c0-2.7-2.2-4.9-4.9-4.9c-2.7,0-4.9,2.2-4.9,4.9v4.6
							c0,0.3-0.2,0.5-0.5,0.5s-0.5-0.2-0.5-0.5V316c0-3.3,2.6-5.9,5.9-5.9s5.9,2.6,5.9,5.9v4.6C508.7,321,508.5,321.2,508.2,321.2z"
							/>
					</g>
				</g>
				<path class="st32" d="M503.6,306.2c0,0-3.1,1.9-3.6,3.7c-0.5,1.8,0.6,3.2,0.6,3.2h1.1l0.7-0.8l3.9,0.1l-1-1l-0.1-1l0.7,0.3
					l0.4-2.8L503.6,306.2z"/>
			</g>
			<path class="st9" d="M525.8,362.7c0,0.5-1.8,1-4,1s-4-0.4-4-1c0-0.5,1.8-1,4-1C524,361.8,525.8,362.2,525.8,362.7z"/>
			<path class="st9" d="M499.3,362.7c0,1.4-4.8,2.5-10.7,2.5c-5.9,0-10.7-1.1-10.7-2.5s4.8-2.5,10.7-2.5S499.3,361.3,499.3,362.7z"
				/>
			<path class="st9" d="M438.6,361.5c0,2.1-12.6,3.8-28.1,3.8s-28.1-1.7-28.1-3.8c0-2.1,12.6-3.8,28.1-3.8S438.6,359.4,438.6,361.5z
				"/>
		</g>
		<g>
			<g>
				<g>
					<g>
						<path class="st28" d="M613.4,124.4c0,0,1.7,6.9,12.2,8.4c14,2,25.8-3.8,25.8-3.8s9,10.2,32.4,17.1l2.9-1.7l-28.9-24.7
							l-28.4-0.3L613.4,124.4z"/>
						<path class="st26" d="M629.3,119.6l-16,4.9c0,0,0.4,1.7,2.1,3.6C620.2,125.2,629.3,119.6,629.3,119.6z"/>
						<polygon class="st27" points="683.4,146 685.8,148.9 694,142 685.8,144 						"/>
					</g>
					<g>
						<path class="st32" d="M622.4,87.1c0,0,13.9-3.5,20.2-15.3l3.1,1.8c0,0-5.2,14.4-25.4,20C620.3,93.6,619.8,92.4,622.4,87.1z"/>
						<polygon class="st33" points="630,84 631.6,88.9 632.7,88.2 						"/>
						<path class="st48" d="M629.7,83.2l2.2,6.6c-0.4,0.3-11.7,4.7-12.2,5l3.7-4.6l-3.7-2.8c0.1-0.3,0.3-0.7,0.5-1
							C620.2,86.4,624.6,85.6,629.7,83.2z"/>
						<path class="st32" d="M642.6,71.9l1.8-4.3l7.7-4.8c0,0,1.4,1.4-4.2,4.6l1.4,1.4l-0.4,3.2l-3.1,1.6l-0.4,1L642.6,71.9z"/>
					</g>
					<path class="st49" d="M629.3,119.6l-4.8-27.4c0,0,0-4.8-5.5-7.1c0,0-2.3-1.2-4.2,0.5c-4.8,4.4-7,26-1.5,38.9L629.3,119.6z"/>
					<path class="st50" d="M628.2,113l-1.8-10.2c-2.3-3.2-3.7-6.7-5-9.8c-2.4-5.9-6.2-4.3-7.6-3c-2.3,2.1-1.8,5.5,0.5,10.2
						C617.9,107.3,623.1,111,628.2,113z"/>
					<g>
						<path class="st30" d="M615.5,68c1.1-3.2,6.3-3.4,10.1-2.1c0,0.7-1.3,2.2-1,2.9c0.2,1.2,0.8,2.3,1.6,3.3c0.3,0.4,0.6,0.7,0.9,1
							l-5.1,5.5l-3.5,2.2l-2-1.5C609.6,74.4,615.5,68,615.5,68z"/>
						<path class="st30" d="M627,73.1c0,0,1.5,1,3-0.1c1.4-1.1,2.9-5.7-4.4-7.1c-4.7,2.4-3.3,3.8-3.3,3.8L627,73.1z"/>
						<path class="st51" d="M627.2,74.4c0,0,1.3,1.5,1.2,4.9l-3-0.4L627.2,74.4z"/>
						<polyline class="st22" points="627.1,80.1 626.5,81.9 624,81.2 624,79.7 624.2,79 						"/>
						<path class="st32" d="M618.1,78.2c0,0,1.2,0.7,1.8-1.1c0,0-2.5-1.5-1.6-3c0.6-1,2.4-0.4,2.5,1.2l-0.2,1.6c0,0,1.4-1.2,1-3.6
							l1.2-1l4.2,0.8c0,0,1,3.3,0.1,7l-2.5-0.3c0,0,0.3,1.5,1.9,2.1c-0.3,0.7-0.4,1-0.8,1.7l-3.7-0.5l-0.8,3.2l-0.9,1.8l-4.6-3.2
							l0.6-5.5C616.4,79.4,617.2,79.4,618.1,78.2z"/>
					</g>
					<g>
						
							<rect x="652.3" y="110.2" transform="matrix(0.5574 -0.8303 0.8303 0.5574 200.5306 597.7104)" class="st24" width="17" height="1.2"/>
						
							<rect x="651.3" y="110.6" transform="matrix(0.5574 -0.8303 0.8303 0.5574 200.175 598.0594)" class="st52" width="19.4" height="1.3"/>
						<polygon class="st53" points="656.1,119.7 638.3,119.7 638.6,118.5 655.5,118.5 						"/>
					</g>
				</g>
				<path class="st32" d="M645.2,108.3c0,0,2.4,0.4,3.7,1.1s3.4,3.2,3.4,3.2l0.3,1.6l-0.3,0.6l-6.8-3.6l-0.7-0.1L645.2,108.3z"/>
				<path class="st32" d="M613.8,90c1.2-1.5,4.5-2,7.5,3.6c3.8,7.1,9.5,14.3,23.9,14.7l0.8,3.1c0,0-18.9,4.5-29.6-12
					C613.5,95,611.8,92.4,613.8,90z"/>
				<polygon class="st33" points="624.8,98.9 620.2,104.1 619.1,102.9 				"/>
				<path class="st32" d="M652.1,112.3l1.7,2.5l-0.1,3.1c0,0-1-0.5-1.1-1.6c-0.1-1.7-1.1-2.5-1.1-2.5L652.1,112.3z"/>
				<path class="st32" d="M651.7,112.7l0.7,2l-0.5,0.9l-3.3-0.7c0,0,0-0.6,0.7-0.7l1.1-0.1l-1.4-1.3l0.3-0.6l0.5-0.2L651.7,112.7z"
					/>
			</g>
			<path class="st48" d="M625.6,98.4l-7.3,5.3c-1-1.1-1.9-2.2-2.7-3.5c-2.9-4.4-3.7-7.7-1.7-10.1c1.2-1.5,4.8-3.5,7.9,2.1
				C622.8,94.2,624,96.3,625.6,98.4z"/>
		</g>
		<g>
			<path class="st16" d="M695.5,61.6h-35.4c-2.7,0-4.9,2.2-4.9,4.9V82c0,5.9,4.4,10.8,10.1,11.6v6.4l8.1-6.3h22
				c2.7,0,4.9-2.2,4.9-4.9V66.5C700.4,63.8,698.2,61.6,695.5,61.6z"/>
			<path class="st24" d="M691.6,73.3c-0.5-3.2-3-5.7-6.2-6.3c-3.2-0.5-6.1,1-7.7,3.4c-1.6-2.4-4.5-3.8-7.7-3.3
				c-3.1,0.5-5.6,3-6.1,6.1c-0.5,2.8,0.6,5.3,2.5,7l0,0l8.4,7.5c1.7,1.5,4.3,1.5,6,0l8.1-7.4l0,0C690.9,78.8,692.1,76.2,691.6,73.3z
				"/>
			<path class="st24" d="M697.6,136c-0.2-1-1-1.8-2-2s-2,0.3-2.5,1.1c-0.5-0.8-1.4-1.2-2.5-1.1c-1,0.2-1.8,1-2,2
				c-0.1,0.9,0.2,1.7,0.8,2.2l0,0l2.7,2.4c0.5,0.5,1.4,0.5,1.9,0l2.6-2.4l0,0C697.3,137.7,697.7,136.9,697.6,136z"/>
		</g>
		<g>
			<path class="st24" d="M714.8,51.1h-21.5c-1.6,0-3,1.3-3,3v9.4c0,3.6,2.7,6.6,6.1,7.1v3.9l4.9-3.8h13.4c1.6,0,3-1.3,3-3V54.1
				C717.7,52.4,716.4,51.1,714.8,51.1z"/>
			<path class="st16" d="M712.4,58.2c-0.3-1.9-1.8-3.5-3.7-3.8c-2-0.3-3.7,0.6-4.7,2.1c-1-1.5-2.7-2.3-4.7-2
				c-1.9,0.3-3.4,1.8-3.7,3.7c-0.3,1.7,0.4,3.2,1.5,4.2l0,0l5.1,4.6c1,0.9,2.6,0.9,3.6,0l4.9-4.5l0,0
				C712,61.5,712.7,59.9,712.4,58.2z"/>
		</g>
		<g id="Слой_3">
			<g>
				<g>
					<path class="st32" d="M554.2,257.8c-0.3-2.5,2-5.1,9.6-1.9c9.1,3.8,18.2,3.2,29.7-5l2.3,1.6c0,0-8,14-31.2,11.6
						C557.9,263.4,554.7,261.9,554.2,257.8z"/>
					<polyline class="st33" points="567.2,257 569.4,264.3 565.9,264.3 566.7,258.3 					"/>
					<path class="st32" d="M593.1,251.2c0,0,0.1-2.3,0.4-3c0,0,1.1-4,1.3-4.6c0,0,1-0.2,1,1s-0.3,2.6-0.3,2.6s1.3-1.2,1.7-2.3
						c0.5-1,1.5-3.1,2.1-3.3c0.7-0.3,0.7,0.5,0.7,0.5s-1.5,3.1-1.8,3.8c-0.3,0.6,0,0.6,0,0.6s2.5-3.1,3-3.7c0.5-0.6,0.9-0.5,1.3,0
						c0,0-1.3,1.7-2.1,2.8c-0.3,0.4-1.4,1.5-0.9,1.8c0,0,2.4-2.5,2.8-2.9c0.4-0.5,0.9-0.4,1.1,0.2l-3.1,3.6c0,0-0.2,0.3,0.1,0.3
						c0.2,0,2.1-1.1,2.3-1.3s0.7-0.7,1.1-0.1c0,0,0.1,0.2-0.4,0.7s-3,2.8-3,2.8s-1.5,1.7-3.8,2.6c-2.4,0.9-3.1,0.2-1.7,0.7l-0.7-1.2
						L593.1,251.2z"/>
				</g>
				<path class="st54" d="M564,253.6c-7.6-3.2-10.1,1.7-9.8,4.2c0.4,4.1,4.2,6.7,11,7.4c0.3,0,0.6,0,0.9,0.1
					c0.4-3.2,0.9-7.9,1.2-10.3C566.2,254.5,565.1,254.1,564,253.6z"/>
				<path class="st24" d="M700.2,311.1l-115.9-0.2c-2.4,0-4.3-1.9-4.3-4.3l0.1-67c0-2.4,1.9-4.3,4.3-4.3l115.9,0.2
					c2.4,0,4.3,1.9,4.3,4.3l-0.1,67C704.5,309.2,702.6,311.1,700.2,311.1z"/>
				<path class="st34" d="M699.9,255.1c0,0,8.8,7.2,18.2,4.3l1.6-9c0,0-8.7,7-17.4,0.4L699.9,255.1z"/>
				
					<rect x="697.3" y="250.9" transform="matrix(0.482 -0.8762 0.8762 0.482 141.4222 743.7858)" class="st55" width="4.9" height="2.8"/>
				<path class="st56" d="M704.4,250c0,0-0.8-1.3-2.3-2.2s-4.5-1.8-4.5-1.8l2.9,2.3c0,0-1,0.2-2-0.6c-0.8-0.6-1.2,0-1.1,0.3
					c0.2,0.6,2.8,2.7,5.5,2.2l0.7,0.6L704.4,250z"/>
				<path class="st18" d="M698.3,235.5l-111.7-0.2c-3.5,0-6.4,2.8-6.4,6.4l-0.1,26.3h124.5l0.1-26
					C704.7,238.4,701.8,235.5,698.3,235.5z"/>
				<g>
					<g>
						<defs>
							<path id="SVGID_6_" d="M697.2,311.1l-109.8-0.2c-4,0-7.3-3.3-7.3-7.3l0.1-61c0-4,3.3-7.3,7.3-7.3l109.8,0.2
								c4,0,7.3,3.3,7.3,7.3l-0.1,61C704.6,307.8,701.3,311.1,697.2,311.1z"/>
						</defs>
						<clipPath id="SVGID_7_">
							<use xlink:href="#SVGID_6_"  style="overflow:visible;"/>
						</clipPath>
						<g class="st57">
							<g>
								<defs>
									<path id="SVGID_8_" d="M698.3,235.5l-111.7-0.2c-3.5,0-6.4,2.8-6.4,6.4l-0.1,26.3h124.5l0.1-26
										C704.7,238.4,701.8,235.5,698.3,235.5z"/>
								</defs>
								<defs>
									<path id="SVGID_9_" d="M698.3,235.5l-111.7-0.2c-3.5,0-6.4,2.8-6.4,6.4l-0.1,26.3h124.5l0.1-26
										C704.7,238.4,701.8,235.5,698.3,235.5z"/>
								</defs>
								<clipPath id="SVGID_10_">
									<use xlink:href="#SVGID_8_"  style="overflow:visible;"/>
								</clipPath>
								<clipPath id="SVGID_11_" class="st58">
									<use xlink:href="#SVGID_9_"  style="overflow:visible;"/>
								</clipPath>
								<path class="st59" d="M659.7,218.6c-0.1,0-0.1,0-0.2,0c-2.9,0.2-5.9,0.7-8.7,1.8c-2.9,1-5.6,2.4-8,4c-0.1,0-0.1,0.1-0.2,0.1
									c-11.8,8.3-17.3,23.7-12.3,37.9c6,17.2,24.9,26.4,42.1,20.4c17.2-6,26.4-24.9,20.4-42.1
									C687.9,226.5,674.1,217.7,659.7,218.6z M688.6,240.2l-7.9,2.7c-3.6-10-10-16.6-14.7-20.4
									C675.9,224.1,684.6,230.6,688.6,240.2z M672.9,278.7l-9-25.9l14.4-5c2,7.5,2.3,17-0.8,28.5
									C676.1,277.2,674.5,278,672.9,278.7z M664.2,280.8c-9.6-7.2-15.2-14.7-18.3-21.8l14.5-5l9,25.9
									C667.7,280.4,665.9,280.7,664.2,280.8z M650.2,224.5l9,25.9l-14.6,5.1c-4.7-14.1-0.3-25.9,0.8-28.4
									C646.8,226.1,648.5,225.2,650.2,224.5z M662.7,249.2l-9-25.9c1.8-0.5,3.6-0.8,5.4-1c2.3,1.3,13,7.9,18.1,21.9L662.7,249.2z
									 M640.1,231.6c-1.3,5.8-2.3,14.9,1.1,25.1l-7.9,2.7C630.5,249.3,633.3,238.9,640.1,231.6z M634.5,262.9l8-2.8
									c2.9,6.7,7.7,13.8,15.7,20.6C647.9,279.5,638.7,272.9,634.5,262.9z M682.3,272.4c2.1-10.2,1.5-18.8-0.4-25.9l8-2.8
									C692.7,254.2,689.6,265.1,682.3,272.4z"/>
								<path class="st59" d="M585.7,249C585.6,249,585.6,249,585.7,249c-2.1,0.1-4.1,0.5-6,1.2c-2,0.7-3.8,1.6-5.4,2.7
									c0,0-0.1,0-0.1,0.1c-8,5.6-11.7,16-8.3,25.7c4,11.7,16.8,17.9,28.5,13.8c11.7-4,17.9-16.8,13.8-28.5
									C604.8,254.3,595.4,248.4,585.7,249z M605.3,263.7l-5.3,1.8c-2.5-6.8-6.8-11.3-9.9-13.8
									C596.6,252.7,602.6,257.1,605.3,263.7z M594.6,289.7l-6.1-17.6l9.7-3.4c1.4,5.1,1.6,11.5-0.5,19.3
									C596.8,288.7,595.7,289.2,594.6,289.7z M588.8,291.1c-6.5-4.8-10.3-10-12.4-14.8l9.8-3.4l6.1,17.6
									C591.1,290.8,589.9,291,588.8,291.1z M579.3,253l6.1,17.6l-9.9,3.4c-3.2-9.6-0.2-17.5,0.5-19.2
									C577,254.1,578.1,253.5,579.3,253z M587.7,269.7l-6.1-17.6c1.2-0.3,2.5-0.6,3.7-0.7c1.6,0.9,8.8,5.4,12.2,14.8L587.7,269.7z
									 M572.4,257.8c-0.9,3.9-1.5,10.1,0.7,17l-5.3,1.8C565.9,269.8,567.8,262.7,572.4,257.8z M568.6,279l5.4-1.9
									c1.9,4.6,5.2,9.4,10.6,13.9C577.7,290.3,571.4,285.8,568.6,279z M601,285.4c1.4-6.9,1-12.7-0.3-17.5l5.4-1.9
									C608.1,273.1,605.9,280.5,601,285.4z"/>
							</g>
						</g>
						<path class="st60" d="M609.6,241.9h-19.2c-1.9,0-3.4,1.5-3.4,3.4v9.3c0,1.9,1.5,3.4,3.4,3.4h19.2c1.9,0,3.4-1.5,3.4-3.4v-9.3
							C613,243.4,611.5,241.9,609.6,241.9z"/>
						<path class="st61" d="M610.1,256.7h-20.2c-0.9,0-1.6-0.7-1.6-1.6v-10.3c0-0.9,0.7-1.6,1.6-1.6h20.2c0.9,0,1.6,0.7,1.6,1.6
							v10.3C611.7,256,611,256.7,610.1,256.7z"/>
						<path class="st62" d="M675.1,295.9c0,5.5,4.4,10,10,10c5.5,0,10-4.4,10-10c0-5.5-4.4-10-10-10
							C679.6,285.9,675.1,290.4,675.1,295.9z"/>
						<path class="st63" d="M603.9,250.2l2-2h4.7l1.1,1.1v-0.6l-0.5-0.5h0.5v-0.4h-0.9l-1.3-1.3h2.2v-0.4h-2.6l-1.7-1.7l1.2-1.2H608
							l-1.2,1.2l1.7,1.7h-2.8l-1-1l1.9-1.9H606l-1.6,1.6l-1.6-1.6h-0.6l1.9,1.9l-2.9,2.9l-1.1-1.1L598,249h-0.9v-2.4l-1.7-1.7
							l1.7-1.7h-0.6l-1.4,1.4l-0.9-0.9h-3.7l-1.5,1.5h-0.7c0,0.1,0,0.3-0.1,0.4h0.9l1.5-1.5h3.4l0.7,0.7l-2.5,2.5h-4.1v0.4h4.3
							l2.6-2.6l1.6,1.6v2.7h0.9l-2.4,2.4l-2.3-2.3l-1.6,1.6h-3.1v0.4h3.2l1.4-1.4l2.3,2.3l3-3h4.5l0.7,0.7l-2.4,2.4h-4.9l-2,2h-5.7
							c0,0.1,0.1,0.3,0.1,0.4h5.7l2-2h4.7l1.8,1.8h2l0.9,0.9h1.8l0.9,0.9h0.6l-1.4-1.4h-1.8l-0.9-0.9h-2l-1.6-1.6l2.3-2.3l4.8,4.8
							h2.9c0.1-0.1,0.1-0.3,0.2-0.4h-2.9L603.9,250.2z M602.8,249h-4.2l1.5-1.5l1.1,1.1l3.2-3.2l1.1,1.1h3.4l1.3,1.3h-4.5l-2.1,2.1
							L602.8,249z"/>
						<path class="st64" d="M661.6,295.8c0,5.5,4.4,10,10,10c5.5,0,10-4.4,10-10c0-5.5-4.4-10-10-10
							C666,285.9,661.6,290.3,661.6,295.8z"/>
					</g>
					<g>
						<g>
							<g>
								<g>
									<g>
										<g>
											<g>
												<path class="st30" d="M564.7,233.6c0.1,0.6-0.4,1.1-0.9,1.1c-0.6,0.1-1.1-0.4-1.1-0.9c-0.1-0.6,0.4-1.1,0.9-1.1
													C564.2,232.6,564.7,233,564.7,233.6z"/>
												<path class="st30" d="M563.5,231.4c0,0-0.9-4.4-6.9-3.4c0,0-5-0.5-7.3,4.9c0.8,1.7,1.3,3.5,1.2,5.4
													c-0.1,1.5-0.2,3.1-0.3,4.7c0.8,0.1-0.2,0.8,0.6,1.1l1,0.5c0.4,0.2,1.8,0.6,2.3,0.8c0.9,0.4,1.8-0.5,2.6-0.1
													c0.4,0.2,0.8,0.5,1.2,0.8l1.1-2.1l4-3.6C563,240.5,566.6,232,563.5,231.4z"/>
												<path class="st51" d="M564.9,234.3c0,0.1,1.8,4.2,1.8,7.3l-3-0.1L564.9,234.3z"/>
												<path class="st32" d="M563.2,231.9c0,0,5.7,4.6,0.7,15.6l-4.3-0.9l-0.3,5.2l-5.6-0.4l0.4-6c0,0,2.5-1.5,2.7-4.6
													c0,0-2.9-0.4-2.5-3c0.3-1.7,2.7-1.8,3.3-0.1l-0.1,1.7c0,0,1.3-0.5,1.6-2.9c0,0,3-1.7,1.8-4.8L563.2,231.9z"/>
												<path class="st22" d="M562.8,242.1l2.7,0.6c-0.2,0.8-0.4,1.7-0.7,2.6C562.2,244.5,562.8,242.1,562.8,242.1z"/>
											</g>
											<path class="st30" d="M545.5,302.4c0,0-14-5.6-10.4-21s9.5-16.3,10.4-29.4c0.8-13.1-0.1-19.4,7-23.1
												c0.3,6.4-0.4,11.3-0.4,11.3l1.9,5.1v3.4l-2.6,15.1l-0.8,13.7"/>
											<path class="st18" d="M555,249.2L555,249.2c-2.9-0.2-5.5,3.4-5.8,8.1c-1.1,20.6-4.8,29.7-4.8,29.7H564
												c0,0-1.7-15.8-1.3-17s4.9-2.8,4.9-7.3l-7.7-10.6C558.9,250.5,557.1,249.4,555,249.2z"/>
											<path class="st65" d="M562.8,270.1c0.1-0.3,0.6-0.7,1.2-1.2c-0.7-2.1-1.2-4.3-1.6-6.6c-1.3-8.1-6.8-7.6-8.7-6.1
												c-3.2,2.5-3.4,7.1-0.4,13.2c3.1,6.3,6.8,10.6,10.4,13.6C563.2,278.2,562.5,270.9,562.8,270.1z"/>
											<path class="st7" d="M560.3,252.7l0.2,0.1l1.5,0.4c0.6,0.2,1,0.8,1,1.5l-0.2,1.3c0,0,4,1.3,4.4,6"/>
											<path class="st54" d="M553.1,249.5l0.1-0.6c-0.7,0.3,3.7-1.4,6.9,1.6l0.3,2.1C560.3,252.7,557.4,250.2,553.1,249.5z"/>
										</g>
									</g>
								</g>
							</g>
							<path class="st30" d="M556.6,228c0,0-6.3-1-8.8,8.1c0,0-1.8,8.1,6.2,9.3c-2.8-5.2,1.2-11.7,1.2-11.7l4.4-2.9L556.6,228z"/>
						</g>
						<g>
							<path class="st9" d="M571.8,352c0,2.4-5,4.4-11.2,4.4s-11.2-2-11.2-4.4s5-4.4,11.2-4.4S571.8,349.6,571.8,352z"/>
							<g>
								<path class="st66" d="M560.4,287.1h3.7l-2.1,64.6h-2.8c0,0-5-20.1-3.7-33.4c1.2-15.3-1.3-21.9-1.3-21.9"/>
								<path class="st32" d="M562.1,287.1l-5.4,30.4L538,346.3l-2.9-1.2c0,0,6.9-20.7,14.3-30.6l-3.7-15c0,0-2-5.8-1.2-12.3
									L562.1,287.1L562.1,287.1z"/>
								<path class="st27" d="M535.1,345.1l-0.4,0.6c-0.2,0.2-0.1,0.6,0.1,0.8l8.4,6.5c0,0,0.4-3.2-3.5-6.5
									C537.2,345.2,535.1,345.1,535.1,345.1z"/>
							</g>
							<path class="st27" d="M558.8,350.7v0.7c0,0.3,0.2,0.5,0.5,0.5h10.4c0,0-1.5-2.8-6.5-3C560.6,349.5,558.8,350.7,558.8,350.7z"
								/>
						</g>
						<g>
							<path class="st32" d="M553.7,256.2c1.6-1.8,5.2-1.9,7.9,5.8c3.3,9.3,9.9,15.7,23.6,18.6l0.4,2.8c0,0-15.8,3.4-29.5-15.3
								C552.1,262.7,551,259.3,553.7,256.2z"/>
							<polygon class="st33" points="562.9,265.2 558.3,271 556.8,269.1 							"/>
							<path class="st32" d="M584.7,280.5c0,0,1.8-1.5,2.5-1.7c0,0,3.6-1.9,4.2-2.1c0,0,0.8,0.6-0.1,1.4c-0.9,0.8-2.2,1.5-2.2,1.5
								s1.8,0.1,2.9-0.2c1.1-0.4,3.2-1,3.9-0.7c0.6,0.3,0.1,0.8,0.1,0.8s-3.3,1-4,1.2c-0.6,0.2-0.4,0.4-0.4,0.4s4-0.2,4.7-0.3
								c0.7,0,1,0.3,0.8,1c0,0-2.1,0.1-3.5,0.3c-0.5,0.1-2,0-1.9,0.5c0,0,3.5,0.2,4.1,0.1c0.6,0,0.9,0.4,0.5,1l-4.7,0.2
								c0,0-0.3,0.1-0.2,0.3c0.1,0.2,2.2,0.8,2.5,0.8c0.2,0,1,0.1,0.8,0.7c0,0-0.1,0.2-0.8,0.1s-4.1-0.3-4.1-0.3s-2.2,0.1-4.5-1.1
								c-2.3-1.1-2.3-2.2-1.7-0.8l0.5-1.3L584.7,280.5z"/>
						</g>
					</g>
					<g>
						<path class="st67" d="M699.2,351.5c0,2.3,8.5,4.1,19,4.1s19-1.8,19-4.1c0-2.3-8.5-4.1-19-4.1S699.2,349.3,699.2,351.5z"/>
						<g>
							<g>
								<g>
									<path class="st26" d="M728.9,287.6l-0.1,29.2c0,0,5.4,10.4,3.8,32.5h-3.7l-9.8-35v-14.8l4.1-9.5L728.9,287.6z"/>
									<path class="st28" d="M712.2,287.6l-0.1,61.7l4.4,0.1c0,0,6.2-18.7,3.9-30.9l8.5-30.9L712.2,287.6L712.2,287.6z"/>
									<polygon class="st22" points="715.9,242.4 715.9,243.8 717.4,244 718,242.5 									"/>
									<path class="st56" d="M719.5,249v-2.4c0,0-1.4,0.3-3.7-0.7v-2.2c0,0,1.3,0.2,1.7-1.2l-1.7-0.2l0.3-1.1l-1.2-0.7l2-3.4
										l0.2-2l1.2,0.8l0.6,3.6l0.7-1.4c0,0,1.2-0.6,1.6,0.5c0.4,1-0.3,2.1-1.6,2.1l1.9,2.8l4.3,1.3v4h-6.3V249z"/>
									<path class="st30" d="M719.5,238.3l-0.7,1.8l-0.6-4l-4.9-2.6c0,0,1.5-4.9,8.1-4.8c2.3,0,6.8,0.2,7.5,5.1l0,0
										c0,0,3.7,6.9-3.3,11.2v0.9l-1.2-0.9l-3.6-1l-1.4-3.1c0,0,1.5,0,1.7-1.4C721.4,238.2,720.1,238,719.5,238.3z"/>
									<polygon class="st51" points="716.9,237.2 716.2,241.3 714.9,240.6 									"/>
									<path class="st68" d="M712.2,287.6c0,0,5.4,5.1,16.7,2.9V286l-10.7-0.4L712.2,287.6z"/>
									<path class="st24" d="M712.2,287.6c0,0,7.5,2.7,16.7,0v-27.5c0,0-0.1-8.1-2.9-11.5l-6.9,2.4c0,0-4.9,6.3-5.9,13.9
										C712.2,272.6,712.2,287.6,712.2,287.6z"/>
									<path class="st69" d="M725.3,263.8c0,0-2.8,10.9-12.8,13.9l0.2-5.4l5.4-6.7l2.6-2.1"/>
									<polygon class="st34" points="726.1,248.6 726.1,246.8 719.2,248.6 718.6,251.9 									"/>
									<polygon class="st27" points="716.5,349.2 716.5,352.5 702.8,352.5 712.1,349.2 									"/>
									<polygon class="st27" points="732.7,349.4 732.7,352.4 720.2,352.4 728.7,349.4 									"/>
									<path class="st34" d="M725.3,263.8c0,0,2.9-10-5-11.2c0,0-5.9,12.4-13.3,13.9c-7.4,1.6-16.7-5-16.7-5l-2.4,3.4
										c0,0,10.4,8.8,19.6,9.5C719.8,275.2,725.3,263.8,725.3,263.8z"/>
									<path class="st32" d="M690,262c0,0-0.4-2.3-0.8-2.9c0,0-1.5-3.8-1.8-4.4c0,0-1-0.1-0.9,1.1s0.6,2.6,0.6,2.6s-1.4-1.1-2-2.1
										s-1.8-2.9-2.5-3.1c-0.7-0.2-0.6,0.6-0.6,0.6s1.8,2.9,2.2,3.6c0.3,0.6,0,0.6,0,0.6s-2.9-2.8-3.4-3.3s-1-0.4-1.3,0.2
										c0,0,1.5,1.5,2.4,2.5c0.3,0.4,1.5,1.4,1.1,1.7c0,0-2.7-2.2-3.1-2.6c-0.4-0.4-1-0.3-1,0.4l3.4,3.2c0,0,0.2,0.3,0,0.3
										c-0.2,0.1-2.2-0.9-2.4-1c-0.2-0.2-0.8-0.6-1.1,0c0,0-0.1,0.2,0.5,0.6s3.3,2.5,3.3,2.5s1.6,1.5,4.1,2.2
										c2.5,0.6,3.1-0.1,1.8,0.5l0.5-1.3L690,262z"/>
									
										<rect x="687.1" y="262.2" transform="matrix(0.5688 -0.8225 0.8225 0.5688 80.6802 680.4221)" class="st24" width="4.3" height="2.2"/>
								</g>
							</g>
						</g>
					</g>
					<path class="st7" d="M544.5,287.1c0,0-2.5,11,3.4,25.7H564l0.1-25.7H544.5z"/>
					<polygon class="st70" points="557.5,312.8 564.1,287.1 564,312.8 					"/>
					<polygon class="st70" points="564.1,287.1 544.5,287.1 543.9,290.2 					"/>
					<path class="st54" d="M563.4,260.7c-2.8-7.8-8-6.3-9.7-4.5c-2.7,3-2.1,7.6,1.9,13.1c0.2,0.2,0.4,0.5,0.5,0.7
						c2.6-1.9,6.5-4.6,8.5-6.1C564.2,262.9,563.8,261.8,563.4,260.7z"/>
				</g>
				<g>
					<g>
						<g>
							<g>
								<path class="st71" d="M638.1,353.3c0,2.8-5.1,5.1-11.5,5.1s-11.5-2.3-11.5-5.1c0-2.8,5.1-5.1,11.5-5.1
									S638.1,350.5,638.1,353.3z"/>
								<path class="st2" d="M638,339.3l-1.8,0.4c-1.7-1.6-5.3-2.7-9.5-2.7s-7.8,1.1-9.5,2.7l-1.8-0.4l0.9,13.6l0,0
									c0.6,2.3,5.1,4.1,10.5,4.1s9.9-1.8,10.5-4.1l0,0L638,339.3z"/>
								<path class="st3" d="M619.1,351v2.3c0,0,1.8,1,5.1,1V352C624.2,351.9,621.5,352.1,619.1,351z"/>
								<path class="st4" d="M638.1,338.6c0,2.8-5.1,5.1-11.5,5.1s-11.5-2.3-11.5-5.1c0-2.8,5.1-5.1,11.5-5.1
									S638.1,335.7,638.1,338.6z"/>
								<path class="st5" d="M635.6,338c0,2.2-4,4-9,4s-9-1.8-9-4s4-4,9-4S635.6,335.8,635.6,338z"/>
							</g>
							<g>
								<g>
									<path class="st72" d="M626.2,339.1L605.4,320c0,0-0.2,4.3,2.6,6.5c2.8,2.3,5.1,1.5,5.5,5c0.4,3.6,2.7,5.6,4.8,5.9
										C622.6,338.1,623.6,340.4,626.2,339.1z"/>
									<path class="st18" d="M626.2,339.1L605.4,320c0,0,4.2-0.5,6.7,2.1s1.9,5,5.5,5s5.8,2.3,6.3,4.3
										C624.9,335.7,627.3,336.5,626.2,339.1z"/>
								</g>
								<path class="st6" d="M626.6,339.4v-71.7c0,0-8.3,7-7.7,16.2s6,12.1,0,18.8c-6,6.8-5.7,14.7-2.7,19.2
									C622.4,331,619.8,336.8,626.6,339.4z"/>
								<path class="st73" d="M626.6,339.4v-71.7c0,0,8.3,7,7.7,16.2s-6,12.1,0,18.8c6,6.8,5.7,14.7,2.7,19.2
									C630.8,331,633.4,336.8,626.6,339.4z"/>
							</g>
							<g>
								<path class="st7" d="M629.6,339.5l14.9-44.7c0,0-6.6,2.6-8.1,8.5c-1.5,5.8,1.2,8.8-3.9,11.7c-5.2,3-6.6,8-5.7,11.4
									C628.7,333.4,625.9,336.5,629.6,339.5z"/>
								<path class="st8" d="M629.6,339.5l14.9-44.7c0,0,3.7,6.1,1.4,11.7s-6.2,6.3-3.9,11.7c2.4,5.5,0.5,10.4-2.3,12.5
									C633.9,335.1,634.3,339.3,629.6,339.5z"/>
							</g>
						</g>
						<path class="st3" d="M631.4,344.5v2.5c0,0,2.8,0,4.9-1.9v-2.6C636.3,342.6,635,344.1,631.4,344.5z"/>
						<path class="st3" d="M633.6,348.3v2.3c0,0-1.8,1-5.1,1v-2.3C628.5,349.3,631.2,349.5,633.6,348.3z"/>
						<path class="st3" d="M622.2,346.2c-0.6-0.1-1.2-0.4-1.8-0.6v2.3c0,0,0.6,0.3,1.8,0.6V346.2z"/>
					</g>
					<g>
						<path class="st67" d="M641.3,367.3c0,1.7,4.5,3,10.1,3s10.1-1.4,10.1-3c0-1.7-4.5-3-10.1-3S641.3,365.6,641.3,367.3z"/>
						<ellipse class="st18" cx="651.4" cy="345.5" rx="21.8" ry="21.8"/>
						<ellipse class="st19" cx="651.4" cy="345.5" rx="19.8" ry="19.8"/>
						<path class="st20" d="M658.4,346.4c-0.5-0.9-1.1-1.6-1.8-2s-1.5-0.7-2.4-1s-1.7-0.5-2.4-0.6s-1.3-0.4-1.8-0.7
							c-0.5-0.4-0.7-0.9-0.7-1.5c0-0.5,0.2-1,0.6-1.3c0.4-0.3,0.8-0.5,1.3-0.5c0.4,0,0.8,0,1.1,0.1s0.5,0.2,0.7,0.3
							c0.1,0.1,0.3,0.2,0.5,0.4c0.2,0.2,0.3,0.3,0.3,0.3c0.6,0.4,1.1,0.6,1.5,0.6c0.7,0,1.3-0.5,2-1.6c0.5-0.8,0.7-1.4,0.7-1.8
							s-0.3-0.9-0.9-1.5l-0.1-0.1l-0.3-0.3c-0.2-0.2-0.6-0.4-1.2-0.7c-0.6-0.3-1.2-0.5-1.9-0.7v-2.2c0-0.7,0-1.2-0.1-1.5
							c0-0.3-0.2-0.7-0.6-1c-0.3-0.3-0.8-0.5-1.5-0.5c-0.5,0-0.9,0.1-1.2,0.2s-0.5,0.4-0.7,0.7c-0.1,0.3-0.2,0.6-0.2,0.9
							s0,0.6,0,1.2v2.2c-1.6,0.4-2.9,1.2-3.8,2.5c-0.9,1.3-1.4,2.7-1.4,4.3c0,1.6,0.3,3,1,4s1.5,1.8,2.5,2.2c1,0.4,1.9,0.8,2.9,1
							c1,0.3,1.8,0.5,2.5,0.9c0.7,0.3,1,0.8,1,1.4c0,1.6-0.9,2.4-2.7,2.4c-0.9,0-1.8-0.5-2.5-1.5l-0.2-0.2c-0.8-0.9-1.6-1.4-2.1-1.4
							s-1,0.3-1.5,0.8c-0.8,0.9-1.2,1.7-1.2,2.3c0,0.4,0.3,1,0.8,1.7l0.5,0.7c0.3,0.4,0.9,0.9,1.7,1.5s1.7,1,2.7,1.2v2.5
							c0,0.5,0,0.9,0,1.2c0,0.3,0.1,0.5,0.2,0.9c0.1,0.3,0.3,0.6,0.6,0.7s0.7,0.2,1.2,0.2s0.9-0.1,1.2-0.2s0.5-0.4,0.7-0.7
							c0.1-0.3,0.2-0.6,0.2-0.9s0-0.7,0-1.2v-2.6c1.6-0.4,2.9-1.2,4-2.5s1.6-2.9,1.6-5C659.1,348.6,658.9,347.4,658.4,346.4z"/>
					</g>
				</g>
				<g>
					
						<ellipse transform="matrix(0.1602 -0.9871 0.9871 0.1602 354.3887 833.1427)" class="st24" cx="666.8" cy="208.3" rx="22.1" ry="22.1"/>
					<circle class="st74" cx="647.7" cy="211.2" r="1.7"/>
					<circle class="st74" cx="685.7" cy="211.2" r="1.7"/>
					<path class="st16" d="M659.8,201.2c-3.1,0-5.5,2.5-5.5,5.5c0,1,0.8,1.8,1.8,1.8s1.8-0.8,1.8-1.8s0.8-1.9,1.9-1.9
						s1.9,0.8,1.9,1.9c0,1,0.8,1.8,1.8,1.8s1.8-0.8,1.8-1.8C665.4,203.7,662.9,201.2,659.8,201.2z M673.8,201.2
						c-3.1,0-5.5,2.5-5.5,5.5c0,1,0.8,1.8,1.8,1.8s1.8-0.8,1.8-1.8s0.8-1.9,1.9-1.9c1,0,1.9,0.8,1.9,1.9c0,1,0.8,1.8,1.8,1.8
						s1.8-0.8,1.8-1.8C679.3,203.7,676.9,201.2,673.8,201.2z"/>
					<path class="st75" d="M683.4,211.9c-0.2-0.2-0.4-0.3-0.7-0.3h-31.6c-0.3,0-0.5,0.1-0.7,0.3s-0.2,0.5-0.2,0.7
						c2,7.6,8.8,12.9,16.6,12.9s14.7-5.3,16.6-12.9C683.6,212.4,683.6,212.1,683.4,211.9z"/>
					<path class="st76" d="M651.1,212.4c1.8,7,8.2,12.2,15.8,12.2s14-5.2,15.8-12.2H651.1z"/>
					<path class="st16" d="M653.6,217.7c3,4.2,7.8,6.9,13.3,6.9s10.3-2.7,13.3-6.9H653.6z"/>
				</g>
				<g>
					<path class="st24" d="M716.1,187.2c0,8.1-6.5,14.6-14.6,14.6s-14.6-6.5-14.6-14.6s6.5-14.6,14.6-14.6
						C709.6,172.6,716.1,179.2,716.1,187.2z"/>
					<path class="st74" d="M690.1,188.9c0,0.6-0.5,1.1-1.1,1.1s-1.1-0.5-1.1-1.1s0.5-1.1,1.1-1.1
						C689.6,187.8,690.1,188.3,690.1,188.9z"/>
					<path class="st74" d="M715.3,188.9c0,0.6-0.5,1.1-1.1,1.1s-1.1-0.5-1.1-1.1s0.5-1.1,1.1-1.1
						C714.8,187.8,715.3,188.3,715.3,188.9z"/>
					<path class="st16" d="M696.9,182.5c-2,0-3.7,1.6-3.7,3.7c0,0.7,0.5,1.2,1.2,1.2s1.2-0.5,1.2-1.2s0.6-1.2,1.2-1.2
						c0.7,0,1.2,0.6,1.2,1.2c0,0.7,0.5,1.2,1.2,1.2s1.2-0.5,1.2-1.2C700.5,184.2,698.9,182.5,696.9,182.5z M706.1,182.5
						c-2,0-3.7,1.6-3.7,3.7c0,0.7,0.5,1.2,1.2,1.2s1.2-0.5,1.2-1.2s0.6-1.2,1.2-1.2c0.7,0,1.2,0.6,1.2,1.2c0,0.7,0.5,1.2,1.2,1.2
						s1.2-0.5,1.2-1.2C709.8,184.2,708.1,182.5,706.1,182.5z"/>
					<path class="st75" d="M712.5,189.6c-0.1-0.1-0.3-0.2-0.4-0.2h-20.9c-0.2,0-0.3,0.1-0.4,0.2c-0.1,0.1-0.1,0.3-0.1,0.5
						c1.3,5,5.8,8.5,11,8.5s9.7-3.5,11-8.5C712.6,189.9,712.6,189.7,712.5,189.6z"/>
					<path class="st76" d="M691.1,189.9c1.2,4.7,5.4,8.1,10.5,8.1c5,0,9.2-3.4,10.5-8.1H691.1z"/>
					<path class="st16" d="M692.8,193.5c2,2.8,5.1,4.6,8.8,4.6c3.6,0,6.8-1.8,8.8-4.6H692.8z"/>
				</g>
			</g>
			<g>
				<rect x="72.2" y="226.2" class="st77" width="251.8" height="72.6"/>
				<path class="st78" d="M81.5,237.3h-1.2v-9.4h-5.5v9.4h-1.2v-10.5h8v10.5H81.5z"/>
				<path class="st78" d="M89.7,237.5c-1.5,0-2.7-0.5-3.6-1.5s-1.3-2.3-1.3-3.8c0-1.7,0.5-3,1.4-4s2.2-1.5,3.7-1.5s2.6,0.5,3.5,1.5
					s1.3,2.3,1.3,3.8c0,1.7-0.5,3.1-1.4,4.1S91.2,237.5,89.7,237.5z M89.8,227.7c-1.1,0-2,0.4-2.7,1.2s-1,1.8-1,3.1s0.3,2.3,1,3.1
					s1.5,1.2,2.6,1.2c1.2,0,2.1-0.4,2.7-1.1c0.7-0.8,1-1.8,1-3.2s-0.3-2.5-1-3.2S90.9,227.7,89.8,227.7z"/>
				<path class="st78" d="M105.9,237.3h-1.2v-9.4h-5.5v9.4H98v-10.5h8v10.5H105.9z"/>
				<path class="st78" d="M114.1,237.5c-1.5,0-2.7-0.5-3.6-1.5s-1.3-2.3-1.3-3.8c0-1.7,0.5-3,1.4-4s2.2-1.5,3.7-1.5s2.6,0.5,3.5,1.5
					s1.3,2.3,1.3,3.8c0,1.7-0.5,3.1-1.4,4.1S115.6,237.5,114.1,237.5z M114.2,227.7c-1.1,0-2,0.4-2.7,1.2s-1,1.8-1,3.1
					s0.3,2.3,1,3.1s1.5,1.2,2.6,1.2c1.2,0,2.1-0.4,2.7-1.1c0.7-0.8,1-1.8,1-3.2s-0.3-2.5-1-3.2S115.3,227.7,114.2,227.7z"/>
				<path class="st78" d="M129.7,237.3h-1.2v-9.4h-2.9c-0.3,2.6-0.6,4.5-0.8,5.6s-0.4,1.9-0.6,2.4s-0.5,0.9-0.8,1.2
					s-0.8,0.4-1.2,0.4c-0.4,0-0.7-0.1-1-0.2v-1.2c0.2,0.1,0.5,0.2,0.8,0.2s0.6-0.2,0.9-0.5c0.3-0.4,0.5-1.3,0.8-2.8s0.6-3.6,0.9-6.2
					h5.2v10.5H129.7z"/>
				<path class="st78" d="M141.5,237.3h-1.2v-4.8h-5.4v4.8h-1.2v-10.5h1.2v4.6h5.4v-4.6h1.2V237.3z"/>
				<path class="st78" d="M151.6,237.3h-1.2v-4.5h-1.5c-0.3,0-0.6,0.1-0.8,0.2c-0.2,0.2-0.5,0.5-0.7,1.1l-1.3,3.2h-1.5l1.6-3.5
					c0.1-0.2,0.3-0.5,0.5-0.7c0.2-0.3,0.5-0.4,0.7-0.5l0,0c-0.7-0.2-1.2-0.5-1.6-1c-0.4-0.5-0.6-1.1-0.6-1.8c0-0.9,0.3-1.6,0.9-2.1
					c0.6-0.5,1.4-0.8,2.4-0.8h3v10.4H151.6z M150.4,231.7v-3.8h-1.7c-0.7,0-1.2,0.2-1.6,0.5s-0.6,0.8-0.6,1.4s0.2,1.1,0.6,1.4
					c0.4,0.3,0.9,0.5,1.6,0.5L150.4,231.7L150.4,231.7z"/>
				<path class="st78" d="M164,237.3h-1.2v-7.6c0-0.7,0-1.2,0.1-1.4l0,0c-0.1,0.2-0.2,0.5-0.3,0.7l-5.4,8.4h-1.5v-10.5h1.2v7.4
					c0,0.8,0,1.3-0.1,1.5l0,0c0.1-0.2,0.2-0.4,0.4-0.7l5.3-8.2h1.6v10.4H164z M162.5,223.6c-0.1,0.7-0.4,1.2-0.8,1.6
					c-0.5,0.4-1.1,0.6-1.8,0.6s-1.3-0.2-1.8-0.6c-0.5-0.4-0.7-0.9-0.8-1.6h1.2c0.1,0.9,0.5,1.4,1.4,1.4c0.4,0,0.7-0.1,1-0.4
					c0.3-0.2,0.4-0.6,0.5-1H162.5z"/>
				<path class="st78" d="M174.2,227.9h-3v9.4H170v-9.4h-3v-1.1h7.3v1.1H174.2z"/>
				<path class="st78" d="M182.6,237.3H177v-10.5h5.3v1.1h-4.1v3.5h3.8v1.1h-3.8v3.7h4.3v1.1H182.6z"/>
				<path class="st78" d="M73.5,255.3v-10.5h5.6v1.1h-4.4v3.3h2c1,0,1.9,0.3,2.4,0.8c0.6,0.5,0.9,1.2,0.9,2.2s-0.3,1.7-0.9,2.3
					s-1.4,0.8-2.5,0.8L73.5,255.3L73.5,255.3z M74.8,250.4v3.8h1.7c0.7,0,1.3-0.2,1.7-0.5s0.6-0.8,0.6-1.4c0-1.3-0.8-1.9-2.3-1.9
					L74.8,250.4L74.8,250.4z"/>
				<path class="st78" d="M91.5,255.3h-1.4l-1.1-2.9h-4.5l-1,2.9h-1.4l4-10.5h1.3L91.5,255.3z M88.6,251.2l-1.6-4.5
					c-0.1-0.1-0.1-0.4-0.2-0.7l0,0c0,0.3-0.1,0.5-0.2,0.7l-1.6,4.5H88.6z"/>
				<path class="st78" d="M102.1,255.3h-1.2v-4.8h-5.4v4.8h-1.2v-10.5h1.2v4.6h5.4v-4.6h1.2V255.3z"/>
				<path class="st78" d="M113.4,255.3h-1.7l-4.1-4.8c-0.2-0.2-0.2-0.3-0.3-0.4l0,0v5.2H106v-10.5h1.2v4.9l0,0
					c0.1-0.1,0.2-0.2,0.3-0.4l3.9-4.6h1.5l-4.5,5L113.4,255.3z"/>
				<path class="st78" d="M120.2,255.5c-1.5,0-2.7-0.5-3.6-1.5s-1.3-2.3-1.3-3.8c0-1.7,0.5-3,1.4-4s2.2-1.5,3.7-1.5s2.6,0.5,3.5,1.5
					s1.3,2.3,1.3,3.8c0,1.7-0.5,3.1-1.4,4.1S121.7,255.5,120.2,255.5z M120.3,245.7c-1.1,0-2,0.4-2.7,1.2s-1,1.8-1,3.1
					s0.3,2.3,1,3.1s1.5,1.2,2.6,1.2c1.2,0,2.1-0.4,2.7-1.1c0.7-0.8,1-1.8,1-3.2s-0.3-2.5-1-3.2S121.4,245.7,120.3,245.7z"/>
				<path class="st78" d="M128.5,255.3v-10.5h3c0.9,0,1.6,0.2,2.2,0.7s0.8,1,0.8,1.7c0,0.6-0.2,1.1-0.5,1.6s-0.8,0.8-1.3,0.9l0,0
					c0.7,0.1,1.3,0.4,1.7,0.8c0.4,0.5,0.6,1,0.6,1.8c0,0.9-0.3,1.6-1,2.2s-1.5,0.8-2.4,0.8H128.5z M129.7,245.9v3.4h1.3
					c0.7,0,1.2-0.2,1.6-0.5c0.4-0.3,0.6-0.8,0.6-1.4c0-1-0.7-1.5-2-1.5H129.7z M129.7,250.4v3.8h1.7c0.7,0,1.3-0.2,1.7-0.5
					s0.6-0.8,0.6-1.4c0-1.2-0.8-1.9-2.5-1.9L129.7,250.4L129.7,250.4z"/>
				<path class="st78" d="M145.4,254.9c-0.8,0.4-1.7,0.6-2.9,0.6c-1.5,0-2.7-0.5-3.6-1.4c-0.9-1-1.3-2.2-1.3-3.8
					c0-1.7,0.5-3,1.5-4.1s2.3-1.6,3.8-1.6c1,0,1.8,0.1,2.5,0.4v1.3c-0.8-0.4-1.6-0.6-2.5-0.6c-1.2,0-2.2,0.4-2.9,1.2
					s-1.1,1.9-1.1,3.2s0.4,2.3,1.1,3.1c0.7,0.8,1.6,1.1,2.8,1.1c1.1,0,2-0.2,2.7-0.7v1.3H145.4z"/>
				<path class="st78" d="M156.1,255.3h-1.7l-4.1-4.8c-0.2-0.2-0.2-0.3-0.3-0.4l0,0v5.2h-1.2v-10.5h1.2v4.9l0,0
					c0.1-0.1,0.2-0.2,0.3-0.4l3.9-4.6h1.5l-4.5,5L156.1,255.3z"/>
				<path class="st78" d="M167.1,255.3h-1.2v-7.6c0-0.7,0-1.2,0.1-1.4l0,0c-0.1,0.2-0.2,0.5-0.3,0.7l-5.4,8.4h-1.5v-10.5h1.2v7.4
					c0,0.8,0,1.3-0.1,1.5l0,0c0.1-0.2,0.2-0.4,0.4-0.7l5.3-8.2h1.6v10.4H167.1z"/>
				<path class="st78" d="M176.6,255.3H171v-10.5h5.3v1.1h-4.1v3.5h3.8v1.1h-3.8v3.7h4.3v1.1H176.6z"/>
				<path class="st78" d="M192.5,255.3h-1.7l-4.1-4.8c-0.2-0.2-0.2-0.3-0.3-0.4l0,0v5.2h-1.2v-10.5h1.2v4.9l0,0
					c0.1-0.1,0.2-0.2,0.3-0.4l3.9-4.6h1.5l-4.5,5L192.5,255.3z"/>
				<path class="st78" d="M203.2,255.3h-1.4l-1.1-2.9h-4.5l-1,2.9h-1.4l4-10.5h1.3L203.2,255.3z M200.3,251.2l-1.6-4.5
					c-0.1-0.1-0.1-0.4-0.2-0.7l0,0c0,0.3-0.1,0.5-0.2,0.7l-1.6,4.5H200.3z"/>
				<path class="st78" d="M207.2,251.3v4H206v-10.5h2.9c1.1,0,2,0.3,2.6,0.8s0.9,1.3,0.9,2.3s-0.3,1.8-1,2.4c-0.7,0.6-1.6,1-2.8,1
					H207.2z M207.2,245.9v4.3h1.3c0.8,0,1.5-0.2,1.9-0.6c0.4-0.4,0.7-0.9,0.7-1.6c0-1.4-0.8-2.1-2.5-2.1L207.2,245.9L207.2,245.9z"
					/>
				<path class="st78" d="M221.8,245.9h-3v9.4h-1.2v-9.4h-3v-1.1h7.3v1.1H221.8z"/>
				<path class="st78" d="M224.6,255.3v-10.5h1.2v4.5h2c1,0,1.9,0.3,2.4,0.8c0.6,0.5,0.9,1.2,0.9,2.2s-0.3,1.7-0.9,2.3
					s-1.4,0.8-2.5,0.8h-3.1V255.3z M225.8,250.4v3.8h1.7c0.7,0,1.3-0.2,1.7-0.5s0.6-0.8,0.6-1.4c0-1.3-0.8-1.9-2.3-1.9L225.8,250.4
					L225.8,250.4z M233.6,255.3h-1.2v-10.5h1.2V255.3z"/>
				<path class="st78" d="M81.4,273.3h-1.2v-4.8h-5.4v4.8h-1.2v-10.5h1.2v4.6h5.4v-4.6h1.2V273.3z"/>
				<path class="st78" d="M93.5,273.3h-1.4l-1.1-2.9h-4.5l-1,2.9h-1.4l4-10.5h1.3L93.5,273.3z M90.6,269.2l-1.6-4.5
					c-0.1-0.1-0.1-0.4-0.2-0.7l0,0c0,0.3-0.1,0.5-0.2,0.7l-1.6,4.5H90.6z"/>
				<path class="st78" d="M101.6,273.3v-10.5h3c0.9,0,1.6,0.2,2.2,0.7s0.8,1,0.8,1.7c0,0.6-0.2,1.1-0.5,1.6s-0.8,0.8-1.3,0.9l0,0
					c0.7,0.1,1.3,0.4,1.7,0.8c0.4,0.5,0.6,1,0.6,1.8c0,0.9-0.3,1.6-1,2.2s-1.5,0.8-2.4,0.8H101.6z M102.8,263.9v3.4h1.3
					c0.7,0,1.2-0.2,1.6-0.5s0.6-0.8,0.6-1.4c0-1-0.7-1.5-2-1.5H102.8z M102.8,268.4v3.8h1.7c0.7,0,1.3-0.2,1.7-0.5s0.6-0.8,0.6-1.4
					c0-1.2-0.8-1.9-2.5-1.9H102.8z"/>
				<path class="st78" d="M111.4,273.3v-10.5h1.2v4.5h2c1,0,1.9,0.3,2.4,0.8c0.6,0.5,0.9,1.2,0.9,2.2s-0.3,1.7-0.9,2.3
					s-1.4,0.8-2.5,0.8L111.4,273.3L111.4,273.3z M112.6,268.4v3.8h1.7c0.7,0,1.3-0.2,1.7-0.5s0.6-0.8,0.6-1.4c0-1.3-0.8-1.9-2.3-1.9
					H112.6z M120.4,273.3h-1.2v-10.5h1.2V273.3z"/>
				<path class="st78" d="M129.8,263.9h-4.2v9.4h-1.2v-10.5h5.4V263.9z"/>
				<path class="st78" d="M136.8,273.5c-1.5,0-2.7-0.5-3.6-1.5c-0.9-1-1.3-2.3-1.3-3.8c0-1.7,0.5-3,1.4-4s2.2-1.5,3.7-1.5
					s2.6,0.5,3.5,1.5s1.3,2.3,1.3,3.8c0,1.7-0.5,3.1-1.4,4.1S138.4,273.5,136.8,273.5z M136.9,263.7c-1.1,0-2,0.4-2.7,1.2
					s-1,1.8-1,3.1s0.3,2.3,1,3.1c0.7,0.8,1.5,1.2,2.6,1.2c1.2,0,2.1-0.4,2.7-1.1c0.7-0.8,1-1.8,1-3.2c0-1.4-0.3-2.5-1-3.2
					S138.1,263.7,136.9,263.7z"/>
				<path class="st78" d="M153.6,276.1h-1.1v-2.8H145v2.8h-1.1v-3.9h0.8c0.7-1.3,1.3-2.8,1.8-4.5s0.8-3.3,0.8-4.9h4.9v9.4h1.4
					L153.6,276.1L153.6,276.1z M151,272.2v-8.3h-2.7c-0.1,1.2-0.3,2.6-0.8,4.2s-1,3-1.5,4L151,272.2L151,272.2z"/>
				<path class="st78" d="M164.6,273.3h-1.2v-4.8H158v4.8h-1.2v-10.5h1.2v4.6h5.4v-4.6h1.2V273.3z"/>
				<path class="st78" d="M168.6,273.3v-10.5h1.2v4.5h2c1,0,1.9,0.3,2.4,0.8c0.6,0.5,0.9,1.2,0.9,2.2s-0.3,1.7-0.9,2.3
					s-1.4,0.8-2.5,0.8L168.6,273.3L168.6,273.3z M169.8,268.4v3.8h1.7c0.7,0,1.3-0.2,1.7-0.5s0.6-0.8,0.6-1.4c0-1.3-0.8-1.9-2.3-1.9
					H169.8z M177.5,273.3h-1.2v-10.5h1.2V273.3z"/>
				<path class="st78" d="M188.8,273.3h-1.5l-2.4-4c-0.1-0.1-0.2-0.3-0.2-0.5l0,0c0,0.1-0.1,0.3-0.2,0.5l-2.5,4h-1.5l3.5-5.3
					l-3.2-5.2h1.5l2.1,3.7c0.1,0.2,0.3,0.5,0.4,0.7l0,0c0.2-0.3,0.3-0.6,0.4-0.8l2.2-3.7h1.4l-3.3,5.2L188.8,273.3z"/>
				<path class="st78" d="M204.1,262.8l-3.2,7.3c-0.6,1.3-1.1,2.2-1.7,2.7s-1.1,0.7-1.8,0.7c-0.5,0-1-0.1-1.3-0.2V272
					c0.4,0.2,0.8,0.4,1.2,0.4s0.8-0.2,1.1-0.5s0.7-0.8,1.1-1.6l-3.6-7.5h1.4l2.5,5.6c0,0.1,0.1,0.3,0.3,0.7l0,0c0,0,0.1-0.3,0.3-0.7
					l2.3-5.6H204.1z"/>
				<path class="st78" d="M213.7,272.9c-0.8,0.4-1.7,0.6-2.9,0.6c-1.5,0-2.7-0.5-3.6-1.4c-0.9-1-1.3-2.2-1.3-3.8
					c0-1.7,0.5-3,1.5-4.1s2.3-1.6,3.8-1.6c1,0,1.8,0.1,2.5,0.4v1.3c-0.8-0.4-1.6-0.6-2.5-0.6c-1.2,0-2.2,0.4-2.9,1.2
					c-0.7,0.8-1.1,1.9-1.1,3.2c0,1.3,0.4,2.3,1.1,3.1c0.7,0.8,1.6,1.1,2.8,1.1c1.1,0,2-0.2,2.7-0.7v1.3H213.7z"/>
				<path class="st78" d="M224.4,273.3h-1.2v-9.4h-2.9c-0.3,2.6-0.6,4.5-0.8,5.6s-0.4,1.9-0.6,2.4s-0.5,0.9-0.8,1.2
					c-0.3,0.3-0.8,0.4-1.2,0.4s-0.7-0.1-1-0.2v-1.2c0.2,0.1,0.5,0.2,0.8,0.2s0.6-0.2,0.9-0.5c0.3-0.4,0.5-1.3,0.8-2.8
					s0.6-3.6,0.9-6.2h5.2L224.4,273.3L224.4,273.3z"/>
				<path class="st78" d="M232.6,273.5c-1.5,0-2.7-0.5-3.6-1.5c-0.9-1-1.3-2.3-1.3-3.8c0-1.7,0.5-3,1.4-4s2.2-1.5,3.7-1.5
					s2.6,0.5,3.5,1.5s1.3,2.3,1.3,3.8c0,1.7-0.5,3.1-1.4,4.1S234.1,273.5,232.6,273.5z M232.7,263.7c-1.1,0-2,0.4-2.7,1.2
					s-1,1.8-1,3.1s0.3,2.3,1,3.1c0.7,0.8,1.5,1.2,2.6,1.2c1.2,0,2.1-0.4,2.7-1.1c0.7-0.8,1-1.8,1-3.2c0-1.4-0.3-2.5-1-3.2
					S233.8,263.7,232.7,263.7z"/>
				<path class="st78" d="M240.9,273.3v-10.5h3c0.9,0,1.6,0.2,2.2,0.7s0.8,1,0.8,1.7c0,0.6-0.2,1.1-0.5,1.6s-0.8,0.8-1.3,0.9l0,0
					c0.7,0.1,1.3,0.4,1.7,0.8c0.4,0.5,0.6,1,0.6,1.8c0,0.9-0.3,1.6-1,2.2s-1.5,0.8-2.4,0.8H240.9z M242.1,263.9v3.4h1.3
					c0.7,0,1.2-0.2,1.6-0.5c0.4-0.3,0.6-0.8,0.6-1.4c0-1-0.7-1.5-2-1.5H242.1z M242.1,268.4v3.8h1.7c0.7,0,1.3-0.2,1.7-0.5
					s0.6-0.8,0.6-1.4c0-1.2-0.8-1.9-2.5-1.9H242.1z"/>
				<path class="st78" d="M259.1,273.3h-1.2v-7.6c0-0.7,0-1.2,0.1-1.4l0,0c-0.1,0.2-0.2,0.5-0.3,0.7l-5.4,8.4h-1.5v-10.5h1.2v7.4
					c0,0.8,0,1.3-0.1,1.5l0,0c0.1-0.2,0.2-0.4,0.4-0.7l5.3-8.2h1.6v10.4H259.1z"/>
				<path class="st78" d="M269.2,273.3H268v-4.5h-1.5c-0.3,0-0.6,0.1-0.8,0.2c-0.2,0.2-0.5,0.5-0.7,1.1l-1.3,3.2h-1.5l1.6-3.5
					c0.1-0.2,0.3-0.5,0.5-0.7c0.2-0.3,0.5-0.4,0.7-0.5l0,0c-0.7-0.2-1.2-0.5-1.6-1s-0.6-1.1-0.6-1.8c0-0.9,0.3-1.6,0.9-2.1
					s1.4-0.8,2.4-0.8h3v10.4H269.2z M268,267.7v-3.8h-1.7c-0.7,0-1.2,0.2-1.6,0.5s-0.6,0.8-0.6,1.4s0.2,1.1,0.6,1.4s0.9,0.5,1.6,0.5
					H268z"/>
				<path class="st78" d="M280.4,273.3h-1.5l-2.4-4c-0.1-0.1-0.2-0.3-0.2-0.5l0,0c0,0.1-0.1,0.3-0.2,0.5l-2.5,4H272l3.5-5.3
					l-3.2-5.2h1.5l2.1,3.7c0.1,0.2,0.3,0.5,0.4,0.7l0,0c0.2-0.3,0.3-0.6,0.4-0.8l2.2-3.7h1.4l-3.3,5.2L280.4,273.3z"/>
			</g>
		</g>
	</g>
</g>
</svg>
