<?xml version="1.0" encoding="utf-8"?>
<!-- Generator: Adobe Illustrator 21.1.0, SVG Export Plug-In . SVG Version: 6.00 Build 0)  -->
<svg version="1.1" id="Wallet-72x72_1_" xmlns="http://www.w3.org/2000/svg" xmlns:xlink="http://www.w3.org/1999/xlink" x="0px"
	 y="0px" viewBox="0 0 72 72" style="enable-background:new 0 0 72 72;" xml:space="preserve">
<style type="text/css">
	.st0{fill:#FFEEDF;}
	.st1{fill:#FFA400;}
	.st2{fill:#E35D29;}
	.st3{fill:#5DD43E;}
	.st4{fill:#2E353F;}
	.st5{fill:#B5C0D1;}
</style>
<g id="Wallet-72x72">
	<circle id="Oval" class="st0" cx="36" cy="36" r="36"/>
	<g id="Group-48-Copy-2" transform="translate(18.000000, 17.000000)">
		<path id="Rectangle-Copy-171" class="st1" d="M2.5,6.9h29.4c1.4,0,2.5,1.1,2.5,2.5v26.1c0,1.4-1.1,2.5-2.5,2.5H2.5
			C1.1,38.1,0,37,0,35.6V9.4C0,8,1.1,6.9,2.5,6.9z"/>
		<path id="Rectangle-Copy-172" class="st2" d="M3.1,8.6h28.2c0.9,0,1.6,0.7,1.6,1.6l0,0c0,0.9-0.7,1.6-1.6,1.6H3.1
			c-0.9,0-1.6-0.7-1.6-1.6l0,0C1.6,9.3,2.3,8.6,3.1,8.6z"/>
		<path id="Rectangle" class="st3" d="M19.6,1.9l8.6,9.8H6.3l8.6-9.8C16,0.6,18,0.5,19.3,1.6C19.4,1.7,19.5,1.8,19.6,1.9z"/>
		<path id="Rectangle-Copy-174" class="st4" d="M26,20.3h7.5c1.4,0,2.5,1.1,2.5,2.5v4.3c0,1.4-1.1,2.5-2.5,2.5H26
			c-1.4,0-2.5-1.1-2.5-2.5v-4.3C23.5,21.4,24.6,20.3,26,20.3z"/>
		<ellipse id="Oval-Copy-75" class="st5" cx="29.7" cy="25" rx="2.3" ry="2.3"/>
	</g>
</g>
</svg>
