<?xml version="1.0" encoding="utf-8"?>
<!-- Generator: Adobe Illustrator 21.1.0, SVG Export Plug-In . SVG Version: 6.00 Build 0)  -->
<svg version="1.1" id="Internet-72x72_1_" xmlns="http://www.w3.org/2000/svg" xmlns:xlink="http://www.w3.org/1999/xlink" x="0px"
	 y="0px" viewBox="0 0 72 72" style="enable-background:new 0 0 72 72;" xml:space="preserve">
<style type="text/css">
	.st0{fill:#DAEAFF;}
	.st1{fill:#3D91FF;}
	.st2{fill:#FFFFFF;}
	.st3{fill:none;stroke:#FFFFFF;stroke-width:3.1304;stroke-linecap:round;}
</style>
<g id="Internet-72x72">
	<circle id="Oval-Copy-22" class="st0" cx="36" cy="36" r="36"/>
	<g id="Group-64-Copy-2" transform="translate(14.000000, 15.000000)">
		<path id="Rectangle-Copy-116" class="st1" d="M3.3,7.9c4.9-4.3,11.1-6.5,18.5-6.5s13.5,2.2,18.5,6.5l0,0c4.4,3.9,5,10.5,1.3,15.1
			L29.1,38.6c-3.2,4.1-9.1,4.7-13.2,1.5c-0.5-0.4-1-0.9-1.5-1.5L2,23C-1.7,18.4-1.1,11.7,3.3,7.9z"/>
		<g id="Group-59" transform="translate(9.310345, 3.111111)">
			
				<ellipse id="Oval-Copy-68" transform="matrix(0.7071 -0.7071 0.7071 0.7071 -16.572 17.1483)" class="st2" cx="12.4" cy="28.6" rx="2.6" ry="2.6"/>
			<path id="Path" class="st3" d="M17.4,22.7c-2.7-2.7-7.1-2.7-9.9,0"/>
			<path id="Path_1_" class="st3" d="M21.1,18c-4.8-4.7-12.5-4.7-17.3,0"/>
			<path id="Path_2_" class="st3" d="M24.8,12.4c-6.8-6.7-17.9-6.7-24.7,0"/>
		</g>
	</g>
</g>
</svg>
